<?xml version="1.0" encoding="UTF-8"?>
<!-- Generated by Pixelmator Pro 3.7 -->
<svg width="360" height="538" viewBox="0 0 360 538" xmlns="http://www.w3.org/2000/svg">
    <g id="g17-copy">
        <path id="path23931" fill="#ffffff" stroke="none" d="M 17.530308 537.20166 L 340.606476 537.20166 C 349.864624 537.20166 357.37204 529.697632 357.37204 520.440308 L 357.37204 19.102661 C 357.37204 9.845337 349.864624 2.340698 340.606476 2.340698 L 17.530308 2.340698 C 8.27199 2.340698 0.767612 9.845337 0.767612 19.102661 L 0.767612 520.440308 C 0.767612 529.697632 8.27199 537.20166 17.530308 537.20166 Z"/>
        <path id="path23932" fill="#000000" stroke="none" d="M 26.021519 53.232513 C 26.887629 49.185822 28.187971 46.208435 29.891737 44.377319 C 31.344288 42.819672 33.249931 42.09137 35.878906 42.09137 L 54.640186 42.09137 C 43.684166 62.280334 37.002121 76.553284 34.255623 85.612061 C 31.241749 95.548676 29.708715 104.077179 29.708715 110.962677 C 29.708715 115.228943 30.695549 118.286133 32.709961 120.288513 C 34.668304 122.258392 37.18531 123.297546 39.991077 123.297546 C 43.315094 123.297546 45.847588 122.280304 47.5298 120.26712 C 49.050545 118.430969 49.755016 115.802338 49.755016 111.990051 L 49.714439 102.155304 C 49.407158 100.00827 49.242661 98.316589 49.242661 97.085297 C 49.242661 89.392029 51.309772 80.119385 55.393993 69.524323 C 59.571659 58.667114 65.251045 47.397308 72.271858 36.031189 L 72.886078 35.035126 L 72.886078 26.158905 L 19.029331 26.158905 L 14.181372 55.234711 L 25.195986 57.071411 L 26.021519 53.232513 Z"/>
        <path id="path23933" fill="#000000" stroke="none" d="M 145.671814 143.40387 C 144.374664 143.40387 143.145538 143.670258 141.997238 144.098145 C 143.623718 142.241089 144.641373 139.83844 144.641373 137.177124 C 144.641373 131.345123 139.911438 126.616608 134.080017 126.616608 C 128.245224 126.616608 123.518318 131.345123 123.518318 137.177124 C 123.518318 139.83844 124.536636 142.241089 126.159752 144.098145 C 125.011116 143.670258 123.785355 143.40387 122.488213 143.40387 C 116.653419 143.40387 111.926353 148.132202 111.926353 153.963715 C 111.926353 159.796722 116.653419 164.524719 122.488213 164.524719 C 126.091393 164.524719 129.263199 162.713989 131.171875 159.959381 C 131.82988 159.382813 132.661636 159.041473 133.570847 158.925598 L 133.570847 161.798584 C 133.570847 166.71875 129.582779 170.706482 124.663589 170.706482 L 124.663589 171.740082 L 143.496429 171.740082 L 143.496429 170.706482 C 138.574219 170.706482 134.586136 166.71875 134.586136 161.798584 L 134.586136 158.925598 C 135.495346 159.040619 136.326782 159.381958 136.987808 159.958374 C 138.893784 162.713135 142.068634 164.524719 145.671814 164.524719 C 151.503571 164.524719 156.233505 159.796722 156.233505 153.963715 C 156.233505 148.132202 151.503571 143.40387 145.671814 143.40387 Z"/>
        <path id="path23934" fill="#000000" stroke="none" d="M 145.671814 263.947327 C 144.374664 263.947327 143.145538 264.21405 141.997238 264.642303 C 143.623718 262.783539 144.641373 260.381744 144.641373 257.718933 C 144.641373 251.887604 139.911438 247.160919 134.080017 247.160919 C 128.245224 247.160919 123.518318 251.887604 123.518318 257.718933 C 123.518318 260.381744 124.536636 262.783539 126.159752 264.642303 C 125.011116 264.21405 123.785355 263.947327 122.488213 263.947327 C 116.653419 263.947327 111.926353 268.676697 111.926353 274.508026 C 111.926353 280.339172 116.653419 285.068695 122.488213 285.068695 C 126.091393 285.068695 129.263199 283.256439 131.171875 280.503693 C 131.82988 279.92627 132.661636 279.585114 133.570847 279.467072 L 133.570847 282.340881 C 133.570847 287.262695 129.582779 291.25061 124.663589 291.25061 L 124.663589 292.280884 L 143.496429 292.280884 L 143.496429 291.25061 C 138.574219 291.25061 134.586136 287.262695 134.586136 282.340881 L 134.586136 279.467072 C 135.495346 279.582062 136.326782 279.923248 136.987808 280.500671 C 138.893784 283.256439 142.068634 285.068695 145.671814 285.068695 C 151.503571 285.068695 156.233505 280.339172 156.233505 274.508026 C 156.233505 268.676697 151.503571 263.947327 145.671814 263.947327 Z"/>
        <path id="path23935" fill="#000000" stroke="none" d="M 145.671814 374.917419 C 142.068634 374.917419 138.893784 376.726624 136.987808 379.482574 C 136.326782 380.059509 135.498383 380.401184 134.589172 380.515839 L 134.589172 377.642212 C 134.589172 372.723389 138.577255 368.735291 143.496429 368.735291 L 143.496429 367.702026 L 124.663589 367.702026 L 124.663589 368.735291 C 129.582779 368.735291 133.573883 372.723389 133.573883 377.642212 L 133.573883 380.515839 C 132.664673 380.401184 131.832901 380.059509 131.171875 379.482574 C 129.266235 376.729675 126.091393 374.917419 122.488213 374.917419 C 116.656448 374.917419 111.926353 379.643738 111.926353 385.478271 C 111.926353 391.309265 116.656448 396.03894 122.488213 396.03894 C 123.785355 396.03894 125.014481 395.771881 126.159752 395.343811 C 124.536636 397.199524 123.518318 399.604706 123.518318 402.26416 C 123.518318 408.095337 128.248581 412.824829 134.080017 412.824829 C 139.911438 412.824829 144.641373 408.095337 144.641373 402.26416 C 144.641373 399.604706 143.623718 397.199524 141.997238 395.343811 C 143.148911 395.771881 144.374664 396.03894 145.671814 396.03894 C 151.503571 396.03894 156.233505 391.309265 156.233505 385.478271 C 156.233505 379.643738 151.503571 374.917419 145.671814 374.917419 Z"/>
        <path id="path23936" fill="#000000" stroke="none" d="M 235.651596 143.40387 C 234.354462 143.40387 233.125336 143.670258 231.980072 144.098145 C 233.60318 142.241089 234.621155 139.83844 234.621155 137.177124 C 234.621155 131.345123 229.891235 126.616608 224.059799 126.616608 C 218.225006 126.616608 213.498444 131.345123 213.498444 137.177124 C 213.498444 139.83844 214.516098 142.241089 216.139206 144.098145 C 214.991241 143.670258 213.765152 143.40387 212.468002 143.40387 C 206.632874 143.40387 201.906311 148.132202 201.906311 153.963715 C 201.906311 159.796722 206.632874 164.524719 212.468002 164.524719 C 216.070847 164.524719 219.246368 162.713989 221.151672 159.959381 C 221.809677 159.382813 222.641769 159.041473 223.55098 158.925598 L 223.55098 161.798584 C 223.55098 166.71875 219.562561 170.706482 214.643387 170.706482 L 214.643387 171.740082 L 233.476227 171.740082 L 233.476227 170.706482 C 228.55368 170.706482 224.565598 166.71875 224.565598 161.798584 L 224.565598 158.925598 C 225.475143 159.040619 226.306915 159.381958 226.967941 159.958374 C 228.873245 162.713135 232.048431 164.524719 235.651596 164.524719 C 241.483368 164.524719 246.213287 159.796722 246.213287 153.963715 C 246.213287 148.132202 241.483368 143.40387 235.651596 143.40387 Z"/>
        <path id="path23937" fill="#000000" stroke="none" d="M 235.651596 263.947327 C 234.354462 263.947327 233.125336 264.21405 231.980072 264.642303 C 233.60318 262.783539 234.621155 260.381744 234.621155 257.718933 C 234.621155 251.887604 229.891235 247.160919 224.059799 247.160919 C 218.225006 247.160919 213.498444 251.887604 213.498444 257.718933 C 213.498444 260.381744 214.516098 262.783539 216.139206 264.642303 C 214.991241 264.21405 213.765152 263.947327 212.468002 263.947327 C 206.632874 263.947327 201.906311 268.676697 201.906311 274.508026 C 201.906311 280.339172 206.632874 285.068695 212.468002 285.068695 C 216.070847 285.068695 219.246368 283.256439 221.151672 280.503693 C 221.809677 279.92627 222.641769 279.585114 223.55098 279.467072 L 223.55098 282.340881 C 223.55098 287.262695 219.562561 291.25061 214.643387 291.25061 L 214.643387 292.280884 L 233.476227 292.280884 L 233.476227 291.25061 C 228.55368 291.25061 224.565598 287.262695 224.565598 282.340881 L 224.565598 279.467072 C 225.475143 279.582062 226.306915 279.923248 226.967941 280.500671 C 228.873245 283.256439 232.048431 285.068695 235.651596 285.068695 C 241.483368 285.068695 246.213287 280.339172 246.213287 274.508026 C 246.213287 268.676697 241.483368 263.947327 235.651596 263.947327 Z"/>
        <path id="path23938" fill="#000000" stroke="none" d="M 235.651596 374.917419 C 232.048431 374.917419 228.876617 376.726624 226.967941 379.482574 C 226.309937 380.059509 225.47818 380.401184 224.568634 380.515839 L 224.568634 377.642212 C 224.568634 372.723389 228.557037 368.735291 233.476227 368.735291 L 233.476227 367.702026 L 214.643387 367.702026 L 214.643387 368.735291 C 219.565933 368.735291 223.554016 372.723389 223.554016 377.642212 L 223.554016 380.515839 C 222.644806 380.401184 221.812698 380.059509 221.151672 379.482574 C 219.246368 376.729675 216.070847 374.917419 212.468002 374.917419 C 206.63591 374.917419 201.906311 379.643738 201.906311 385.478271 C 201.906311 391.309265 206.63591 396.03894 212.468002 396.03894 C 213.765152 396.03894 214.994278 395.771881 216.139206 395.343811 C 214.516098 397.199524 213.498444 399.604706 213.498444 402.26416 C 213.498444 408.095337 218.228043 412.824829 224.059799 412.824829 C 229.891235 412.824829 234.621155 408.095337 234.621155 402.26416 C 234.621155 399.604706 233.60318 397.199524 231.980072 395.343811 C 233.128372 395.771881 234.354462 396.03894 235.651596 396.03894 C 241.483368 396.03894 246.213287 391.309265 246.213287 385.478271 C 246.213287 379.643738 241.483368 374.917419 235.651596 374.917419 Z"/>
        <path id="path23939" fill="#000000" stroke="none" d="M 190.662048 204.936707 C 189.364563 204.936707 188.135437 205.203613 186.990509 205.631836 C 188.613617 203.772919 189.631256 201.370941 189.631256 198.711487 C 189.631256 192.877136 184.901672 188.150787 179.069916 188.150787 C 173.235123 188.150787 168.508209 192.877136 168.508209 198.711487 C 168.508209 201.370941 169.526535 203.772919 171.149643 205.631836 C 170.001343 205.203613 168.775253 204.936707 167.478119 204.936707 C 161.643326 204.936707 156.916412 209.666229 156.916412 215.497559 C 156.916412 221.328705 161.643326 226.058411 167.478119 226.058411 C 171.081284 226.058411 174.253098 224.245972 176.161774 221.493225 C 176.819778 220.915985 177.651535 220.574646 178.560745 220.459961 L 178.560745 223.330414 C 178.560745 228.252258 174.572662 232.240173 169.653488 232.240173 L 169.653488 233.270752 L 188.486328 233.270752 L 188.486328 232.240173 C 183.563782 232.240173 179.575699 228.252258 179.575699 223.330414 L 179.575699 220.459961 C 180.484909 220.574646 181.317017 220.915985 181.978043 221.493225 C 183.883682 224.245972 187.058533 226.058411 190.662048 226.058411 C 196.493469 226.058411 201.223404 221.328705 201.223404 215.497559 C 201.223404 209.666229 196.493469 204.936707 190.662048 204.936707 Z"/>
        <path id="path23940" fill="#000000" stroke="none" d="M 58.507038 158.765625 C 56.831223 158.765625 55.245319 159.109009 53.76162 159.661835 C 55.859543 157.263733 57.175713 154.160217 57.175713 150.723114 C 57.175713 143.190826 51.067654 137.084167 43.535324 137.084167 C 35.99963 137.084167 29.895103 143.190826 29.895103 150.723114 C 29.895103 154.160217 31.207739 157.263733 33.305664 159.661835 C 31.8223 159.109009 30.239595 158.765625 28.563442 158.765625 C 21.031115 158.765625 14.923222 164.872284 14.923222 172.404083 C 14.923222 179.935852 21.031115 186.043335 28.563442 186.043335 C 33.215752 186.043335 37.315632 183.703339 39.776737 180.147003 C 40.630219 179.402222 41.704269 178.9617 42.877491 178.8125 L 42.877491 182.521027 C 42.877491 188.876923 37.725285 194.028442 31.375439 194.028442 L 31.375439 195.359772 L 55.695381 195.359772 L 55.695381 194.028442 C 49.338966 194.028442 44.187096 188.876923 44.187096 182.521027 L 44.187096 178.8125 C 45.36335 178.9617 46.437061 179.402222 47.290714 180.147003 C 49.751987 183.703339 53.851696 186.043335 58.507038 186.043335 C 66.039703 186.043335 72.147598 179.935852 72.147598 172.404083 C 72.147598 164.872284 66.039703 158.765625 58.507038 158.765625 Z"/>
        <path id="path23941" fill="#000000" stroke="none" d="M 332.118134 486.309631 C 331.25235 490.356171 329.948486 493.335571 328.247925 495.166504 C 326.795532 496.724487 324.889893 497.450806 322.261261 497.450806 L 303.499786 497.450806 C 314.455475 477.263 321.137512 462.990906 323.884033 453.931946 C 326.897888 443.995148 328.431091 435.467316 328.431091 428.580658 C 328.431091 424.313721 327.444092 421.256683 325.429688 419.255157 C 323.471497 417.284424 320.954346 416.244751 318.148895 416.244751 C 314.824554 416.244751 312.292236 417.262543 310.610168 419.276855 C 309.089111 421.114075 308.384644 423.742523 308.384644 427.553619 L 308.425385 437.388184 C 308.732483 439.535583 308.89682 441.227264 308.89682 442.458893 C 308.89682 450.152161 306.829865 459.424988 302.745819 470.02002 C 298.568146 480.875397 292.888611 492.146881 285.868134 503.511475 L 285.253906 504.50769 L 285.253906 513.38324 L 339.110321 513.38324 L 343.955414 484.30777 L 332.943817 482.473785 L 332.118134 486.309631 Z"/>
        <path id="path23942" fill="#000000" stroke="none" d="M 299.632599 380.77652 C 301.308594 380.77652 302.894318 380.435181 304.378021 379.88269 C 302.28009 382.278442 300.964111 385.381958 300.964111 388.820374 C 300.964111 396.352478 307.071991 402.459839 314.604675 402.459839 C 322.140015 402.459839 328.244537 396.352478 328.244537 388.820374 C 328.244537 385.381958 326.931915 382.278442 324.833984 379.88269 C 326.317352 380.435181 327.900391 380.77652 329.576385 380.77652 C 337.108704 380.77652 343.216583 374.672058 343.216583 367.140442 C 343.216583 359.605469 337.108704 353.50116 329.576385 353.50116 C 324.923889 353.50116 320.824005 355.83783 318.362732 359.394287 C 317.50943 360.142303 316.435547 360.582642 315.262665 360.731689 L 315.262665 357.020111 C 315.262665 350.667786 320.41452 345.512878 326.764557 345.512878 L 326.764557 344.181702 L 302.444763 344.181702 L 302.444763 345.512878 C 308.797821 345.512878 313.952728 350.667786 313.952728 357.020111 L 313.952728 360.731689 C 312.776794 360.582642 311.702576 360.142303 310.848938 359.397644 C 308.387665 355.841003 304.288116 353.50116 299.632599 353.50116 C 292.100281 353.50116 285.992401 359.605469 285.992401 367.140442 C 285.992401 374.672058 292.100281 380.77652 299.632599 380.77652 Z"/>
        <path id="path23943" fill="#000000" stroke="none" d="M 272.17807 437.903137 L 272.17807 101.5383 L 85.961578 101.5383 L 85.961578 437.903137 L 272.17807 437.903137 Z M 86.970299 102.539398 L 271.169525 102.539734 L 271.169525 436.901031 L 86.970299 436.901031 L 86.970299 102.539398 Z"/>
    </g>
</svg>
