<?xml version="1.0" encoding="UTF-8"?>
<!-- Generated by Pixelmator Pro 3.7 -->
<svg width="208" height="376" viewBox="0 0 208 376" xmlns="http://www.w3.org/2000/svg">
    <g id="Group-copy">
        <path id="Path" fill="#000000" stroke="none" d="M 207.987518 376.820465 L 207.987518 1.104004 L -0.06617 1.104004 L -0.06617 376.820465 L 207.987518 376.820465 Z M 1.061137 2.220093 L 206.860733 2.220093 L 206.860733 375.700745 L 1.061137 375.700745 L 1.061137 2.220093 Z"/>
        <path id="path1" fill="#000000" stroke="none" d="M 53.691696 29.171661 L 33.697987 49.159119 C 28.62825 54.227081 28.62825 62.445892 33.697987 67.513977 C 38.767197 72.5784 46.985527 72.5784 52.054741 67.513977 L 53.126469 66.439453 L 53.126469 68.522614 C 53.126469 73.992706 48.691696 78.4263 43.222946 78.4263 L 43.222946 79.5737 L 64.163589 79.5737 L 64.163589 78.4263 C 58.692219 78.4263 54.25692 73.992706 54.25692 68.522614 L 54.25692 66.435913 L 55.328125 67.513977 C 60.397861 72.5784 68.619858 72.5784 73.689072 67.513977 C 78.758812 62.445892 78.758812 54.227081 73.689072 49.159119 L 53.691696 29.171661 Z"/>
        <path id="path2" fill="#000000" stroke="none" d="M 55.328125 310.521484 L 54.25692 311.596008 L 54.25692 309.512756 C 54.25692 304.042755 58.692219 299.609039 64.15992 299.609039 L 64.15992 298.461792 L 43.219799 298.461792 L 43.219799 299.609039 C 48.691696 299.609039 53.130138 304.042755 53.130138 309.512756 L 53.130138 311.599548 L 52.054741 310.521484 C 46.985527 305.456818 38.767197 305.456818 33.694317 310.521484 C 28.62458 315.589325 28.62458 323.80838 33.694317 328.876068 L 53.691696 348.863556 L 73.685928 328.876068 C 78.755142 323.80838 78.755142 315.589325 73.685928 310.521484 C 68.616188 305.456818 60.397861 305.456818 55.328125 310.521484 Z"/>
        <path id="path3" fill="#000000" stroke="none" d="M 155.863464 67.513977 C 160.932678 72.5784 169.151001 72.5784 174.220749 67.513977 C 179.289948 62.445892 179.289948 54.227081 174.220749 49.159119 L 154.223358 29.171661 L 134.229126 49.159119 C 129.159927 54.227081 129.159927 62.445892 134.229126 67.513977 C 139.298874 72.5784 147.517197 72.5784 152.586411 67.513977 L 153.658142 66.439453 L 153.658142 68.522614 C 153.658142 73.992706 149.222839 78.4263 143.754608 78.4263 L 143.754608 79.5737 L 164.695267 79.5737 L 164.695267 78.4263 C 159.223358 78.4263 154.788589 73.992706 154.788589 68.522614 L 154.788589 66.435913 L 155.863464 67.513977 Z"/>
        <path id="path4" fill="#000000" stroke="none" d="M 53.691696 120.09967 L 33.697987 140.08728 C 28.62825 145.155228 28.62825 153.370758 33.697987 158.438461 C 38.767197 163.506287 46.985527 163.506287 52.054741 158.438461 L 53.126469 157.36734 L 53.126469 159.447205 C 53.126469 164.917328 48.691696 169.354324 43.222946 169.354324 L 43.222946 170.498306 L 64.163589 170.498306 L 64.163589 169.354324 C 58.692219 169.354324 54.25692 164.917328 54.25692 159.447205 L 54.25692 157.3638 L 55.328125 158.438461 C 60.397861 163.506287 68.619858 163.506287 73.689072 158.438461 C 78.758812 153.370758 78.758812 145.155228 73.689072 140.08728 L 53.691696 120.09967 Z"/>
        <path id="path5" fill="#000000" stroke="none" d="M 154.223358 120.09967 L 134.229126 140.08728 C 129.159927 145.155228 129.159927 153.370758 134.229126 158.438461 C 139.298874 163.506287 147.517197 163.506287 152.586411 158.438461 L 153.658142 157.36734 L 153.658142 159.447205 C 153.658142 164.917328 149.222839 169.354324 143.754608 169.354324 L 143.754608 170.498306 L 164.695267 170.498306 L 164.695267 169.354324 C 159.223358 169.354324 154.788589 164.917328 154.788589 159.447205 L 154.788589 157.3638 L 155.863464 158.438461 C 160.932678 163.506287 169.151001 163.506287 174.220749 158.438461 C 179.289948 153.370758 179.289948 145.155228 174.220749 140.08728 L 154.223358 120.09967 Z"/>
        <path id="path6" fill="#000000" stroke="none" d="M 103.957527 74.633881 L 83.963295 94.624908 C 78.894089 99.692871 78.894089 107.908264 83.963295 112.976227 C 89.033035 118.044189 97.251366 118.044189 102.320572 112.976227 L 103.392303 111.901703 L 103.392303 113.985107 C 103.392303 119.455078 98.957527 123.88855 93.488777 123.88855 L 93.488777 125.035797 L 114.429428 125.035797 L 114.429428 123.88855 C 108.957527 123.88855 104.522758 119.455078 104.522758 113.985107 L 104.522758 111.901703 L 105.593956 112.976227 C 110.663696 118.044189 118.88517 118.044189 123.951759 112.976227 C 129.024643 107.908264 129.024643 99.692871 123.951759 94.624908 L 103.957527 74.633881 Z"/>
        <path id="path7" fill="#000000" stroke="none" d="M 105.593956 265.059265 L 104.522758 266.133789 L 104.522758 264.050385 C 104.522758 258.580383 108.957527 254.146927 114.429428 254.146927 L 114.429428 252.99942 L 93.488777 252.99942 L 93.488777 254.146927 C 98.960678 254.146927 103.395973 258.580383 103.395973 264.050385 L 103.395973 266.133789 L 102.320572 265.059265 C 97.251366 259.991028 89.033035 259.991028 83.963295 265.059265 C 78.894089 270.127197 78.894089 278.34259 83.963295 283.410309 L 103.957527 303.401306 L 123.951759 283.410309 C 129.024643 278.34259 129.024643 270.127197 123.951759 265.059265 C 118.88517 259.991028 110.663696 259.991028 105.593956 265.059265 Z"/>
        <path id="path8" fill="#000000" stroke="none" d="M 155.859787 310.521484 L 154.788589 311.596008 L 154.788589 309.512756 C 154.788589 304.042755 159.223358 299.609039 164.691589 299.609039 L 164.691589 298.461792 L 143.754608 298.461792 L 143.754608 299.609039 C 149.226517 299.609039 153.661804 304.042755 153.661804 309.512756 L 153.661804 311.599548 L 152.586411 310.521484 C 147.517197 305.456818 139.298874 305.456818 134.229126 310.521484 C 129.159927 315.589325 129.159927 323.80838 134.229126 328.876068 L 154.223358 348.863556 L 174.220749 328.876068 C 179.289948 323.80838 179.289948 315.589325 174.220749 310.521484 C 169.151001 305.456818 160.929535 305.456818 155.859787 310.521484 Z"/>
        <path id="path9" fill="#000000" stroke="none" d="M 55.328125 223.104813 L 54.25692 224.176071 L 54.25692 222.096069 C 54.25692 216.625961 58.692219 212.19249 64.15992 212.19249 L 64.15992 211.044983 L 43.219799 211.044983 L 43.219799 212.19249 C 48.691696 212.19249 53.130138 216.625961 53.130138 222.096069 L 53.130138 224.179474 L 52.054741 223.104813 C 46.985527 218.036987 38.767197 218.036987 33.694317 223.104813 C 28.62458 228.172775 28.62458 236.388306 33.694317 241.456131 L 53.691696 261.447144 L 73.685928 241.456131 C 78.755142 236.388306 78.755142 228.172775 73.685928 223.104813 C 68.616188 218.036987 60.397861 218.036987 55.328125 223.104813 Z"/>
        <path id="path10" fill="#000000" stroke="none" d="M 155.859787 223.104813 L 154.788589 224.176071 L 154.788589 222.096069 C 154.788589 216.625961 159.223358 212.19249 164.691589 212.19249 L 164.691589 211.044983 L 143.754608 211.044983 L 143.754608 212.19249 C 149.226517 212.19249 153.661804 216.625961 153.661804 222.096069 L 153.661804 224.179474 L 152.586411 223.104813 C 147.517197 218.036987 139.298874 218.036987 134.229126 223.104813 C 129.159927 228.172775 129.159927 236.388306 134.229126 241.456131 L 154.223358 261.447144 L 174.220749 241.456131 C 179.289948 236.388306 179.289948 228.172775 174.220749 223.104813 C 169.151001 218.036987 160.929535 218.036987 155.859787 223.104813 Z"/>
    </g>
</svg>
