<?xml version="1.0" encoding="UTF-8"?>
<!-- Generated by Pixelmator Pro 3.7 -->
<svg width="360" height="539" viewBox="0 0 360 539" xmlns="http://www.w3.org/2000/svg">
    <g id="Group-copy">
        <path id="Path" fill="#ffffff" stroke="none" d="M 17.535654 538.515991 L 342.399109 538.515991 C 351.708313 538.515991 359.254639 530.973816 359.254639 521.669312 L 359.254639 17.772827 C 359.254639 8.46814 351.708313 0.925903 342.399109 0.925903 L 17.535654 0.925903 C 8.226209 0.925903 0.680356 8.46814 0.680356 17.772827 L 0.680356 521.669312 C 0.680356 530.973816 8.226209 538.515991 17.535654 538.515991 Z"/>
        <path id="path1" fill="#b4171e" stroke="none" d="M 46.34396 108.080322 C 46.34396 109.674164 45.981899 110.104614 45.981899 110.104614 C 45.978714 110.107849 45.301659 110.663055 42.726875 110.663055 L 32.90554 110.663055 L 32.90554 122.029388 L 75.286049 122.029388 L 75.286049 110.663055 L 66.501236 110.663055 C 65.053101 110.663055 63.917011 110.410278 63.296234 109.942596 C 63.093201 109.786469 62.884033 109.150085 62.884033 108.080322 L 62.884033 95.166809 L 76.837288 95.166809 L 76.837288 83.800323 L 62.884033 83.800323 L 62.884033 24.395081 L 51.296509 24.395081 L 11.715526 87.256439 L 11.715526 95.166809 L 46.34396 95.166809 L 46.34396 108.080322 Z M 27.980953 83.800323 L 46.34396 54.585785 L 46.34396 83.800323 L 27.980953 83.800323 Z"/>
        <path id="path2" fill="#b4171e" stroke="none" d="M 313.590912 431.361816 C 313.590912 429.767792 313.949799 429.33728 313.949799 429.33728 C 313.956055 429.334351 314.633331 428.779022 317.208008 428.779022 L 327.028992 428.779022 L 327.028992 417.412628 L 284.648468 417.412628 L 284.648468 428.779022 L 293.433655 428.779022 C 294.881653 428.779022 296.017639 429.031677 296.635468 429.499756 C 296.841553 429.655518 297.05072 430.291748 297.05072 431.361816 L 297.05072 444.27536 L 283.097473 444.27536 L 283.097473 455.641754 L 297.05072 455.641754 L 297.05072 515.047241 L 308.638123 515.047241 L 348.219238 452.185669 L 348.219238 444.27536 L 313.590912 444.27536 L 313.590912 431.361816 Z M 331.953583 455.641754 L 313.590912 484.856262 L 313.590912 455.641754 L 331.953583 455.641754 Z"/>
        <path id="path3" fill="#000000" stroke="none" d="M 273.591492 438.760529 L 273.591492 100.68158 L 86.343163 100.68158 L 86.343163 438.760529 L 273.591492 438.760529 Z M 87.357384 101.685913 L 272.577393 101.685913 L 272.574066 437.756226 L 87.357384 437.756226 L 87.357384 101.685913 Z"/>
        <path id="path4" fill="#b4171e" stroke="none" d="M 134.737625 171.250641 C 136.968872 167.420197 140.36145 162.566742 145.476334 157.613434 C 149.502075 153.714355 153.562149 150.754395 157.026215 148.564484 C 153.562149 146.371826 149.502075 143.414703 145.476334 139.512726 C 140.36145 134.559204 136.968872 129.705719 134.737625 125.87558 C 132.509216 129.705719 129.116989 134.559204 124.002113 139.512726 C 119.97625 143.414703 115.915939 146.371826 112.451988 148.564484 C 115.915939 150.754395 119.97625 153.714355 124.002113 157.613434 C 129.116989 162.566742 132.509216 167.420197 134.737625 171.250641 Z"/>
        <path id="path5" fill="#b4171e" stroke="none" d="M 225.194183 171.250641 C 227.422363 167.420197 230.817764 162.566742 235.93277 157.613434 C 239.958511 153.714355 244.015518 150.754395 247.482895 148.564484 C 244.015518 146.371826 239.958511 143.414703 235.93277 139.512726 C 230.817764 134.559204 227.422363 129.705719 225.194183 125.87558 C 222.965775 129.705719 219.573669 134.559204 214.458557 139.512726 C 210.432693 143.414703 206.37262 146.371826 202.908432 148.564484 C 206.37262 150.754395 210.432693 153.714355 214.458557 157.613434 C 219.573669 162.566742 222.965775 167.420197 225.194183 171.250641 Z"/>
        <path id="path6" fill="#b4171e" stroke="none" d="M 134.737625 413.54187 C 136.968872 409.714447 140.36145 404.857758 145.476334 399.904663 C 149.502075 396.005615 153.562149 393.045349 157.026215 390.855713 C 153.562149 388.665985 149.502075 385.705994 145.476334 381.806946 C 140.36145 376.850403 136.968872 371.996887 134.737625 368.166565 C 132.509216 371.996887 129.116989 376.850403 124.002113 381.806946 C 119.97625 385.705994 115.915939 388.665985 112.451988 390.855713 C 115.915939 393.045349 119.97625 396.005615 124.002113 399.904663 C 129.116989 404.857758 132.509216 409.714447 134.737625 413.54187 Z"/>
        <path id="path7" fill="#b4171e" stroke="none" d="M 225.194183 413.54187 C 227.422363 409.714447 230.817764 404.857758 235.93277 399.904663 C 239.958511 396.005615 244.015518 393.045349 247.482895 390.855713 C 244.015518 388.665985 239.958511 385.705994 235.93277 381.806946 C 230.817764 376.850403 227.422363 371.996887 225.194183 368.166565 C 222.965775 371.996887 219.573669 376.850403 214.458557 381.806946 C 210.432693 385.705994 206.37262 388.665985 202.908432 390.855713 C 206.37262 393.045349 210.432693 396.005615 214.458557 399.904663 C 219.573669 404.857758 222.965775 409.714447 225.194183 413.54187 Z"/>
        <path id="path8" fill="#b4171e" stroke="none" d="M 44.153065 136.355865 C 41.275562 141.299988 36.897194 147.566528 30.293598 153.963989 C 25.097433 158.995148 19.857618 162.816315 15.385343 165.642303 C 19.857618 168.471283 25.097433 172.29245 30.293598 177.323853 C 36.897194 183.721252 41.275562 189.98761 44.153065 194.931702 C 47.030567 189.98761 51.408821 183.721252 58.015598 177.323853 C 63.211761 172.29245 68.448509 168.471283 72.923737 165.642303 C 68.448509 162.816315 63.211761 158.995148 58.015598 153.963989 C 51.408821 147.566528 47.030567 141.299988 44.153065 136.355865 Z"/>
        <path id="path9" fill="#b4171e" stroke="none" d="M 316.343597 403.085999 C 319.220886 398.142181 323.599365 391.875824 330.202942 385.481445 C 335.399231 380.446777 340.638947 376.625854 345.111206 373.799866 C 340.638947 370.970581 335.399231 367.149658 330.202942 362.118408 C 323.599365 355.720886 319.220886 349.454254 316.343597 344.510437 C 313.466217 349.454254 309.087494 355.720886 302.480835 362.118408 C 297.28479 367.149658 292.048035 370.970581 287.572815 373.799866 C 292.048035 376.625854 297.28479 380.446777 302.480835 385.481445 C 309.087494 391.875824 313.466217 398.142181 316.343597 403.085999 Z"/>
    </g>
</svg>
