<?xml version="1.0" encoding="UTF-8"?>
<!-- Generated by Pixelmator Pro 3.7 -->
<svg width="208" height="376" viewBox="0 0 208 376" xmlns="http://www.w3.org/2000/svg">
    <g id="Group-copy">
        <path id="Path" fill="#000000" stroke="none" d="M 207.99054 376.602142 L 207.99054 0.889191 L -0.063155 0.889191 L -0.063155 376.602142 L 207.99054 376.602142 Z M 1.063758 2.00531 L 206.863754 2.00531 L 206.860077 375.486023 L 1.063758 375.486023 L 1.063758 2.00531 Z"/>
        <path id="path1" fill="#ff0000" stroke="none" d="M 53.708473 79.313782 C 56.18763 75.056946 59.957161 69.663239 65.640366 64.158508 C 70.113411 59.825439 74.624603 56.53595 78.473572 54.102264 C 74.624603 51.665527 70.113411 48.379242 65.640366 44.042877 C 59.957161 38.537964 56.18763 33.144196 53.708473 28.887695 C 51.23246 33.144196 47.463322 38.537964 41.780121 44.042877 C 37.306942 48.379242 32.795486 51.665527 28.94665 54.102264 C 32.795486 56.53595 37.306942 59.825439 41.780121 64.158508 C 47.463322 69.663239 51.23246 75.056946 53.708473 79.313782 Z"/>
        <path id="path2" fill="#ff0000" stroke="none" d="M 154.215759 79.313782 C 156.691513 75.056946 160.464188 69.663239 166.147522 64.158508 C 170.620575 59.825439 175.128357 56.53595 178.980988 54.102264 C 175.128357 51.665527 170.620575 48.379242 166.147522 44.042877 C 160.464188 38.537964 156.691513 33.144196 154.215759 28.887695 C 151.739746 33.144196 147.970749 38.537964 142.287277 44.042877 C 137.814102 48.379242 133.302902 51.665527 129.453812 54.102264 C 133.302902 56.53595 137.814102 59.825439 142.287277 64.158508 C 147.970749 69.663239 151.739746 75.056946 154.215759 79.313782 Z"/>
        <path id="path3" fill="#ff0000" stroke="none" d="M 53.708473 348.576233 C 56.18763 344.322723 59.957161 338.925415 65.640366 333.420929 C 70.113411 329.08786 74.624603 325.798096 78.473572 323.364716 C 74.624603 320.931213 70.113411 317.641724 65.640366 313.308655 C 59.957161 307.800354 56.18763 302.406555 53.708473 298.149841 C 51.23246 302.406555 47.463322 307.800354 41.780121 313.308655 C 37.306942 317.641724 32.795486 320.931213 28.94665 323.364716 C 32.795486 325.798096 37.306942 329.08786 41.780121 333.420929 C 47.463322 338.925415 51.23246 344.322723 53.708473 348.576233 Z"/>
        <path id="path4" fill="#ff0000" stroke="none" d="M 154.215759 348.576233 C 156.691513 344.322723 160.464188 338.925415 166.147522 333.420929 C 170.620575 329.08786 175.128357 325.798096 178.980988 323.364716 C 175.128357 320.931213 170.620575 317.641724 166.147522 313.308655 C 160.464188 307.800354 156.691513 302.406555 154.215759 298.149841 C 151.739746 302.406555 147.970749 307.800354 142.287277 313.308655 C 137.814102 317.641724 133.302902 320.931213 129.453812 323.364716 C 133.302902 325.798096 137.814102 329.08786 142.287277 333.420929 C 147.970749 338.925415 151.739746 344.322723 154.215759 348.576233 Z"/>
    </g>
</svg>
