<?xml version="1.0" encoding="UTF-8"?>
<!-- Generated by Pixelmator Pro 3.7 -->
<svg width="208" height="375" viewBox="0 0 208 375" xmlns="http://www.w3.org/2000/svg">
    <g id="Group-copy">
        <path id="Path" fill="#000000" stroke="none" d="M 207.614716 375.335571 L 207.614716 -0.045715 L -0.160078 -0.045715 L -0.160078 375.335571 L 207.614716 375.335571 Z M 0.965064 1.071594 L 206.489319 1.071838 L 206.489319 374.216705 L 0.965064 374.216705 L 0.965064 1.071594 Z"/>
        <path id="path1" fill="#000000" stroke="none" d="M 116.661148 46.593018 C 115.213585 46.593018 113.845741 46.889954 112.56456 47.367554 C 114.375778 45.295044 115.511528 42.61377 115.511528 39.643646 C 115.511528 33.135498 110.234161 27.858826 103.727325 27.858826 C 97.220482 27.858826 91.943115 33.135498 91.943115 39.643646 C 91.943115 42.61377 93.078865 45.295044 94.893227 47.367554 C 93.608643 46.889954 92.240669 46.593018 90.793106 46.593018 C 84.2864 46.593018 79.009033 51.86972 79.009033 58.377869 C 79.009033 64.887329 84.2864 70.164001 90.793106 70.164001 C 94.813637 70.164001 98.356232 68.142822 100.482277 65.068787 C 101.22007 64.425171 102.144531 64.044434 103.159317 63.9151 L 103.159317 67.121643 C 103.159317 72.612518 98.709541 77.062836 93.220764 77.062836 L 93.220764 78.21286 L 114.233749 78.21286 L 114.233749 77.062836 C 108.744835 77.062836 104.291527 72.612518 104.291527 67.121643 L 104.291527 63.9151 C 105.306313 64.043121 106.234444 64.424103 106.97184 65.067719 C 109.098282 68.142303 112.640747 70.164001 116.661148 70.164001 C 123.167984 70.164001 128.44548 64.887329 128.44548 58.377869 C 128.44548 51.86972 123.167984 46.593018 116.661148 46.593018 Z"/>
        <path id="path2" fill="#000000" stroke="none" d="M 116.661148 181.174103 C 115.213585 181.174103 113.845741 181.472076 112.56456 181.949936 C 114.375778 179.878754 115.511528 177.19458 115.511528 174.226578 C 115.511528 167.719208 110.234161 162.441208 103.727325 162.441208 C 97.220482 162.441208 91.943115 167.719208 91.943115 174.226578 C 91.943115 177.19458 93.078865 179.878754 94.893227 181.949936 C 93.608643 181.472076 92.240669 181.174103 90.793106 181.174103 C 84.2864 181.174103 79.009033 186.452362 79.009033 192.959991 C 79.009033 199.471008 84.2864 204.745605 90.793106 204.745605 C 94.813637 204.745605 98.356232 202.726532 100.482277 199.650894 C 101.22007 199.007019 102.144531 198.625778 103.159317 198.497742 L 103.159317 201.704803 C 103.159317 207.194382 98.709541 211.644699 93.220764 211.644699 L 93.220764 212.797592 L 114.233749 212.797592 L 114.233749 211.644699 C 108.744835 211.644699 104.291527 207.194382 104.291527 201.704803 L 104.291527 198.497742 C 105.306313 198.625778 106.234444 199.007019 106.97184 199.650894 C 109.098282 202.723129 112.640747 204.745605 116.661148 204.745605 C 123.167984 204.745605 128.44548 199.471008 128.44548 192.959991 C 128.44548 186.452362 123.167984 181.174103 116.661148 181.174103 Z"/>
        <path id="path3" fill="#000000" stroke="none" d="M 116.661148 304.960632 C 112.640747 304.960632 109.101685 306.979706 106.97184 310.055328 C 106.237717 310.699219 105.309586 311.080444 104.295067 311.208496 L 104.295067 308.001434 C 104.295067 302.512115 108.744835 298.058411 114.233749 298.058411 L 114.233749 296.908386 L 93.220764 296.908386 L 93.220764 298.058411 C 98.712814 298.058411 103.162849 302.512115 103.162849 308.001434 L 103.162849 311.208496 C 102.148064 311.080444 101.22007 310.699219 100.482277 310.055328 C 98.356232 306.983124 94.813637 304.960632 90.793106 304.960632 C 84.2864 304.960632 79.009033 310.235229 79.009033 316.746521 C 79.009033 323.253876 84.2864 328.532135 90.793106 328.532135 C 92.240669 328.532135 93.611916 328.234161 94.893227 327.756287 C 93.078865 329.82724 91.943115 332.511414 91.943115 335.479401 C 91.943115 341.98703 97.220482 347.265045 103.727325 347.265045 C 110.237564 347.265045 115.511528 341.98703 115.511528 335.479401 C 115.511528 332.511414 114.375778 329.82724 112.56456 327.756287 C 113.845741 328.234161 115.217117 328.532135 116.661148 328.532135 C 123.171516 328.532135 128.44548 323.253876 128.44548 316.746521 C 128.44548 310.235229 123.171516 304.960632 116.661148 304.960632 Z"/>
    </g>
</svg>
