<?xml version="1.0" encoding="UTF-8"?>
<!-- Generated by Pixelmator Pro 3.7 -->
<svg width="360" height="539" viewBox="0 0 360 539" xmlns="http://www.w3.org/2000/svg">
    <g id="Group-copy">
        <path id="Path" fill="#ffffff" stroke="none" d="M 17.376862 538.491028 L 342.227692 538.491028 C 351.537262 538.491028 359.080048 530.948975 359.080048 521.644226 L 359.080048 17.772827 C 359.080048 8.46814 351.537262 0.925903 342.227692 0.925903 L 17.376862 0.925903 C 8.067533 0.925903 0.521445 8.46814 0.521445 17.772827 L 0.521445 521.644226 C 0.521445 530.948975 8.067533 538.491028 17.376862 538.491028 Z"/>
        <path id="path1" fill="#b4171e" stroke="none" d="M 45.002361 122.494171 C 52.573223 122.494171 59.311188 119.596497 65.028442 113.885101 C 70.74263 108.170685 73.64196 99.546143 73.64196 88.248322 C 73.64196 80.652985 71.607147 73.706604 67.600044 67.599152 C 63.227924 60.949066 56.140522 57.57724 46.537674 57.57724 C 41.694134 57.57724 37.097393 58.902771 32.875103 61.513519 C 32.253853 61.897247 31.657848 62.305756 31.083551 62.742645 C 31.957268 50.761658 34.098259 45.368622 35.961304 42.957397 C 39.266464 38.693542 43.058147 36.619202 47.561214 36.619202 C 49.936268 36.619202 50.650955 37.015442 50.629009 37.130707 L 50.629009 38.35672 C 50.288773 39.292419 50.117241 40.256134 50.117241 41.220062 C 50.117241 44.052368 50.953674 46.31665 52.582661 47.935608 C 56.140522 51.513519 63.717754 51.123474 66.823067 47.408417 C 68.292786 45.630707 69.038857 43.206909 69.038857 40.199982 C 69.038857 36.96225 67.19445 33.643463 63.402527 30.065552 C 59.738728 26.615723 54.923264 24.862976 49.093697 24.862976 C 37.830719 24.862976 28.786598 29.666595 22.207897 39.145721 C 15.953859 48.147736 12.78319 61.06131 12.78319 77.512054 C 12.78319 91.592194 15.43265 102.602997 20.656775 110.232605 C 26.211933 118.367523 34.407116 122.494171 45.002361 122.494171 Z M 37.852665 73.475739 C 42.876942 70.032196 48.928299 69.28656 53.269268 74.898193 C 55.587929 77.908295 56.764603 82.399933 56.764603 88.248322 C 56.764603 99.823883 54.964085 104.727264 53.456612 106.798462 C 51.502964 109.48703 48.812683 110.737854 45.002361 110.737854 C 41.354134 110.737854 38.214607 108.598145 35.415321 104.200073 C 32.372536 99.421448 30.783897 92.459259 30.687159 83.497894 C 32.984112 78.528931 35.393379 75.160126 37.852665 73.475739 Z"/>
        <path id="path2" fill="#b4171e" stroke="none" d="M 314.599365 416.922913 C 307.031555 416.922913 300.29361 419.820618 294.576355 425.53186 C 288.858856 431.246246 285.96283 439.871033 285.96283 451.168762 C 285.96283 458.760925 287.99765 465.710602 292.00473 471.817932 C 296.377106 478.46814 303.461212 481.840118 313.066864 481.840118 C 317.910431 481.840118 322.507385 480.511139 326.729919 477.903503 C 327.34787 477.519928 327.94693 477.111145 328.52124 476.674744 C 327.647278 488.655518 325.506775 494.048492 323.640411 496.459839 C 320.338318 500.723633 316.546631 502.794983 312.043335 502.794983 C 309.668518 502.794983 308.953827 502.401947 308.975525 502.286499 L 308.975525 501.060547 C 309.31601 500.121796 309.487549 499.157837 309.487549 498.194031 C 309.487549 495.361755 308.651123 493.100281 307.021881 491.481537 C 303.461212 487.903809 295.887024 488.290619 292.781708 492.008575 C 291.311768 493.786743 290.562866 496.210236 290.562866 499.217163 C 290.562866 502.454895 292.407501 505.770721 296.202026 509.351624 C 299.865814 512.801453 304.681519 514.551208 310.511078 514.551208 C 321.770996 514.551208 330.817963 509.750793 337.396881 500.271393 C 343.65094 491.269409 346.818542 478.355896 346.818542 461.905182 C 346.818542 447.825073 344.17215 436.81427 338.947784 429.184601 C 333.389557 421.049652 325.197662 416.922913 314.599365 416.922913 Z M 321.749298 465.938324 C 316.7276 469.384979 310.676483 470.130432 306.332214 464.519073 C 304.016632 461.509064 302.840179 457.017395 302.840179 451.168762 C 302.840179 439.593445 304.64093 434.690063 306.148163 432.618713 C 308.101837 429.930023 310.79187 428.679291 314.599365 428.679291 C 318.250641 428.679291 321.387115 430.819031 324.189697 435.217102 C 327.232239 439.992737 328.81781 446.957886 328.917633 455.919464 C 326.620667 460.885223 324.211395 464.25708 321.749298 465.938324 Z"/>
        <path id="path3" fill="#000000" stroke="none" d="M 273.420288 438.68869 L 273.420288 100.625397 L 86.181419 100.625397 L 86.181419 438.68869 L 273.420288 438.68869 Z M 87.195755 101.629791 L 272.405975 101.629791 L 272.402893 437.68457 L 87.195755 437.68457 L 87.195755 101.629791 Z"/>
        <path id="path4" fill="#b4171e" stroke="none" d="M 134.575531 125.881775 C 132.347244 129.712006 128.955017 134.565399 123.839897 139.518799 C 119.814148 143.417786 115.754196 146.378021 112.290009 148.567657 C 115.754196 150.757385 119.814148 153.717438 123.839897 157.616486 C 128.955017 162.572998 132.347244 167.426453 134.575531 171.253632 C 136.804062 167.426453 140.196289 162.572998 145.314224 157.616486 C 149.34021 153.717438 153.397339 150.757385 156.861282 148.567657 C 153.397339 146.378021 149.34021 143.417786 145.314224 139.518799 C 140.196289 134.565399 136.804062 129.712006 134.575531 125.881775 Z"/>
        <path id="path5" fill="#b4171e" stroke="none" d="M 225.029022 125.881775 C 222.800735 129.712006 219.408508 134.565399 214.290314 139.518799 C 210.264572 143.417786 206.207443 146.378021 202.740433 148.567657 C 206.207443 150.757385 210.264572 153.717438 214.290314 157.616486 C 219.408508 162.572998 222.800735 167.426453 225.029022 171.253632 C 227.257553 167.426453 230.64978 162.572998 235.764648 157.616486 C 239.790405 153.717438 243.847519 150.757385 247.314774 148.567657 C 243.847519 146.378021 239.790405 143.417786 235.764648 139.518799 C 230.64978 134.565399 227.257553 129.712006 225.029022 125.881775 Z"/>
        <path id="path6" fill="#b4171e" stroke="none" d="M 134.575531 247.022522 C 132.347244 250.849915 128.955017 255.703217 123.839897 260.659729 C 119.814148 264.558777 115.754196 267.518768 112.290009 269.708466 C 115.754196 271.898163 119.814148 274.858429 123.839897 278.757416 C 128.955017 283.710754 132.347244 288.56424 134.575531 292.394653 C 136.804062 288.56424 140.196289 283.710754 145.314224 278.757416 C 149.34021 274.858429 153.397339 271.898163 156.861282 269.708466 C 153.397339 267.518768 149.34021 264.558777 145.314224 260.659729 C 140.196289 255.703217 136.804062 250.849915 134.575531 247.022522 Z"/>
        <path id="path7" fill="#b4171e" stroke="none" d="M 225.029022 247.022522 C 222.800735 250.849915 219.408508 255.703217 214.290314 260.659729 C 210.264572 264.558777 206.207443 267.518768 202.740433 269.708466 C 206.207443 271.898163 210.264572 274.858429 214.290314 278.757416 C 219.408508 283.710754 222.800735 288.56424 225.029022 292.394653 C 227.257553 288.56424 230.64978 283.710754 235.764648 278.757416 C 239.790405 274.858429 243.847519 271.898163 247.314774 269.708466 C 243.847519 267.518768 239.790405 264.558777 235.764648 260.659729 C 230.64978 255.703217 227.257553 250.849915 225.029022 247.022522 Z"/>
        <path id="path8" fill="#b4171e" stroke="none" d="M 134.575531 368.160278 C 132.347244 371.990662 128.955017 376.844147 123.839897 381.800568 C 119.814148 385.699585 115.754196 388.659729 112.290009 390.849487 C 115.754196 393.039124 119.814148 395.999359 123.839897 399.898376 C 128.955017 404.851471 132.347244 409.704987 134.575531 413.535583 C 136.804062 409.704987 140.196289 404.851471 145.314224 399.898376 C 149.34021 395.999359 153.397339 393.039124 156.861282 390.849487 C 153.397339 388.659729 149.34021 385.699585 145.314224 381.800568 C 140.196289 376.844147 136.804062 371.990662 134.575531 368.160278 Z"/>
        <path id="path9" fill="#b4171e" stroke="none" d="M 225.029022 368.160278 C 222.800735 371.990662 219.408508 376.844147 214.290314 381.800568 C 210.264572 385.699585 206.207443 388.659729 202.740433 390.849487 C 206.207443 393.039124 210.264572 395.999359 214.290314 399.898376 C 219.408508 404.851471 222.800735 409.704987 225.029022 413.535583 C 227.257553 409.704987 230.64978 404.851471 235.764648 399.898376 C 239.790405 395.999359 243.847519 393.039124 247.314774 390.849487 C 243.847519 388.659729 239.790405 385.699585 235.764648 381.800568 C 230.64978 376.844147 227.257553 371.990662 225.029022 368.160278 Z"/>
        <path id="path10" fill="#b4171e" stroke="none" d="M 43.713375 136.34967 C 40.835991 141.293671 36.457741 147.560333 29.850723 153.954681 C 24.657743 158.988892 19.417812 162.809998 14.945889 165.636047 C 19.417812 168.462036 24.657743 172.282959 29.850723 177.317596 C 36.457741 183.712006 40.835991 189.978394 43.713375 194.922272 C 46.590763 189.978394 50.969482 183.712006 57.572723 177.317596 C 62.769009 172.282959 68.008705 168.462036 72.481094 165.636047 C 68.008705 162.809998 62.769009 158.988892 57.572723 153.954681 C 50.969482 147.560333 46.590763 141.293671 43.713375 136.34967 Z"/>
        <path id="path11" fill="#b4171e" stroke="none" d="M 315.888123 403.067566 C 318.765503 398.123413 323.144226 391.857025 329.747681 385.462646 C 334.943726 380.428101 340.183685 376.607086 344.655609 373.781067 C 340.183685 370.955078 334.943726 367.133972 329.747681 362.099487 C 323.144226 355.705139 318.765503 349.438782 315.888123 344.494751 C 313.010712 349.438782 308.632233 355.705139 302.028748 362.099487 C 296.832489 367.133972 291.592773 370.955078 287.12085 373.781067 C 291.592773 376.607086 296.832489 380.428101 302.028748 385.462646 C 308.632233 391.857025 313.010712 398.123413 315.888123 403.067566 Z"/>
    </g>
</svg>
