<?xml version="1.0" encoding="UTF-8"?>
<!-- Generated by Pixelmator Pro 3.7 -->
<svg width="208" height="376" viewBox="0 0 208 376" xmlns="http://www.w3.org/2000/svg">
    <g id="Group-copy">
        <path id="Path" fill="#000000" stroke="none" d="M 207.731125 376.820465 L 207.731125 1.104004 L -0.325975 1.104004 L -0.325975 376.820465 L 207.731125 376.820465 Z M 0.804478 2.220093 L 206.600937 2.220093 L 206.600937 375.700745 L 0.804478 375.700745 L 0.804478 2.220093 Z"/>
        <path id="path1" fill="#000000" stroke="none" d="M 53.438442 29.171661 L 33.441067 49.159119 C 28.371592 54.227081 28.371592 62.445892 33.441067 67.513977 C 38.510799 72.5784 46.732277 72.5784 51.80175 67.513977 L 52.873478 66.439453 L 52.873478 68.522614 C 52.873478 73.992706 48.438183 78.4263 42.966549 78.4263 L 42.966549 79.5737 L 63.907192 79.5737 L 63.907192 78.4263 C 58.435299 78.4263 54.000263 73.992706 54.000263 68.522614 L 54.000263 66.435913 L 55.075138 67.513977 C 60.144611 72.5784 68.362938 72.5784 73.432678 67.513977 C 78.502151 62.445892 78.502151 54.227081 73.432678 49.159119 L 53.438442 29.171661 Z"/>
        <path id="path2" fill="#000000" stroke="none" d="M 55.075138 310.521484 L 54.000263 311.596008 L 54.000263 309.512756 C 54.000263 304.042755 58.438969 299.609039 63.907192 299.609039 L 63.907192 298.461792 L 42.966549 298.461792 L 42.966549 299.609039 C 48.438183 299.609039 52.873478 304.042755 52.873478 309.512756 L 52.873478 311.599548 L 51.798344 310.521484 C 46.72887 305.456818 38.510799 305.456818 33.441067 310.521484 C 28.371592 315.589325 28.371592 323.80838 33.441067 328.876068 L 53.438442 348.863556 L 73.432678 328.876068 C 78.502151 323.80838 78.502151 315.589325 73.432678 310.521484 C 68.362938 305.456818 60.144611 305.456818 55.075138 310.521484 Z"/>
        <path id="path3" fill="#000000" stroke="none" d="M 153.970383 29.171661 L 133.976151 49.159119 C 128.903259 54.227081 128.903259 62.445892 133.976151 67.513977 C 139.045883 72.5784 147.263947 72.5784 152.33342 67.513977 L 153.404892 66.439453 L 153.404892 68.522614 C 153.404892 73.992706 148.969849 78.4263 143.501633 78.4263 L 143.501633 79.5737 L 164.438599 79.5737 L 164.438599 78.4263 C 158.970383 78.4263 154.531937 73.992706 154.531937 68.522614 L 154.531937 66.435913 L 155.606812 67.513977 C 160.676285 72.5784 168.894348 72.5784 173.964081 67.513977 C 179.033813 62.445892 179.033813 54.227081 173.964081 49.159119 L 153.970383 29.171661 Z"/>
        <path id="path4" fill="#000000" stroke="none" d="M 103.704277 96.493408 L 83.706902 116.484283 C 78.637428 121.552246 78.637428 129.767639 83.706902 134.835602 C 88.776634 139.903427 96.994705 139.903427 102.067589 134.835602 L 103.139053 133.760941 L 103.139053 135.844208 C 103.139053 141.314194 98.704018 145.747925 93.232117 145.747925 L 93.232117 146.895447 L 114.173027 146.895447 L 114.173027 145.747925 C 108.701134 145.747925 104.266098 141.314194 104.266098 135.844208 L 104.266098 133.760941 L 105.340973 134.835602 C 110.410706 139.903427 118.628777 139.903427 123.69825 134.835602 C 128.76799 129.767639 128.76799 121.552246 123.69825 116.484283 L 103.704277 96.493408 Z"/>
        <path id="path5" fill="#000000" stroke="none" d="M 53.438442 163.818298 L 33.441067 183.80603 C 28.371592 188.873993 28.371592 197.089386 33.441067 202.157349 C 38.510799 207.225037 46.732277 207.225037 51.80175 202.157349 L 52.873478 201.08609 L 52.873478 203.169495 C 52.873478 208.635941 48.438183 213.072952 42.966549 213.072952 L 42.966549 214.216919 L 63.907192 214.216919 L 63.907192 213.072952 C 58.435299 213.072952 54.000263 208.635941 54.000263 203.169495 L 54.000263 201.082428 L 55.075138 202.157349 C 60.144611 207.225037 68.362938 207.225037 73.432678 202.157349 C 78.502151 197.089386 78.502151 188.873993 73.432678 183.80603 L 53.438442 163.818298 Z"/>
        <path id="path6" fill="#000000" stroke="none" d="M 153.970383 163.818298 L 133.976151 183.80603 C 128.903259 188.873993 128.903259 197.089386 133.976151 202.157349 C 139.045883 207.225037 147.263947 207.225037 152.33342 202.157349 L 153.404892 201.08609 L 153.404892 203.169495 C 153.404892 208.635941 148.969849 213.072952 143.501633 213.072952 L 143.501633 214.216919 L 164.438599 214.216919 L 164.438599 213.072952 C 158.970383 213.072952 154.531937 208.635941 154.531937 203.169495 L 154.531937 201.082428 L 155.606812 202.157349 C 160.676285 207.225037 168.894348 207.225037 173.964081 202.157349 C 179.033813 197.089386 179.033813 188.873993 173.964081 183.80603 L 153.970383 163.818298 Z"/>
        <path id="path7" fill="#000000" stroke="none" d="M 155.606812 310.521484 L 154.535339 311.596008 L 154.535339 309.512756 C 154.535339 304.042755 158.970383 299.609039 164.438599 299.609039 L 164.438599 298.461792 L 143.497955 298.461792 L 143.497955 299.609039 C 148.969849 299.609039 153.404892 304.042755 153.404892 309.512756 L 153.404892 311.599548 L 152.330017 310.521484 C 147.260284 305.456818 139.042206 305.456818 133.972733 310.521484 C 128.903259 315.589325 128.903259 323.80838 133.972733 328.876068 L 153.970383 348.863556 L 173.964081 328.876068 C 179.033813 323.80838 179.033813 315.589325 173.964081 310.521484 C 168.894348 305.456818 160.676285 305.456818 155.606812 310.521484 Z"/>
    </g>
</svg>
