<?xml version="1.0" encoding="UTF-8"?>
<!-- Generated by Pixelmator Pro 3.7 -->
<svg width="360" height="539" viewBox="0 0 360 539" xmlns="http://www.w3.org/2000/svg">
    <g id="Group-copy">
        <path id="Path" fill="#ffffff" stroke="none" d="M 17.131004 538.491028 L 341.97876 538.491028 C 351.288086 538.491028 358.834167 530.948975 358.834167 521.644226 L 358.834167 17.772827 C 358.834167 8.46814 351.288086 0.925903 341.97876 0.925903 L 17.131004 0.925903 C 7.82144 0.925903 0.275351 8.46814 0.275351 17.772827 L 0.275351 521.644226 C 0.275351 530.948975 7.82144 538.491028 17.131004 538.491028 Z"/>
        <path id="path1" fill="#b4171e" stroke="none" d="M 39.129379 88.784851 C 45.143219 88.784851 50.280281 87.128448 54.396393 83.859772 C 53.335335 92.188019 51.647125 98.485657 49.353241 102.659119 C 45.352272 109.920654 41.020737 110.762848 38.105835 110.762848 C 37.335228 110.762848 36.667259 110.703674 36.273937 110.513306 C 36.227219 110.391785 36.061817 109.889465 36.061817 108.719635 C 36.061817 106.108978 35.596764 103.744629 34.682465 101.679718 C 33.89275 99.917267 31.826788 96.960449 26.855364 96.960449 C 22.208368 96.960449 19.961435 99.449554 19.041002 100.927887 C 17.777029 102.946106 17.137138 105.048462 17.137138 107.184998 C 17.137138 112.010559 19.477743 116.034302 23.903183 118.819733 C 27.791605 121.274567 32.394714 122.519043 37.594063 122.519043 C 48.97879 122.519043 57.988701 117.119751 64.373688 106.477112 C 70.356148 96.505005 73.392799 83.847076 73.392799 68.850098 C 73.392799 55.109833 70.736969 44.345367 65.493973 36.852966 C 59.92654 28.914642 52.090237 24.89093 42.197411 24.89093 C 32.756893 24.89093 25.326185 28.147369 20.098757 34.579224 C 15.083683 40.752014 12.537096 48.500122 12.537096 57.602173 C 12.537096 68.194855 14.986944 76.111633 19.811609 81.136536 C 24.683228 86.211609 31.180763 88.784851 39.129379 88.784851 Z M 32.934799 41.544281 C 34.910156 38.200531 37.856201 36.647308 42.197411 36.647308 C 46.822464 36.647308 49.911964 38.328461 51.915398 41.943756 C 54.290215 46.251282 55.494965 52.205811 55.494965 59.648407 C 55.494965 62.779907 53.897125 66.398193 50.742031 70.409515 C 45.355572 77.25 37.690804 78.182556 32.953438 71.781921 C 30.606701 68.609802 29.411152 63.662781 29.411152 57.093689 C 29.411152 50.708771 30.594196 45.474518 32.934799 41.544281 Z"/>
        <path id="path2" fill="#b4171e" stroke="none" d="M 319.976837 450.685211 C 313.963257 450.685211 308.829498 452.341644 304.710083 455.610535 C 305.771118 447.282288 307.459564 440.981506 309.753235 436.807983 C 313.757263 429.546448 318.085724 428.704224 321.000641 428.704224 C 321.774536 428.704224 322.439453 428.76355 322.83252 428.953827 C 322.879242 429.078491 323.044891 429.577637 323.044891 430.750397 C 323.044891 433.358154 323.509705 435.722412 324.427307 437.787415 C 325.213715 439.549591 327.28299 442.506897 332.251343 442.506897 C 336.898102 442.506897 339.14502 440.020752 340.065704 438.538971 C 341.329437 436.520935 341.96933 434.41864 341.96933 432.281799 C 341.96933 427.459625 339.631775 423.432739 335.203522 420.647156 C 331.31485 418.195679 326.711761 416.947845 321.51239 416.947845 C 310.127686 416.947845 301.121063 422.347321 294.732788 432.990021 C 288.750305 442.962219 285.713654 455.619751 285.713654 470.620239 C 285.713654 484.357208 288.372803 495.121521 293.612488 502.613831 C 299.179932 510.552368 307.016449 514.579346 316.909302 514.579346 C 326.349579 514.579346 333.780518 511.319672 339.007721 504.887817 C 344.025848 498.714813 346.572449 490.96994 346.572449 481.865051 C 346.572449 471.275269 344.119507 463.355652 339.294861 458.330566 C 334.4263 453.255585 327.92569 450.685211 319.976837 450.685211 Z M 326.171906 497.922577 C 324.19632 501.266418 321.250275 502.822998 316.909302 502.822998 C 312.284241 502.822998 309.194733 501.13855 307.191071 497.523499 C 304.81601 493.215851 303.611511 487.264282 303.611511 479.818878 C 303.611511 476.690216 305.212646 473.068665 308.364685 469.060608 C 313.751129 462.217041 321.415649 461.284546 326.153259 467.684937 C 328.503082 470.8573 329.695313 475.804382 329.695313 482.376617 C 329.695313 488.758331 328.512512 493.992371 326.171906 497.922577 Z"/>
        <path id="path3" fill="#000000" stroke="none" d="M 273.174438 438.741882 L 273.174438 100.675262 L 85.935326 100.675262 L 85.935326 438.741882 L 273.174438 438.741882 Z M 86.949661 101.682739 L 272.157043 101.682739 L 272.157043 437.734222 L 86.949661 437.734222 L 86.949661 101.682739 Z"/>
        <path id="path4" fill="#b4171e" stroke="none" d="M 134.326599 125.906769 C 132.098312 129.736969 128.706085 134.590393 123.590973 139.543915 C 119.564987 143.442963 115.508102 146.403015 112.040848 148.592682 C 115.508102 150.782318 119.564987 153.742371 123.590973 157.641418 C 128.706085 162.59787 132.098312 167.451385 134.326599 171.28183 C 136.557968 167.451385 139.947128 162.59787 145.065308 157.641418 C 149.091049 153.742371 153.148178 150.782318 156.615189 148.592682 C 153.148178 146.403015 149.091049 143.442963 145.065308 139.543915 C 139.947128 134.590393 136.557968 129.736969 134.326599 125.906769 Z"/>
        <path id="path5" fill="#b4171e" stroke="none" d="M 224.779861 125.906769 C 222.551804 129.736969 219.159348 134.590393 214.041397 139.543915 C 210.015411 143.442963 205.958527 146.403015 202.494339 148.592682 C 205.958527 150.782318 210.015411 153.742371 214.041397 157.641418 C 219.159348 162.59787 222.551804 167.451385 224.779861 171.28183 C 227.008148 167.451385 230.40062 162.59787 235.518799 157.641418 C 239.541245 153.742371 243.601669 150.782318 247.065613 148.592682 C 243.601669 146.403015 239.541245 143.442963 235.518799 139.543915 C 230.40062 134.590393 227.008148 129.736969 224.779861 125.906769 Z"/>
        <path id="path6" fill="#b4171e" stroke="none" d="M 134.326599 207.717224 C 132.098312 211.547852 128.706085 216.401367 123.590973 221.357666 C 119.564987 225.256683 115.508102 228.216705 112.040848 230.406403 C 115.508102 232.596069 119.564987 235.556335 123.590973 239.455353 C 128.706085 244.408661 132.098312 249.262146 134.326599 253.09256 C 136.557968 249.262146 139.947128 244.408661 145.065308 239.455353 C 149.091049 235.556335 153.148178 232.596069 156.615189 230.406403 C 153.148178 228.216705 149.091049 225.256683 145.065308 221.357666 C 139.947128 216.401367 136.557968 211.547852 134.326599 207.717224 Z"/>
        <path id="path7" fill="#b4171e" stroke="none" d="M 224.779861 207.717224 C 222.551804 211.547852 219.159348 216.401367 214.041397 221.357666 C 210.015411 225.256683 205.958527 228.216705 202.494339 230.406403 C 205.958527 232.596069 210.015411 235.556335 214.041397 239.455353 C 219.159348 244.408661 222.551804 249.262146 224.779861 253.09256 C 227.008148 249.262146 230.40062 244.408661 235.518799 239.455353 C 239.541245 235.556335 243.601669 232.596069 247.065613 230.406403 C 243.601669 228.216705 239.541245 225.256683 235.518799 221.357666 C 230.40062 216.401367 227.008148 211.547852 224.779861 207.717224 Z"/>
        <path id="path8" fill="#b4171e" stroke="none" d="M 179.553116 247.047546 C 177.325058 250.877869 173.932831 255.731384 168.817719 260.684662 C 164.791733 264.58371 160.731781 267.543762 157.267593 269.733459 C 160.731781 271.923157 164.791733 274.883362 168.817719 278.782349 C 173.932831 283.738739 177.325058 288.592407 179.553116 292.419586 C 181.781403 288.592407 185.173874 283.738739 190.292053 278.782349 C 194.317795 274.883362 198.374924 271.923157 201.838867 269.733459 C 198.374924 267.543762 194.317795 264.58371 190.292053 260.684662 C 185.173874 255.731384 181.781403 250.877869 179.553116 247.047546 Z"/>
        <path id="path9" fill="#b4171e" stroke="none" d="M 134.326599 289.531189 C 132.098312 293.361603 128.706085 298.215027 123.590973 303.168396 C 119.564987 307.067444 115.508102 310.027679 112.040848 312.217316 C 115.508102 314.407043 119.564987 317.367065 123.590973 321.266113 C 128.706085 326.222412 132.098312 331.075928 134.326599 334.906494 C 136.557968 331.075928 139.947128 326.222412 145.065308 321.266113 C 149.091049 317.367065 153.148178 314.407043 156.615189 312.217316 C 153.148178 310.027679 149.091049 307.067444 145.065308 303.168396 C 139.947128 298.215027 136.557968 293.361603 134.326599 289.531189 Z"/>
        <path id="path10" fill="#b4171e" stroke="none" d="M 224.779861 289.531189 C 222.551804 293.361603 219.159348 298.215027 214.041397 303.168396 C 210.015411 307.067444 205.958527 310.027679 202.494339 312.217316 C 205.958527 314.407043 210.015411 317.367065 214.041397 321.266113 C 219.159348 326.222412 222.551804 331.075928 224.779861 334.906494 C 227.008148 331.075928 230.40062 326.222412 235.518799 321.266113 C 239.541245 317.367065 243.601669 314.407043 247.065613 312.217316 C 243.601669 310.027679 239.541245 307.067444 235.518799 303.168396 C 230.40062 298.215027 227.008148 293.361603 224.779861 289.531189 Z"/>
        <path id="path11" fill="#b4171e" stroke="none" d="M 134.326599 368.188293 C 132.098312 372.015686 128.706085 376.869202 123.590973 381.8255 C 119.564987 385.724548 115.508102 388.684784 112.040848 390.87442 C 115.508102 393.064026 119.564987 396.02417 123.590973 399.923187 C 128.706085 404.876404 132.098312 409.729919 134.326599 413.560547 C 136.557968 409.729919 139.947128 404.876404 145.065308 399.923187 C 149.091049 396.02417 153.148178 393.064026 156.615189 390.87442 C 153.148178 388.684784 149.091049 385.724548 145.065308 381.8255 C 139.947128 376.869202 136.557968 372.015686 134.326599 368.188293 Z"/>
        <path id="path12" fill="#b4171e" stroke="none" d="M 224.779861 368.188293 C 222.551804 372.015686 219.159348 376.869202 214.041397 381.8255 C 210.015411 385.724548 205.958527 388.684784 202.494339 390.87442 C 205.958527 393.064026 210.015411 396.02417 214.041397 399.923187 C 219.159348 404.876404 222.551804 409.729919 224.779861 413.560547 C 227.008148 409.729919 230.40062 404.876404 235.518799 399.923187 C 239.541245 396.02417 243.601669 393.064026 247.065613 390.87442 C 243.601669 388.684784 239.541245 385.724548 235.518799 381.8255 C 230.40062 376.869202 227.008148 372.015686 224.779861 368.188293 Z"/>
        <path id="path13" fill="#b4171e" stroke="none" d="M 43.470585 136.374786 C 40.593201 141.318634 36.214714 147.585266 29.607933 153.979614 C 24.41165 159.013885 19.17502 162.83493 14.699796 165.661041 C 19.17502 168.48703 24.41165 172.308136 29.607933 177.342346 C 36.214714 183.736694 40.593201 190.003357 43.470585 194.947174 C 46.344669 190.003357 50.72646 183.736694 57.329933 177.342346 C 62.526215 172.308136 67.762848 168.48703 72.238304 165.661041 C 67.762848 162.83493 62.526215 159.013885 57.329933 153.979614 C 50.72646 147.585266 46.344669 141.318634 43.470585 136.374786 Z"/>
        <path id="path14" fill="#b4171e" stroke="none" d="M 315.645325 403.092224 C 318.522705 398.148468 322.901184 391.881958 329.504913 385.487579 C 334.700958 380.453064 339.940887 376.635071 344.412811 373.80603 C 339.940887 370.980042 334.700958 367.158997 329.504913 362.127777 C 322.901184 355.730347 318.522705 349.463715 315.645325 344.519653 C 312.767944 349.463715 308.389435 355.730347 301.782654 362.127777 C 296.589691 367.158997 291.349976 370.980042 286.877594 373.80603 C 291.349976 376.635071 296.589691 380.453064 301.782654 385.487579 C 308.389435 391.881958 312.767944 398.148468 315.645325 403.092224 Z"/>
    </g>
</svg>
