<?xml version="1.0" encoding="UTF-8"?>
<!-- Generated by Pixelmator Pro 3.7 -->
<svg width="209" height="376" viewBox="0 0 209 376" xmlns="http://www.w3.org/2000/svg">
    <g id="Group-copy">
        <path id="Path" fill="#000000" stroke="none" d="M 67.084442 47.000397 C 65.63131 47.000397 64.254662 47.29834 62.968681 47.777161 C 64.790291 45.699341 65.930138 43.011169 65.930138 40.033447 C 65.930138 33.508331 60.632477 28.217834 54.100616 28.217834 C 47.565338 28.217834 42.271095 33.508331 42.271095 40.033447 C 42.271095 43.011169 43.411469 45.699341 45.229397 47.777161 C 43.943153 47.29834 42.570183 47.000397 41.117054 47.000397 C 34.581776 47.000397 29.28727 52.290619 29.28727 58.815216 C 29.28727 65.341644 34.581776 70.631622 41.117054 70.631622 C 45.152916 70.631622 48.705711 68.60553 50.843491 65.52356 C 51.580437 64.878571 52.512135 64.496613 53.53056 64.366913 L 53.53056 67.581451 C 53.53056 73.086426 49.063675 77.548157 43.553917 77.548157 L 43.553917 78.704529 L 64.647575 78.704529 L 64.647575 77.548157 C 59.134403 77.548157 54.667519 73.086426 54.667519 67.581451 L 54.667519 64.366913 C 55.685944 64.495544 56.617378 64.877533 57.357742 65.522522 C 59.492367 68.604736 63.04858 70.631622 67.084442 70.631622 C 73.616302 70.631622 78.913963 65.341644 78.913963 58.815216 C 78.913963 52.290619 73.616302 47.000397 67.084442 47.000397 Z"/>
        <path id="path1" fill="#000000" stroke="none" d="M 67.084442 181.871277 C 65.63131 181.871277 64.254662 182.169769 62.968681 182.648865 C 64.790291 180.569199 65.930138 177.881821 65.930138 174.902512 C 65.930138 168.378189 60.632477 163.089783 54.100616 163.089783 C 47.565338 163.089783 42.271095 168.378189 42.271095 174.902512 C 42.271095 177.881821 43.411469 180.569199 45.229397 182.648865 C 43.943153 182.169769 42.570183 181.871277 41.117054 181.871277 C 34.581776 181.871277 29.28727 187.162827 29.28727 193.687164 C 29.28727 200.211487 34.581776 205.503052 41.117054 205.503052 C 45.152916 205.503052 48.705711 203.475372 50.843491 200.395523 C 51.580437 199.749466 52.512135 199.367767 53.53056 199.235718 L 53.53056 202.451019 C 53.53056 207.95784 49.063675 212.41983 43.553917 212.41983 L 43.553917 213.572556 L 64.647575 213.572556 L 64.647575 212.41983 C 59.134403 212.41983 54.667519 207.95784 54.667519 202.451019 L 54.667519 199.235718 C 55.685944 199.364349 56.617378 199.746048 57.357742 200.392105 C 59.492367 203.475372 63.04858 205.503052 67.084442 205.503052 C 73.616302 205.503052 78.913963 200.211487 78.913963 193.687164 C 78.913963 187.162827 73.616302 181.871277 67.084442 181.871277 Z"/>
        <path id="path2" fill="#000000" stroke="none" d="M 67.084442 306.030975 C 63.04858 306.030975 59.492367 308.055237 57.357742 311.138763 C 56.617378 311.784302 55.689362 312.166504 54.670937 312.294891 L 54.670937 309.07959 C 54.670937 303.576172 59.137821 299.114166 64.647575 299.114166 L 64.647575 297.958069 L 43.553917 297.958069 L 43.553917 299.114166 C 49.063675 299.114166 53.533978 303.576172 53.533978 309.07959 L 53.533978 312.294891 C 52.515549 312.166504 51.583855 311.784302 50.843491 311.138763 C 48.709129 308.058655 45.152916 306.030975 41.117054 306.030975 C 34.58519 306.030975 29.28727 311.319092 29.28727 317.847107 C 29.28727 324.371185 34.58519 329.662994 41.117054 329.662994 C 42.570183 329.662994 43.946835 329.364258 45.229397 328.885162 C 43.411469 330.961395 42.271095 333.652466 42.271095 336.628082 C 42.271095 343.152405 47.569016 348.44397 54.100616 348.44397 C 60.632477 348.44397 65.930138 343.152405 65.930138 336.628082 C 65.930138 333.652466 64.790291 330.961395 62.968681 328.885162 C 64.258339 329.364258 65.63131 329.662994 67.084442 329.662994 C 73.616302 329.662994 78.913963 324.371185 78.913963 317.847107 C 78.913963 311.319092 73.616302 306.030975 67.084442 306.030975 Z"/>
        <path id="path3" fill="#000000" stroke="none" d="M 167.867172 47.000397 C 166.414047 47.000397 165.037659 47.29834 163.754837 47.777161 C 165.572754 45.699341 166.713135 43.011169 166.713135 40.033447 C 166.713135 33.508331 161.415207 28.217834 154.883621 28.217834 C 148.348343 28.217834 143.054092 33.508331 143.054092 40.033447 C 143.054092 43.011169 144.194199 45.699341 146.012131 47.777161 C 144.726151 47.29834 143.352921 47.000397 141.900055 47.000397 C 135.364517 47.000397 130.070267 52.290619 130.070267 58.815216 C 130.070267 65.341644 135.364517 70.631622 141.900055 70.631622 C 145.935654 70.631622 149.492126 68.60553 151.626221 65.52356 C 152.363174 64.878571 153.295135 64.496613 154.313553 64.366913 L 154.313553 67.581451 C 154.313553 73.086426 149.846405 77.548157 144.336655 77.548157 L 144.336655 78.704529 L 165.430573 78.704529 L 165.430573 77.548157 C 159.917145 77.548157 155.450256 73.086426 155.450256 67.581451 L 155.450256 64.366913 C 156.468674 64.495544 157.400375 64.877533 158.141006 65.522522 C 160.275101 68.604736 163.831314 70.631622 167.867172 70.631622 C 174.399033 70.631622 179.69696 65.341644 179.69696 58.815216 C 179.69696 52.290619 174.399033 47.000397 167.867172 47.000397 Z"/>
        <path id="path4" fill="#000000" stroke="none" d="M 167.867172 181.871277 C 166.414047 181.871277 165.037659 182.169769 163.754837 182.648865 C 165.572754 180.569199 166.713135 177.881821 166.713135 174.902512 C 166.713135 168.378189 161.415207 163.089783 154.883621 163.089783 C 148.348343 163.089783 143.054092 168.378189 143.054092 174.902512 C 143.054092 177.881821 144.194199 180.569199 146.012131 182.648865 C 144.726151 182.169769 143.352921 181.871277 141.900055 181.871277 C 135.364517 181.871277 130.070267 187.162827 130.070267 193.687164 C 130.070267 200.211487 135.364517 205.503052 141.900055 205.503052 C 145.935654 205.503052 149.492126 203.475372 151.626221 200.395523 C 152.363174 199.749466 153.295135 199.367767 154.313553 199.235718 L 154.313553 202.451019 C 154.313553 207.95784 149.846405 212.41983 144.336655 212.41983 L 144.336655 213.572556 L 165.430573 213.572556 L 165.430573 212.41983 C 159.917145 212.41983 155.450256 207.95784 155.450256 202.451019 L 155.450256 199.235718 C 156.468674 199.364349 157.400375 199.746048 158.141006 200.392105 C 160.275101 203.475372 163.831314 205.503052 167.867172 205.503052 C 174.399033 205.503052 179.69696 200.211487 179.69696 193.687164 C 179.69696 187.162827 174.399033 181.871277 167.867172 181.871277 Z"/>
        <path id="path5" fill="#000000" stroke="none" d="M 167.867172 306.030975 C 163.831314 306.030975 160.278778 308.055237 158.141006 311.138763 C 157.404053 311.784302 156.472092 312.166504 155.453674 312.294891 L 155.453674 309.07959 C 155.453674 303.576172 159.920822 299.114166 165.430573 299.114166 L 165.430573 297.958069 L 144.336655 297.958069 L 144.336655 299.114166 C 149.850082 299.114166 154.316971 303.576172 154.316971 309.07959 L 154.316971 312.294891 C 153.298553 312.166504 152.366852 311.784302 151.626221 311.138763 C 149.492126 308.058655 145.935654 306.030975 141.900055 306.030975 C 135.36792 306.030975 130.070267 311.319092 130.070267 317.847107 C 130.070267 324.371185 135.36792 329.662994 141.900055 329.662994 C 143.352921 329.662994 144.729568 329.364258 146.012131 328.885162 C 144.194199 330.961395 143.054092 333.652466 143.054092 336.628082 C 143.054092 343.152405 148.351746 348.44397 154.883621 348.44397 C 161.415207 348.44397 166.713135 343.152405 166.713135 336.628082 C 166.713135 333.652466 165.572754 330.961395 163.754837 328.885162 C 165.041077 329.364258 166.414047 329.662994 167.867172 329.662994 C 174.399033 329.662994 179.69696 324.371185 179.69696 317.847107 C 179.69696 311.319092 174.399033 306.030975 167.867172 306.030975 Z"/>
        <path id="path6" fill="#000000" stroke="none" d="M 117.475945 115.846741 C 116.022812 115.846741 114.646156 116.145477 113.363602 116.624573 C 115.181526 114.544647 116.32164 111.857269 116.32164 108.881622 C 116.32164 102.353882 111.023979 97.065765 104.492119 97.065765 C 97.956841 97.065765 92.662598 102.353882 92.662598 108.881622 C 92.662598 111.857269 93.802971 114.544647 95.620895 116.624573 C 94.334656 116.145477 92.961685 115.846741 91.508553 115.846741 C 84.973274 115.846741 79.678772 121.13855 79.678772 127.662872 C 79.678772 134.18721 84.973274 139.479019 91.508553 139.479019 C 95.544411 139.479019 99.096947 137.45108 101.234985 134.371231 C 101.971939 133.725433 102.903633 133.343475 103.922058 133.215103 L 103.922058 136.426743 C 103.922058 141.933548 99.45517 146.395554 93.945152 146.395554 L 93.945152 147.548523 L 115.039078 147.548523 L 115.039078 146.395554 C 109.525642 146.395554 105.058754 141.933548 105.058754 136.426743 L 105.058754 133.215103 C 106.077179 133.343475 107.008881 133.725433 107.749504 134.371231 C 109.883865 137.45108 113.440079 139.479019 117.475945 139.479019 C 124.007805 139.479019 129.305466 134.18721 129.305466 127.662872 C 129.305466 121.13855 124.007805 115.846741 117.475945 115.846741 Z"/>
        <path id="path7" fill="#000000" stroke="none" d="M 208.779022 376.503082 L 208.779022 0.158722 L 0.205203 0.158722 L 0.205203 376.503082 L 208.779022 376.503082 Z M 1.335065 1.2789 L 207.64917 1.279144 L 207.64917 375.381866 L 1.335065 375.381866 L 1.335065 1.2789 Z"/>
    </g>
</svg>
