<?xml version="1.0" encoding="UTF-8"?>
<!-- Generated by Pixelmator Pro 3.7 -->
<svg width="208" height="376" viewBox="0 0 208 376" xmlns="http://www.w3.org/2000/svg">
    <g id="Group-copy">
        <g id="Group">
            <path id="Path" fill="#ffffff" stroke="none" visibility="hidden" d="M -77.194595 487.067078 L 284.185547 487.067078 C 294.541199 487.067078 302.935425 478.678772 302.935425 468.330444 L 302.935425 -92.092804 C 302.935425 -102.441132 294.541199 -110.830231 284.185547 -110.830231 L -77.194595 -110.830231 C -87.550385 -110.830231 -95.947899 -102.441132 -95.947899 -92.092804 L -95.947899 468.330444 C -95.947899 478.678772 -87.550385 487.067078 -77.194595 487.067078 Z"/>
            <path id="path1" fill="#000000" stroke="none" visibility="hidden" d="M -23.621296 66.491394 C -28.599516 63.41745 -33.123146 63.580872 -37.018162 65.031555 C -34.08102 61.678802 -32.518814 57.093842 -33.48745 52.087677 C -34.73719 45.600677 -40.250187 40.560394 -46.825264 39.878204 C -55.98328 38.927155 -63.714653 46.081696 -63.714653 55.039124 C -63.714653 58.881287 -62.246017 62.350494 -59.899162 65.031555 C -63.780403 63.585602 -68.286575 63.418518 -73.254433 66.463074 C -76.54892 68.480286 -79.059029 71.647858 -79.982391 75.394287 C -82.474915 85.49295 -74.896431 94.522766 -65.203766 94.522766 C -59.99995 94.522766 -55.413986 91.907043 -52.661098 87.931641 C -51.706371 87.098877 -50.505058 86.606598 -49.192852 86.439758 L -49.192852 90.585388 C -49.192852 97.690338 -54.955719 103.449005 -62.062027 103.449005 L -62.062027 104.937195 L -34.855301 104.937195 L -34.855301 103.449005 C -41.965019 103.449005 -47.724346 97.690338 -47.724346 90.585388 L -47.724346 86.439758 C -46.412006 86.602905 -45.210823 87.098877 -44.256363 87.931641 C -41.503471 91.907043 -36.917374 94.522766 -31.71002 94.522766 C -22.034941 94.522766 -14.463278 85.520477 -16.921156 75.439423 C -17.837692 71.692719 -20.33717 68.519897 -23.621296 66.491394 Z"/>
        </g>
        <g id="g1">
            <path id="path2" fill="#000000" stroke="none" d="M 116.425476 181.663528 C 114.974297 181.663528 113.599487 181.962006 112.314972 182.440674 C 114.134132 180.366028 115.26931 177.677383 115.26931 174.704407 C 115.26931 168.186188 109.982162 162.899368 103.459053 162.899368 C 96.932541 162.899368 91.645126 168.186188 91.645126 174.704407 C 91.645126 177.677383 92.783974 180.366028 94.599464 182.440674 C 93.314949 181.962006 91.940407 181.663528 90.492638 181.663528 C 83.966118 181.663528 78.67897 186.950607 78.67897 193.469101 C 78.67897 199.990997 83.966118 205.274399 90.492638 205.274399 C 94.523087 205.274399 98.071121 203.251953 100.202621 200.171188 C 100.942253 199.52623 101.872437 199.144348 102.889763 199.016098 L 102.889763 202.228531 C 102.889763 207.727264 98.428864 212.184998 92.926231 212.184998 L 92.926231 213.339828 L 113.988205 213.339828 L 113.988205 212.184998 C 108.485832 212.184998 104.024673 207.727264 104.024673 202.228531 L 104.024673 199.016098 C 105.042 199.144348 105.972443 199.52623 106.711815 200.171188 C 108.843575 203.248535 112.39476 205.274399 116.425476 205.274399 C 122.948318 205.274399 128.239136 199.990997 128.239136 193.469101 C 128.239136 186.950607 122.948318 181.663528 116.425476 181.663528 Z"/>
            <path id="path3" fill="#000000" stroke="none" d="M 66.101524 46.857788 C 64.650345 46.857788 63.275799 47.155212 61.99102 47.633606 C 63.810184 45.557648 64.945358 42.871887 64.945358 39.89682 C 64.945358 33.377808 59.658211 28.092316 53.135105 28.092316 C 46.608585 28.092316 41.321178 33.377808 41.321178 39.89682 C 41.321178 42.871887 42.460026 45.557648 44.275776 47.633606 C 42.991261 47.155212 41.616455 46.857788 40.168682 46.857788 C 33.642166 46.857788 28.355021 52.14328 28.355021 58.662292 C 28.355021 65.182617 33.642166 70.468109 40.168682 70.468109 C 44.199398 70.468109 47.747169 68.443848 49.878933 65.36438 C 50.618305 64.719696 51.548489 64.338348 52.565811 64.208771 L 52.565811 67.420685 C 52.565811 72.920715 48.104916 77.378448 42.602283 77.378448 L 42.602283 78.533813 L 63.664516 78.533813 L 63.664516 77.378448 C 58.161884 77.378448 53.700985 72.920715 53.700985 67.420685 L 53.700985 64.208771 C 54.718307 64.337036 55.648495 64.718658 56.387863 65.363342 C 58.519627 68.443054 62.071075 70.468109 66.101524 70.468109 C 72.624367 70.468109 77.915192 65.182617 77.915192 58.662292 C 77.915192 52.14328 72.624367 46.857788 66.101524 46.857788 Z"/>
            <path id="path4" fill="#000000" stroke="none" d="M 66.101524 305.656738 C 62.071075 305.656738 58.519627 307.679169 56.387863 310.759949 C 55.648495 311.404907 54.721722 311.786774 53.700985 311.915039 L 53.700985 308.702606 C 53.700985 303.204132 58.165295 298.742981 63.664516 298.742981 L 63.664516 297.591034 L 42.602283 297.591034 L 42.602283 298.742981 C 48.104916 298.742981 52.569489 303.204132 52.569489 308.702606 L 52.569489 311.915039 C 51.548489 311.786774 50.618305 311.404907 49.882343 310.759949 C 47.750584 307.682587 44.199398 305.656738 40.168682 305.656738 C 33.642166 305.656738 28.355021 310.940125 28.355021 317.46228 C 28.355021 323.98053 33.642166 329.267578 40.168682 329.267578 C 41.619865 329.267578 42.991261 328.969116 44.275776 328.490448 C 42.460026 330.564819 41.321178 333.253479 41.321178 336.22644 C 41.321178 342.744934 46.612 348.031738 53.135105 348.031738 C 59.658211 348.031738 64.945358 342.744934 64.945358 336.22644 C 64.945358 333.253479 63.810184 330.564819 61.99102 328.490448 C 63.275799 328.969116 64.650345 329.267578 66.101524 329.267578 C 72.624367 329.267578 77.915192 323.98053 77.915192 317.46228 C 77.915192 310.940125 72.624367 305.656738 66.101524 305.656738 Z"/>
            <path id="path5" fill="#000000" stroke="none" d="M 140.656998 70.468109 C 144.687454 70.468109 148.238907 68.443573 150.370148 65.36438 C 151.109772 64.719696 152.036804 64.338348 153.053864 64.208771 L 153.053864 67.420685 C 153.053864 72.920715 148.592712 77.378448 143.090347 77.378448 L 143.090347 78.530396 L 164.155991 78.530396 L 164.155991 77.378448 C 158.65361 77.378448 154.189301 72.920715 154.189301 67.420685 L 154.189301 64.208771 C 155.2061 64.337036 156.136551 64.718658 156.87619 65.363342 C 159.00769 68.443054 162.559128 70.468109 166.589325 70.468109 C 173.112686 70.468109 178.403244 65.182617 178.403244 58.662292 C 178.403244 52.14328 173.112686 46.857788 166.589325 46.857788 C 165.138397 46.857788 163.767273 47.155212 162.482758 47.633606 C 164.298248 45.557648 165.436829 42.871887 165.436829 39.89682 C 165.436829 33.377808 160.14653 28.092316 153.623169 28.092316 C 147.100327 28.092316 141.809494 33.377808 141.809494 39.89682 C 141.809494 42.871887 142.948349 45.557648 144.766983 47.633606 C 143.479324 47.155212 142.108185 46.857788 140.656998 46.857788 C 134.133896 46.857788 128.843079 52.14328 128.843079 58.662292 C 128.843079 65.182617 134.133896 70.468109 140.656998 70.468109 Z"/>
            <path id="path6" fill="#000000" stroke="none" d="M 166.589325 305.656738 C 162.559128 305.656738 159.011093 307.679169 156.87619 310.759949 C 156.140228 311.404907 155.209518 311.786774 154.192459 311.915039 L 154.192459 308.702606 C 154.192459 303.204132 158.65361 298.742981 164.155991 298.742981 L 164.155991 297.591034 L 143.090347 297.591034 L 143.090347 298.742981 C 148.59639 298.742981 153.057281 303.204132 153.057281 308.702606 L 153.057281 311.915039 C 152.040222 311.786774 151.109772 311.404907 150.370148 310.759949 C 148.238907 307.682587 144.687454 305.656738 140.656998 305.656738 C 134.133896 305.656738 128.843079 310.940125 128.843079 317.46228 C 128.843079 323.98053 134.133896 329.267578 140.656998 329.267578 C 142.108185 329.267578 143.482986 328.969116 144.766983 328.490448 C 142.948349 330.564819 141.809494 333.253479 141.809494 336.22644 C 141.809494 342.744934 147.100327 348.031738 153.623169 348.031738 C 160.149673 348.031738 165.436829 342.744934 165.436829 336.22644 C 165.436829 333.253479 164.298248 330.564819 162.482758 328.490448 C 163.767273 328.969116 165.138397 329.267578 166.589325 329.267578 C 173.116104 329.267578 178.403244 323.98053 178.403244 317.46228 C 178.403244 310.940125 173.116104 305.656738 166.589325 305.656738 Z"/>
            <path id="path7" fill="#000000" stroke="none" d="M 207.640823 376.149139 L 207.640823 0.141205 L -0.653417 0.141205 L -0.653417 376.149139 L 207.640823 376.149139 Z M 0.478343 1.260345 L 206.512726 1.26062 L 206.512726 375.028412 L 0.478343 375.028412 L 0.478343 1.260345 Z"/>
        </g>
        <path id="path8" fill="#000000" stroke="none" d="M 207.640823 376.149139 L 207.640823 0.141205 L -0.653417 0.141205 L -0.653417 376.149139 L 207.640823 376.149139 Z M 0.478343 1.260345 L 206.512726 1.26062 L 206.512726 375.028412 L 0.478343 375.028412 L 0.478343 1.260345 Z"/>
    </g>
</svg>
