<?xml version="1.0" encoding="UTF-8"?>
<!-- Generated by Pixelmator Pro 3.7 -->
<svg width="209" height="376" viewBox="0 0 209 376" xmlns="http://www.w3.org/2000/svg">
    <g id="Group-copy">
        <path id="Path" fill="#000000" stroke="none" d="M 40.981701 70.631622 C 45.017563 70.631622 48.570099 68.60553 50.708138 65.52356 C 51.445084 64.878571 52.376781 64.496613 53.395206 64.366913 L 53.395206 67.581451 C 53.395206 73.086426 48.928322 77.548157 43.418304 77.548157 L 43.418304 78.704529 L 64.512222 78.704529 L 64.512222 77.548157 C 58.998791 77.548157 54.531902 73.086426 54.531902 67.581451 L 54.531902 64.366913 C 55.550331 64.495544 56.482025 64.877533 57.222652 65.522522 C 59.357014 68.604736 62.912964 70.631622 66.949089 70.631622 C 73.48069 70.631622 78.77861 65.341644 78.77861 58.815216 C 78.77861 52.290619 73.48069 47.000397 66.949089 47.000397 C 65.495956 47.000397 64.119308 47.29834 62.833332 47.777161 C 64.654671 45.699341 65.795044 43.011169 65.795044 40.033447 C 65.795044 33.508331 60.497124 28.217834 53.965263 28.217834 C 47.429985 28.217834 42.135742 33.508331 42.135742 40.033447 C 42.135742 43.011169 43.275856 45.699341 45.093781 47.777161 C 43.807804 47.29834 42.43457 47.000397 40.981701 47.000397 C 34.446423 47.000397 29.151917 52.290619 29.151917 58.815216 C 29.151917 65.341644 34.446423 70.631622 40.981701 70.631622 Z"/>
        <path id="path1" fill="#000000" stroke="none" d="M 66.949089 306.030975 C 62.912964 306.030975 59.357014 308.055237 57.222652 311.138763 C 56.482025 311.784302 55.554008 312.166504 54.53532 312.294891 L 54.53532 309.07959 C 54.53532 303.576172 59.002468 299.114166 64.512222 299.114166 L 64.512222 297.958069 L 43.418304 297.958069 L 43.418304 299.114166 C 48.928322 299.114166 53.398624 303.576172 53.398624 309.07959 L 53.398624 312.294891 C 52.380196 312.166504 51.448502 311.784302 50.708138 311.138763 C 48.573776 308.058655 45.017563 306.030975 40.981701 306.030975 C 34.449577 306.030975 29.151917 311.319092 29.151917 317.847107 C 29.151917 324.371185 34.449577 329.662994 40.981701 329.662994 C 42.43457 329.662994 43.807804 329.364258 45.093781 328.885162 C 43.275856 330.961395 42.135742 333.652466 42.135742 336.628082 C 42.135742 343.152405 47.433666 348.44397 53.965263 348.44397 C 60.497124 348.44397 65.795044 343.152405 65.795044 336.628082 C 65.795044 333.652466 64.654671 330.961395 62.833332 328.885162 C 64.122726 329.364258 65.495956 329.662994 66.949089 329.662994 C 73.48069 329.662994 78.77861 324.371185 78.77861 317.847107 C 78.77861 311.319092 73.48069 306.030975 66.949089 306.030975 Z"/>
        <path id="path2" fill="#000000" stroke="none" d="M 167.732086 47.000397 C 166.278961 47.000397 164.902313 47.29834 163.619476 47.777161 C 165.437668 45.699341 166.577789 43.011169 166.577789 40.033447 C 166.577789 33.508331 161.280121 28.217834 154.748001 28.217834 C 148.2164 28.217834 142.918747 33.508331 142.918747 40.033447 C 142.918747 43.011169 144.058853 45.699341 145.876785 47.777161 C 144.590546 47.29834 143.217575 47.000397 141.764435 47.000397 C 135.229156 47.000397 129.934647 52.290619 129.934647 58.815216 C 129.934647 65.341644 135.229156 70.631622 141.764435 70.631622 C 145.800293 70.631622 149.353104 68.60553 151.490875 65.52356 C 152.228088 64.878571 153.159515 64.496613 154.177948 64.366913 L 154.177948 67.581451 C 154.177948 73.086426 149.71106 77.548157 144.201309 77.548157 L 144.201309 78.704529 L 165.294952 78.704529 L 165.294952 77.548157 C 159.781784 77.548157 155.314896 73.086426 155.314896 67.581451 L 155.314896 64.366913 C 156.333328 64.495544 157.26503 64.877533 158.005386 65.522522 C 160.139755 68.604736 163.695969 70.631622 167.732086 70.631622 C 174.263687 70.631622 179.56134 65.341644 179.56134 58.815216 C 179.56134 52.290619 174.263687 47.000397 167.732086 47.000397 Z"/>
        <path id="path3" fill="#000000" stroke="none" d="M 167.732086 306.030975 C 163.695969 306.030975 160.143158 308.055237 158.005386 311.138763 C 157.268448 311.784302 156.337006 312.166504 155.318314 312.294891 L 155.318314 309.07959 C 155.318314 303.576172 159.785202 299.114166 165.294952 299.114166 L 165.294952 297.958069 L 144.201309 297.958069 L 144.201309 299.114166 C 149.714478 299.114166 154.181625 303.576172 154.181625 309.07959 L 154.181625 312.294891 C 153.162933 312.166504 152.231232 311.784302 151.490875 311.138763 C 149.356506 308.058655 145.800293 306.030975 141.764435 306.030975 C 135.232574 306.030975 129.934647 311.319092 129.934647 317.847107 C 129.934647 324.371185 135.232574 329.662994 141.764435 329.662994 C 143.217575 329.662994 144.594223 329.364258 145.876785 328.885162 C 144.058853 330.961395 142.918747 333.652466 142.918747 336.628082 C 142.918747 343.152405 148.2164 348.44397 154.748001 348.44397 C 161.280121 348.44397 166.577789 343.152405 166.577789 336.628082 C 166.577789 333.652466 165.437668 330.961395 163.619476 328.885162 C 164.905731 329.364258 166.278961 329.662994 167.732086 329.662994 C 174.267365 329.662994 179.56134 324.371185 179.56134 317.847107 C 179.56134 311.319092 174.267365 306.030975 167.732086 306.030975 Z"/>
        <path id="path4" fill="#000000" stroke="none" d="M 66.949089 181.871277 C 65.495956 181.871277 64.119308 182.169769 62.833332 182.648865 C 64.654671 180.569199 65.795044 177.881821 65.795044 174.902512 C 65.795044 168.378189 60.497124 163.089783 53.965263 163.089783 C 47.429985 163.089783 42.135742 168.378189 42.135742 174.902512 C 42.135742 177.881821 43.275856 180.569199 45.093781 182.648865 C 43.807804 182.169769 42.43457 181.871277 40.981701 181.871277 C 34.446423 181.871277 29.151917 187.162827 29.151917 193.687164 C 29.151917 200.211487 34.446423 205.503052 40.981701 205.503052 C 45.017563 205.503052 48.570099 203.475372 50.708138 200.395523 C 51.445084 199.749466 52.376781 199.367767 53.395206 199.235718 L 53.395206 202.451019 C 53.395206 207.95784 48.928322 212.41983 43.418304 212.41983 L 43.418304 213.572556 L 64.512222 213.572556 L 64.512222 212.41983 C 58.998791 212.41983 54.531902 207.95784 54.531902 202.451019 L 54.531902 199.235718 C 55.550331 199.364349 56.482025 199.746048 57.222652 200.392105 C 59.357014 203.475372 62.912964 205.503052 66.949089 205.503052 C 73.48069 205.503052 78.77861 200.211487 78.77861 193.687164 C 78.77861 187.162827 73.48069 181.871277 66.949089 181.871277 Z"/>
        <path id="path5" fill="#000000" stroke="none" d="M 129.934647 193.687164 C 129.934647 200.211487 135.229156 205.503052 141.764435 205.503052 C 145.800293 205.503052 149.353104 203.475372 151.490875 200.395523 C 152.228088 199.749466 153.159515 199.367767 154.177948 199.235718 L 154.177948 202.451019 C 154.177948 207.95784 149.71106 212.41983 144.201309 212.41983 L 144.201309 213.572556 L 165.294952 213.572556 L 165.294952 212.41983 C 159.781784 212.41983 155.314896 207.95784 155.314896 202.451019 L 155.314896 199.235718 C 156.333328 199.364349 157.26503 199.746048 158.005386 200.392105 C 160.139755 203.475372 163.695969 205.503052 167.732086 205.503052 C 174.263687 205.503052 179.56134 200.211487 179.56134 193.687164 C 179.56134 187.162827 174.263687 181.871277 167.732086 181.871277 C 166.278961 181.871277 164.902313 182.169769 163.619476 182.648865 C 165.437668 180.569199 166.577789 177.881821 166.577789 174.902512 C 166.577789 168.378189 161.280121 163.089783 154.748001 163.089783 C 148.2164 163.089783 142.918747 168.378189 142.918747 174.902512 C 142.918747 177.881821 144.058853 180.569199 145.876785 182.648865 C 144.590546 182.169769 143.217575 181.871277 141.764435 181.871277 C 135.229156 181.871277 129.934647 187.162827 129.934647 193.687164 Z"/>
        <path id="path6" fill="#000000" stroke="none" d="M 91.373199 139.479019 C 95.408798 139.479019 98.961601 137.45108 101.09964 134.371231 C 101.836586 133.725433 102.76828 133.343475 103.786705 133.215103 L 103.786705 136.426743 C 103.786705 141.933548 99.319824 146.395554 93.809799 146.395554 L 93.809799 147.548523 L 114.903458 147.548523 L 114.903458 146.395554 C 109.390289 146.395554 104.923401 141.933548 104.923401 136.426743 L 104.923401 133.215103 C 105.941826 133.343475 106.873528 133.725433 107.613892 134.371231 C 109.748512 137.45108 113.304466 139.479019 117.340591 139.479019 C 123.872185 139.479019 129.170105 134.18721 129.170105 127.662872 C 129.170105 121.13855 123.872185 115.846741 117.340591 115.846741 C 115.887459 115.846741 114.510811 116.145477 113.227982 116.624573 C 115.046173 114.544647 116.186546 111.857269 116.186546 108.881622 C 116.186546 102.353882 110.888626 97.065765 104.356766 97.065765 C 97.821487 97.065765 92.527245 102.353882 92.527245 108.881622 C 92.527245 111.857269 93.667358 114.544647 95.485283 116.624573 C 94.199036 116.145477 92.826065 115.846741 91.373199 115.846741 C 84.837662 115.846741 79.543419 121.13855 79.543419 127.662872 C 79.543419 134.18721 84.837662 139.479019 91.373199 139.479019 Z"/>
        <path id="path7" fill="#000000" stroke="none" d="M 117.340591 237.259964 C 113.304466 237.259964 109.748512 239.287903 107.613892 242.37117 C 106.873528 243.01355 105.945511 243.395508 104.926819 243.527298 L 104.926819 240.311981 C 104.926819 234.805435 109.393967 230.34343 114.903458 230.34343 L 114.903458 229.19072 L 93.809799 229.19072 L 93.809799 230.34343 C 99.319824 230.34343 103.790123 234.805435 103.790123 240.311981 L 103.790123 243.527298 C 102.771431 243.398926 101.840004 243.016953 101.09964 242.37117 C 98.965279 239.287903 95.408798 237.259964 91.373199 237.259964 C 84.84108 237.259964 79.543419 242.551773 79.543419 249.079529 C 79.543419 255.603851 84.84108 260.891998 91.373199 260.891998 C 92.826065 260.891998 94.202721 260.593506 95.485283 260.117828 C 93.667358 262.194092 92.527245 264.88147 92.527245 267.860779 C 92.527245 274.385101 97.824905 279.676636 104.356766 279.676636 C 110.888626 279.676636 116.186546 274.385101 116.186546 267.860779 C 116.186546 264.88147 115.046173 262.194092 113.227982 260.117828 C 114.514221 260.593506 115.887459 260.891998 117.340591 260.891998 C 123.872185 260.891998 129.170105 255.603851 129.170105 249.079529 C 129.170105 242.551773 123.872185 237.259964 117.340591 237.259964 Z"/>
        <path id="path8" fill="#000000" stroke="none" d="M 208.643677 376.503082 L 208.643677 0.158722 L 0.06985 0.158722 L 0.06985 376.503082 L 208.643677 376.503082 Z M 1.199713 1.2789 L 207.513809 1.279144 L 207.513809 375.381866 L 1.199713 375.381866 L 1.199713 1.2789 Z"/>
    </g>
</svg>
