<?xml version="1.0" encoding="UTF-8"?>
<!-- Generated by Pixelmator Pro 3.7 -->
<svg width="208" height="376" viewBox="0 0 208 376" xmlns="http://www.w3.org/2000/svg">
    <g id="Group-copy">
        <path id="Path" fill="#000000" stroke="none" d="M 207.568054 376.903687 L 207.568054 1.183685 L -0.485633 1.183685 L -0.485633 376.903687 L 207.568054 376.903687 Z M 0.641149 2.303436 L 206.440887 2.303436 L 206.440887 375.784088 L 0.641149 375.784088 L 0.641149 2.303436 Z"/>
        <path id="path1" fill="#000000" stroke="none" d="M 103.544487 29.171661 L 83.546982 49.159119 C 78.477379 54.227081 78.477379 62.445892 83.546982 67.513977 C 88.616844 72.5784 96.834915 72.5784 101.904518 67.513977 L 102.979523 66.439453 L 102.979523 68.522614 C 102.979523 73.992706 98.540947 78.4263 93.072464 78.4263 L 93.072464 79.5737 L 114.012848 79.5737 L 114.012848 78.4263 C 108.541214 78.4263 104.106178 73.992706 104.106178 68.522614 L 104.106178 66.435913 L 105.181313 67.513977 C 110.250656 72.5784 118.468857 72.5784 123.53846 67.513977 C 128.608063 62.445892 128.608063 54.227081 123.53846 49.159119 L 103.544487 29.171661 Z"/>
        <path id="path2" fill="#000000" stroke="none" d="M 103.544487 163.818298 L 83.546982 183.80603 C 78.477379 188.873993 78.477379 197.089386 83.546982 202.157349 C 88.616844 207.225037 96.834915 207.225037 101.904518 202.157349 L 102.979523 201.08609 L 102.979523 203.169495 C 102.979523 208.635941 98.540947 213.072952 93.072464 213.072952 L 93.072464 214.216919 L 114.012848 214.216919 L 114.012848 213.072952 C 108.541214 213.072952 104.106178 208.635941 104.106178 203.169495 L 104.106178 201.082428 L 105.181313 202.157349 C 110.250656 207.225037 118.468857 207.225037 123.53846 202.157349 C 128.608063 197.089386 128.608063 188.873993 123.53846 183.80603 L 103.544487 163.818298 Z"/>
        <path id="path3" fill="#000000" stroke="none" d="M 101.904518 310.521484 C 96.834915 305.456818 88.616844 305.456818 83.546982 310.521484 C 78.477379 315.589325 78.477379 323.80838 83.546982 328.876068 L 103.541214 348.863556 L 123.53846 328.876068 C 128.608063 323.80838 128.608063 315.589325 123.53846 310.521484 C 118.468857 305.456818 110.247375 305.456818 105.177773 310.521484 L 104.106178 311.596008 L 104.106178 309.512756 C 104.106178 304.042755 108.541214 299.609039 114.012848 299.609039 L 114.012848 298.461792 L 93.072464 298.461792 L 93.072464 299.609039 C 98.544228 299.609039 102.979523 304.042755 102.979523 309.512756 L 102.979523 311.599548 L 101.904518 310.521484 Z"/>
    </g>
</svg>
