<?xml version="1.0" encoding="UTF-8"?>
<!-- Generated by Pixelmator Pro 3.7 -->
<svg width="209" height="376" viewBox="0 0 209 376" xmlns="http://www.w3.org/2000/svg">
    <g id="Group-copy">
        <path id="Path" fill="#000000" stroke="none" d="M 208.677582 376.718201 L 208.677582 0.370972 L 0.103886 0.370972 L 0.103886 376.718201 L 208.677582 376.718201 Z M 1.233748 1.492584 L 207.547974 1.492584 L 207.547974 375.596741 L 1.233748 375.596741 L 1.233748 1.492584 Z"/>
        <path id="path1" fill="#000000" stroke="none" d="M 52.35891 66.812012 L 53.432793 65.735687 L 53.432793 67.822296 C 53.432793 73.301544 48.986931 77.742554 43.504772 77.742554 L 43.504772 78.891846 L 64.497505 78.891846 L 64.497505 77.742554 C 59.012192 77.742554 54.562389 73.301544 54.562389 67.822296 L 54.562389 65.732147 L 55.640213 66.812012 C 60.722626 71.884888 68.961235 71.884888 74.046799 66.812012 C 79.129211 61.735443 79.129211 53.50293 74.046799 48.426514 L 53.999432 28.40567 L 33.955475 48.426514 C 28.873327 53.50293 28.873327 61.735443 33.955475 66.812012 C 39.037624 71.884888 47.276237 71.884888 52.35891 66.812012 Z"/>
        <path id="path2" fill="#000000" stroke="none" d="M 104.390663 163.277084 L 84.346977 183.298187 C 79.264824 188.374619 79.264824 196.603729 84.346977 201.680145 C 89.429123 206.756302 97.667732 206.756302 102.750145 201.680145 L 103.824287 200.607101 L 103.824287 202.693985 C 103.824287 208.169556 99.378166 212.613968 93.896271 212.613968 L 93.896271 213.759857 L 114.88559 213.759857 L 114.88559 212.613968 C 109.403427 212.613968 104.953888 208.169556 104.953888 202.693985 L 104.953888 200.603424 L 106.031715 201.680145 C 111.11412 206.756302 119.352737 206.756302 124.434883 201.680145 C 129.517288 196.603729 129.517288 188.374619 124.434883 183.298187 L 104.390663 163.277084 Z"/>
        <path id="path3" fill="#000000" stroke="none" d="M 53.999432 348.631287 L 74.043648 328.610443 C 79.125793 323.534271 79.125793 315.301483 74.043648 310.225189 C 68.961235 305.152069 60.722626 305.152069 55.640213 310.225189 L 54.566071 311.301514 L 54.566071 309.214783 C 54.566071 303.735657 59.012192 299.294525 64.494087 299.294525 L 64.494087 298.145355 L 43.501354 298.145355 L 43.501354 299.294525 C 48.986931 299.294525 53.432793 303.735657 53.432793 309.214783 L 53.432793 311.305054 L 52.35891 310.225189 C 47.276237 305.152069 39.034206 305.152069 33.952057 310.225189 C 28.869911 315.301483 28.869911 323.534271 33.952057 328.610443 L 53.999432 348.631287 Z"/>
        <path id="path4" fill="#000000" stroke="none" d="M 153.141388 66.812012 L 154.21579 65.735687 L 154.21579 67.822296 C 154.21579 73.301544 149.769669 77.742554 144.287506 77.742554 L 144.287506 78.891846 L 165.280502 78.891846 L 165.280502 77.742554 C 159.795197 77.742554 155.349075 73.301544 155.349075 67.822296 L 155.349075 65.732147 L 156.422943 66.812012 C 161.505356 71.884888 169.747391 71.884888 174.829803 66.812012 C 179.911942 61.735443 179.911942 53.50293 174.829803 48.426514 L 154.782166 28.40567 L 134.73848 48.426514 C 129.656326 53.50293 129.656326 61.735443 134.73848 66.812012 C 139.820618 71.884888 148.059235 71.884888 153.141388 66.812012 Z"/>
        <path id="path5" fill="#000000" stroke="none" d="M 154.782166 348.631287 L 174.826385 328.610443 C 179.908539 323.534271 179.908539 315.301483 174.826385 310.225189 C 169.743973 305.152069 161.505356 305.152069 156.422943 310.225189 L 155.349075 311.301514 L 155.349075 309.214783 C 155.349075 303.735657 159.795197 299.294525 165.277084 299.294525 L 165.277084 298.145355 L 144.287506 298.145355 L 144.287506 299.294525 C 149.769669 299.294525 154.218948 303.735657 154.218948 309.214783 L 154.218948 311.305054 L 153.141388 310.225189 C 148.059235 305.152069 139.820618 305.152069 134.73848 310.225189 C 129.652649 315.301483 129.652649 323.534271 134.73848 328.610443 L 154.782166 348.631287 Z"/>
    </g>
</svg>
