<?xml version="1.0" encoding="UTF-8"?>
<!-- Generated by Pixelmator Pro 3.7 -->
<svg width="400" height="599" viewBox="0 0 400 599" xmlns="http://www.w3.org/2000/svg">
    <g id="Group-copy">
        <path id="Path" fill="#000000" stroke="none" d="M 303.970215 487.581421 L 303.970215 111.882172 L 95.927017 111.882172 L 95.927017 487.581421 L 303.970215 487.581421 Z M 97.057465 113.00177 L 302.843445 113.00177 L 302.843445 486.461578 L 97.057465 486.461578 L 97.057465 113.00177 Z"/>
        <path id="path1" fill="#ff0000" stroke="none" d="M 149.698517 139.922363 C 147.222626 144.178925 143.453232 149.572632 137.766876 155.077545 C 133.293304 159.410645 128.78566 162.700195 124.936554 165.133606 C 128.78566 167.566986 133.293304 170.856567 137.766876 175.189636 C 143.453232 180.697815 147.222626 186.091614 149.698517 190.34845 C 152.174393 186.091614 155.943787 180.697815 161.626999 175.189636 C 166.100037 170.856567 170.608215 167.566986 174.460464 165.133606 C 170.608215 162.700195 166.100037 159.410645 161.626999 155.077545 C 155.943787 149.572632 152.174393 144.178925 149.698517 139.922363 Z"/>
        <path id="path2" fill="#ff0000" stroke="none" d="M 250.199249 139.922363 C 247.722839 144.178925 243.953964 149.572632 238.270767 155.077545 C 233.797714 159.410645 229.285858 162.700195 225.437286 165.133606 C 229.285858 167.566986 233.797714 170.856567 238.270767 175.189636 C 243.953964 180.697815 247.722839 186.091614 250.199249 190.34845 C 252.674606 186.091614 256.444 180.697815 262.130859 175.189636 C 266.603912 170.856567 271.111572 167.566986 274.960663 165.133606 C 271.111572 162.700195 266.603912 159.410645 262.130859 155.077545 C 256.444 149.572632 252.674606 144.178925 250.199249 139.922363 Z"/>
        <path id="path3" fill="#ff0000" stroke="none" d="M 149.698517 230.839752 C 147.222626 235.096771 143.453232 240.49057 137.766876 245.998566 C 133.293304 250.331635 128.78566 253.621155 124.936554 256.054596 C 128.78566 258.488037 133.293304 261.777802 137.766876 266.11087 C 143.453232 271.61554 147.222626 277.009338 149.698517 281.266144 C 152.174393 277.009338 155.943787 271.61554 161.626999 266.11087 C 166.100037 261.777802 170.608215 258.488037 174.460464 256.054596 C 170.608215 253.621155 166.100037 250.331635 161.626999 245.998566 C 155.943787 240.49057 152.174393 235.096771 149.698517 230.839752 Z"/>
        <path id="path4" fill="#ff0000" stroke="none" d="M 250.199249 230.839752 C 247.722839 235.096771 243.953964 240.49057 238.270767 245.998566 C 233.797714 250.331635 229.285858 253.621155 225.437286 256.054596 C 229.285858 258.488037 233.797714 261.777802 238.270767 266.11087 C 243.953964 271.61554 247.722839 277.009338 250.199249 281.266144 C 252.674606 277.009338 256.444 271.61554 262.130859 266.11087 C 266.603912 261.777802 271.111572 258.488037 274.960663 256.054596 C 271.111572 253.621155 266.603912 250.331635 262.130859 245.998566 C 256.444 240.49057 252.674606 235.096771 250.199249 230.839752 Z"/>
        <path id="path5" fill="#ff0000" stroke="none" d="M 199.947037 187.682892 C 197.471161 191.939392 193.702286 197.333191 188.018555 202.837891 C 183.545517 207.174438 179.037857 210.460724 175.185089 212.894135 C 179.037857 215.331146 183.545517 218.617096 188.018555 222.950165 C 193.702286 228.458466 197.471161 233.852203 199.947037 238.108978 C 202.42659 233.852203 206.192322 228.458466 211.878677 222.950165 C 216.352249 218.617096 220.859894 215.331146 224.712662 212.894135 C 220.859894 210.460724 216.352249 207.170898 211.878677 202.837891 C 206.192322 197.333191 202.42659 191.939392 199.947037 187.682892 Z"/>
        <path id="path6" fill="#ff0000" stroke="none" d="M 149.698517 321.761017 C 147.222626 326.017792 143.453232 331.41153 137.766876 336.91626 C 133.293304 341.249329 128.78566 344.539124 124.936554 346.972473 C 128.78566 349.406006 133.293304 352.695496 137.766876 357.028564 C 143.453232 362.536591 147.222626 367.930359 149.698517 372.187378 C 152.174393 367.930359 155.943787 362.536591 161.626999 357.028564 C 166.100037 352.695496 170.608215 349.406006 174.460464 346.972473 C 170.608215 344.539124 166.100037 341.249329 161.626999 336.91626 C 155.943787 331.41153 152.174393 326.017792 149.698517 321.761017 Z"/>
        <path id="path7" fill="#ff0000" stroke="none" d="M 250.199249 321.761017 C 247.722839 326.017792 243.953964 331.41153 238.270767 336.91626 C 233.797714 341.249329 229.285858 344.539124 225.437286 346.972473 C 229.285858 349.406006 233.797714 352.695496 238.270767 357.028564 C 243.953964 362.536591 247.722839 367.930359 250.199249 372.187378 C 252.674606 367.930359 256.444 362.536591 262.130859 357.028564 C 266.603912 352.695496 271.111572 349.406006 274.960663 346.972473 C 271.111572 344.539124 266.603912 341.249329 262.130859 336.91626 C 256.444 331.41153 252.674606 326.017792 250.199249 321.761017 Z"/>
        <path id="path8" fill="#ff0000" stroke="none" d="M 149.698517 409.173981 C 147.222626 413.42746 143.453232 418.821259 137.766876 424.329285 C 133.293304 428.662323 128.78566 431.952118 124.936554 434.385498 C 128.78566 436.818848 133.293304 440.108459 137.766876 444.441528 C 143.453232 449.946167 147.222626 455.339935 149.698517 459.596954 C 152.174393 455.339935 155.943787 449.946167 161.626999 444.441528 C 166.100037 440.108459 170.608215 436.818848 174.460464 434.385498 C 170.608215 431.952118 166.100037 428.662323 161.626999 424.329285 C 155.943787 418.821259 152.174393 413.42746 149.698517 409.173981 Z"/>
        <path id="path9" fill="#ff0000" stroke="none" d="M 199.947037 361.410034 C 197.471161 365.666931 193.702286 371.06073 188.018555 376.568726 C 183.545517 380.901794 179.037857 384.191589 175.185089 386.624939 C 179.037857 389.058319 183.545517 392.347961 188.018555 396.681 C 193.702286 402.185913 197.471161 407.579712 199.947037 411.836151 C 202.42659 407.579712 206.192322 402.185913 211.878677 396.681 C 216.352249 392.347961 220.859894 389.058319 224.712662 386.624939 C 220.859894 384.191589 216.352249 380.901794 211.878677 376.568726 C 206.192322 371.06073 202.42659 365.666931 199.947037 361.410034 Z"/>
        <path id="path10" fill="#ff0000" stroke="none" d="M 250.199249 409.173981 C 247.722839 413.42746 243.953964 418.821259 238.270767 424.329285 C 233.797714 428.662323 229.285858 431.952118 225.437286 434.385498 C 229.285858 436.818848 233.797714 440.108459 238.270767 444.441528 C 243.953964 449.946167 247.722839 455.339935 250.199249 459.596954 C 252.674606 455.339935 256.444 449.946167 262.130859 444.441528 C 266.603912 440.108459 271.111572 436.818848 274.960663 434.385498 C 271.111572 431.952118 266.603912 428.662323 262.130859 424.329285 C 256.444 418.821259 252.674606 413.42746 250.199249 409.173981 Z"/>
    </g>
</svg>
