<?xml version="1.0" encoding="UTF-8"?>
<!-- Generated by Pixelmator Pro 3.7 -->
<svg width="360" height="539" viewBox="0 0 360 539" xmlns="http://www.w3.org/2000/svg">
    <g id="Group-copy">
        <path id="Path" fill="#ffffff" stroke="none" d="M 342.057098 0.925903 L 17.193529 0.925903 C 7.884438 0.925903 0.335046 8.46814 0.335046 17.772827 L 0.335046 521.669312 C 0.335046 530.973816 7.884438 538.515991 17.193529 538.515991 L 342.057098 538.515991 C 351.36618 538.515991 358.91275 530.973816 358.91275 521.669312 L 358.91275 17.772827 C 358.91275 8.46814 351.36618 0.925903 342.057098 0.925903 Z"/>
        <path id="path1" fill="#000000" stroke="none" d="M 273.249481 438.760529 L 273.249481 100.68158 L 86.001152 100.68158 L 86.001152 438.760529 L 273.249481 438.760529 Z M 87.015259 101.685913 L 272.232544 101.685913 L 272.232544 437.756226 L 87.015259 437.756226 L 87.015259 101.685913 Z"/>
        <path id="path2" fill="#b4171e" stroke="none" d="M 35.697044 110.906342 L 30.141884 110.906342 L 30.141884 110.906342 C 29.820522 110.912537 29.5959 110.897034 29.430264 110.912537 C 29.231125 110.229584 29.13061 109.549591 29.13061 108.888092 C 29.13061 108.071075 29.290112 106.998047 29.527002 105.778351 L 33.337563 89.698914 L 49.650536 89.698914 L 54.088245 109.134644 C 54.228397 109.558777 54.319 110.070404 54.293991 110.906342 L 48.33017 110.906342 L 48.33017 122.016968 L 78.139839 122.016968 L 78.139839 110.906342 L 74.098518 110.906342 L 71.623901 110.569489 C 71.561134 110.516296 70.980705 110.00177 70.450294 108.44519 L 50.221058 24.382324 L 36.36808 28.995819 L 16.048239 108.729126 C 15.811346 110.163971 15.436661 110.569489 15.436661 110.569489 L 8.920721 110.906342 L 8.920721 122.016968 L 35.697044 122.016968 L 35.697044 110.906342 Z M 36.346371 78.588257 L 41.926071 56.541656 L 47.241035 78.588257 L 36.346371 78.588257 Z"/>
        <path id="path3" fill="#b4171e" stroke="none" d="M 323.554047 428.510864 L 329.109222 428.510864 L 329.109222 428.510864 C 329.430115 428.507813 329.65802 428.523285 329.820374 428.507813 C 330.019989 429.190857 330.120026 429.867767 330.120026 430.532135 C 330.120026 431.346344 329.963806 432.419373 329.726929 433.638794 L 325.916382 449.721497 L 309.601044 449.721497 L 305.162842 430.282532 C 305.022705 429.858307 304.932098 429.346741 304.95993 428.510864 L 310.920471 428.510864 L 310.920471 417.403412 L 281.111267 417.403412 L 281.111267 428.510864 L 285.155426 428.510864 L 287.627197 428.847717 C 287.689484 428.900879 288.269928 429.415405 288.800323 430.971863 L 309.032867 515.037781 L 322.883026 510.424622 L 343.205688 430.688019 C 343.443054 429.253265 343.813965 428.847717 343.813965 428.847717 L 350.330841 428.510864 L 350.330841 417.403412 L 323.554047 417.403412 L 323.554047 428.510864 Z M 322.904724 460.829102 L 317.324554 482.875671 L 312.010071 460.829102 L 322.904724 460.829102 Z"/>
        <path id="path4" fill="#b4171e" stroke="none" d="M 208.418045 245.444214 C 194.699081 232.156342 185.601883 219.143036 179.62532 208.871307 C 173.649231 219.143036 164.552017 232.156342 150.829758 245.444214 C 140.037964 255.899811 129.156036 263.835114 119.862045 269.708466 C 129.156036 275.582062 140.037964 283.520538 150.829758 293.9729 C 164.552017 307.260742 173.649231 320.277222 179.62532 330.545654 C 185.601883 320.277222 194.699081 307.260742 208.418045 293.9729 C 219.212662 283.520538 230.095062 275.582062 239.389053 269.708466 C 230.095062 263.835114 219.212662 255.899811 208.418045 245.444214 Z"/>
        <path id="path5" fill="#b4171e" stroke="none" d="M 43.530045 136.355865 C 40.652893 141.299988 36.274643 147.566528 29.667627 153.960938 C 24.474884 158.995148 19.234951 162.816315 14.75949 165.642303 C 19.234951 168.471283 24.474884 172.29245 29.667627 177.323853 C 36.274643 183.721252 40.652893 189.98761 43.530045 194.931702 C 46.407665 189.98761 50.785915 183.721252 57.392933 177.323853 C 62.588978 172.29245 67.825607 168.471283 72.301071 165.642303 C 67.825607 162.816315 62.588978 158.995148 57.392933 153.960938 C 50.785915 147.566528 46.407665 141.299988 43.530045 136.355865 Z"/>
        <path id="path6" fill="#b4171e" stroke="none" d="M 315.717743 403.085999 C 318.59491 398.142181 322.973633 391.875824 329.58017 385.478119 C 334.776215 380.446777 340.012848 376.625854 344.488312 373.799866 C 340.012848 370.970581 334.776215 367.149658 329.58017 362.118408 C 322.973633 355.720886 318.59491 349.454254 315.717743 344.510437 C 312.842957 349.454254 308.461884 355.720886 301.858154 362.118408 C 296.662109 367.149658 291.42218 370.970581 286.950043 373.799866 C 291.42218 376.625854 296.662109 380.446777 301.858154 385.478119 C 308.461884 391.875824 312.842957 398.142181 315.717743 403.085999 Z"/>
    </g>
</svg>
