<?xml version="1.0" encoding="UTF-8"?>
<!-- Generated by Pixelmator Pro 3.7 -->
<svg width="208" height="376" viewBox="0 0 208 376" xmlns="http://www.w3.org/2000/svg">
    <g id="Group-copy">
        <path id="Path" fill="#000000" stroke="none" d="M 207.620483 376.297668 L 207.620483 0.308411 L -0.422714 0.308411 L -0.422714 376.297668 L 207.620483 376.297668 Z M 0.707477 1.428864 L 206.493439 1.428864 L 206.493439 375.177277 L 0.707477 375.177277 L 0.707477 1.428864 Z"/>
        <path id="path1" fill="#ff0000" stroke="none" d="M 54.961094 32.172089 L 53.324402 33.809509 L 51.68771 32.172089 C 46.621384 27.103882 38.406982 27.103882 33.340656 32.172089 C 28.274591 37.24057 28.274591 45.458771 33.340656 50.527374 L 53.324402 70.519653 L 73.307884 50.527374 C 78.373955 45.458771 78.373955 37.24057 73.307884 32.172089 C 68.241821 27.103882 60.027161 27.103882 54.961094 32.172089 Z"/>
        <path id="path2" fill="#ff0000" stroke="none" d="M 54.961094 171.058044 L 53.324402 172.695602 L 51.68771 171.058044 C 46.621384 165.9897 38.406982 165.9897 33.340656 171.058044 C 28.274591 176.126511 28.274591 184.344711 33.340656 189.413177 L 53.324402 209.405609 L 73.307884 189.413177 C 78.373955 184.344711 78.373955 176.126511 73.307884 171.058044 C 68.241821 165.9897 60.027161 165.9897 54.961094 171.058044 Z"/>
        <path id="path3" fill="#ff0000" stroke="none" d="M 155.461304 171.058044 L 153.824615 172.695602 L 152.187912 171.058044 C 147.121857 165.9897 138.907196 165.9897 133.841125 171.058044 C 128.774796 176.126511 128.774796 184.344711 133.841125 189.413177 L 153.824615 209.405609 L 173.808365 189.413177 C 178.874161 184.344711 178.874161 176.126511 173.808365 171.058044 C 168.742035 165.9897 160.527634 165.9897 155.461304 171.058044 Z"/>
        <path id="path4" fill="#ff0000" stroke="none" d="M 53.324402 306.145233 L 33.340656 326.134308 C 28.274591 331.202759 28.274591 339.421234 33.340656 344.489502 C 38.406982 349.557983 46.621384 349.557983 51.68771 344.489502 L 53.324402 342.852081 L 54.961094 344.489502 C 60.027161 349.557983 68.241821 349.557983 73.307884 344.489502 C 78.373955 339.421234 78.373955 331.202759 73.307884 326.134308 L 53.324402 306.145233 Z"/>
        <path id="path5" fill="#ff0000" stroke="none" d="M 155.461304 32.172089 L 153.824615 33.809509 L 152.187912 32.172089 C 147.121857 27.103882 138.907196 27.103882 133.841125 32.172089 C 128.774796 37.24057 128.774796 45.458771 133.841125 50.527374 L 153.824615 70.519653 L 173.808365 50.527374 C 178.874161 45.458771 178.874161 37.24057 173.808365 32.172089 C 168.742035 27.103882 160.527634 27.103882 155.461304 32.172089 Z"/>
        <path id="path6" fill="#ff0000" stroke="none" d="M 103.59024 139.960861 L 123.573723 119.968445 C 128.639786 114.899963 128.639786 106.681763 123.573723 101.613312 C 118.507652 96.544952 110.296402 96.544952 105.226929 101.613312 L 103.59024 103.250854 L 101.953545 101.613312 C 96.887215 96.544952 88.675964 96.544952 83.610161 101.613312 C 78.540428 106.681763 78.540428 114.899963 83.610161 119.968445 L 103.59024 139.960861 Z"/>
        <path id="path7" fill="#ff0000" stroke="none" d="M 103.593643 236.700546 L 83.610161 256.693176 C 78.543831 261.761627 78.543831 269.979858 83.610161 275.048096 C 88.675964 280.116638 96.890884 280.116638 101.956955 275.048096 L 103.593643 273.410675 L 105.230072 275.048096 C 110.296402 280.116638 118.507652 280.116638 123.573723 275.048096 C 128.643188 269.979858 128.643188 261.761627 123.573723 256.693176 L 103.593643 236.700546 Z"/>
        <path id="path8" fill="#ff0000" stroke="none" d="M 153.824615 306.145233 L 133.841125 326.134308 C 128.774796 331.202759 128.774796 339.421234 133.841125 344.489502 C 138.907196 349.557983 147.121857 349.557983 152.187912 344.489502 L 153.824615 342.852081 L 155.461304 344.489502 C 160.527634 349.557983 168.742035 349.557983 173.808365 344.489502 C 178.874161 339.421234 178.874161 331.202759 173.808365 326.134308 L 153.824615 306.145233 Z"/>
    </g>
</svg>
