<?xml version="1.0" encoding="UTF-8"?>
<!-- Generated by Pixelmator Pro 3.7 -->
<svg width="208" height="376" viewBox="0 0 208 376" xmlns="http://www.w3.org/2000/svg">
    <g id="Group-copy">
        <path id="Path" fill="#000000" stroke="none" d="M 207.527161 376.581421 L 207.527161 0.882172 L -0.516307 0.882172 L -0.516307 376.581421 L 207.527161 376.581421 Z M 0.610738 2.00177 L 206.396713 2.00177 L 206.396713 375.461578 L 0.610738 375.461578 L 0.610738 2.00177 Z"/>
        <path id="path1" fill="#ff0000" stroke="none" d="M 53.251781 28.922363 C 50.775902 33.178925 47.006763 38.572632 41.323299 44.077545 C 36.849991 48.410645 32.342335 51.700195 28.489828 54.133606 C 32.342335 56.566986 36.849991 59.856567 41.323299 64.189636 C 47.006763 69.697815 50.775902 75.091614 53.251781 79.34845 C 55.731071 75.091614 59.496803 69.697815 65.18367 64.189636 C 69.656723 59.856567 74.164642 56.566986 78.016884 54.133606 C 74.164642 51.700195 69.656723 48.410645 65.18367 44.077545 C 59.496803 38.572632 55.731071 33.178925 53.251781 28.922363 Z"/>
        <path id="path2" fill="#ff0000" stroke="none" d="M 153.755402 28.922363 C 151.279785 33.178925 147.510376 38.572632 141.823776 44.077545 C 137.350464 48.410645 132.842804 51.700195 128.993713 54.133606 C 132.842804 56.566986 137.350464 59.856567 141.823776 64.189636 C 147.510376 69.697815 151.279785 75.091614 153.755402 79.34845 C 156.231277 75.091614 160.000687 69.697815 165.687546 64.189636 C 170.156937 59.856567 174.668518 56.566986 178.517349 54.133606 C 174.668518 51.700195 170.156937 48.410645 165.687546 44.077545 C 160.000687 38.572632 156.231277 33.178925 153.755402 28.922363 Z"/>
        <path id="path3" fill="#ff0000" stroke="none" d="M 53.251781 119.839752 C 50.775902 124.096771 47.006763 129.490555 41.323299 134.998581 C 36.849991 139.331635 32.342335 142.621155 28.489828 145.054596 C 32.342335 147.488037 36.849991 150.777817 41.323299 155.11087 C 47.006763 160.615555 50.775902 166.009338 53.251781 170.266129 C 55.731071 166.009338 59.496803 160.615555 65.18367 155.11087 C 69.656723 150.777817 74.164642 147.488037 78.016884 145.054596 C 74.164642 142.621155 69.656723 139.331635 65.18367 134.998581 C 59.496803 129.490555 55.731071 124.096771 53.251781 119.839752 Z"/>
        <path id="path4" fill="#ff0000" stroke="none" d="M 153.755402 119.839752 C 151.279785 124.096771 147.510376 129.490555 141.823776 134.998581 C 137.350464 139.331635 132.842804 142.621155 128.993713 145.054596 C 132.842804 147.488037 137.350464 150.777817 141.823776 155.11087 C 147.510376 160.615555 151.279785 166.009338 153.755402 170.266129 C 156.231277 166.009338 160.000687 160.615555 165.687546 155.11087 C 170.156937 150.777817 174.668518 147.488037 178.517349 145.054596 C 174.668518 142.621155 170.156937 139.331635 165.687546 134.998581 C 160.000687 129.490555 156.231277 124.096771 153.755402 119.839752 Z"/>
        <path id="path5" fill="#ff0000" stroke="none" d="M 103.503464 163.548187 C 101.02784 167.804916 97.258705 173.1987 91.575241 178.703384 C 87.101929 183.036438 82.590866 186.325989 78.741768 188.75946 C 82.590866 191.192902 87.101929 194.48262 91.575241 198.815643 C 97.258705 204.323761 101.02784 209.717743 103.503464 213.970932 C 105.97934 209.717743 109.748741 204.323761 115.435616 198.815643 C 119.908661 194.48262 124.41658 191.192902 128.265411 188.75946 C 124.41658 186.325989 119.908661 183.036438 115.435616 178.703384 C 109.748741 173.1987 105.97934 167.804916 103.503464 163.548187 Z"/>
        <path id="path6" fill="#ff0000" stroke="none" d="M 53.251781 210.761017 C 50.775902 215.017807 47.006763 220.41153 41.323299 225.916275 C 36.849991 230.249329 32.342335 233.539108 28.489828 235.972488 C 32.342335 238.405991 36.849991 241.695511 41.323299 246.028564 C 47.006763 251.536591 50.775902 256.930359 53.251781 261.187347 C 55.731071 256.930359 59.496803 251.536591 65.18367 246.028564 C 69.656723 241.695511 74.164642 238.405991 78.016884 235.972488 C 74.164642 233.539108 69.656723 230.249329 65.18367 225.916275 C 59.496803 220.41153 55.731071 215.017807 53.251781 210.761017 Z"/>
        <path id="path7" fill="#ff0000" stroke="none" d="M 153.755402 210.761017 C 151.279785 215.017807 147.510376 220.41153 141.823776 225.916275 C 137.350464 230.249329 132.842804 233.539108 128.993713 235.972488 C 132.842804 238.405991 137.350464 241.695511 141.823776 246.028564 C 147.510376 251.536591 151.279785 256.930359 153.755402 261.187347 C 156.231277 256.930359 160.000687 251.536591 165.687546 246.028564 C 170.156937 241.695511 174.668518 238.405991 178.517349 235.972488 C 174.668518 233.539108 170.156937 230.249329 165.687546 225.916275 C 160.000687 220.41153 156.231277 215.017807 153.755402 210.761017 Z"/>
        <path id="path8" fill="#ff0000" stroke="none" d="M 53.251781 298.173981 C 50.775902 302.42746 47.006763 307.821259 41.323299 313.329285 C 36.849991 317.662323 32.342335 320.952118 28.489828 323.385498 C 32.342335 325.818848 36.849991 329.10849 41.323299 333.441528 C 47.006763 338.946136 50.775902 344.339935 53.251781 348.596954 C 55.731071 344.339935 59.496803 338.946136 65.18367 333.441528 C 69.656723 329.10849 74.164642 325.818848 78.016884 323.385498 C 74.164642 320.952118 69.656723 317.662323 65.18367 313.329285 C 59.496803 307.821259 55.731071 302.42746 53.251781 298.173981 Z"/>
        <path id="path9" fill="#ff0000" stroke="none" d="M 153.755402 298.173981 C 151.279785 302.42746 147.510376 307.821259 141.823776 313.329285 C 137.350464 317.662323 132.842804 320.952118 128.993713 323.385498 C 132.842804 325.818848 137.350464 329.10849 141.823776 333.441528 C 147.510376 338.946136 151.279785 344.339935 153.755402 348.596954 C 156.231277 344.339935 160.000687 338.946136 165.687546 333.441528 C 170.156937 329.10849 174.668518 325.818848 178.517349 323.385498 C 174.668518 320.952118 170.156937 317.662323 165.687546 313.329285 C 160.000687 307.821259 156.231277 302.42746 153.755402 298.173981 Z"/>
    </g>
</svg>
