<?xml version="1.0" encoding="UTF-8"?>
<!-- Generated by Pixelmator Pro 3.7 -->
<svg width="360" height="537" viewBox="0 0 360 537" xmlns="http://www.w3.org/2000/svg">
    <g id="g21-copy">
        <g id="g22">
            <path id="path23991" fill="#ffffff" stroke="none" d="M 18.334253 534.831787 L 340.176971 534.831787 C 349.399445 534.831787 356.87619 527.360901 356.87619 518.144409 L 356.87619 19.018372 C 356.87619 9.801941 349.399445 2.330383 340.176971 2.330383 L 18.334253 2.330383 C 9.111775 2.330383 1.635034 9.801941 1.635034 19.018372 L 1.635034 518.144409 C 1.635034 527.360901 9.111775 534.831787 18.334253 534.831787 Z"/>
            <path id="path23992" fill="#000000" stroke="none" d="M 64.895485 160.311951 C 60.449963 157.518036 56.380829 157.657013 52.894054 158.95697 C 55.509304 155.970612 56.900124 151.885437 56.038658 147.425232 C 54.918892 141.646942 50.009094 137.158264 44.149944 136.553864 C 35.997585 135.712585 29.117962 142.082855 29.117962 150.057526 C 29.117962 153.479645 30.426258 156.569458 32.516178 158.95697 C 29.046844 157.665558 25.021992 157.519714 20.59123 160.254608 C 17.663332 162.060028 15.433862 164.886322 14.620707 168.223419 C 12.428808 177.205017 19.171562 185.222626 27.788868 185.222626 C 32.426273 185.222626 36.510838 182.892914 38.962383 179.352295 C 39.812439 178.610779 40.882561 178.17218 42.051304 178.023651 L 42.051304 181.715851 C 42.051304 188.043671 36.918758 193.172485 30.589964 193.172485 L 30.589964 194.497925 L 54.820267 194.497925 L 54.820267 193.172485 C 48.488117 193.172485 43.355572 188.043671 43.355572 181.715851 L 43.355572 178.023651 C 44.527672 178.169006 45.59779 178.610779 46.447178 179.352295 C 48.899391 182.892914 52.983959 185.222626 57.618008 185.222626 C 66.209816 185.222626 72.937813 177.25766 70.810326 168.312927 C 70.015953 164.972992 67.805267 162.139343 64.895485 160.311951 Z"/>
        </g>
        <path id="path23993" fill="#000000" stroke="none" d="M 210.237061 253.158386 C 206.767731 253.158386 203.487595 253.869202 200.420822 255.012421 C 204.761002 250.053467 207.478897 243.636108 207.478897 236.526825 C 207.478897 220.948486 194.842773 208.32132 179.254608 208.32132 C 163.665085 208.32132 151.029633 220.948486 151.029633 236.526825 C 151.029633 243.636108 153.747543 250.053467 158.09108 255.012421 C 155.02095 253.869202 151.737457 253.158386 148.274841 253.158386 C 132.682632 253.158386 120.047188 265.789246 120.047188 281.364258 C 120.047188 296.945099 132.682632 309.572784 148.274841 309.572784 C 157.905914 309.572784 166.386353 304.737366 171.481323 297.380981 C 173.24382 295.839294 175.466583 294.927734 177.896667 294.618774 L 177.896667 302.293518 C 177.896667 315.433899 167.236404 326.087158 154.090378 326.087158 L 154.090378 328.84314 L 204.420853 328.84314 L 204.420853 326.087158 C 191.268784 326.087158 180.607849 315.433899 180.607849 302.293518 L 180.607849 294.618774 C 183.038605 294.924744 185.262039 295.836243 187.027222 297.377808 C 192.122192 304.734375 200.605988 309.572784 210.237061 309.572784 C 225.825226 309.572784 238.461349 296.945099 238.461349 281.364258 C 238.461349 265.789246 225.825226 253.158386 210.237061 253.158386 Z"/>
        <path id="path23994" fill="#000000" stroke="none" d="M 272.007385 436.045593 L 272.007385 101.164124 L 86.501144 101.164124 L 86.501144 436.045593 L 272.007385 436.045593 Z M 87.506187 102.160828 L 270.998993 102.160828 L 270.998993 435.047577 L 87.506187 435.047577 L 87.506187 102.160828 Z"/>
        <path id="path23995" fill="#000000" stroke="none" d="M 36.668507 111.282227 L 31.162258 111.282227 L 31.162258 111.282227 C 30.842899 111.287262 30.620825 111.271332 30.457121 111.287262 C 30.258528 110.610291 30.159903 109.937683 30.159903 109.281158 C 30.159903 108.473419 30.31757 107.410492 30.553062 106.201904 L 34.327663 90.273499 L 50.488132 90.273499 L 54.884678 109.526428 C 55.026913 109.947723 55.113461 110.453217 55.088634 111.282227 L 49.180508 111.282227 L 49.180508 122.286224 L 78.713097 122.286224 L 78.713097 111.282227 L 74.709045 111.282227 L 72.2575 110.948944 C 72.195778 110.896637 71.620796 110.385468 71.094795 108.844086 L 51.05439 25.575928 L 37.330032 30.145416 L 17.199726 109.125061 C 16.964233 110.547241 16.593884 110.948944 16.593884 110.948944 L 10.137613 111.282227 L 10.137613 122.286224 L 36.668507 122.286224 L 36.668507 111.282227 Z M 37.308563 79.269165 L 42.836281 57.432556 L 48.102337 79.269165 L 37.308563 79.269165 Z"/>
        <path id="path23996" fill="#000000" stroke="none" d="M 293.615082 376.850525 C 298.061249 379.643585 302.12973 379.504608 305.617188 378.206818 C 303.001923 381.191681 301.610443 385.276001 302.473236 389.737396 C 303.593018 395.515167 308.502136 400.004517 314.361298 400.610107 C 322.514313 401.450531 329.39325 395.079437 329.39325 387.105103 C 329.39325 383.681824 328.084961 380.59198 325.995728 378.206818 C 329.464386 379.49823 333.489899 379.643585 337.920654 376.90918 C 340.845215 375.101563 343.077362 372.277832 343.890533 368.937683 C 346.082428 359.95929 339.339661 351.941681 330.719666 351.941681 C 326.084961 351.941681 322.001068 354.268005 319.548828 357.808838 C 318.698792 358.553528 317.629333 358.991943 316.460602 359.14032 L 316.460602 355.445099 C 316.460602 349.117767 321.592468 343.988647 327.921936 343.988647 L 327.921936 342.66333 L 303.69162 342.66333 L 303.69162 343.988647 C 310.023102 343.988647 315.15564 349.117767 315.15564 355.445099 L 315.15564 359.14032 C 313.984222 358.991943 312.914093 358.553528 312.064056 357.812195 C 309.612518 354.268005 305.527954 351.941681 300.893219 351.941681 C 292.301422 351.941681 285.573425 359.906799 287.700897 368.848328 C 288.492584 372.18811 290.705963 375.024475 293.615082 376.850525 Z"/>
        <path id="path23997" fill="#000000" stroke="none" d="M 321.843384 425.880554 L 327.34964 425.880554 L 327.34964 425.880554 C 327.667664 425.874176 327.891083 425.889954 328.054108 425.874176 C 328.252014 426.554016 328.351318 427.224609 328.351318 427.882629 C 328.351318 428.689056 328.193665 429.751953 327.958832 430.9599 L 324.183563 446.89032 L 308.019745 446.89032 L 303.626556 427.635529 C 303.484314 427.215393 303.397766 426.708588 303.422577 425.880554 L 309.330719 425.880554 L 309.330719 414.875244 L 279.798798 414.875244 L 279.798798 425.880554 L 283.802185 425.880554 L 286.253723 426.214172 C 286.31546 426.266663 286.890442 426.776642 287.416443 428.318359 L 307.456848 511.588226 L 321.181854 507.018524 L 341.312164 428.037048 C 341.546326 426.615875 341.917999 426.214172 341.917999 426.214172 L 348.374298 425.880554 L 348.374298 414.875244 L 321.843384 414.875244 L 321.843384 425.880554 Z M 321.203339 457.892609 L 315.674957 479.730408 L 310.409546 457.892609 L 321.203339 457.892609 Z"/>
    </g>
</svg>
