<?xml version="1.0" encoding="UTF-8"?>
<!-- Generated by Pixelmator Pro 3.7 -->
<svg width="208" height="375" viewBox="0 0 208 375" xmlns="http://www.w3.org/2000/svg">
    <g id="Group-copy">
        <path id="Path" fill="#000000" stroke="none" d="M 207.749557 375.335571 L 207.749557 -0.045441 L -0.025244 -0.045441 L -0.025244 375.335571 L 207.749557 375.335571 Z M 1.099963 1.071838 L 206.624023 1.071838 L 206.624023 374.216705 L 1.099963 374.216705 L 1.099963 1.071838 Z"/>
        <path id="path1" fill="#000000" stroke="none" d="M 116.795982 46.649567 C 115.34861 46.649567 113.980637 46.946777 112.699394 47.424622 C 114.510551 45.351868 115.646423 42.670593 115.646423 39.700745 C 115.646423 33.192322 110.368729 27.915375 103.862152 27.915375 C 97.355255 27.915375 92.081352 33.192322 92.081352 39.700745 C 92.081352 42.670593 93.213699 45.351868 95.02813 47.424622 C 93.74688 46.946777 92.375633 46.649567 90.928001 46.649567 C 84.421165 46.649567 79.14727 51.926544 79.14727 58.434937 C 79.14727 64.944122 84.421165 70.219513 90.928001 70.219513 C 94.948471 70.219513 98.491127 68.199921 100.617249 65.125854 C 101.354965 64.481995 102.279495 64.100983 103.297554 63.971893 L 103.297554 67.177948 C 103.297554 72.66803 98.844315 77.121735 93.355797 77.121735 L 93.355797 78.271759 L 114.368446 78.271759 L 114.368446 77.121735 C 108.879936 77.121735 104.426361 72.66803 104.426361 67.177948 L 104.426361 63.971893 C 105.444748 64.10022 106.372551 64.481201 107.106674 65.124817 C 109.236656 68.198608 112.775513 70.219513 116.795982 70.219513 C 123.306351 70.219513 128.580246 64.944122 128.580246 58.434937 C 128.580246 51.926544 123.306351 46.649567 116.795982 46.649567 Z"/>
        <path id="path2" fill="#000000" stroke="none" d="M 116.795982 305.015869 C 112.775513 305.015869 109.236656 307.038635 107.110207 310.110321 C 106.372551 310.75473 105.444748 311.135437 104.429893 311.263763 L 104.429893 308.060333 C 104.429893 302.567383 108.879936 298.117065 114.368446 298.117065 L 114.368446 296.967285 L 93.355797 296.967285 L 93.355797 298.117065 C 98.847588 298.117065 103.297554 302.567383 103.297554 308.060333 L 103.297554 311.263763 C 102.282768 311.135437 101.354965 310.75473 100.617249 310.113983 C 98.491127 307.038635 94.948471 305.015869 90.928001 305.015869 C 84.421165 305.015869 79.14727 310.294128 79.14727 316.801514 C 79.14727 323.309387 84.421165 328.587402 90.928001 328.587402 C 92.375633 328.587402 93.74688 328.289673 95.02813 327.811554 C 93.213699 329.886139 92.081352 332.566895 92.081352 335.53833 C 92.081352 342.045959 97.355255 347.320557 103.862152 347.320557 C 110.372528 347.320557 115.646423 342.045959 115.646423 335.53833 C 115.646423 332.566895 114.510551 329.886139 112.699394 327.811554 C 113.980637 328.289673 115.35215 328.587402 116.795982 328.587402 C 123.306351 328.587402 128.580246 323.309387 128.580246 316.801514 C 128.580246 310.294128 123.306351 305.015869 116.795982 305.015869 Z"/>
    </g>
</svg>
