<?xml version="1.0" encoding="UTF-8"?>
<!-- Generated by Pixelmator Pro 3.7 -->
<svg width="208" height="376" viewBox="0 0 208 376" xmlns="http://www.w3.org/2000/svg">
    <g id="Group-copy">
        <path id="Path" fill="#000000" stroke="none" d="M 208.011505 376.903687 L 208.011505 1.183685 L -0.042182 1.183685 L -0.042182 376.903687 L 208.011505 376.903687 Z M 1.084732 2.303436 L 206.884338 2.303436 L 206.884338 375.784088 L 1.084732 375.784088 L 1.084732 2.303436 Z"/>
        <path id="path1" fill="#000000" stroke="none" d="M 52.082005 67.513977 L 53.153473 66.439453 L 53.153473 68.522614 C 53.153473 73.992706 48.718567 78.4263 43.25008 78.4263 L 43.25008 79.5737 L 64.190727 79.5737 L 64.190727 78.4263 C 58.71909 78.4263 54.284054 73.992706 54.284054 68.522614 L 54.284054 66.435913 L 55.355389 67.513977 C 60.424995 72.5784 68.646469 72.5784 73.71608 67.513977 C 78.785683 62.445892 78.785683 54.227081 73.71608 49.159119 L 53.71883 29.171661 L 33.724857 49.159119 C 28.655254 54.227081 28.655254 62.445892 33.724857 67.513977 C 38.794464 72.5784 47.012531 72.5784 52.082005 67.513977 Z"/>
        <path id="path2" fill="#000000" stroke="none" d="M 53.71883 348.863556 L 73.712799 328.876068 C 78.782272 323.80838 78.782272 315.589325 73.712799 310.521484 C 68.643196 305.456818 60.424995 305.456818 55.355389 310.521484 L 54.284054 311.596008 L 54.284054 309.512756 C 54.284054 304.042755 58.71909 299.609039 64.187187 299.609039 L 64.187187 298.461792 L 43.24667 298.461792 L 43.24667 299.609039 C 48.718567 299.609039 53.157009 304.042755 53.157009 309.512756 L 53.157009 311.599548 L 52.082005 310.521484 C 47.012531 305.456818 38.794464 305.456818 33.724857 310.521484 C 28.651978 315.589325 28.651978 323.80838 33.724857 328.876068 L 53.71883 348.863556 Z"/>
        <path id="path3" fill="#000000" stroke="none" d="M 152.613678 67.513977 L 153.685013 66.439453 L 153.685013 68.522614 C 153.685013 73.992706 149.250107 78.4263 143.781876 78.4263 L 143.781876 79.5737 L 164.722397 79.5737 L 164.722397 78.4263 C 159.250504 78.4263 154.81572 73.992706 154.81572 68.522614 L 154.81572 66.435913 L 155.890594 67.513977 C 160.960205 72.5784 169.178406 72.5784 174.247879 67.513977 C 179.317215 62.445892 179.317215 54.227081 174.247879 49.159119 L 154.250229 29.171661 L 134.256393 49.159119 C 129.186798 54.227081 129.186798 62.445892 134.256393 67.513977 C 139.326004 72.5784 147.544067 72.5784 152.613678 67.513977 Z"/>
        <path id="path4" fill="#000000" stroke="none" d="M 154.250229 348.863556 L 174.247879 328.876068 C 179.317215 323.80838 179.317215 315.589325 174.247879 310.521484 C 169.174606 305.456818 160.956665 305.456818 155.887054 310.521484 L 154.81572 311.596008 L 154.81572 309.512756 C 154.81572 304.042755 159.250504 299.609039 164.722397 299.609039 L 164.722397 298.461792 L 143.781876 298.461792 L 143.781876 299.609039 C 149.253769 299.609039 153.688553 304.042755 153.688553 309.512756 L 153.688553 311.599548 L 152.613678 310.521484 C 147.544067 305.456818 139.326004 305.456818 134.256393 310.521484 C 129.186798 315.589325 129.186798 323.80838 134.256393 328.876068 L 154.250229 348.863556 Z"/>
    </g>
</svg>
