<?xml version="1.0" encoding="UTF-8"?>
<!-- Generated by Pixelmator Pro 3.7 -->
<svg width="360" height="538" viewBox="0 0 360 538" xmlns="http://www.w3.org/2000/svg">
    <g id="g322-copy">
        <path id="path27782" fill="#ffffff" stroke="none" d="M 340.49173 2.613464 L 17.415224 2.613464 C 8.157328 2.613464 0.652697 10.11731 0.652697 19.374817 L 0.652697 520.713867 C 0.652697 529.971008 8.157328 537.474976 17.415224 537.474976 L 340.49173 537.474976 C 349.749725 537.474976 357.254333 529.971008 357.254333 520.713867 L 357.254333 19.374817 C 357.254333 10.11731 349.749725 2.613464 340.49173 2.613464 Z"/>
        <path id="path27783" fill="#000000" stroke="none" d="M 33.901787 100.723267 C 33.901787 99.00061 33.321239 97.11087 32.117035 94.932373 C 29.395372 90.041351 22.20097 88.458618 17.129833 94.206085 C 15.093952 96.490173 14.066541 99.196289 14.066541 102.249939 C 14.066541 107.969452 16.825666 112.993835 22.263268 117.167847 C 27.374815 121.102722 33.516972 123.101379 40.515472 123.101379 C 50.093109 123.101379 57.749783 120.203156 63.274094 114.486481 C 68.758247 108.813446 71.539093 102.125824 71.539093 94.618805 C 71.539093 89.470306 69.968681 84.30011 66.868263 79.260223 C 64.844757 75.986298 61.775154 73.121735 57.697079 70.695007 C 59.996883 69.137024 61.902191 67.306061 63.4077 65.195923 C 66.442955 60.953552 67.979355 55.792603 67.979355 49.865112 C 67.979355 44.058899 65.549232 38.58136 60.741768 33.569275 C 55.896839 28.520294 49.432163 25.963074 41.533455 25.963074 C 34.910343 25.963074 28.963833 27.853119 23.867693 31.576996 C 18.380421 35.599091 15.593431 40.896454 15.593431 47.32373 C 15.593431 51.274078 16.673458 54.194366 18.79344 56.003601 C 20.705229 57.642242 22.939621 58.511169 25.255169 58.511169 C 29.147022 58.511169 31.173559 56.704987 32.20097 55.171906 C 33.330666 53.483765 33.901787 51.354919 33.901787 48.847168 C 33.901787 46.76178 33.144196 44.890594 32.110973 44.012238 C 32.101547 43.984467 31.868771 43.338654 31.868771 41.219238 C 31.868771 40.424774 31.989914 39.763641 33.501396 39.099518 C 40.630302 35.965179 45.617844 37.774414 48.137882 41.293671 C 50.19548 44.176605 51.19511 47.475616 51.19511 51.391968 C 51.19511 56.074829 50.003117 59.544617 47.554386 61.993225 C 45.139919 64.407501 41.061592 65.630219 35.428761 65.630219 L 31.359695 65.630219 L 31.359695 77.329926 L 35.428761 77.329926 C 42.855602 77.329926 48.038624 78.776093 50.400475 81.513336 C 52.992069 84.511108 54.24889 88.464844 54.24889 93.603882 C 54.24889 100.027985 53.038624 104.695526 50.651855 107.4823 C 48.389259 110.120178 44.906891 111.401855 40.006397 111.401855 C 37.610538 111.401855 35.490555 110.895996 33.51992 109.847046 C 32.722252 109.421692 31.868771 108.801331 31.868771 108.351196 C 31.868771 108.254883 31.89352 107.721069 32.20097 107.047821 C 33.330666 105.359497 33.901787 103.227478 33.901787 100.723267 Z"/>
        <path id="path27784" fill="#000000" stroke="none" d="M 324.002319 439.365326 C 324.002319 441.087646 324.585724 442.977539 325.789825 445.15625 C 328.511658 450.044067 335.705811 451.629639 340.77713 445.882355 C 342.809875 443.598419 343.84024 440.88913 343.84024 437.838501 C 343.84024 432.118958 341.078094 427.094757 335.643768 422.920593 C 330.532135 418.985535 324.390076 416.987061 317.391327 416.987061 C 307.813843 416.987061 300.157166 419.88562 294.629669 425.601929 C 289.145508 431.274963 286.364655 437.959564 286.364655 445.466431 C 286.364655 450.618286 287.93811 455.78833 291.038605 460.825012 C 293.062195 464.099243 296.128693 466.966675 300.209961 469.393585 C 297.910065 470.948364 296.004425 472.782349 294.499329 474.89267 C 291.463745 479.134949 289.927673 484.295898 289.927673 490.223297 C 289.927673 496.029724 292.357635 501.507172 297.161987 506.518982 C 302.01004 511.56839 308.474792 514.125488 316.373413 514.125488 C 322.996704 514.125488 328.940002 512.235413 334.039337 508.511353 C 339.526367 504.489502 342.313538 499.192078 342.313538 492.764954 C 342.313538 488.814331 341.233337 485.894043 339.113586 484.081787 C 337.201813 482.446259 334.963959 481.577332 332.648682 481.577332 C 328.76001 481.577332 326.733215 483.383545 325.703033 484.913391 C 324.576385 486.604767 324.002319 488.733673 324.002319 491.241241 C 324.002319 493.32663 324.762512 495.19809 325.792877 496.076263 C 325.805328 496.104218 326.038177 496.749695 326.038177 498.869263 C 326.038177 499.663757 325.914093 500.324707 324.405731 500.988831 C 317.273621 504.12326 312.289032 502.310974 309.765869 498.79483 C 307.711304 495.911835 306.711945 492.612915 306.711945 488.696472 C 306.711945 484.013489 307.903687 480.543915 310.349304 478.095367 C 312.767212 475.680939 316.845276 474.458221 322.478271 474.458221 L 326.546997 474.458221 L 326.546997 462.758667 L 322.478271 462.758667 C 315.051178 462.758667 309.868408 461.312317 307.506409 458.575409 C 304.914978 455.577332 303.65799 451.623779 303.65799 446.484375 C 303.65799 440.057434 304.865143 435.393066 307.255096 432.606293 C 309.517609 429.96521 312.999908 428.683716 317.900391 428.683716 C 320.296265 428.683716 322.413116 429.192444 324.38385 430.241364 C 325.18454 430.666565 326.038177 431.287445 326.038177 431.737396 C 326.038177 431.830353 326.010315 432.367188 325.703033 433.040924 C 324.576385 434.729095 324.002319 436.85791 324.002319 439.365326 Z"/>
        <path id="path27785" fill="#000000" stroke="none" d="M 272.060303 438.251221 L 272.060303 101.88385 L 85.843803 101.88385 L 85.843803 438.251221 L 272.060303 438.251221 Z M 86.852272 102.886292 L 271.051392 102.886292 L 271.051392 437.248932 L 86.852272 437.248932 L 86.852272 102.886292 Z"/>
        <path id="path27786" fill="#000000" stroke="none" d="M 178.954987 126.940277 L 161.056366 144.834381 C 156.51889 149.371429 156.51889 156.729401 161.056366 161.266815 C 165.594101 165.800659 172.949646 165.800659 177.487122 161.266815 L 178.44928 160.304749 L 178.44928 162.169739 C 178.44928 167.066803 174.476608 171.036041 169.582092 171.036041 L 169.582092 172.063232 L 188.3246 172.063232 L 188.3246 171.036041 C 183.427231 171.036041 179.457672 167.066803 179.457672 162.169739 L 179.457672 160.301575 L 180.420013 161.266815 C 184.95723 165.800659 192.312851 165.800659 196.850418 161.266815 C 201.387894 156.729401 201.387894 149.371429 196.850418 144.834381 L 178.954987 126.940277 Z"/>
        <path id="path27787" fill="#000000" stroke="none" d="M 178.954987 247.484253 L 161.056366 265.37851 C 156.51889 269.915558 156.51889 277.270538 161.056366 281.807739 C 165.594101 286.344604 172.949646 286.344604 177.487122 281.807739 L 178.44928 280.848572 L 178.44928 282.713867 C 178.44928 287.607758 174.476608 291.580017 169.582092 291.580017 L 169.582092 292.604187 L 188.3246 292.604187 L 188.3246 291.580017 C 183.427231 291.580017 179.457672 287.607758 179.457672 282.713867 L 179.457672 280.845367 L 180.420013 281.807739 C 184.95723 286.344604 192.312851 286.344604 196.850418 281.807739 C 201.387894 277.270538 201.387894 269.915558 196.850418 265.37851 L 178.954987 247.484253 Z"/>
        <path id="path27788" fill="#000000" stroke="none" d="M 177.487122 378.82196 C 172.949646 374.287598 165.594101 374.287598 161.056366 378.82196 C 156.51889 383.358826 156.51889 390.717163 161.056366 395.254059 L 178.952042 413.14798 L 196.850418 395.254059 C 201.387894 390.717163 201.387894 383.358826 196.850418 378.82196 C 192.312851 374.287598 184.954376 374.287598 180.416809 378.82196 L 179.457672 379.783813 L 179.457672 377.918884 C 179.457672 373.02179 183.427231 369.052399 188.3246 369.052399 L 188.3246 368.02536 L 169.582092 368.02536 L 169.582092 369.052399 C 174.479553 369.052399 178.44928 373.02179 178.44928 377.918884 L 178.44928 379.787048 L 177.487122 378.82196 Z"/>
        <path id="path27789" fill="#000000" stroke="none" d="M 42.80265 137.355133 L 19.687332 160.469116 C 13.827452 166.328217 13.827452 175.827515 19.687332 181.68985 C 25.549822 187.549133 35.050175 187.549133 40.909634 181.68985 L 42.151215 180.448456 L 42.151215 182.856812 C 42.151215 189.181366 37.023674 194.308136 30.69858 194.308136 L 30.69858 195.63324 L 54.906975 195.63324 L 54.906975 194.308136 C 48.581795 194.308136 43.454422 189.181366 43.454422 182.856812 L 43.454422 180.445587 L 44.695835 181.68985 C 50.555714 187.549133 60.058929 187.549133 65.918556 181.68985 C 71.778267 175.827515 71.778267 166.328217 65.918556 160.469116 L 42.80265 137.355133 Z"/>
        <path id="path27790" fill="#000000" stroke="none" d="M 315.101013 402.730103 L 338.219696 379.619476 C 344.079346 373.760376 344.079346 364.257874 338.219696 358.398743 C 332.356873 352.53949 322.856873 352.53949 316.994293 358.398743 L 315.755829 359.639984 L 315.755829 357.231628 C 315.755829 350.907227 320.883026 345.780273 327.205017 345.780273 L 327.205017 344.4552 L 303.000153 344.4552 L 303.000153 345.780273 C 309.325165 345.780273 314.452362 350.907227 314.452362 357.231628 L 314.452362 359.639984 L 313.210968 358.398743 C 307.348053 352.53949 297.847931 352.53949 291.988312 358.398743 C 286.125824 364.257874 286.125824 373.760376 291.988312 379.619476 L 315.101013 402.730103 Z"/>
    </g>
</svg>
