<?xml version="1.0" encoding="UTF-8"?>
<!-- Generated by Pixelmator Pro 3.7 -->
<svg width="208" height="376" viewBox="0 0 208 376" xmlns="http://www.w3.org/2000/svg">
    <g id="Group-copy">
        <path id="Path" fill="#000000" stroke="none" d="M 207.544205 376.820465 L 207.544205 1.104004 L -0.50949 1.104004 L -0.50949 376.820465 L 207.544205 376.820465 Z M 0.617555 2.220093 L 206.413742 2.220093 L 206.413742 375.700745 L 0.617555 375.700745 L 0.617555 2.220093 Z"/>
        <path id="path1" fill="#000000" stroke="none" d="M 53.248375 29.171661 L 33.254406 49.159119 C 28.184931 54.227081 28.184931 62.445892 33.254406 67.513977 C 38.323879 72.5784 46.541946 72.5784 51.611683 67.513977 L 52.682884 66.439453 L 52.682884 68.522614 C 52.682884 73.992706 48.248112 78.4263 42.779625 78.4263 L 42.779625 79.5737 L 63.720272 79.5737 L 63.720272 78.4263 C 58.248638 78.4263 53.813339 73.992706 53.813339 68.522614 L 53.813339 66.435913 L 54.888474 67.513977 C 59.957951 72.5784 68.176018 72.5784 73.245491 67.513977 C 78.315224 62.445892 78.315224 54.227081 73.245491 49.159119 L 53.248375 29.171661 Z"/>
        <path id="path2" fill="#000000" stroke="none" d="M 54.885067 310.521484 L 53.813339 311.596008 L 53.813339 309.512756 C 53.813339 304.042755 58.248638 299.609039 63.716862 299.609039 L 63.716862 298.461792 L 42.779625 298.461792 L 42.779625 299.609039 C 48.251522 299.609039 52.686558 304.042755 52.686558 309.512756 L 52.686558 311.599548 L 51.611683 310.521484 C 46.541946 305.456818 38.323879 305.456818 33.254406 310.521484 C 28.184931 315.589325 28.184931 323.80838 33.254406 328.876068 L 53.248375 348.863556 L 73.245491 328.876068 C 78.315224 323.80838 78.315224 315.589325 73.245491 310.521484 C 68.176018 305.456818 59.95454 305.456818 54.885067 310.521484 Z"/>
        <path id="path3" fill="#000000" stroke="none" d="M 153.783188 29.171661 L 133.785812 49.159119 C 128.716339 54.227081 128.716339 62.445892 133.785812 67.513977 C 138.855545 72.5784 147.073608 72.5784 152.143097 67.513977 L 153.218231 66.439453 L 153.218231 68.522614 C 153.218231 73.992706 148.779526 78.4263 143.311295 78.4263 L 143.311295 79.5737 L 164.251938 79.5737 L 164.251938 78.4263 C 158.780045 78.4263 154.345001 73.992706 154.345001 68.522614 L 154.345001 66.435913 L 155.419876 67.513977 C 160.489624 72.5784 168.707687 72.5784 173.777161 67.513977 C 178.846634 62.445892 178.846634 54.227081 173.777161 49.159119 L 153.783188 29.171661 Z"/>
        <path id="path4" fill="#000000" stroke="none" d="M 53.248375 120.09967 L 33.254406 140.08728 C 28.184931 145.155228 28.184931 153.370758 33.254406 158.438461 C 38.323879 163.506287 46.541946 163.506287 51.611683 158.438461 L 52.682884 157.36734 L 52.682884 159.447205 C 52.682884 164.917328 48.248112 169.354324 42.779625 169.354324 L 42.779625 170.498306 L 63.720272 170.498306 L 63.720272 169.354324 C 58.248638 169.354324 53.813339 164.917328 53.813339 159.447205 L 53.813339 157.3638 L 54.888474 158.438461 C 59.957951 163.506287 68.176018 163.506287 73.245491 158.438461 C 78.315224 153.370758 78.315224 145.155228 73.245491 140.08728 L 53.248375 120.09967 Z"/>
        <path id="path5" fill="#000000" stroke="none" d="M 153.783188 120.09967 L 133.785812 140.08728 C 128.716339 145.155228 128.716339 153.370758 133.785812 158.438461 C 138.855545 163.506287 147.073608 163.506287 152.143097 158.438461 L 153.218231 157.36734 L 153.218231 159.447205 C 153.218231 164.917328 148.779526 169.354324 143.311295 169.354324 L 143.311295 170.498306 L 164.251938 170.498306 L 164.251938 169.354324 C 158.780045 169.354324 154.345001 164.917328 154.345001 159.447205 L 154.345001 157.3638 L 155.419876 158.438461 C 160.489624 163.506287 168.707687 163.506287 173.777161 158.438461 C 178.846634 153.370758 178.846634 145.155228 173.777161 140.08728 L 153.783188 120.09967 Z"/>
        <path id="path6" fill="#000000" stroke="none" d="M 103.513947 163.818298 L 83.520241 183.80603 C 78.4505 188.873993 78.4505 197.089386 83.520241 202.157349 C 88.589714 207.225037 96.807777 207.225037 101.877258 202.157349 L 102.948723 201.08609 L 102.948723 203.169495 C 102.948723 208.635941 98.513947 213.072952 93.045456 213.072952 L 93.045456 214.216919 L 113.986107 214.216919 L 113.986107 213.072952 C 108.514206 213.072952 104.07917 208.635941 104.07917 203.169495 L 104.07917 201.082428 L 105.154045 202.157349 C 110.223785 207.225037 118.441849 207.225037 123.511322 202.157349 C 128.581055 197.089386 128.581055 188.873993 123.511322 183.80603 L 103.513947 163.818298 Z"/>
        <path id="path7" fill="#000000" stroke="none" d="M 155.416473 310.521484 L 154.345001 311.596008 L 154.345001 309.512756 C 154.345001 304.042755 158.780045 299.609039 164.251938 299.609039 L 164.251938 298.461792 L 143.311295 298.461792 L 143.311295 299.609039 C 148.782928 299.609039 153.218231 304.042755 153.218231 309.512756 L 153.218231 311.599548 L 152.143097 310.521484 C 147.073608 305.456818 138.855545 305.456818 133.785812 310.521484 C 128.716339 315.589325 128.716339 323.80838 133.785812 328.876068 L 153.779785 348.863556 L 173.777161 328.876068 C 178.846634 323.80838 178.846634 315.589325 173.777161 310.521484 C 168.707687 305.456818 160.486206 305.456818 155.416473 310.521484 Z"/>
        <path id="path8" fill="#000000" stroke="none" d="M 54.885067 223.104813 L 53.813339 224.176071 L 53.813339 222.096069 C 53.813339 216.625961 58.248638 212.19249 63.716862 212.19249 L 63.716862 211.044983 L 42.779625 211.044983 L 42.779625 212.19249 C 48.251522 212.19249 52.686558 216.625961 52.686558 222.096069 L 52.686558 224.179474 L 51.611683 223.104813 C 46.541946 218.036987 38.323879 218.036987 33.254406 223.104813 C 28.184931 228.172775 28.184931 236.388306 33.254406 241.456131 L 53.248375 261.447144 L 73.245491 241.456131 C 78.315224 236.388306 78.315224 228.172775 73.245491 223.104813 C 68.176018 218.036987 59.95454 218.036987 54.885067 223.104813 Z"/>
        <path id="path9" fill="#000000" stroke="none" d="M 155.416473 223.104813 L 154.345001 224.176071 L 154.345001 222.096069 C 154.345001 216.625961 158.780045 212.19249 164.251938 212.19249 L 164.251938 211.044983 L 143.311295 211.044983 L 143.311295 212.19249 C 148.782928 212.19249 153.218231 216.625961 153.218231 222.096069 L 153.218231 224.179474 L 152.143097 223.104813 C 147.073608 218.036987 138.855545 218.036987 133.785812 223.104813 C 128.716339 228.172775 128.716339 236.388306 133.785812 241.456131 L 153.779785 261.447144 L 173.777161 241.456131 C 178.846634 236.388306 178.846634 228.172775 173.777161 223.104813 C 168.707687 218.036987 160.486206 218.036987 155.416473 223.104813 Z"/>
    </g>
</svg>
