<?xml version="1.0" encoding="UTF-8"?>
<!-- Generated by Pixelmator Pro 3.7 -->
<svg width="360" height="540" viewBox="0 0 360 540" xmlns="http://www.w3.org/2000/svg">
    <g id="Group-copy">
        <path id="Path" fill="#ffffff" stroke="none" d="M 342.32135 1.232544 L 17.457909 1.232544 C 8.148582 1.232544 0.602375 8.782043 0.602375 18.09552 L 0.602375 522.474792 C 0.602375 531.788391 8.148582 539.337952 17.457909 539.337952 L 342.32135 539.337952 C 351.630676 539.337952 359.176788 531.788391 359.176788 522.474792 L 359.176788 18.09552 C 359.176788 8.782043 351.630676 1.232544 342.32135 1.232544 Z"/>
        <path id="path1" fill="#000000" stroke="none" d="M 273.513489 439.499115 L 273.513489 101.09314 L 86.265297 101.09314 L 86.265297 439.499115 L 273.513489 439.499115 Z M 87.27964 102.10144 L 272.49939 102.10144 L 272.496338 438.493774 L 87.27964 438.493774 L 87.27964 102.10144 Z"/>
        <path id="path2" fill="#000000" stroke="none" d="M 273.513489 439.486786 L 273.513489 101.083588 L 86.265297 101.083588 L 86.265297 439.486786 L 273.513489 439.486786 Z M 87.27964 102.089172 L 272.496338 102.089172 L 272.496338 438.481506 L 87.27964 438.481506 L 87.27964 102.089172 Z"/>
        <path id="path3" fill="#b4171e" stroke="none" d="M 22.978621 116.179565 C 28.511837 120.332092 34.915585 122.439697 42.000038 122.439697 C 52.251743 122.439697 60.041214 119.120667 65.156212 112.576569 C 70.021576 106.350891 72.493248 98.011566 72.493248 87.795776 C 72.493248 78.572571 70.087288 70.982605 65.337181 65.247223 C 60.397022 59.280609 53.937 56.252045 46.134911 56.252045 C 42.280937 56.252045 38.473442 56.838989 34.81271 57.997437 C 33.442558 58.428345 32.103909 59.074524 30.774342 59.948639 L 31.938509 40.740967 L 68.648476 40.740967 L 71.853355 24.711487 L 20.513201 24.711487 L 17.498493 79.581116 L 21.271654 79.999512 C 22.254614 80.108673 23.234507 80.217987 24.217701 80.330444 L 28.81444 80.839264 L 30.134451 78.378998 C 32.612614 73.773834 34.744049 72.000366 36.089188 71.329041 C 38.26746 70.245789 40.948185 69.696228 44.065765 69.696228 C 47.807781 69.696228 50.301399 71.069946 52.148636 74.151764 C 54.330208 77.792175 55.438221 82.731354 55.438221 88.829102 C 55.438221 96.244354 54.189819 101.917328 51.718147 105.698181 C 49.558632 109.0047 46.631344 110.547089 42.514759 110.547089 C 39.253487 110.547089 36.313812 109.97583 33.52066 108.801697 C 31.145607 107.802612 31.145607 106.900421 31.145607 106.410248 C 31.145607 105.838867 31.539049 105.198944 31.485844 105.198944 C 33.314674 103.365997 34.247849 100.812134 34.247849 97.618195 C 34.247849 95.916473 33.767105 94.127319 32.768456 92.12912 C 31.94783 90.515106 29.844353 87.795776 24.944656 87.795776 C 21.589712 87.795776 18.762585 89.150604 16.777672 91.710724 C 14.995556 93.993225 14.09046 96.675049 14.09046 99.688141 C 14.09046 106.210419 17.083223 111.761597 22.978621 116.179565 Z"/>
        <path id="path4" fill="#b4171e" stroke="none" d="M 336.800415 424.365906 C 331.26413 420.213409 324.863556 418.109009 317.77948 418.109009 C 307.527527 418.109009 299.737946 421.424805 294.623047 427.968903 C 289.757568 434.197571 287.285797 442.533936 287.285797 452.75293 C 287.285797 461.972778 289.691986 469.562897 294.438782 475.298279 C 299.382141 481.268158 305.842163 484.293457 313.644257 484.293457 C 317.498444 484.293457 321.305725 483.706482 324.966431 482.548035 C 326.333282 482.117401 327.672058 481.470978 329.0047 480.599945 L 327.840515 499.807617 L 291.127716 499.807617 L 287.92569 515.837219 L 339.266083 515.837219 L 342.280548 460.967529 L 338.507507 460.546021 C 337.524536 460.436829 336.544647 460.327423 335.561462 460.218018 L 330.964722 459.706177 L 329.644592 462.166351 C 327.166656 466.771637 325.035095 468.545044 323.689972 469.219513 C 321.508636 470.299744 318.828033 470.849213 315.710205 470.849213 C 311.971375 470.849213 309.477875 469.475494 307.630402 466.396942 C 305.448822 462.753296 304.341064 457.813995 304.341064 451.719421 C 304.341064 444.301086 305.589203 438.628082 308.061005 434.847107 C 310.21756 431.54068 313.148041 430.001556 317.261078 430.001556 C 320.522369 430.001556 323.465118 430.572815 326.258484 431.746765 C 328.633301 432.742859 328.633301 433.648285 328.633301 434.138397 C 328.633301 434.706635 328.240234 435.349823 328.293304 435.349823 C 326.464478 437.179413 325.531311 439.733398 325.531311 442.927246 C 325.531311 444.629028 326.00885 446.418152 327.010681 448.416321 C 327.828033 450.033417 329.934814 452.75293 334.834503 452.75293 C 338.189453 452.75293 341.016815 451.394928 343.001373 448.837769 C 344.783478 446.552338 345.688568 443.870422 345.688568 440.860596 C 345.688568 434.334961 342.695801 428.783752 336.800415 424.365906 Z"/>
        <path id="path5" fill="#b4171e" stroke="none" d="M 57.226234 136.792358 C 52.336094 136.792358 47.732868 138.640656 44.206272 142.006439 C 40.67979 138.640656 36.076683 136.792358 31.186308 136.792358 C 26.143038 136.792358 21.39942 138.759277 17.835426 142.32486 C 14.2686 145.890442 12.305395 150.6362 12.305395 155.681732 C 12.305395 160.727142 14.2686 165.47287 17.835426 169.041534 L 44.206272 195.424072 L 70.577118 169.041534 C 74.144295 165.47287 76.107147 160.727142 76.107147 155.681732 C 76.107147 150.6362 74.144295 145.890442 70.577118 142.32486 C 67.009933 138.759277 62.269505 136.792358 57.226234 136.792358 Z"/>
        <path id="path6" fill="#b4171e" stroke="none" d="M 302.549744 403.778137 C 307.443054 403.778137 312.046417 401.929749 315.572876 398.563995 C 319.099365 401.929749 323.702484 403.778137 328.592712 403.778137 C 333.636108 403.778137 338.376556 401.811096 341.943604 398.245544 C 345.510681 394.680054 347.473755 389.934296 347.473755 384.885742 C 347.473755 379.843292 345.510681 375.097534 341.943604 371.528778 L 315.572876 345.146362 L 289.201904 371.528778 C 285.634857 375.097534 283.671997 379.843292 283.671997 384.885742 C 283.671997 389.934296 285.634857 394.680054 289.201904 398.245544 C 292.7659 401.811096 297.509644 403.778137 302.549744 403.778137 Z"/>
        <path id="path7" fill="#b4171e" stroke="none" d="M 136.132782 129.723724 L 134.65976 131.197418 L 133.186737 129.723724 C 128.627045 125.162231 121.234085 125.162231 116.674629 129.723724 C 112.114929 134.285339 112.114929 141.681732 116.674629 146.243347 L 134.65976 164.236542 L 152.644897 146.243347 C 157.204361 141.681732 157.204361 134.285339 152.644897 129.723724 C 148.085434 125.162231 140.692245 125.162231 136.132782 129.723724 Z"/>
        <path id="path8" fill="#b4171e" stroke="none" d="M 179.889343 289.240234 L 197.87471 271.246826 C 202.434174 266.685211 202.434174 259.288818 197.87471 254.727203 C 193.315247 250.16571 185.922058 250.16571 181.362366 254.727203 L 179.889343 256.201141 L 178.416321 254.727203 C 173.857101 250.16571 166.463898 250.16571 161.901367 254.727203 C 157.341675 259.288818 157.341675 266.685211 161.901367 271.246826 L 179.889343 289.240234 Z"/>
        <path id="path9" fill="#b4171e" stroke="none" d="M 134.65976 376.30896 L 116.674629 394.302124 C 112.114929 398.866974 112.114929 406.260193 116.674629 410.825043 C 121.234085 415.386475 128.627045 415.386475 133.186737 410.825043 L 134.65976 409.351135 L 136.132782 410.825043 C 140.692245 415.386475 148.085434 415.386475 152.644897 410.825043 C 157.204361 406.260193 157.204361 398.866974 152.644897 394.302124 L 134.65976 376.30896 Z"/>
        <path id="path10" fill="#b4171e" stroke="none" d="M 225.116089 164.236542 L 243.101456 146.243347 C 247.660919 141.681732 247.660919 134.285339 243.101456 129.723724 C 238.541763 125.162231 231.148804 125.162231 226.58934 129.723724 L 225.116089 131.197418 L 223.643295 129.723724 C 219.083847 125.162231 211.690643 125.162231 207.130951 129.723724 C 202.571732 134.285339 202.571732 141.681732 207.130951 146.243347 L 225.116089 164.236542 Z"/>
        <path id="path11" fill="#b4171e" stroke="none" d="M 223.643295 410.825043 L 225.116089 409.351135 L 226.58934 410.825043 C 231.148804 415.386475 238.541763 415.386475 243.101456 410.825043 C 247.660919 406.260193 247.660919 398.866974 243.101456 394.302124 L 225.116089 376.30896 L 207.130951 394.302124 C 202.571732 398.866974 202.571732 406.260193 207.130951 410.825043 C 211.690643 415.386475 219.083847 415.386475 223.643295 410.825043 Z"/>
    </g>
</svg>
