<?xml version="1.0" encoding="UTF-8"?>
<!-- Generated by Pixelmator Pro 3.7 -->
<svg width="208" height="376" viewBox="0 0 208 376" xmlns="http://www.w3.org/2000/svg">
    <g id="Group-copy">
        <path id="Path" fill="#000000" stroke="none" d="M 207.543671 376.602142 L 207.543671 0.889191 L -0.506607 0.889191 L -0.506607 376.602142 L 207.543671 376.602142 Z M 0.620438 2.00531 L 206.416763 2.00531 L 206.416763 375.486023 L 0.620438 375.486023 L 0.620438 2.00531 Z"/>
        <path id="path1" fill="#ff0000" stroke="none" d="M 103.620781 28.887695 C 101.145027 33.144196 97.375626 38.537964 91.692299 44.042877 C 87.219246 48.379242 82.707924 51.665527 78.859085 54.102264 C 82.707924 56.53595 87.219246 59.825439 91.692299 64.158508 C 97.375626 69.663239 101.145027 75.056946 103.620781 79.313782 C 106.100197 75.056946 109.869339 69.663239 115.552536 64.158508 C 120.025848 59.825439 124.533638 56.53595 128.386017 54.102264 C 124.533638 51.665527 120.025848 48.379242 115.552536 44.042877 C 109.869339 38.537964 106.100197 33.144196 103.620781 28.887695 Z"/>
        <path id="path2" fill="#ff0000" stroke="none" d="M 103.620781 163.520401 C 101.145027 167.773849 97.375626 173.167374 91.692299 178.675659 C 87.219246 183.008713 82.707924 186.298203 78.859085 188.731674 C 82.707924 191.165115 87.219246 194.454895 91.692299 198.787918 C 97.375626 204.296173 101.145027 209.689957 103.620781 213.946548 C 106.100197 209.689957 109.869339 204.296173 115.552536 198.787918 C 120.025848 194.454895 124.533638 191.165115 128.386017 188.731674 C 124.533638 186.298203 120.025848 183.008713 115.552536 178.675659 C 109.869339 173.167374 106.100197 167.773849 103.620781 163.520401 Z"/>
        <path id="path3" fill="#ff0000" stroke="none" d="M 103.620781 298.149841 C 101.145027 302.406555 97.375626 307.800354 91.692299 313.308655 C 87.219246 317.641724 82.707924 320.931213 78.859085 323.364716 C 82.707924 325.798096 87.219246 329.08786 91.692299 333.420929 C 97.375626 338.925415 101.145027 344.322723 103.620781 348.576233 C 106.100197 344.322723 109.869339 338.925415 115.552536 333.420929 C 120.025848 329.08786 124.533638 325.798096 128.386017 323.364716 C 124.533638 320.931213 120.025848 317.641724 115.552536 313.308655 C 109.869339 307.800354 106.100197 302.406555 103.620781 298.149841 Z"/>
    </g>
</svg>
