<?xml version="1.0" encoding="UTF-8"?>
<!-- Generated by Pixelmator Pro 3.7 -->
<svg width="209" height="376" viewBox="0 0 209 376" xmlns="http://www.w3.org/2000/svg">
    <g id="Group-copy">
        <path id="Path" fill="#000000" stroke="none" d="M 66.813736 47.000397 C 65.360603 47.000397 63.983955 47.29834 62.697716 47.777161 C 64.519318 45.699341 65.659431 43.011169 65.659431 40.033447 C 65.659431 33.508331 60.361774 28.217834 53.82991 28.217834 C 47.294632 28.217834 42.000389 33.508331 42.000389 40.033447 C 42.000389 43.011169 43.140503 45.699341 44.958691 47.777161 C 43.672451 47.29834 42.299217 47.000397 40.846085 47.000397 C 34.310806 47.000397 29.016565 52.290619 29.016565 58.815216 C 29.016565 65.341644 34.310806 70.631622 40.846085 70.631622 C 44.88221 70.631622 48.435009 68.60553 50.56937 65.52356 C 51.309731 64.878571 52.241165 64.496613 53.259857 64.366913 L 53.259857 67.581451 C 53.259857 73.086426 48.792706 77.548157 43.283215 77.548157 L 43.283215 78.704529 L 64.376869 78.704529 L 64.376869 77.548157 C 58.863701 77.548157 54.396553 73.086426 54.396553 67.581451 L 54.396553 64.366913 C 55.415241 64.495544 56.346676 64.877533 57.087036 65.522522 C 59.221397 68.604736 62.777878 70.631622 66.813736 70.631622 C 73.345596 70.631622 78.643257 65.341644 78.643257 58.815216 C 78.643257 52.290619 73.345596 47.000397 66.813736 47.000397 Z"/>
        <path id="path1" fill="#000000" stroke="none" d="M 66.813736 138.117874 C 65.360603 138.117874 63.983955 138.416351 62.697716 138.895706 C 64.519318 136.815521 65.659431 134.128143 65.659431 131.152252 C 65.659431 124.624512 60.361774 119.336365 53.82991 119.336365 C 47.294632 119.336365 42.000389 124.624512 42.000389 131.152252 C 42.000389 134.128143 43.140503 136.815521 44.958691 138.895706 C 43.672451 138.416351 42.299217 138.117874 40.846085 138.117874 C 34.310806 138.117874 29.016565 143.409424 29.016565 149.933746 C 29.016565 156.457825 34.310806 161.749634 40.846085 161.749634 C 44.88221 161.749634 48.435009 159.721954 50.56937 156.642105 C 51.309731 155.996048 52.241165 155.614349 53.259857 155.485718 L 53.259857 158.697617 C 53.259857 164.204422 48.792706 168.666168 43.283215 168.666168 L 43.283215 169.818878 L 64.376869 169.818878 L 64.376869 168.666168 C 58.863701 168.666168 54.396553 164.204422 54.396553 158.697617 L 54.396553 155.485718 C 55.415241 155.614349 56.346676 155.996048 57.087036 156.638687 C 59.221397 159.721954 62.777878 161.749634 66.813736 161.749634 C 73.345596 161.749634 78.643257 156.457825 78.643257 149.933746 C 78.643257 143.409424 73.345596 138.117874 66.813736 138.117874 Z"/>
        <path id="path2" fill="#000000" stroke="none" d="M 66.813736 306.030975 C 62.777878 306.030975 59.221397 308.055237 57.087036 311.138763 C 56.346676 311.784302 55.418659 312.166504 54.396553 312.294891 L 54.396553 309.07959 C 54.396553 303.576172 58.866856 299.114166 64.376869 299.114166 L 64.376869 297.958069 L 43.283215 297.958069 L 43.283215 299.114166 C 48.792706 299.114166 53.263271 303.576172 53.263271 309.07959 L 53.263271 312.294891 C 52.244846 312.166504 51.313148 311.784302 50.572784 311.138763 C 48.438427 308.058655 44.88221 306.030975 40.846085 306.030975 C 34.314487 306.030975 29.016565 311.319092 29.016565 317.847107 C 29.016565 324.371185 34.314487 329.662994 40.846085 329.662994 C 42.299217 329.662994 43.672451 329.364258 44.958691 328.885162 C 43.140503 330.961395 42.000389 333.652466 42.000389 336.628082 C 42.000389 343.152405 47.29805 348.44397 53.82991 348.44397 C 60.361774 348.44397 65.659431 343.152405 65.659431 336.628082 C 65.659431 333.652466 64.519318 330.961395 62.697716 328.885162 C 63.987637 329.364258 65.360603 329.662994 66.813736 329.662994 C 73.345596 329.662994 78.643257 324.371185 78.643257 317.847107 C 78.643257 311.319092 73.345596 306.030975 66.813736 306.030975 Z"/>
        <path id="path3" fill="#000000" stroke="none" d="M 66.813736 218.506821 C 62.777878 218.506821 59.221397 220.530823 57.087036 223.614349 C 56.346676 224.260132 55.418659 224.64209 54.396553 224.770462 L 54.396553 221.55542 C 54.396553 216.051758 58.866856 211.586609 64.376869 211.586609 L 64.376869 210.43364 L 43.283215 210.43364 L 43.283215 211.586609 C 48.792706 211.586609 53.263271 216.051758 53.263271 221.55542 L 53.263271 224.770462 C 52.244846 224.64209 51.313148 224.260132 50.572784 223.614349 C 48.438427 220.530823 44.88221 218.506821 40.846085 218.506821 C 34.314487 218.506821 29.016565 223.794952 29.016565 230.322693 C 29.016565 236.847031 34.314487 242.135162 40.846085 242.135162 C 42.299217 242.135162 43.672451 241.839828 44.958691 241.361008 C 43.140503 243.437241 42.000389 246.124634 42.000389 249.103668 C 42.000389 255.628006 47.29805 260.9198 53.82991 260.9198 C 60.361774 260.9198 65.659431 255.628006 65.659431 249.103668 C 65.659431 246.124634 64.519318 243.437241 62.697716 241.361008 C 63.987637 241.839828 65.360603 242.135162 66.813736 242.135162 C 73.345596 242.135162 78.643257 236.847031 78.643257 230.322693 C 78.643257 223.794952 73.345596 218.506821 66.813736 218.506821 Z"/>
        <path id="path4" fill="#000000" stroke="none" d="M 167.596466 47.000397 C 166.143341 47.000397 164.766953 47.29834 163.480713 47.777161 C 165.302063 45.699341 166.442429 43.011169 166.442429 40.033447 C 166.442429 33.508331 161.144516 28.217834 154.612915 28.217834 C 148.077637 28.217834 142.783127 33.508331 142.783127 40.033447 C 142.783127 43.011169 143.923233 45.699341 145.741425 47.777161 C 144.455444 47.29834 143.082214 47.000397 141.629089 47.000397 C 135.093811 47.000397 129.799561 52.290619 129.799561 58.815216 C 129.799561 65.341644 135.093811 70.631622 141.629089 70.631622 C 145.664948 70.631622 149.217743 68.60553 151.355515 65.52356 C 152.092468 64.878571 153.02417 64.496613 154.042847 64.366913 L 154.042847 67.581451 C 154.042847 73.086426 149.575699 77.548157 144.065948 77.548157 L 144.065948 78.704529 L 165.159866 78.704529 L 165.159866 77.548157 C 159.646439 77.548157 155.17955 73.086426 155.17955 67.581451 L 155.17955 64.366913 C 156.197983 64.495544 157.129669 64.877533 157.870041 65.522522 C 160.004395 68.604736 163.560608 70.631622 167.596466 70.631622 C 174.128342 70.631622 179.426254 65.341644 179.426254 58.815216 C 179.426254 52.290619 174.128342 47.000397 167.596466 47.000397 Z"/>
        <path id="path5" fill="#000000" stroke="none" d="M 167.596466 138.117874 C 166.143341 138.117874 164.766953 138.416351 163.480713 138.895706 C 165.302063 136.815521 166.442429 134.128143 166.442429 131.152252 C 166.442429 124.624512 161.144516 119.336365 154.612915 119.336365 C 148.077637 119.336365 142.783127 124.624512 142.783127 131.152252 C 142.783127 134.128143 143.923233 136.815521 145.741425 138.895706 C 144.455444 138.416351 143.082214 138.117874 141.629089 138.117874 C 135.093811 138.117874 129.799561 143.409424 129.799561 149.933746 C 129.799561 156.457825 135.093811 161.749634 141.629089 161.749634 C 145.664948 161.749634 149.217743 159.721954 151.355515 156.642105 C 152.092468 155.996048 153.02417 155.614349 154.042847 155.485718 L 154.042847 158.697617 C 154.042847 164.204422 149.575699 168.666168 144.065948 168.666168 L 144.065948 169.818878 L 165.159866 169.818878 L 165.159866 168.666168 C 159.646439 168.666168 155.17955 164.204422 155.17955 158.697617 L 155.17955 155.485718 C 156.197983 155.614349 157.129669 155.996048 157.870041 156.638687 C 160.004395 159.721954 163.560608 161.749634 167.596466 161.749634 C 174.128342 161.749634 179.426254 156.457825 179.426254 149.933746 C 179.426254 143.409424 174.128342 138.117874 167.596466 138.117874 Z"/>
        <path id="path6" fill="#000000" stroke="none" d="M 167.596466 306.030975 C 163.560608 306.030975 160.004395 308.055237 157.870041 311.138763 C 157.129669 311.784302 156.201401 312.166504 155.182968 312.294891 L 155.182968 309.07959 C 155.182968 303.576172 159.649857 299.114166 165.159866 299.114166 L 165.159866 297.958069 L 144.065948 297.958069 L 144.065948 299.114166 C 149.575699 299.114166 154.046265 303.576172 154.046265 309.07959 L 154.046265 312.294891 C 153.027847 312.166504 152.096146 311.784302 151.355515 311.138763 C 149.221161 308.058655 145.664948 306.030975 141.629089 306.030975 C 135.097229 306.030975 129.799561 311.319092 129.799561 317.847107 C 129.799561 324.371185 135.097229 329.662994 141.629089 329.662994 C 143.082214 329.662994 144.455444 329.364258 145.741425 328.885162 C 143.923233 330.961395 142.783127 333.652466 142.783127 336.628082 C 142.783127 343.152405 148.081055 348.44397 154.612915 348.44397 C 161.144516 348.44397 166.442429 343.152405 166.442429 336.628082 C 166.442429 333.652466 165.302063 330.961395 163.480713 328.885162 C 164.77037 329.364258 166.143341 329.662994 167.596466 329.662994 C 174.128342 329.662994 179.426254 324.371185 179.426254 317.847107 C 179.426254 311.319092 174.128342 306.030975 167.596466 306.030975 Z"/>
        <path id="path7" fill="#000000" stroke="none" d="M 167.596466 218.506821 C 163.560608 218.506821 160.004395 220.530823 157.870041 223.614349 C 157.129669 224.260132 156.201401 224.64209 155.182968 224.770462 L 155.182968 221.55542 C 155.182968 216.051758 159.649857 211.586609 165.159866 211.586609 L 165.159866 210.43364 L 144.065948 210.43364 L 144.065948 211.586609 C 149.575699 211.586609 154.046265 216.051758 154.046265 221.55542 L 154.046265 224.770462 C 153.027847 224.64209 152.096146 224.260132 151.355515 223.614349 C 149.221161 220.530823 145.664948 218.506821 141.629089 218.506821 C 135.097229 218.506821 129.799561 223.794952 129.799561 230.322693 C 129.799561 236.847031 135.097229 242.135162 141.629089 242.135162 C 143.082214 242.135162 144.455444 241.839828 145.741425 241.361008 C 143.923233 243.437241 142.783127 246.124634 142.783127 249.103668 C 142.783127 255.628006 148.081055 260.9198 154.612915 260.9198 C 161.144516 260.9198 166.442429 255.628006 166.442429 249.103668 C 166.442429 246.124634 165.302063 243.437241 163.480713 241.361008 C 164.77037 241.839828 166.143341 242.135162 167.596466 242.135162 C 174.128342 242.135162 179.426254 236.847031 179.426254 230.322693 C 179.426254 223.794952 174.128342 218.506821 167.596466 218.506821 Z"/>
        <path id="path8" fill="#000000" stroke="none" d="M 117.204971 181.871277 C 115.752106 181.871277 114.375458 182.169769 113.089218 182.648865 C 114.91082 180.569199 116.050934 177.881821 116.050934 174.902512 C 116.050934 168.378189 110.753273 163.089783 104.221413 163.089783 C 97.686134 163.089783 92.391624 168.378189 92.391624 174.902512 C 92.391624 177.881821 93.532005 180.569199 95.350189 182.648865 C 94.06395 182.169769 92.69072 181.871277 91.237587 181.871277 C 84.702309 181.871277 79.408066 187.162827 79.408066 193.687164 C 79.408066 200.211487 84.702309 205.503052 91.237587 205.503052 C 95.273712 205.503052 98.826248 203.475372 100.960602 200.395523 C 101.700966 199.749466 102.632668 199.367767 103.651352 199.235718 L 103.651352 202.451019 C 103.651352 207.95784 99.184204 212.41983 93.674713 212.41983 L 93.674713 213.572556 L 114.768372 213.572556 L 114.768372 212.41983 C 109.254936 212.41983 104.788048 207.95784 104.788048 202.451019 L 104.788048 199.235718 C 105.80648 199.364349 106.738174 199.746048 107.478539 200.392105 C 109.6129 203.475372 113.169373 205.503052 117.204971 205.503052 C 123.737099 205.503052 129.03476 200.211487 129.03476 193.687164 C 129.03476 187.162827 123.737099 181.871277 117.204971 181.871277 Z"/>
        <path id="path9" fill="#000000" stroke="none" d="M 208.508331 376.503082 L 208.508331 0.158722 L -0.065502 0.158722 L -0.065502 376.503082 L 208.508331 376.503082 Z M 1.067777 1.2789 L 207.378464 1.279144 L 207.378464 375.381866 L 1.067777 375.381866 L 1.067777 1.2789 Z"/>
    </g>
</svg>
