<?xml version="1.0" encoding="UTF-8"?>
<!-- Generated by Pixelmator Pro 3.7 -->
<svg width="208" height="376" viewBox="0 0 208 376" xmlns="http://www.w3.org/2000/svg">
    <g id="Group-copy">
        <path id="Path" fill="#000000" stroke="none" d="M 207.897079 376.616119 L 207.897079 0.899658 L -0.153078 0.899658 L -0.153078 376.616119 L 207.897079 376.616119 Z M 0.974098 2.019196 L 206.770294 2.019196 L 206.770294 375.499786 L 0.974098 375.499786 L 0.974098 2.019196 Z"/>
        <path id="path1" fill="#000000" stroke="none" d="M 207.897079 376.602142 L 207.897079 0.889191 L -0.153078 0.889191 L -0.153078 376.602142 L 207.897079 376.602142 Z M 0.974098 2.00531 L 206.770294 2.00531 L 206.770294 375.486023 L 0.974098 375.486023 L 0.974098 2.00531 Z"/>
        <path id="path2" fill="#ff0000" stroke="none" d="M 53.618549 79.313782 C 56.094433 75.056946 59.863571 69.663239 65.550438 64.158508 C 70.023491 59.825439 74.53141 56.53595 78.380241 54.102264 C 74.53141 51.665527 70.023491 48.379242 65.550438 44.042877 C 59.863571 38.537964 56.094433 33.144196 53.618549 28.887695 C 51.142406 33.144196 47.373268 38.537964 41.686661 44.042877 C 37.213348 48.379242 32.705696 51.665527 28.852926 54.102264 C 32.705696 56.53595 37.213348 59.825439 41.686661 64.158508 C 47.373268 69.663239 51.142406 75.056946 53.618549 79.313782 Z"/>
        <path id="path3" fill="#ff0000" stroke="none" d="M 154.125839 79.313782 C 156.601456 75.056946 160.370865 69.663239 166.057465 64.158508 C 170.527374 59.825439 175.038696 56.53595 178.887527 54.102264 C 175.038696 51.665527 170.527374 48.379242 166.057465 44.042877 C 160.370865 38.537964 156.601456 33.144196 154.125839 28.887695 C 151.649963 33.144196 147.880814 38.537964 142.193954 44.042877 C 137.720642 48.379242 133.212982 51.665527 129.360474 54.102264 C 133.212982 56.53595 137.720642 59.825439 142.193954 64.158508 C 147.880814 69.663239 151.649963 75.056946 154.125839 79.313782 Z"/>
        <path id="path4" fill="#ff0000" stroke="none" d="M 103.870232 213.946548 C 106.346375 209.689957 110.115509 204.296173 115.802116 198.787918 C 120.275429 194.454895 124.783089 191.165115 128.63559 188.731674 C 124.783089 186.298203 120.275429 183.008713 115.802116 178.675659 C 110.115509 173.167374 106.346375 167.773849 103.870232 163.520401 C 101.394348 167.773849 97.625206 173.167374 91.942009 178.675659 C 87.468697 183.008713 82.957375 186.298203 79.108536 188.731674 C 82.957375 191.165115 87.468697 194.454895 91.942009 198.787918 C 97.625206 204.296173 101.394348 209.689957 103.870232 213.946548 Z"/>
        <path id="path5" fill="#ff0000" stroke="none" d="M 53.618549 348.576233 C 56.094433 344.322723 59.863571 338.925415 65.550438 333.420929 C 70.023491 329.08786 74.53141 325.798096 78.380241 323.364716 C 74.53141 320.931213 70.023491 317.641724 65.550438 313.308655 C 59.863571 307.800354 56.094433 302.406555 53.618549 298.149841 C 51.142406 302.406555 47.373268 307.800354 41.686661 313.308655 C 37.213348 317.641724 32.705696 320.931213 28.852926 323.364716 C 32.705696 325.798096 37.213348 329.08786 41.686661 333.420929 C 47.373268 338.925415 51.142406 344.322723 53.618549 348.576233 Z"/>
        <path id="path6" fill="#ff0000" stroke="none" d="M 154.125839 348.576233 C 156.601456 344.322723 160.370865 338.925415 166.057465 333.420929 C 170.527374 329.08786 175.038696 325.798096 178.887527 323.364716 C 175.038696 320.931213 170.527374 317.641724 166.057465 313.308655 C 160.370865 307.800354 156.601456 302.406555 154.125839 298.149841 C 151.649963 302.406555 147.880814 307.800354 142.193954 313.308655 C 137.720642 317.641724 133.212982 320.931213 129.360474 323.364716 C 133.212982 325.798096 137.720642 329.08786 142.193954 333.420929 C 147.880814 338.925415 151.649963 344.322723 154.125839 348.576233 Z"/>
    </g>
</svg>
