<?xml version="1.0" encoding="UTF-8"?>
<!-- Generated by Pixelmator Pro 3.7 -->
<svg width="208" height="376" viewBox="0 0 208 376" xmlns="http://www.w3.org/2000/svg">
    <g id="Group-copy">
        <path id="Path" fill="#000000" stroke="none" d="M 207.617081 376.581421 L 207.617081 0.882172 L -0.426384 0.882172 L -0.426384 376.581421 L 207.617081 376.581421 Z M 0.704069 2.00177 L 206.490036 2.00177 L 206.490036 375.461578 L 0.704069 375.461578 L 0.704069 2.00177 Z"/>
        <path id="path1" fill="#ff0000" stroke="none" d="M 53.345112 28.922363 C 50.869232 33.178925 47.100094 38.572632 41.413223 44.077545 C 36.943581 48.410645 32.432259 51.700195 28.583158 54.133606 C 32.432259 56.566986 36.943581 59.856567 41.413223 64.189636 C 47.100094 69.697815 50.869232 75.091614 53.345112 79.34845 C 55.820995 75.091614 59.590134 69.697815 65.277 64.189636 C 69.746643 59.856567 74.257973 56.566986 78.107071 54.133606 C 74.257973 51.700195 69.746643 48.410645 65.277 44.077545 C 59.590134 38.572632 55.820995 33.178925 53.345112 28.922363 Z"/>
        <path id="path2" fill="#ff0000" stroke="none" d="M 103.597054 94.60434 C 101.12117 98.860901 97.351768 104.254639 91.665161 109.76297 C 87.191849 114.095978 82.684196 117.382172 78.835098 119.815613 C 82.684196 122.252579 87.191849 125.542175 91.665161 129.871582 C 97.351768 135.379898 101.12117 140.773697 103.597054 145.030411 C 106.072937 140.773697 109.842072 135.379898 115.525536 129.871582 C 119.998581 125.542175 124.509911 122.252579 128.358749 119.815613 C 124.509911 117.382172 119.998581 114.095978 115.525536 109.76297 C 109.842072 104.254639 106.072937 98.860901 103.597054 94.60434 Z"/>
        <path id="path3" fill="#ff0000" stroke="none" d="M 103.597054 232.488602 C 101.12117 236.745361 97.351768 242.139114 91.665161 247.647171 C 87.191849 251.980194 82.684196 255.266693 78.835098 257.703491 C 82.684196 260.136871 87.191849 263.426361 91.665161 267.756165 C 97.351768 273.26416 101.12117 278.657959 103.597054 282.914978 C 106.072937 278.657959 109.842072 273.26416 115.525536 267.756165 C 119.998581 263.423096 124.509911 260.136871 128.358749 257.703491 C 124.509911 255.266693 119.998581 251.980194 115.525536 247.647171 C 109.842072 242.139114 106.072937 236.745361 103.597054 232.488602 Z"/>
        <path id="path4" fill="#ff0000" stroke="none" d="M 153.848999 28.922363 C 151.369705 33.178925 147.603714 38.572632 141.917099 44.077545 C 137.443787 48.410645 132.935867 51.700195 129.083633 54.133606 C 132.935867 56.566986 137.443787 59.856567 141.917099 64.189636 C 147.603714 69.697815 151.369705 75.091614 153.848999 79.34845 C 156.324875 75.091614 160.094009 69.697815 165.777481 64.189636 C 170.250519 59.856567 174.758438 56.566986 178.610687 54.133606 C 174.758438 51.700195 170.250519 48.410645 165.777481 44.077545 C 160.094009 38.572632 156.324875 33.178925 153.848999 28.922363 Z"/>
        <path id="path5" fill="#ff0000" stroke="none" d="M 53.345112 160.334641 C 50.869232 164.59166 47.100094 169.985413 41.413223 175.493469 C 36.943581 179.826492 32.432259 183.112732 28.583158 185.549515 C 32.432259 187.982986 36.943581 191.272675 41.413223 195.605728 C 47.100094 201.110397 50.869232 206.504196 53.345112 210.761017 C 55.820995 206.504196 59.590134 201.110397 65.277 195.605728 C 69.746643 191.272675 74.257973 187.982986 78.107071 185.549515 C 74.257973 183.112732 69.746643 179.826492 65.277 175.493469 C 59.590134 169.985413 55.820995 164.59166 53.345112 160.334641 Z"/>
        <path id="path6" fill="#ff0000" stroke="none" d="M 153.848999 160.334641 C 151.369705 164.59166 147.603714 169.985413 141.917099 175.493469 C 137.443787 179.826492 132.935867 183.112732 129.083633 185.549515 C 132.935867 187.982986 137.443787 191.272675 141.917099 195.605728 C 147.603714 201.110397 151.369705 206.504196 153.848999 210.761017 C 156.324875 206.504196 160.094009 201.110397 165.777481 195.605728 C 170.250519 191.272675 174.758438 187.982986 178.610687 185.549515 C 174.758438 183.112732 170.250519 179.826492 165.777481 175.493469 C 160.094009 169.985413 156.324875 164.59166 153.848999 160.334641 Z"/>
        <path id="path7" fill="#ff0000" stroke="none" d="M 53.345112 298.173981 C 50.869232 302.42746 47.100094 307.821259 41.413223 313.329285 C 36.943581 317.662323 32.432259 320.952118 28.583158 323.385498 C 32.432259 325.818848 36.943581 329.10849 41.413223 333.441528 C 47.100094 338.946136 50.869232 344.339935 53.345112 348.596954 C 55.820995 344.339935 59.590134 338.946136 65.277 333.441528 C 69.746643 329.10849 74.257973 325.818848 78.107071 323.385498 C 74.257973 320.952118 69.746643 317.662323 65.277 313.329285 C 59.590134 307.821259 55.820995 302.42746 53.345112 298.173981 Z"/>
        <path id="path8" fill="#ff0000" stroke="none" d="M 153.848999 298.173981 C 151.369705 302.42746 147.603714 307.821259 141.917099 313.329285 C 137.443787 317.662323 132.935867 320.952118 129.083633 323.385498 C 132.935867 325.818848 137.443787 329.10849 141.917099 333.441528 C 147.603714 338.946136 151.369705 344.339935 153.848999 348.596954 C 156.324875 344.339935 160.094009 338.946136 165.777481 333.441528 C 170.250519 329.10849 174.758438 325.818848 178.610687 323.385498 C 174.758438 320.952118 170.250519 317.662323 165.777481 313.329285 C 160.094009 307.821259 156.324875 302.42746 153.848999 298.173981 Z"/>
    </g>
</svg>
