<?xml version="1.0" encoding="UTF-8"?>
<!-- Generated by Pixelmator Pro 3.7 -->
<svg width="208" height="376" viewBox="0 0 208 376" xmlns="http://www.w3.org/2000/svg">
    <g id="Group-copy">
        <path id="Path" fill="#000000" stroke="none" d="M 207.993958 376.318665 L 207.993958 0.315094 L -0.056206 0.315094 L -0.056206 376.318665 L 207.993958 376.318665 Z M 1.070839 1.432404 L 206.867035 1.432404 L 206.867035 375.20166 L 1.070839 375.20166 L 1.070839 1.432404 Z"/>
        <path id="path1" fill="#b4171e" stroke="none" d="M 55.351852 32.137482 L 53.715286 33.774902 L 52.078461 32.137482 C 47.012527 27.069153 38.798004 27.069153 33.731812 32.137482 C 28.662201 37.205933 28.662201 45.424133 33.731812 50.492615 L 53.715286 70.485046 L 73.698898 50.492615 C 78.765106 45.424133 78.765106 37.205933 73.698898 32.137482 C 68.632706 27.069153 60.418045 27.069153 55.351852 32.137482 Z"/>
        <path id="path2" fill="#b4171e" stroke="none" d="M 53.715286 306.121094 L 33.731812 326.113464 C 28.662201 331.185547 28.662201 339.400208 33.731812 344.47226 C 38.798004 349.540527 47.012527 349.540527 52.078461 344.47226 L 53.715286 342.834595 L 55.351852 344.47226 C 60.418045 349.540527 68.632706 349.540527 73.698898 344.47226 C 78.765106 339.400208 78.765106 331.185547 73.698898 326.113464 L 53.715286 306.121094 Z"/>
        <path id="path3" fill="#b4171e" stroke="none" d="M 154.22258 70.485046 L 174.206055 50.492615 C 179.272247 45.424133 179.272247 37.205933 174.206055 32.137482 C 169.139984 27.069153 160.925201 27.069153 155.859268 32.137482 L 154.22258 33.774902 L 152.585892 32.137482 C 147.519821 27.069153 139.305161 27.069153 134.23555 32.137482 C 129.169617 37.205933 129.169617 45.424133 134.23555 50.492615 L 154.22258 70.485046 Z"/>
        <path id="path4" fill="#b4171e" stroke="none" d="M 152.585892 344.47226 L 154.22258 342.834595 L 155.859268 344.47226 C 160.925201 349.540527 169.139984 349.540527 174.206055 344.47226 C 179.272247 339.400208 179.272247 331.185547 174.206055 326.113464 L 154.22258 306.121094 L 134.23555 326.113464 C 129.169617 331.185547 129.169617 339.400208 134.23555 344.47226 C 139.305161 349.540527 147.516281 349.540527 152.585892 344.47226 Z"/>
    </g>
</svg>
