<?xml version="1.0" encoding="UTF-8"?>
<!-- Generated by Pixelmator Pro 3.7 -->
<svg width="208" height="376" viewBox="0 0 208 376" xmlns="http://www.w3.org/2000/svg">
    <g id="Group-copy">
        <path id="Path" fill="#000000" stroke="none" d="M 207.821304 376.820465 L 207.821304 1.104004 L -0.232383 1.104004 L -0.232383 376.820465 L 207.821304 376.820465 Z M 0.897808 2.220093 L 206.69426 2.220093 L 206.69426 375.700745 L 0.897808 375.700745 L 0.897808 2.220093 Z"/>
        <path id="path1" fill="#000000" stroke="none" d="M 53.532036 29.171661 L 33.538067 49.159119 C 28.465185 54.227081 28.465185 62.445892 33.538067 67.513977 C 38.60754 72.5784 46.825607 72.5784 51.895344 67.513977 L 52.966808 66.439453 L 52.966808 68.522614 C 52.966808 73.992706 48.531773 78.4263 43.063549 78.4263 L 43.063549 79.5737 L 64.000786 79.5737 L 64.000786 78.4263 C 58.532299 78.4263 54.093853 73.992706 54.093853 68.522614 L 54.093853 66.435913 L 55.168728 67.513977 C 60.238201 72.5784 68.456268 72.5784 73.526009 67.513977 C 78.595482 62.445892 78.595482 54.227081 73.526009 49.159119 L 53.532036 29.171661 Z"/>
        <path id="path2" fill="#000000" stroke="none" d="M 55.168728 310.521484 L 54.097263 311.596008 L 54.097263 309.512756 C 54.097263 304.042755 58.532299 299.609039 64.000786 299.609039 L 64.000786 298.461792 L 43.059879 298.461792 L 43.059879 299.609039 C 48.531773 299.609039 52.966808 304.042755 52.966808 309.512756 L 52.966808 311.599548 L 51.891674 310.521484 C 46.822464 305.456818 38.604134 305.456818 33.534657 310.521484 C 28.465185 315.589325 28.465185 323.80838 33.534657 328.876068 L 53.532036 348.863556 L 73.526009 328.876068 C 78.595482 323.80838 78.595482 315.589325 73.526009 310.521484 C 68.456268 305.456818 60.238201 305.456818 55.168728 310.521484 Z"/>
        <path id="path3" fill="#000000" stroke="none" d="M 154.063446 29.171661 L 134.069473 49.159119 C 129 54.227081 129 62.445892 134.069473 67.513977 C 139.139206 72.5784 147.357285 72.5784 152.426758 67.513977 L 153.498474 66.439453 L 153.498474 68.522614 C 153.498474 73.992706 149.063446 78.4263 143.594955 78.4263 L 143.594955 79.5737 L 164.535599 79.5737 L 164.535599 78.4263 C 159.063705 78.4263 154.625259 73.992706 154.625259 68.522614 L 154.625259 66.435913 L 155.700134 67.513977 C 160.769867 72.5784 168.991608 72.5784 174.061081 67.513977 C 179.130554 62.445892 179.130554 54.227081 174.061081 49.159119 L 154.063446 29.171661 Z"/>
        <path id="path4" fill="#000000" stroke="none" d="M 53.532036 163.818298 L 33.538067 183.80603 C 28.465185 188.873993 28.465185 197.089386 33.538067 202.157349 C 38.60754 207.225037 46.825607 207.225037 51.895344 202.157349 L 52.966808 201.08609 L 52.966808 203.169495 C 52.966808 208.635941 48.531773 213.072952 43.063549 213.072952 L 43.063549 214.216919 L 64.000786 214.216919 L 64.000786 213.072952 C 58.532299 213.072952 54.093853 208.635941 54.093853 203.169495 L 54.093853 201.082428 L 55.168728 202.157349 C 60.238201 207.225037 68.456268 207.225037 73.526009 202.157349 C 78.595482 197.089386 78.595482 188.873993 73.526009 183.80603 L 53.532036 163.818298 Z"/>
        <path id="path5" fill="#000000" stroke="none" d="M 154.063446 163.818298 L 134.069473 183.80603 C 129 188.873993 129 197.089386 134.069473 202.157349 C 139.139206 207.225037 147.357285 207.225037 152.426758 202.157349 L 153.498474 201.08609 L 153.498474 203.169495 C 153.498474 208.635941 149.063446 213.072952 143.594955 213.072952 L 143.594955 214.216919 L 164.535599 214.216919 L 164.535599 213.072952 C 159.063705 213.072952 154.625259 208.635941 154.625259 203.169495 L 154.625259 201.082428 L 155.700134 202.157349 C 160.769867 207.225037 168.991608 207.225037 174.061081 202.157349 C 179.130554 197.089386 179.130554 188.873993 174.061081 183.80603 L 154.063446 163.818298 Z"/>
        <path id="path6" fill="#000000" stroke="none" d="M 155.700134 310.521484 L 154.628677 311.596008 L 154.628677 309.512756 C 154.628677 304.042755 159.063705 299.609039 164.532196 299.609039 L 164.532196 298.461792 L 143.591553 298.461792 L 143.591553 299.609039 C 149.063446 299.609039 153.498474 304.042755 153.498474 309.512756 L 153.498474 311.599548 L 152.426758 310.521484 C 147.357285 305.456818 139.135803 305.456818 134.06633 310.521484 C 128.996323 315.589325 128.996323 323.80838 134.06633 328.876068 L 154.063446 348.863556 L 174.057419 328.876068 C 179.127151 323.80838 179.127151 315.589325 174.057419 310.521484 C 168.987946 305.456818 160.769867 305.456818 155.700134 310.521484 Z"/>
    </g>
</svg>
