<?xml version="1.0" encoding="UTF-8"?>
<!-- Generated by Pixelmator Pro 3.7 -->
<svg width="360" height="538" viewBox="0 0 360 538" xmlns="http://www.w3.org/2000/svg">
    <g id="g18-copy">
        <path id="path23944" fill="#ffffff" stroke="none" d="M 17.457907 537.20166 L 340.534088 537.20166 C 349.792572 537.20166 357.299988 529.697632 357.299988 520.440308 L 357.299988 19.102661 C 357.299988 9.845337 349.792572 2.340698 340.534088 2.340698 L 17.457907 2.340698 C 8.199758 2.340698 0.69538 9.845337 0.69538 19.102661 L 0.69538 520.440308 C 0.69538 529.697632 8.199758 537.20166 17.457907 537.20166 Z"/>
        <path id="path23945" fill="#000000" stroke="none" d="M 19.180361 80.25882 C 15.816272 85.011078 14.108971 90.763916 14.108971 97.359772 C 14.108971 104.337189 17.150795 110.503448 23.143858 115.690338 C 28.96619 120.738983 36.023708 123.297546 44.118065 123.297546 C 52.935413 123.297546 60.19767 120.706635 65.703461 115.600586 C 71.293106 110.418762 74.126816 103.939941 74.126816 96.342834 C 74.126816 90.801483 72.52829 85.593536 69.375336 80.857269 C 67.308052 77.768921 64.480736 74.855377 60.92403 72.14859 C 64.108299 69.949707 66.656448 67.523651 68.537178 64.884735 C 71.57563 60.641876 73.11187 55.995514 73.11187 51.07959 C 73.11187 44.165833 70.445854 38.200623 65.18824 33.34259 C 60.023911 28.574188 53.279903 26.158905 45.136044 26.158905 C 36.309269 26.158905 29.22077 28.574188 24.065531 33.34259 C 18.811287 38.189514 16.144936 44.160431 16.144936 51.07959 C 16.144936 56.328949 17.681505 61.150421 20.716595 65.394135 C 22.482826 67.86261 24.695581 70.082214 27.333647 72.036621 C 24.022091 74.521606 21.294113 77.276215 19.180361 80.25882 Z M 34.577721 41.416443 C 36.473934 39.053192 40.024246 37.855896 45.136044 37.855896 C 49.598934 37.855896 52.696323 39.07962 54.614426 41.590729 C 56.793171 44.451569 57.851227 47.720123 57.851227 51.587982 C 57.851227 54.867462 57.078732 57.62204 55.483231 60.011383 C 54.111664 62.066132 52.088161 63.877899 49.450096 65.420044 C 43.658741 63.062531 39.111664 60.397705 35.927399 57.484314 C 32.922951 54.745361 31.402208 52.075317 31.402208 49.553101 C 31.402208 46.745453 32.442417 44.081116 34.577721 41.416443 Z M 32.181774 86.075989 C 33.755051 83.172882 35.837822 80.720032 38.525391 78.611389 C 45.105064 81.535919 50.117188 84.698517 53.450634 88.030884 C 56.755791 91.336639 58.360386 94.552124 58.360386 97.868652 C 58.360386 101.995483 57.26495 105.291138 55.008419 107.949921 C 52.944504 110.371429 49.285427 111.600372 44.118065 111.600372 C 39.738686 111.600372 36.247307 110.302216 33.444572 107.632324 C 30.704136 105.026093 29.369612 101.667114 29.369612 97.359772 C 29.369612 93.254486 30.291285 89.56192 32.181774 86.075989 Z"/>
        <path id="path23946" fill="#000000" stroke="none" d="M 122.415817 164.524719 C 126.019333 164.524719 129.190796 162.713989 131.099808 159.959381 C 131.757813 159.382813 132.589569 159.041473 133.498795 158.925598 L 133.498795 161.798584 C 133.498795 166.71875 129.510712 170.706482 124.591194 170.706482 L 124.591194 171.740082 L 143.424026 171.740082 L 143.424026 170.706482 C 138.501816 170.706482 134.513733 166.71875 134.513733 161.798584 L 134.513733 158.925598 C 135.422958 159.040619 136.254715 159.381958 136.916077 159.958374 C 138.821396 162.713135 141.996231 164.524719 145.599747 164.524719 C 151.431168 164.524719 156.161438 159.796722 156.161438 153.963715 C 156.161438 148.132202 151.431168 143.40387 145.599747 143.40387 C 144.302597 143.40387 143.073471 143.670258 141.925171 144.098145 C 143.551315 142.241089 144.569641 139.83844 144.569641 137.177124 C 144.569641 131.345123 139.839371 126.616608 134.007614 126.616608 C 128.173157 126.616608 123.446259 131.345123 123.446259 137.177124 C 123.446259 139.83844 124.464241 142.241089 126.087349 144.098145 C 124.939049 143.670258 123.712959 143.40387 122.415817 143.40387 C 116.581024 143.40387 111.854118 148.132202 111.854118 153.963715 C 111.854118 159.796722 116.581024 164.524719 122.415817 164.524719 Z"/>
        <path id="path23947" fill="#000000" stroke="none" d="M 145.599747 374.917419 C 141.996231 374.917419 138.821396 376.726624 136.916077 379.482574 C 136.254715 380.059509 135.426315 380.401184 134.516769 380.515839 L 134.516769 377.642212 C 134.516769 372.723389 138.504852 368.735291 143.424026 368.735291 L 143.424026 367.702026 L 124.591194 367.702026 L 124.591194 368.735291 C 129.510712 368.735291 133.501816 372.723389 133.501816 377.642212 L 133.501816 380.515839 C 132.592606 380.401184 131.760849 380.059509 131.099808 379.482574 C 129.194168 376.729675 126.019333 374.917419 122.415817 374.917419 C 116.584053 374.917419 111.854118 379.643738 111.854118 385.478271 C 111.854118 391.309265 116.584053 396.03894 122.415817 396.03894 C 123.712959 396.03894 124.939049 395.771881 126.087349 395.343811 C 124.464241 397.199524 123.446259 399.604706 123.446259 402.26416 C 123.446259 408.095337 128.176178 412.824829 134.007614 412.824829 C 139.839371 412.824829 144.569641 408.095337 144.569641 402.26416 C 144.569641 399.604706 143.551315 397.199524 141.925171 395.343811 C 143.076508 395.771881 144.302597 396.03894 145.599747 396.03894 C 151.431168 396.03894 156.161438 391.309265 156.161438 385.478271 C 156.161438 379.643738 151.431168 374.917419 145.599747 374.917419 Z"/>
        <path id="path23948" fill="#000000" stroke="none" d="M 235.57988 143.40387 C 234.282394 143.40387 233.053268 143.670258 231.908005 144.098145 C 233.531113 142.241089 234.549103 139.83844 234.549103 137.177124 C 234.549103 131.345123 229.819504 126.616608 223.987411 126.616608 C 218.155975 126.616608 213.426056 131.345123 213.426056 137.177124 C 213.426056 139.83844 214.444031 142.241089 216.067154 144.098145 C 214.918839 143.670258 213.693085 143.40387 212.395615 143.40387 C 206.560822 143.40387 201.833923 148.132202 201.833923 153.963715 C 201.833923 159.796722 206.560822 164.524719 212.395615 164.524719 C 215.998795 164.524719 219.170929 162.713989 221.079605 159.959381 C 221.73761 159.382813 222.569366 159.041473 223.478577 158.925598 L 223.478577 161.798584 C 223.478577 166.71875 219.490509 170.706482 214.57132 170.706482 L 214.57132 171.740082 L 233.403824 171.740082 L 233.403824 170.706482 C 228.481613 170.706482 224.49353 166.71875 224.49353 161.798584 L 224.49353 158.925598 C 225.40274 159.040619 226.234512 159.381958 226.895538 159.958374 C 228.801178 162.713135 231.976364 164.524719 235.57988 164.524719 C 241.411301 164.524719 246.1409 159.796722 246.1409 153.963715 C 246.1409 148.132202 241.411301 143.40387 235.57988 143.40387 Z"/>
        <path id="path23949" fill="#000000" stroke="none" d="M 235.57988 374.917419 C 231.976364 374.917419 228.804214 376.726624 226.895538 379.482574 C 226.237885 380.059509 225.406113 380.401184 224.496567 380.515839 L 224.496567 377.642212 C 224.496567 372.723389 228.48465 368.735291 233.403824 368.735291 L 233.403824 367.702026 L 214.57132 367.702026 L 214.57132 368.735291 C 219.49353 368.735291 223.481613 372.723389 223.481613 377.642212 L 223.481613 380.515839 C 222.572403 380.401184 221.740295 380.059509 221.079605 379.482574 C 219.173965 376.729675 215.998795 374.917419 212.395615 374.917419 C 206.563843 374.917419 201.833923 379.643738 201.833923 385.478271 C 201.833923 391.309265 206.563843 396.03894 212.395615 396.03894 C 213.693085 396.03894 214.922211 395.771881 216.067154 395.343811 C 214.444031 397.199524 213.426056 399.604706 213.426056 402.26416 C 213.426056 408.095337 218.155975 412.824829 223.987411 412.824829 C 229.819504 412.824829 234.549103 408.095337 234.549103 402.26416 C 234.549103 399.604706 233.531113 397.199524 231.908005 395.343811 C 233.056305 395.771881 234.282394 396.03894 235.57988 396.03894 C 241.414673 396.03894 246.1409 391.309265 246.1409 385.478271 C 246.1409 379.643738 241.414673 374.917419 235.57988 374.917419 Z"/>
        <path id="path23950" fill="#000000" stroke="none" d="M 145.599747 263.947327 C 144.302597 263.947327 143.073471 264.21405 141.925171 264.642303 C 143.551315 262.783539 144.569641 260.381744 144.569641 257.718933 C 144.569641 251.887604 139.839371 247.160919 134.007614 247.160919 C 128.173157 247.160919 123.446259 251.887604 123.446259 257.718933 C 123.446259 260.381744 124.464241 262.783539 126.087349 264.642303 C 124.939049 264.21405 123.712959 263.947327 122.415817 263.947327 C 116.581024 263.947327 111.854118 268.676697 111.854118 274.508026 C 111.854118 280.339172 116.581024 285.068695 122.415817 285.068695 C 126.019333 285.068695 129.190796 283.256439 131.099808 280.503693 C 131.757813 279.92627 132.589569 279.585114 133.498795 279.467072 L 133.498795 282.340881 C 133.498795 287.262695 129.510712 291.25061 124.591194 291.25061 L 124.591194 292.280884 L 143.424026 292.280884 L 143.424026 291.25061 C 138.501816 291.25061 134.513733 287.262695 134.513733 282.340881 L 134.513733 279.467072 C 135.422958 279.582062 136.254715 279.923248 136.916077 280.500671 C 138.821396 283.256439 141.996231 285.068695 145.599747 285.068695 C 151.431168 285.068695 156.161438 280.339172 156.161438 274.508026 C 156.161438 268.676697 151.431168 263.947327 145.599747 263.947327 Z"/>
        <path id="path23951" fill="#000000" stroke="none" d="M 201.833923 274.508026 C 201.833923 280.339172 206.560822 285.068695 212.395615 285.068695 C 215.998795 285.068695 219.170929 283.256439 221.079605 280.503693 C 221.73761 279.92627 222.569366 279.585114 223.478577 279.467072 L 223.478577 282.340881 C 223.478577 287.262695 219.490509 291.25061 214.57132 291.25061 L 214.57132 292.280884 L 233.403824 292.280884 L 233.403824 291.25061 C 228.481613 291.25061 224.49353 287.262695 224.49353 282.340881 L 224.49353 279.467072 C 225.40274 279.582062 226.234512 279.923248 226.895538 280.500671 C 228.801178 283.256439 231.976364 285.068695 235.57988 285.068695 C 241.411301 285.068695 246.1409 280.339172 246.1409 274.508026 C 246.1409 268.676697 241.411301 263.947327 235.57988 263.947327 C 234.282394 263.947327 233.053268 264.21405 231.908005 264.642303 C 233.531113 262.783539 234.549103 260.381744 234.549103 257.718933 C 234.549103 251.887604 229.819504 247.160919 223.987411 247.160919 C 218.155975 247.160919 213.426056 251.887604 213.426056 257.718933 C 213.426056 260.381744 214.444031 262.783539 216.067154 264.642303 C 214.918839 264.21405 213.693085 263.947327 212.395615 263.947327 C 206.560822 263.947327 201.833923 268.676697 201.833923 274.508026 Z"/>
        <path id="path23952" fill="#000000" stroke="none" d="M 167.405716 226.058411 C 171.008896 226.058411 174.180695 224.245972 176.089706 221.493225 C 176.747711 220.915985 177.579468 220.574646 178.488678 220.459961 L 178.488678 223.330414 C 178.488678 228.252258 174.50061 232.240173 169.581421 232.240173 L 169.581421 233.270752 L 188.413925 233.270752 L 188.413925 232.240173 C 183.491714 232.240173 179.503632 228.252258 179.503632 223.330414 L 179.503632 220.459961 C 180.412857 220.574646 181.244614 220.915985 181.90564 221.493225 C 183.81163 224.245972 186.986465 226.058411 190.589645 226.058411 C 196.421402 226.058411 201.151337 221.328705 201.151337 215.497559 C 201.151337 209.666229 196.421402 204.936707 190.589645 204.936707 C 189.292496 204.936707 188.06337 205.203613 186.918106 205.631836 C 188.541214 203.772919 189.55954 201.370941 189.55954 198.711487 C 189.55954 192.877136 184.829269 188.150787 178.997849 188.150787 C 173.163055 188.150787 168.436157 192.877136 168.436157 198.711487 C 168.436157 201.370941 169.454132 203.772919 171.077255 205.631836 C 169.92894 205.203613 168.70285 204.936707 167.405716 204.936707 C 161.570923 204.936707 156.844025 209.666229 156.844025 215.497559 C 156.844025 221.328705 161.570923 226.058411 167.405716 226.058411 Z"/>
        <path id="path23953" fill="#000000" stroke="none" d="M 190.589645 313.452087 C 186.986465 313.452087 183.81163 315.264526 181.90564 318.020294 C 181.244614 318.59436 180.416214 318.935669 179.506668 319.053558 L 179.506668 316.179749 C 179.506668 311.25824 183.495087 307.270142 188.413925 307.270142 L 188.413925 306.239929 L 169.581421 306.239929 L 169.581421 307.270142 C 174.50061 307.270142 178.491714 311.25824 178.491714 316.179749 L 178.491714 319.053558 C 177.582169 318.938904 176.750748 318.597382 176.089706 318.020294 C 174.184067 315.264526 171.008896 313.452087 167.405716 313.452087 C 161.573944 313.452087 156.844025 318.18161 156.844025 324.015991 C 156.844025 329.847137 161.573944 334.573639 167.405716 334.573639 C 168.70285 334.573639 169.931976 334.306732 171.077255 333.881714 C 169.454132 335.737427 168.436157 338.139221 168.436157 340.802032 C 168.436157 346.633362 173.166077 351.362732 178.997849 351.362732 C 184.829269 351.362732 189.55954 346.633362 189.55954 340.802032 C 189.55954 338.139221 188.541214 335.737427 186.918106 333.881714 C 188.066406 334.306732 189.292496 334.573639 190.589645 334.573639 C 196.421402 334.573639 201.151337 329.847137 201.151337 324.015991 C 201.151337 318.18161 196.421402 313.452087 190.589645 313.452087 Z"/>
        <path id="path23954" fill="#000000" stroke="none" d="M 59.089775 158.765625 C 57.413792 158.765625 55.827721 159.109009 54.347385 159.661835 C 56.445648 157.263733 57.758286 154.160217 57.758286 150.723114 C 57.758286 143.190826 51.650391 137.084167 44.118065 137.084167 C 36.5854 137.084167 30.477505 143.190826 30.477505 150.723114 C 30.477505 154.160217 31.793507 157.263733 33.891434 159.661835 C 32.40807 159.109009 30.821997 158.765625 29.146349 158.765625 C 21.613686 158.765625 15.508822 164.872284 15.508822 172.404083 C 15.508822 179.935852 21.613686 186.043335 29.146349 186.043335 C 33.801521 186.043335 37.898369 183.703339 40.362675 180.147003 C 41.215988 179.402222 42.286839 178.9617 43.463093 178.8125 L 43.463093 182.521027 C 43.463093 188.876923 38.311222 194.028442 31.95784 194.028442 L 31.95784 195.359772 L 56.280979 195.359772 L 56.280979 194.028442 C 49.924904 194.028442 44.772697 188.876923 44.772697 182.521027 L 44.772697 178.8125 C 45.948948 178.9617 47.023167 179.402222 47.876144 180.147003 C 50.337757 183.703339 54.437634 186.043335 59.089775 186.043335 C 66.622444 186.043335 72.730331 179.935852 72.730331 172.404083 C 72.730331 164.872284 66.622444 158.765625 59.089775 158.765625 Z"/>
        <path id="path23955" fill="#000000" stroke="none" d="M 338.815002 459.28537 C 342.179413 454.531097 343.883026 448.780426 343.883026 442.182556 C 343.883026 435.206299 340.841522 429.040039 334.851837 423.854492 C 329.029175 418.805023 321.971649 416.244751 313.874268 416.244751 C 305.059937 416.244751 297.794647 418.836182 292.291901 423.944427 C 286.70224 429.123749 283.865509 435.603882 283.865509 443.200684 C 283.865509 448.743378 285.467072 453.950989 288.620361 458.686737 C 290.683929 461.774414 293.514618 464.688293 297.07132 467.394409 C 293.887054 469.594818 291.335876 472.018524 289.455139 474.659454 C 286.419708 478.901794 284.883484 483.547485 284.883484 488.463257 C 284.883484 495.377502 287.5495 501.342224 292.804077 506.202087 C 297.971436 510.968811 304.71579 513.38324 312.859314 513.38324 C 321.686096 513.38324 328.774933 510.968811 333.92981 506.202087 C 339.184387 501.354675 341.850067 495.383575 341.850067 488.463257 C 341.850067 483.215576 340.314178 478.392761 337.278748 474.150574 C 335.512878 471.680206 333.299774 469.461273 330.658661 467.506042 C 333.970245 465.020538 336.701569 462.267822 338.815002 459.28537 Z M 323.417969 498.127075 C 321.521759 500.488953 317.970764 501.686768 312.859314 501.686768 C 308.396759 501.686768 305.299042 500.46405 303.38092 497.953278 C 301.202179 495.091919 300.143799 491.824219 300.143799 487.954346 C 300.143799 484.677063 300.916626 481.921295 302.512115 479.531769 C 303.883698 477.477356 305.907532 475.664917 308.545593 474.122437 C 314.336945 476.480957 318.883362 479.146973 322.067963 482.057861 C 325.072052 484.798126 326.589783 487.467194 326.589783 489.990234 C 326.589783 492.798737 325.553284 495.461212 323.417969 498.127075 Z M 325.810883 453.466675 C 324.237274 456.371307 322.157867 458.82312 319.469971 460.933441 C 312.890625 458.006927 307.878174 454.844635 304.544708 451.511597 C 301.239563 448.206543 299.634979 444.991394 299.634979 441.673828 C 299.634979 437.549347 300.730743 434.253723 302.986938 431.593933 C 305.047485 429.173584 308.70993 427.944641 313.874268 427.944641 C 318.256653 427.944641 321.748383 429.241791 324.550781 431.910492 C 327.291229 434.517395 328.625732 437.875549 328.625732 442.182556 C 328.625732 446.288513 327.703735 449.98175 325.810883 453.466675 Z"/>
        <path id="path23956" fill="#000000" stroke="none" d="M 298.905914 380.77652 C 300.578522 380.77652 302.164612 380.435181 303.64798 379.88269 C 301.550049 382.278442 300.237061 385.381958 300.237061 388.820374 C 300.237061 396.352478 306.344971 402.459839 313.874268 402.459839 C 321.409607 402.459839 327.514832 396.352478 327.514832 388.820374 C 327.514832 385.381958 326.201843 382.278442 324.103577 379.88269 C 325.58728 380.435181 327.17337 380.77652 328.849335 380.77652 C 336.381653 380.77652 342.486542 374.672058 342.486542 367.140442 C 342.486542 359.605469 336.381653 353.50116 328.849335 353.50116 C 324.193817 353.50116 320.093964 355.83783 317.63269 359.394287 C 316.779022 360.142303 315.705475 360.582642 314.532257 360.731689 L 314.532257 357.020111 C 314.532257 350.667786 319.684479 345.512878 326.037506 345.512878 L 326.037506 344.181702 L 301.714386 344.181702 L 301.714386 345.512878 C 308.070435 345.512878 313.222656 350.667786 313.222656 357.020111 L 313.222656 360.731689 C 312.046417 360.582642 310.972534 360.142303 310.118866 359.397644 C 307.657928 355.841003 303.558044 353.50116 298.905914 353.50116 C 291.370209 353.50116 285.26535 359.605469 285.26535 367.140442 C 285.26535 374.672058 291.370209 380.77652 298.905914 380.77652 Z"/>
        <path id="path23957" fill="#000000" stroke="none" d="M 272.106018 437.903137 L 272.106018 101.5383 L 85.889343 101.5383 L 85.889343 437.903137 L 272.106018 437.903137 Z M 86.898239 102.539398 L 271.097107 102.539734 L 271.097107 436.901031 L 86.898239 436.901031 L 86.898239 102.539398 Z"/>
    </g>
</svg>
