<?xml version="1.0" encoding="UTF-8"?>
<!-- Generated by Pixelmator Pro 3.7 -->
<svg width="400" height="400" viewBox="0 0 400 400" xmlns="http://www.w3.org/2000/svg">
    <path id="path5-copy" fill="#ff0000" stroke="none" d="M 139.299805 275.649872 C 59.666214 195.414734 59.666698 195.415329 53.641777 181.23912 C 48.069332 168.127563 47.419888 164.723907 47.471691 148.903152 C 47.514141 135.927612 47.663345 134.359161 49.48756 127.705048 C 56.936401 100.533813 76.438118 80.248077 104.556778 70.421967 L 111.306953 68.06311 L 128.533325 68.072906 L 145.759689 68.082733 L 152.578476 70.450531 C 166.354691 75.234222 178.196442 82.825043 189.28833 93.982452 C 192.981567 97.69754 196.331284 100.742035 196.732147 100.748016 C 197.133041 100.754181 200.847473 97.666138 204.986496 93.886078 C 209.125473 90.106018 214.611374 85.400818 217.177383 83.430115 C 223.282639 78.741058 237.6073 71.68222 244.653412 69.890594 C 263.805298 65.02063 283.815918 66.595673 299.719452 74.224731 C 329.507202 88.514252 347.81723 116.599487 347.937408 148.184998 C 347.988586 161.619064 345.217804 172.960266 338.228546 187.925171 L 334.938263 194.970062 L 266.226013 264.274048 C 228.434296 302.391235 197.335403 333.561676 197.117432 333.541656 C 196.899429 333.521667 170.8815 307.470612 139.299805 275.65033 Z"/>
</svg>
