<?xml version="1.0" encoding="UTF-8"?>
<!-- Generated by Pixelmator Pro 3.7 -->
<svg width="360" height="540" viewBox="0 0 360 540" xmlns="http://www.w3.org/2000/svg">
    <g id="Group-copy">
        <path id="Path" fill="#ffffff" stroke="none" d="M 342.380829 1.232544 L 17.533295 1.232544 C 8.223731 1.232544 0.677643 8.782043 0.677643 18.09552 L 0.677643 522.449829 C 0.677643 531.763428 8.223731 539.312927 17.533295 539.312927 L 342.380829 539.312927 C 351.690369 539.312927 359.236481 531.763428 359.236481 522.449829 L 359.236481 18.09552 C 359.236481 8.782043 351.690369 1.232544 342.380829 1.232544 Z"/>
        <path id="path1" fill="#b4171e" stroke="none" d="M 40.415058 110.728149 L 34.831585 110.728149 C 32.993549 110.728149 31.645344 110.341003 30.802538 109.576202 C 30.559511 109.354431 29.919621 108.776672 29.919621 106.656799 L 29.919621 25.220337 L 22.351824 25.220337 L 21.365562 27.471558 C 20.50388 29.435303 19.324612 30.849731 17.745176 31.805145 C 16.044462 32.838715 13.682152 33.363098 10.720532 33.363098 L 5.58017 33.363098 L 5.58017 44.559479 L 14.736839 44.559479 C 15.398438 44.559479 15.620229 44.699829 15.629194 45.068298 L 15.629194 106.656799 C 15.629194 108.146179 15.361157 109.17337 14.821309 109.719849 C 14.524958 110.022583 13.523123 110.728149 10.720532 110.728149 L 5.58017 110.728149 L 5.58017 121.924408 L 40.415058 121.924408 L 40.415058 110.728149 Z"/>
        <path id="path2" fill="#b4171e" stroke="none" d="M 59.82933 25.72937 C 52.530045 25.72937 46.572357 30.500122 42.115772 39.9104 C 37.968277 48.658783 35.861736 60.15802 35.861736 74.079773 C 35.861736 89.069397 38.049446 100.949493 42.374844 109.385712 C 46.971581 118.38382 52.848576 122.942261 59.82933 122.942261 C 66.845009 122.942261 72.665375 118.265228 77.131393 109.045441 C 81.285027 100.456146 83.394402 88.691711 83.394402 74.079773 C 83.394402 59.467926 81.281723 47.77832 77.112518 39.332916 C 72.643669 30.303253 66.832741 25.72937 59.82933 25.72937 Z M 66.251839 102.58252 C 63.664902 110.728149 60.778313 110.728149 59.82933 110.728149 C 57.485424 110.728149 55.304321 107.940002 53.353504 102.429443 C 51.022808 95.882263 49.843067 86.343811 49.843067 74.079773 C 49.843067 62.486938 51.028942 53.1922 53.362942 46.457703 C 55.323196 40.806335 57.498165 37.943359 59.82933 37.943359 C 61.617817 37.943359 64.248634 38.802124 66.420776 46.235931 C 68.408401 53.042419 69.416367 62.412231 69.416367 74.079773 C 69.416367 86.374969 68.349411 95.9664 66.251839 102.58252 Z"/>
        <path id="path3" fill="#b4171e" stroke="none" d="M 319.496216 429.870239 L 325.079224 429.870239 C 326.917267 429.870239 328.265472 430.254425 329.108276 431.019226 C 329.351776 431.240967 329.99118 431.818695 329.99118 433.941589 L 329.99118 515.378052 L 337.559448 515.378052 L 338.545258 513.123901 C 339.406464 511.163147 340.58667 509.745667 342.165649 508.793304 C 343.866364 507.756714 346.228668 507.232391 349.193573 507.232391 L 354.330627 507.232391 L 354.330627 496.036133 L 345.173981 496.036133 C 344.51236 496.036133 344.290588 495.898743 344.281158 495.527161 L 344.281158 433.941589 C 344.281158 432.449188 344.55014 431.422058 345.089966 430.875854 C 345.386322 430.572815 346.388153 429.870239 349.193573 429.870239 L 354.330627 429.870239 L 354.330627 418.67099 L 319.496216 418.67099 L 319.496216 429.870239 Z"/>
        <path id="path4" fill="#b4171e" stroke="none" d="M 300.081482 514.86908 C 307.381226 514.86908 313.338928 510.095367 317.795044 500.684967 C 321.942535 491.936646 324.049072 480.437408 324.049072 466.515625 C 324.049072 451.525879 321.861847 439.645935 317.53598 431.209808 C 312.93924 422.214783 307.06601 417.653198 300.081482 417.653198 C 293.065796 417.653198 287.245453 422.330292 282.782715 431.550171 C 278.625793 440.139282 276.516418 451.903748 276.516418 466.515625 C 276.516418 481.127533 278.629089 492.817078 282.798279 501.262726 C 287.267609 510.291931 293.078552 514.86908 300.081482 514.86908 Z M 293.658966 438.012939 C 296.245911 429.870239 299.132965 429.870239 300.081482 429.870239 C 302.425385 429.870239 304.606506 432.658447 306.557312 438.166077 C 308.888489 444.71344 310.068207 454.251648 310.068207 466.515625 C 310.068207 478.111511 308.882355 487.403198 306.547882 494.137634 C 304.588074 499.788849 302.412659 502.652008 300.081482 502.652008 C 298.293457 502.652008 295.662659 501.793549 293.490509 494.359436 C 291.502411 487.553009 290.494446 478.183411 290.494446 466.515625 C 290.494446 454.220428 291.561859 444.629028 293.658966 438.012939 Z"/>
        <path id="path5" fill="#000000" stroke="none" d="M 273.576508 439.467896 L 273.576508 101.077576 L 86.337616 101.077576 L 86.337616 439.467896 L 273.576508 439.467896 Z M 87.351723 102.085999 L 272.562408 102.085999 L 272.562408 438.459534 L 87.351723 438.459534 L 87.351723 102.085999 Z"/>
        <path id="path6" fill="#b4171e" stroke="none" d="M 56.630348 136.811127 C 51.740562 136.811127 47.133915 138.659424 43.610737 142.025177 C 40.08709 138.659424 35.480915 136.811127 30.590656 136.811127 C 25.547504 136.811127 20.806837 138.778046 17.243078 142.346802 C 13.676017 145.90921 11.71293 150.654968 11.71293 155.700378 C 11.71293 160.74588 13.676017 165.488556 17.243078 169.05722 L 43.613571 195.439758 L 69.978401 169.05722 C 73.545456 165.488556 75.511375 160.74588 75.511375 155.700378 C 75.511375 150.654968 73.545456 145.90921 69.978401 142.346802 C 66.417473 138.778046 61.673973 136.811127 56.630348 136.811127 Z"/>
        <path id="path7" fill="#b4171e" stroke="none" d="M 303.283752 403.731201 C 308.173553 403.731201 312.780212 401.886047 316.303375 398.520325 C 319.827026 401.886047 324.433197 403.731201 329.323456 403.731201 C 334.363312 403.731201 339.107269 401.767426 342.671051 398.198639 C 346.238098 394.633118 348.201172 389.890564 348.201172 384.841858 C 348.201172 379.799622 346.238098 375.053894 342.671051 371.488281 L 316.300079 345.105713 L 289.93573 371.488281 C 286.368652 375.053894 284.40274 379.799622 284.40274 384.841858 C 284.40274 389.890564 286.368652 394.633118 289.93573 398.198639 C 293.496643 401.767426 298.240143 403.731201 303.283752 403.731201 Z"/>
        <path id="path8" fill="#b4171e" stroke="none" d="M 136.185867 129.754883 L 134.713089 131.228577 L 133.240295 129.754883 C 128.680847 125.193512 121.287643 125.193512 116.728188 129.754883 C 112.168259 134.316498 112.168259 141.712891 116.728188 146.274628 L 134.713089 164.2677 L 152.698456 146.274628 C 157.257919 141.712891 157.257919 134.316498 152.698456 129.754883 C 148.138992 125.193512 140.745804 125.193512 136.185867 129.754883 Z"/>
        <path id="path9" fill="#b4171e" stroke="none" d="M 136.185867 211.65332 L 134.713089 213.127136 L 133.240295 211.65332 C 128.680847 207.091827 121.287643 207.091827 116.728188 211.65332 C 112.168259 216.214935 112.168259 223.611328 116.728188 228.172943 L 134.713089 246.166138 L 152.698456 228.172943 C 157.257919 223.611328 157.257919 216.214935 152.698456 211.65332 C 148.138992 207.091827 140.745804 207.091827 136.185867 211.65332 Z"/>
        <path id="path10" fill="#b4171e" stroke="none" d="M 134.713089 376.330688 L 116.728188 394.320862 C 112.168259 398.882507 112.168259 406.279114 116.728188 410.840576 C 121.287643 415.402161 128.680847 415.402161 133.240295 410.840576 L 134.713089 409.366882 L 136.185867 410.840576 C 140.745804 415.402161 148.138992 415.402161 152.698456 410.840576 C 157.257919 406.279114 157.257919 398.882507 152.698456 394.320862 L 134.713089 376.330688 Z"/>
        <path id="path11" fill="#b4171e" stroke="none" d="M 134.713089 294.429077 L 116.728188 312.422485 C 112.168259 316.984131 112.168259 324.380493 116.728188 328.942108 C 121.287643 333.50354 128.680847 333.50354 133.240295 328.942108 L 134.713089 327.468262 L 136.185867 328.942108 C 140.745804 333.50354 148.138992 333.50354 152.698456 328.942108 C 157.257919 324.380493 157.257919 316.984131 152.698456 312.422485 L 134.713089 294.429077 Z"/>
        <path id="path12" fill="#b4171e" stroke="none" d="M 225.197723 294.429077 L 207.21283 312.422485 C 202.652893 316.984131 202.652893 324.380493 207.21283 328.942108 C 211.771805 333.50354 219.165482 333.50354 223.72493 328.942108 L 225.197723 327.468262 L 226.670517 328.942108 C 231.230438 333.50354 238.623642 333.50354 243.18309 328.942108 C 247.742554 324.380493 247.742554 316.984131 243.18309 312.422485 L 225.197723 294.429077 Z"/>
        <path id="path13" fill="#b4171e" stroke="none" d="M 226.670517 211.65332 L 225.197723 213.127136 L 223.72493 211.65332 C 219.165482 207.091827 211.771805 207.091827 207.21283 211.65332 L 207.21283 211.65332 C 202.652893 216.214935 202.652893 223.611328 207.21283 228.172943 L 225.197723 246.166138 L 243.18309 228.172943 C 247.742554 223.611328 247.742554 216.214935 243.18309 211.65332 C 238.623642 207.091827 231.230438 207.091827 226.670517 211.65332 Z"/>
        <path id="path14" fill="#b4171e" stroke="none" d="M 181.428436 170.702637 L 179.955643 172.176208 L 178.482376 170.702637 C 173.922928 166.141022 166.529724 166.141022 161.970276 170.702637 C 157.410812 175.26413 157.410812 182.660767 161.970276 187.222137 L 179.955643 205.215546 L 197.940536 187.222137 C 202.5 182.660767 202.5 175.26413 197.940536 170.702637 C 193.381088 166.141022 185.987885 166.141022 181.428436 170.702637 Z"/>
        <path id="path15" fill="#b4171e" stroke="none" d="M 179.955643 335.380127 L 161.970276 353.373291 C 157.410812 357.934692 157.410812 365.331299 161.970276 369.892761 C 166.529724 374.454376 173.922928 374.454376 178.482376 369.892761 L 179.955643 368.419312 L 181.428436 369.892761 C 185.987885 374.454376 193.381088 374.454376 197.940536 369.892761 C 202.5 365.331299 202.5 357.934692 197.940536 353.373291 L 179.955643 335.380127 Z"/>
        <path id="path16" fill="#b4171e" stroke="none" d="M 225.16658 164.2677 L 243.151947 146.274628 C 247.711411 141.712891 247.711411 134.316498 243.151947 129.754883 C 238.592499 125.193512 231.199295 125.193512 226.639374 129.754883 L 225.16658 131.228577 L 223.693314 129.754883 C 219.133865 125.193512 211.740662 125.193512 207.181213 129.754883 C 202.62175 134.316498 202.62175 141.712891 207.181213 146.274628 L 225.16658 164.2677 Z"/>
        <path id="path17" fill="#b4171e" stroke="none" d="M 225.16658 376.330688 L 207.181213 394.320862 C 202.62175 398.882507 202.62175 406.279114 207.181213 410.840576 L 207.181213 410.840576 C 211.740662 415.402161 219.133865 415.402161 223.693314 410.840576 L 225.16658 409.366882 L 226.639374 410.840576 C 231.199295 415.402161 238.592499 415.402161 243.151947 410.840576 C 247.711411 406.279114 247.711411 398.882507 243.151947 394.320862 L 225.16658 376.330688 Z"/>
    </g>
</svg>
