<?xml version="1.0" encoding="UTF-8"?>
<!-- Generated by Pixelmator Pro 3.7 -->
<svg width="360" height="538" viewBox="0 0 360 538" xmlns="http://www.w3.org/2000/svg">
    <g id="g320-copy">
        <path id="path27756" fill="#ffffff" stroke="none" d="M 340.243805 2.613464 L 17.167631 2.613464 C 7.90982 2.613464 0.402074 10.11731 0.402074 19.374817 L 0.402074 520.713867 C 0.402074 529.971008 7.90982 537.474976 17.167631 537.474976 L 340.243805 537.474976 C 349.502289 537.474976 357.006653 529.971008 357.006653 520.713867 L 357.006653 19.374817 C 357.006653 10.11731 349.502289 2.613464 340.243805 2.613464 Z"/>
        <path id="path27757" fill="#000000" stroke="none" d="M 39.92659 111.426758 L 34.371296 111.426758 C 32.543102 111.426758 31.202518 111.041809 30.364359 110.284698 C 30.125269 110.061249 29.48579 109.48703 29.48579 107.379913 L 29.48579 26.431854 L 21.959522 26.431854 L 20.97892 28.672363 C 20.125269 30.621338 18.949017 32.026947 17.381802 32.976685 C 15.686961 34.003723 13.337823 34.525391 10.392982 34.525391 L 5.280846 34.525391 L 5.280846 45.656952 L 14.387123 45.656952 C 15.045124 45.656952 15.265018 45.793518 15.277478 46.162964 L 15.277478 107.379913 C 15.277478 108.860107 15.007408 109.884277 14.470635 110.427185 C 14.175983 110.72522 13.179553 111.426758 10.392982 111.426758 L 5.280846 111.426758 L 5.280846 122.558472 L 39.92659 122.558472 L 39.92659 111.426758 Z"/>
        <path id="path27758" fill="#000000" stroke="none" d="M 59.233902 26.937561 C 51.975014 26.937561 46.049973 31.679535 41.618065 41.036041 C 37.490234 49.731598 35.398369 61.161377 35.398369 74.999176 C 35.398369 89.89856 37.574085 101.7099 41.872307 110.095428 C 46.446995 119.036011 52.288525 123.57019 59.233902 123.57019 C 66.210938 123.57019 71.99926 118.921326 76.440598 109.756958 C 80.57415 101.219696 82.672417 89.526215 82.672417 74.999176 C 82.672417 60.475494 80.571457 48.856781 76.424774 40.461975 C 71.9804 31.484039 66.198814 26.937561 59.233902 26.937561 Z M 65.620956 103.333038 C 63.048222 111.426758 60.177803 111.426758 59.233902 111.426758 C 56.90295 111.426758 54.733971 108.655334 52.793644 103.181 C 50.475822 96.670013 49.302601 87.189423 49.302601 74.999176 C 49.302601 63.476624 50.48222 54.234619 52.80307 47.543823 C 54.752491 41.926849 56.915745 39.077789 59.233902 39.077789 C 61.012596 39.077789 63.628773 39.934418 65.788994 47.32373 C 67.765694 54.088959 68.768181 63.402191 68.768181 74.999176 C 68.768181 87.223419 67.7071 96.75708 65.620956 103.333038 Z"/>
        <path id="path27759" fill="#000000" stroke="none" d="M 317.482147 428.661835 L 323.037781 428.661835 C 324.865631 428.661835 326.206238 429.046631 327.044373 429.803894 C 327.283478 430.027344 327.922607 430.60141 327.922607 432.708679 L 327.922607 513.656799 L 335.449219 513.656799 L 336.42981 511.41626 C 337.286499 509.467255 338.459717 508.061401 340.027283 507.111755 C 341.721436 506.084625 344.070923 505.563263 347.019135 505.563263 L 352.127899 505.563263 L 352.127899 494.431488 L 343.021606 494.431488 C 342.363617 494.431488 342.143738 494.294983 342.134308 493.925629 L 342.134308 432.708679 C 342.134308 431.228149 342.401337 430.204315 342.93811 429.661072 C 343.232758 429.36319 344.229187 428.661835 347.019135 428.661835 L 352.127899 428.661835 L 352.127899 417.529968 L 317.482147 417.529968 L 317.482147 428.661835 Z"/>
        <path id="path27760" fill="#000000" stroke="none" d="M 298.177856 513.151062 C 305.434052 513.151062 311.36145 508.408875 315.793701 499.052399 C 319.918854 490.356659 322.010376 478.927063 322.010376 465.089081 C 322.010376 450.190063 319.834656 438.37854 315.536102 429.993317 C 310.961731 421.052429 305.120544 416.518555 298.177856 416.518555 C 291.197815 416.518555 285.409485 421.167114 280.96814 430.331482 C 276.834259 438.868896 274.736328 450.562378 274.736328 465.089081 C 274.736328 479.612946 276.840637 491.231903 280.987 499.629639 C 285.43103 508.604553 291.20993 513.151062 298.177856 513.151062 Z M 291.787445 436.755371 C 294.360535 428.661835 297.231262 428.661835 298.177856 428.661835 C 300.505463 428.661835 302.67511 431.433258 304.614441 436.90744 C 306.932922 443.418396 308.10614 452.89917 308.10614 465.089081 C 308.10614 476.615021 306.930237 485.85379 304.605347 492.544617 C 302.659607 498.161682 300.493347 501.010651 298.177856 501.010651 C 296.396149 501.010651 293.779968 500.154022 291.619751 492.764954 C 289.6427 485.999634 288.640564 476.686401 288.640564 465.089081 C 288.640564 452.86499 289.70163 443.33136 291.787445 436.755371 Z"/>
        <path id="path27761" fill="#000000" stroke="none" d="M 271.815399 438.176788 L 271.815399 101.812439 L 85.599068 101.812439 L 85.599068 438.176788 L 271.815399 438.176788 Z M 86.607964 102.811707 L 270.806854 102.811707 L 270.806854 437.174347 L 86.607964 437.174347 L 86.607964 102.811707 Z"/>
        <path id="path27762" fill="#000000" stroke="none" d="M 133.71431 126.940277 L 115.819305 144.834381 C 111.281654 149.371429 111.281654 156.729401 115.819305 161.266815 C 120.356277 165.800659 127.712151 165.800659 132.249466 161.266815 L 133.208511 160.304749 L 133.208511 162.169739 C 133.208511 167.066803 129.239288 171.036041 124.344353 171.036041 L 124.344353 172.063232 L 143.08728 172.063232 L 143.08728 171.036041 C 138.189987 171.036041 134.220428 167.066803 134.220428 162.169739 L 134.220428 160.301575 L 135.179153 161.266815 C 139.716797 165.800659 147.075699 165.800659 151.613007 161.266815 C 156.150665 156.729401 156.150665 149.371429 151.613007 144.834381 L 133.71431 126.940277 Z"/>
        <path id="path27763" fill="#000000" stroke="none" d="M 135.179153 378.82196 L 134.220428 379.783813 L 134.220428 377.918884 C 134.220428 373.02179 138.189987 369.052399 143.083923 369.052399 L 143.083923 368.02536 L 124.34166 368.02536 L 124.34166 369.052399 C 129.239288 369.052399 133.211884 373.02179 133.211884 377.918884 L 133.211884 379.787048 L 132.249466 378.82196 C 127.712151 374.287598 120.356277 374.287598 115.815933 378.82196 C 111.27829 383.358826 111.27829 390.717163 115.815933 395.254059 L 133.71431 413.14798 L 151.609985 395.254059 C 156.147293 390.717163 156.147293 383.358826 151.609985 378.82196 C 147.072327 374.287598 139.716797 374.287598 135.179153 378.82196 Z"/>
        <path id="path27764" fill="#000000" stroke="none" d="M 225.162308 161.266815 C 229.699615 165.800659 237.055161 165.800659 241.592804 161.266815 C 246.130112 156.729401 246.130112 149.371429 241.592804 144.834381 L 223.694443 126.940277 L 205.798767 144.834381 C 201.261444 149.371429 201.261444 156.729401 205.798767 161.266815 C 210.336411 165.800659 217.69194 165.800659 222.229263 161.266815 L 223.188644 160.304749 L 223.188644 162.169739 C 223.188644 167.066803 219.21875 171.036041 214.324493 171.036041 L 214.324493 172.063232 L 233.067078 172.063232 L 233.067078 171.036041 C 228.169449 171.036041 224.200226 167.066803 224.200226 162.169739 L 224.200226 160.301575 L 225.162308 161.266815 Z"/>
        <path id="path27765" fill="#000000" stroke="none" d="M 133.71431 208.344666 L 115.819305 226.23877 C 111.281654 230.77597 111.281654 238.130951 115.819305 242.667816 C 120.356277 247.204865 127.712151 247.204865 132.249466 242.667816 L 133.208511 241.708984 L 133.208511 243.570923 C 133.208511 248.46817 129.239288 252.44043 124.344353 252.44043 L 124.344353 253.4646 L 143.08728 253.4646 L 143.08728 252.44043 C 138.189987 252.44043 134.220428 248.46817 134.220428 243.570923 L 134.220428 241.70578 L 135.179153 242.667816 C 139.716797 247.204865 147.075699 247.204865 151.613007 242.667816 C 156.150665 238.130951 156.150665 230.77597 151.613007 226.23877 L 133.71431 208.344666 Z"/>
        <path id="path27766" fill="#000000" stroke="none" d="M 223.694443 208.344666 L 205.798767 226.23877 C 201.261444 230.77597 201.261444 238.130951 205.798767 242.667816 C 210.336411 247.204865 217.69194 247.204865 222.229263 242.667816 L 223.188644 241.708984 L 223.188644 243.570923 C 223.188644 248.46817 219.21875 252.44043 214.324493 252.44043 L 214.324493 253.4646 L 233.067078 253.4646 L 233.067078 252.44043 C 228.169449 252.44043 224.200226 248.46817 224.200226 243.570923 L 224.200226 241.70578 L 225.162308 242.667816 C 229.699615 247.204865 237.055161 247.204865 241.592804 242.667816 C 246.130112 238.130951 246.130112 230.77597 241.592804 226.23877 L 223.694443 208.344666 Z"/>
        <path id="path27767" fill="#000000" stroke="none" d="M 178.704544 167.640869 L 160.808868 185.538177 C 156.271545 190.075226 156.271545 197.430176 160.808868 201.967224 C 165.346512 206.504456 172.702042 206.504456 177.239365 201.967224 L 178.19841 201.005371 L 178.19841 202.870483 C 178.19841 207.767578 174.229187 211.736633 169.334595 211.736633 L 169.334595 212.763824 L 188.077179 212.763824 L 188.077179 211.736633 C 183.17955 211.736633 179.210327 207.767578 179.210327 202.870483 L 179.210327 201.005371 L 180.169052 201.967224 C 184.706696 206.504456 192.065262 206.504456 196.60022 201.967224 C 201.140564 197.430176 201.140564 190.075226 196.60022 185.538177 L 178.704544 167.640869 Z"/>
        <path id="path27768" fill="#000000" stroke="none" d="M 180.169052 338.121368 L 179.210327 339.083252 L 179.210327 337.218079 C 179.210327 332.321014 183.17955 328.351959 188.077179 328.351959 L 188.077179 327.324585 L 169.334595 327.324585 L 169.334595 328.351959 C 174.231888 328.351959 178.201782 332.321014 178.201782 337.218079 L 178.201782 339.083252 L 177.239365 338.121368 C 172.702042 333.583984 165.346512 333.583984 160.808868 338.121368 C 156.271545 342.658417 156.271545 350.013367 160.808868 354.550262 L 178.704544 372.447388 L 196.60022 354.550262 C 201.140564 350.013367 201.140564 342.658417 196.60022 338.121368 C 192.065262 333.583984 184.706696 333.583984 180.169052 338.121368 Z"/>
        <path id="path27769" fill="#000000" stroke="none" d="M 225.158951 378.82196 L 224.200226 379.783813 L 224.200226 377.918884 C 224.200226 373.02179 228.169449 369.052399 233.063705 369.052399 L 233.063705 368.02536 L 214.324493 368.02536 L 214.324493 369.052399 C 219.222122 369.052399 223.191681 373.02179 223.191681 377.918884 L 223.191681 379.787048 L 222.229263 378.82196 C 217.69194 374.287598 210.336411 374.287598 205.798767 378.82196 C 201.261444 383.358826 201.261444 390.717163 205.798767 395.254059 L 223.694443 413.14798 L 241.592804 395.254059 C 246.130112 390.717163 246.130112 383.358826 241.592804 378.82196 C 237.055161 374.287598 229.696594 374.287598 225.158951 378.82196 Z"/>
        <path id="path27770" fill="#000000" stroke="none" d="M 135.179153 300.561157 L 134.220428 301.520142 L 134.220428 299.658081 C 134.220428 294.760803 138.189987 290.791748 143.083923 290.791748 L 143.083923 289.764374 L 124.34166 289.764374 L 124.34166 290.791748 C 129.239288 290.791748 133.211884 294.760803 133.211884 299.658081 L 133.211884 301.523193 L 132.249466 300.561157 C 127.712151 296.024109 120.356277 296.024109 115.815933 300.561157 C 111.27829 305.098206 111.27829 312.453339 115.815933 316.990387 L 133.71431 334.887512 L 151.609985 316.990387 C 156.147293 312.453339 156.147293 305.098206 151.609985 300.561157 C 147.072327 296.024109 139.716797 296.024109 135.179153 300.561157 Z"/>
        <path id="path27771" fill="#000000" stroke="none" d="M 225.158951 300.561157 L 224.200226 301.520142 L 224.200226 299.658081 C 224.200226 294.760803 228.169449 290.791748 233.063705 290.791748 L 233.063705 289.764374 L 214.324493 289.764374 L 214.324493 290.791748 C 219.222122 290.791748 223.191681 294.760803 223.191681 299.658081 L 223.191681 301.523193 L 222.229263 300.561157 C 217.69194 296.024109 210.336411 296.024109 205.798767 300.561157 C 201.261444 305.098206 201.261444 312.453339 205.798767 316.990387 L 223.694443 334.887512 L 241.592804 316.990387 C 246.130112 312.453339 246.130112 305.098206 241.592804 300.561157 C 237.055161 296.024109 229.696594 296.024109 225.158951 300.561157 Z"/>
        <path id="path27772" fill="#000000" stroke="none" d="M 44.165882 137.358154 L 21.05031 160.469116 C 15.190598 166.328217 15.190598 175.830719 21.05031 181.68985 C 26.913052 187.549133 36.412987 187.549133 42.272697 181.68985 L 43.513943 180.448456 L 43.513943 182.856812 C 43.513943 189.181366 38.387325 194.308136 32.061893 194.308136 L 32.061893 195.63324 L 56.269867 195.63324 L 56.269867 194.308136 C 49.944775 194.308136 44.817822 189.181366 44.817822 182.856812 L 44.817822 180.445587 L 46.059402 181.68985 C 51.919113 187.549133 61.422413 187.549133 67.281792 181.68985 C 73.141167 175.830719 73.141167 166.328217 67.281792 160.469116 L 44.165882 137.358154 Z"/>
        <path id="path27773" fill="#000000" stroke="none" d="M 313.242523 402.730103 L 336.358093 379.619476 C 342.217804 373.760376 342.217804 364.257874 336.358093 358.398743 C 330.499054 352.53949 320.995422 352.53949 315.136047 358.398743 L 313.89447 359.639984 L 313.89447 357.231628 C 313.89447 350.907227 319.02478 345.780273 325.346497 345.780273 L 325.346497 344.4552 L 301.138885 344.4552 L 301.138885 345.780273 C 307.463623 345.780273 312.591248 350.907227 312.591248 357.231628 L 312.591248 359.643005 L 311.349335 358.398743 C 305.489624 352.53949 295.989685 352.53949 290.126953 358.398743 C 284.267242 364.257874 284.267242 373.760376 290.126953 379.619476 L 313.242523 402.730103 Z"/>
    </g>
</svg>
