<?xml version="1.0" encoding="UTF-8"?>
<!-- Generated by Pixelmator Pro 3.7 -->
<svg width="360" height="537" viewBox="0 0 360 537" xmlns="http://www.w3.org/2000/svg">
    <g id="g14-copy">
        <g id="g15">
            <path id="path23911" fill="#ffffff" stroke="none" d="M 17.825695 534.831787 L 339.668915 534.831787 C 348.891724 534.831787 356.367554 527.360901 356.367554 518.144409 L 356.367554 19.01825 C 356.367554 9.801941 348.891724 2.330383 339.668915 2.330383 L 17.825695 2.330383 C 8.602924 2.330383 1.127021 9.801941 1.127021 19.01825 L 1.127021 518.144409 C 1.127021 527.360901 8.602924 534.831787 17.825695 534.831787 Z"/>
            <path id="path23912" fill="#000000" stroke="none" d="M 73.987595 92.096527 L 62.656456 92.096527 L 62.152424 95.609009 C 61.574135 99.591064 60.519825 102.505859 58.99868 104.270538 C 57.724976 105.757294 56.311768 106.423523 54.429077 106.423523 L 32.261143 106.423523 C 33.429886 105.01123 34.907589 103.294983 36.756481 101.205719 C 42.015659 95.278717 49.605999 87.523163 59.246124 78.22757 C 63.726112 74.123291 67.065117 69.720428 69.164513 65.14151 C 71.279213 60.521027 72.348869 55.814392 72.348869 51.160889 C 72.348869 43.965271 69.986809 37.846344 65.318291 32.980072 C 60.609642 28.065552 53.498512 25.576263 44.185879 25.576263 C 37.520325 25.576263 31.19463 27.734924 25.37565 31.99881 C 19.1737 36.551056 16.026285 43.171112 16.026285 51.672729 C 16.026285 55.520996 17.034092 58.479034 19.009787 60.445923 C 20.373138 61.810272 22.825062 63.441681 26.776491 63.441681 C 29.605345 63.441681 31.871506 62.610321 33.513374 60.96347 C 35.161114 59.321167 35.996033 57.05603 35.996033 54.231079 C 35.996033 51.965942 35.201244 49.764343 33.253559 47.238007 C 32.663109 46.651733 32.409626 45.985657 32.409626 45.020477 C 32.409626 42.883606 33.25964 41.28421 35.15818 39.829315 C 37.337917 38.15564 39.959583 37.345062 43.162724 37.345062 C 47.389275 37.345062 50.384937 38.459259 52.314377 40.74588 C 54.395241 43.219055 55.452484 47.067505 55.452484 52.18457 C 55.452484 55.920685 54.237446 60.088989 51.841255 64.582397 C 49.302868 69.331635 45.230923 74.517609 39.755581 79.991913 C 33.173008 86.569214 27.827614 92.347168 23.86721 97.176025 C 19.736603 102.20224 16.839315 106.253204 15.005815 109.552246 L 14.489583 110.480194 L 14.489583 122.286377 L 69.767128 122.286377 L 73.987595 92.096527 Z"/>
            <path id="path23913" fill="#000000" stroke="none" d="M 190.293442 142.821533 C 189.001236 142.821533 187.779831 143.086578 186.63591 143.512909 C 188.252991 141.663727 189.26709 139.27182 189.26709 136.622437 C 189.26709 130.816162 184.555054 126.10849 178.74588 126.10849 C 172.936371 126.10849 168.227692 130.816162 168.227692 136.622437 C 168.227692 139.27182 169.238678 141.663727 170.858627 143.512909 C 169.714706 143.086578 168.490433 142.821533 167.197998 142.821533 C 161.38858 142.821533 156.679886 147.529175 156.679886 153.335297 C 156.679886 159.142242 161.38858 163.848541 167.197998 163.848541 C 170.787506 163.848541 173.95047 162.046783 175.848755 159.304352 C 176.507355 158.72998 177.33284 158.390137 178.241776 158.274963 L 178.241776 161.135101 C 178.241776 166.032867 174.265808 170.006042 169.36557 170.006042 L 169.36557 171.031921 L 188.126114 171.031921 L 188.126114 170.006042 C 183.225876 170.006042 179.249573 166.032867 179.249573 161.135101 L 179.249573 158.274963 C 180.158844 158.389313 180.987183 158.729309 181.64267 159.303528 C 183.544312 162.045624 186.703918 163.848541 190.293442 163.848541 C 196.106033 163.848541 200.814728 159.142242 200.814728 153.335297 C 200.814728 147.529175 196.106033 142.821533 190.293442 142.821533 Z"/>
            <path id="path23914" fill="#000000" stroke="none" d="M 190.293442 373.312744 C 186.703918 373.312744 183.544312 375.117188 181.645767 377.857605 C 180.987183 378.432495 180.158844 378.772156 179.252762 378.886475 L 179.252762 376.028687 C 179.252762 371.128418 183.225876 367.158264 188.126114 367.158264 L 188.126114 366.132568 L 169.36557 366.132568 L 169.36557 367.158264 C 174.268738 367.158264 178.241776 371.128418 178.241776 376.028687 L 178.241776 378.886475 C 177.33577 378.772156 176.507355 378.432495 175.848755 377.860779 C 173.95047 375.117188 170.787506 373.312744 167.197998 373.312744 C 161.38858 373.312744 156.679886 378.021545 156.679886 383.826843 C 156.679886 389.632629 161.38858 394.341095 167.197998 394.341095 C 168.490433 394.341095 169.714706 394.075562 170.858627 393.649048 C 169.238678 395.499756 168.227692 397.891296 168.227692 400.542023 C 168.227692 406.347656 172.936371 411.053101 178.74588 411.053101 C 184.558487 411.053101 189.26709 406.347656 189.26709 400.542023 C 189.26709 397.891296 188.252991 395.499756 186.63591 393.649048 C 187.779831 394.075562 189.004349 394.341095 190.293442 394.341095 C 196.106033 394.341095 200.814728 389.632629 200.814728 383.826843 C 200.814728 378.021545 196.106033 373.312744 190.293442 373.312744 Z"/>
            <path id="path23915" fill="#000000" stroke="none" d="M 66.39109 160.283783 C 61.954506 157.51886 57.904198 157.661041 54.426144 158.95697 C 57.041561 155.970093 58.432842 151.884918 57.570415 147.424408 C 56.451023 141.646271 51.541309 137.158264 45.682663 136.553864 C 37.529549 135.712585 30.650389 142.082855 30.650389 150.057526 C 30.650389 153.479645 31.958221 156.569275 34.0481 158.95697 C 30.579353 157.664734 26.547581 157.519531 22.114054 160.261139 C 19.189215 162.069427 16.963017 164.895691 16.149986 168.232635 C 13.967313 177.208038 20.707174 185.222626 29.323853 185.222626 C 33.95874 185.222626 38.042805 182.892914 40.494514 179.352295 C 41.34478 178.610779 42.414482 178.17218 43.583267 178.023651 L 43.583267 181.715851 C 43.583267 188.043671 38.450932 193.172485 32.125031 193.172485 L 32.125031 194.497925 L 56.352188 194.497925 L 56.352188 193.172485 C 50.020206 193.172485 44.887871 188.043671 44.887871 181.715851 L 44.887871 178.023651 C 46.059593 178.169006 47.129208 178.610779 47.979729 179.352295 C 50.431438 182.892914 54.515545 185.222626 59.153324 185.222626 C 67.757843 185.222626 74.494514 177.229645 72.333313 168.269684 C 71.529549 164.929718 69.309853 162.100433 66.39109 160.283783 Z"/>
            <path id="path23916" fill="#000000" stroke="none" d="M 283.506989 445.067261 L 294.835236 445.067261 L 295.342438 441.554291 C 295.917328 437.571899 296.974609 434.655273 298.492828 432.891235 C 299.769592 431.404846 301.182709 430.737427 303.065491 430.737427 L 325.233551 430.737427 C 324.064819 432.152557 322.587097 433.86731 320.734955 435.955902 C 315.475769 441.885071 307.885651 449.640137 298.248627 458.933899 C 293.768616 463.040009 290.429443 467.442871 288.327026 472.02179 C 286.215393 476.640564 285.14563 481.349579 285.14563 486.002563 C 285.14563 493.198181 287.50769 499.315796 292.173248 504.182037 C 296.88504 509.097748 303.99295 511.584869 313.305603 511.584869 C 319.971283 511.584869 326.300079 509.428345 332.118805 505.16449 C 338.320862 500.610382 341.468323 493.992188 341.468323 485.489563 C 341.468323 481.642975 340.460358 478.683075 338.481628 476.717865 C 337.121338 475.352356 334.666443 473.7211 330.71524 473.7211 C 327.889221 473.7211 325.623199 474.552307 323.978271 476.198822 C 322.330322 477.842651 321.498535 480.107605 321.498535 482.931519 C 321.498535 485.196014 322.293243 487.398956 324.240997 489.923279 C 324.831604 490.510223 325.082001 491.177643 325.082001 492.141632 C 325.082001 494.279694 324.234802 495.877075 322.336517 497.332306 C 320.153748 499.006958 317.534912 499.816406 314.328827 499.816406 C 310.105469 499.816406 307.109558 498.704193 305.177216 496.417938 C 303.096436 493.942902 302.042175 490.096283 302.042175 484.979889 C 302.042175 481.241272 303.257111 477.073303 305.65332 472.581238 C 308.191589 467.832153 312.260559 462.644867 317.739105 457.169525 C 324.32135 450.59491 329.663971 444.814117 333.627625 439.988098 C 337.755188 434.961243 340.652161 430.910583 342.488617 427.610718 L 343.004822 426.683929 L 343.004822 414.875244 L 287.724304 414.875244 L 283.506989 445.067261 Z"/>
            <path id="path23917" fill="#000000" stroke="none" d="M 291.100281 376.878357 C 295.540283 379.643585 299.590302 379.501587 303.065491 378.206818 C 300.452942 381.191681 299.058502 385.279358 299.924164 389.737396 C 301.040497 395.515167 305.950104 400.004517 311.808929 400.610107 C 319.965149 401.450531 326.84436 395.079437 326.84436 387.105103 C 326.84436 383.681824 325.533295 380.59198 323.443359 378.206818 C 326.915558 379.49823 330.947113 379.643585 335.380737 376.899811 C 338.302338 375.092529 340.528381 372.268616 341.341431 368.92865 C 343.527374 359.952911 336.787384 351.938354 328.170593 351.938354 C 323.532928 351.938354 319.451813 354.268005 317.000183 357.808838 C 316.149719 358.553528 315.08017 358.991943 313.908325 359.14032 L 313.908325 355.445099 C 313.908325 349.117767 319.040619 343.988647 325.369598 343.988647 L 325.369598 342.66333 L 301.142456 342.66333 L 301.142456 343.988647 C 307.471344 343.988647 312.603638 349.117767 312.603638 355.445099 L 312.603638 359.14032 C 311.434906 358.991943 310.365112 358.553528 309.514893 357.812195 C 307.063171 354.268005 302.97583 351.938354 298.341278 351.938354 C 289.736969 351.938354 283 359.931274 285.161133 368.89444 C 285.965057 372.234741 288.184875 375.061676 291.100281 376.878357 Z"/>
        </g>
        <path id="path23918" fill="#000000" stroke="none" d="M 271.498749 436.045593 L 271.498749 101.164459 L 85.992966 101.164459 L 85.992966 436.045593 L 271.498749 436.045593 Z M 86.997589 102.161163 L 270.493896 102.161163 L 270.493896 435.047577 L 86.997589 435.047577 L 86.997589 102.161163 Z"/>
    </g>
</svg>
