<?xml version="1.0" encoding="UTF-8"?>
<!-- Generated by Pixelmator Pro 3.7 -->
<svg width="360" height="539" viewBox="0 0 360 539" xmlns="http://www.w3.org/2000/svg">
    <g id="Group-copy">
        <path id="Path" fill="#ffffff" stroke="none" d="M 342.110962 1.230286 L 17.683041 1.230286 C 8.386368 1.230286 0.850336 8.765747 0.850336 18.062012 L 0.850336 521.507263 C 0.850336 530.803589 8.386368 538.339172 17.683041 538.339172 L 342.110962 538.339172 C 351.407928 538.339172 358.944031 530.803589 358.944031 521.507263 L 358.944031 18.062012 C 358.944031 8.765747 351.407928 1.230286 342.110962 1.230286 Z"/>
        <path id="path1" fill="#b4171e" stroke="none" d="M 74.293556 91.77179 L 62.874256 91.77179 L 62.366173 95.315002 C 61.783222 99.332001 60.717461 102.273926 59.187325 104.053406 C 57.903133 105.552399 56.475853 106.225433 54.580963 106.225433 L 32.234772 106.225433 C 33.41293 104.798187 34.902534 103.068665 36.766262 100.962006 C 42.067444 94.981476 49.71888 87.159485 59.433502 77.785004 C 63.949562 73.643463 67.315384 69.202454 69.434593 64.583893 C 71.563171 59.924927 72.644844 55.175476 72.644844 50.482239 C 72.644844 43.223969 70.263725 37.053406 65.557747 32.145142 C 60.811241 27.186829 53.642616 24.678223 44.255638 24.678223 C 37.536247 24.678223 31.1597 26.853455 25.293943 31.154144 C 19.038864 35.747742 15.866201 42.423096 15.866201 50.999542 C 15.866201 54.879303 16.882128 57.865051 18.876867 59.850128 C 20.251131 61.224579 22.722849 62.869904 26.70573 62.869904 C 29.557405 62.869904 31.842031 62.031677 33.497108 60.370483 C 35.158077 58.712799 35.999695 56.428253 35.999695 53.579895 C 35.999695 51.295471 35.198547 49.073608 33.235203 46.527313 C 32.636524 45.935211 32.38422 45.262268 32.38422 44.289764 C 32.38422 42.133179 33.238148 40.522156 35.155132 39.054138 C 37.3521 37.365112 39.991943 36.548584 43.224045 36.548584 C 47.481319 36.548584 50.504299 37.670471 52.449261 39.976685 C 54.546619 42.473053 55.612617 46.353058 55.612617 51.516846 C 55.612617 55.284698 54.384384 59.488678 51.972107 64.019928 C 49.413498 68.809784 45.309151 74.042358 39.789474 79.564606 C 33.153969 86.196411 27.765602 92.027313 23.773119 96.894928 C 19.609329 101.965515 16.688969 106.050964 14.840733 109.379517 L 14.32034 110.314209 L 14.32034 122.22522 L 70.042587 122.22522 L 74.293556 91.77179 Z"/>
        <path id="path2" fill="#b4171e" stroke="none" d="M 285.49762 447.797699 L 296.919983 447.797699 L 297.42807 444.254395 C 298.010712 440.237244 299.073639 437.295319 300.606964 435.515961 C 301.891052 434.01709 303.315491 433.343933 305.21344 433.343933 L 327.55957 433.343933 C 326.381531 434.771057 324.891754 436.500702 323.027985 438.607422 C 317.726501 444.587952 310.075348 452.410187 300.357727 461.78418 C 295.841614 465.925964 292.478912 470.366974 290.359589 474.985291 C 288.230835 479.64444 287.149445 484.390869 287.149445 489.087189 C 287.149445 496.345459 289.530579 502.515961 294.236725 507.424225 C 298.983337 512.382507 306.151428 514.891174 315.538879 514.891174 C 322.258118 514.891174 328.634766 512.715942 334.500183 508.415222 C 340.752136 503.821625 343.925018 497.14325 343.925018 488.569885 C 343.925018 484.686798 342.908875 481.704315 340.917419 479.719238 C 339.54303 478.344788 337.071503 476.699341 333.08844 476.699341 C 330.236816 476.699341 327.952332 477.53772 326.297485 479.198883 C 324.636169 480.853638 323.794708 483.141052 323.794708 485.989471 C 323.794708 488.273956 324.59552 490.495819 326.55896 493.042053 C 327.15448 493.634155 327.409943 494.307312 327.409943 495.279419 C 327.409943 497.436035 326.552979 499.047272 324.639221 500.515045 C 322.442078 502.204376 319.799164 503.020844 316.570435 503.020844 C 312.310028 503.020844 309.289886 501.898895 307.345215 499.589539 C 305.247864 497.096375 304.181732 493.216553 304.181732 488.052582 C 304.181732 484.284729 305.406616 480.08075 307.821838 475.5495 C 310.380798 470.759644 314.485443 465.527069 320.004883 460.004761 C 326.640076 453.369843 332.02887 447.542114 336.021057 442.671265 C 340.18515 437.604004 343.105255 433.518402 344.953613 430.190063 L 345.473969 429.255157 L 345.473969 417.344208 L 289.751953 417.344208 L 285.49762 447.797699 Z"/>
        <path id="path3" fill="#000000" stroke="none" d="M 273.395935 438.672913 L 273.395935 100.896393 L 86.398605 100.896393 L 86.398605 438.672913 L 273.395935 438.672913 Z M 87.411346 101.900116 L 272.379761 101.900116 L 272.379761 437.669495 L 87.411346 437.669495 L 87.411346 101.900116 Z"/>
        <path id="path4" fill="#b4171e" stroke="none" d="M 57.401413 136.539032 C 52.517712 136.539032 47.917534 138.383911 44.395782 141.743439 C 40.874088 138.383911 36.276798 136.539032 31.39333 136.539032 C 26.356703 136.539032 21.622507 138.502319 18.060286 142.06131 C 14.501246 145.62027 12.537668 150.357239 12.537668 155.393433 C 12.537668 160.429474 14.501246 165.166443 18.060286 168.728485 L 44.399021 195.062164 L 70.731339 168.728485 C 74.293556 165.166443 76.253952 160.429474 76.253952 155.393433 C 76.253952 150.357239 74.293556 145.62027 70.731339 142.06131 C 67.172058 138.502319 62.438042 136.539032 57.401413 136.539032 Z"/>
        <path id="path5" fill="#b4171e" stroke="none" d="M 302.393005 403.030396 C 307.276581 403.030396 311.876709 401.185455 315.398499 397.825928 C 318.917023 401.185455 323.517273 403.030396 328.39801 403.030396 C 333.437469 403.030396 338.1716 401.067017 341.730713 397.505066 C 345.293152 393.949158 347.256683 389.212189 347.256683 384.173004 C 347.256683 379.139893 345.293152 374.402924 341.730713 370.840759 L 315.395447 344.507202 L 289.063141 370.840759 C 285.500916 374.402924 283.53717 379.139893 283.53717 384.173004 C 283.53717 389.212189 285.500916 393.949158 289.063141 397.505066 C 292.622284 401.067017 297.356262 403.030396 302.393005 403.030396 Z"/>
        <path id="path6" fill="#b4171e" stroke="none" d="M 179.897263 163.932404 L 197.858292 145.972534 C 202.411636 141.419373 202.411636 134.036682 197.858292 129.48349 C 193.304703 124.93045 185.9216 124.93045 181.368256 129.48349 L 179.897263 130.954468 L 178.426331 129.48349 C 173.872757 124.93045 166.489578 124.93045 161.936005 129.48349 C 157.38266 134.036682 157.38266 141.419373 161.936005 145.972534 L 179.897263 163.932404 Z"/>
        <path id="path7" fill="#b4171e" stroke="none" d="M 161.936005 410.06427 C 166.489578 414.617249 173.872757 414.617249 178.426331 410.06427 L 179.897263 408.593079 L 181.368256 410.06427 C 185.9216 414.617249 193.304703 414.617249 197.858292 410.06427 C 202.411636 405.507843 202.411636 398.128326 197.858292 393.571899 L 179.897263 375.612122 L 161.936005 393.571899 C 157.38266 398.128326 157.38266 405.507843 161.936005 410.06427 L 161.936005 410.06427 Z"/>
    </g>
</svg>
