<?xml version="1.0" encoding="UTF-8"?>
<!-- Generated by Pixelmator Pro 3.7 -->
<svg width="360" height="538" viewBox="0 0 360 538" xmlns="http://www.w3.org/2000/svg">
    <g id="g321-copy">
        <path id="path27774" fill="#ffffff" stroke="none" d="M 340.526489 2.613464 L 17.450077 2.613464 C 8.192307 2.613464 0.687424 10.11731 0.687424 19.374817 L 0.687424 520.713867 C 0.687424 529.971008 8.192307 537.474976 17.450077 537.474976 L 340.526489 537.474976 C 349.784637 537.474976 357.289032 529.971008 357.289032 520.713867 L 357.289032 19.374817 C 357.289032 10.11731 349.784637 2.613464 340.526489 2.613464 Z"/>
        <path id="path27775" fill="#000000" stroke="none" d="M 73.827156 92.778595 L 62.455551 92.778595 L 61.946644 96.303925 C 61.369377 100.304321 60.308037 103.233856 58.780895 105.005707 C 57.502064 106.498535 56.083942 107.168915 54.19379 107.168915 L 31.941086 107.168915 C 33.114056 105.750519 34.597504 104.025146 36.453396 101.927124 C 41.735924 95.975067 49.355385 88.182434 59.029205 78.847504 C 63.526443 74.723175 66.878197 70.300964 68.985641 65.701782 C 71.108482 61.062164 72.182236 56.335846 72.182236 51.658875 C 72.182236 44.431213 69.811043 38.286499 65.127876 33.398834 C 60.397991 28.461182 53.262772 25.963074 43.914753 25.963074 C 37.220165 25.963074 30.870235 28.129272 25.029213 32.411896 C 18.803247 36.986328 15.643858 43.636902 15.643858 52.174164 C 15.643858 56.040833 16.655737 59.01062 18.641947 60.987579 C 20.007534 62.35611 22.47184 63.994934 26.438326 63.994934 C 29.274902 63.994934 31.550041 63.160034 33.201145 61.50589 C 34.855114 59.858002 35.690075 57.580109 35.690075 54.743683 C 35.690075 52.469025 34.892536 50.256134 32.937138 47.720612 C 32.344383 47.131073 32.093128 46.460693 32.093128 45.492584 C 32.093128 43.345062 32.943493 41.740601 34.84901 40.278778 C 37.040257 38.597015 39.668854 37.783661 42.884438 37.783661 C 47.126926 37.783661 50.134151 38.90097 52.0741 41.200714 C 54.162724 43.683197 55.221073 47.546997 55.221073 52.68927 C 55.221073 56.441101 54.001129 60.627563 51.596004 65.139862 C 49.048145 69.912994 44.963799 75.120239 39.464237 80.619507 C 32.856445 87.226471 27.490402 93.029846 23.51453 97.880432 C 19.368097 102.926544 16.463118 106.994965 14.619646 110.309631 L 14.101268 111.243561 L 14.101268 123.101379 L 69.594009 123.101379 L 73.827156 92.778595 Z"/>
        <path id="path27776" fill="#000000" stroke="none" d="M 284.149475 447.309998 L 295.524323 447.309998 L 296.03009 443.781464 C 296.6073 439.784302 297.668701 436.854736 299.19577 435.08255 C 300.474487 433.590057 301.89267 432.919678 303.782928 432.919678 L 326.035736 432.919678 C 324.86261 434.338074 323.379089 436.063446 321.523102 438.161469 C 316.240753 444.113373 308.624481 451.903137 298.94751 461.240936 C 294.450348 465.362213 291.098389 469.784607 288.991028 474.383789 C 286.868195 479.026337 285.794312 483.752838 285.794312 488.426453 C 285.794312 495.654175 288.165497 501.801941 292.85199 506.689819 C 297.578979 511.627167 304.713928 514.125488 314.062073 514.125488 C 320.756653 514.125488 327.106689 511.959412 332.947357 507.673523 C 339.173279 503.102264 342.332886 496.451782 342.332886 487.914429 C 342.332886 484.047607 341.320984 481.077698 339.334686 479.100861 C 337.968994 477.732239 335.507996 476.093658 331.53833 476.093658 C 328.701599 476.093658 326.426788 476.928558 324.775635 478.58252 C 323.124573 480.230438 322.286591 482.505188 322.286591 485.344818 C 322.286591 487.619507 323.084259 489.832275 325.039581 492.367706 C 325.632233 492.957336 325.88681 493.627655 325.88681 494.596008 C 325.88681 496.740417 325.033173 498.3479 323.127777 499.80957 C 320.936646 501.491669 318.30777 502.304749 315.092438 502.304749 C 310.849945 502.304749 307.842468 501.184357 305.902557 498.887939 C 303.813995 496.405212 302.755768 492.538391 302.755768 487.399231 C 302.755768 483.647247 303.975281 479.460876 306.380646 474.945374 C 308.92865 470.175598 313.013031 464.968018 318.512665 459.469086 C 325.120056 452.861969 330.486267 447.058594 334.462128 442.20816 C 338.608398 437.158844 341.516632 433.090454 343.356842 429.778961 L 343.875275 428.844879 L 343.875275 416.987061 L 288.385712 416.987061 L 284.149475 447.309998 Z"/>
        <path id="path27777" fill="#000000" stroke="none" d="M 272.095062 438.251221 L 272.095062 101.88385 L 85.878571 101.88385 L 85.878571 438.251221 L 272.095062 438.251221 Z M 86.887039 102.886292 L 271.086609 102.886292 L 271.086609 437.248932 L 86.887039 437.248932 L 86.887039 102.886292 Z"/>
        <path id="path27778" fill="#000000" stroke="none" d="M 178.989761 126.940277 L 161.091476 144.834381 C 156.554001 149.371429 156.554001 156.729401 161.091476 161.266815 C 165.628708 165.800659 172.984497 165.800659 177.524918 161.266815 L 178.484055 160.304749 L 178.484055 162.169739 C 178.484055 167.066803 174.514328 171.036041 169.616791 171.036041 L 169.616791 172.063232 L 188.359802 172.063232 L 188.359802 171.036041 C 183.462173 171.036041 179.492523 167.066803 179.492523 162.169739 L 179.492523 160.301575 L 180.454865 161.266815 C 184.992081 165.800659 192.347794 165.800659 196.885269 161.266815 C 201.422577 156.729401 201.422577 149.371429 196.885269 144.834381 L 178.989761 126.940277 Z"/>
        <path id="path27779" fill="#000000" stroke="none" d="M 177.521973 378.82196 C 172.984497 374.287598 165.628708 374.287598 161.091476 378.82196 C 156.554001 383.358826 156.554001 390.717163 161.091476 395.254059 L 178.986816 413.14798 L 196.885269 395.254059 C 201.422577 390.717163 201.422577 383.358826 196.885269 378.82196 C 192.347794 374.287598 184.992081 374.287598 180.454865 378.82196 L 179.492523 379.783813 L 179.492523 377.918884 C 179.492523 373.02179 183.465454 369.052399 188.359802 369.052399 L 188.359802 368.02536 L 169.616791 368.02536 L 169.616791 369.052399 C 174.514328 369.052399 178.484055 373.02179 178.484055 377.918884 L 178.484055 379.787048 L 177.521973 378.82196 Z"/>
        <path id="path27780" fill="#000000" stroke="none" d="M 43.964085 137.358154 L 20.848852 160.469116 C 14.989014 166.328217 14.989014 175.830719 20.848852 181.68985 C 26.708437 187.549133 36.211655 187.549133 42.071281 181.68985 L 43.312695 180.448456 L 43.312695 182.856812 C 43.312695 189.181366 38.182247 194.308136 31.860394 194.308136 L 31.860394 195.63324 L 56.068493 195.63324 L 56.068493 194.308136 C 49.743019 194.308136 44.616196 189.181366 44.616196 182.856812 L 44.616196 180.445587 L 45.857693 181.68985 C 51.717236 187.549133 61.220493 187.549133 67.080124 181.68985 C 72.939667 175.830719 72.939667 166.328217 67.080124 160.469116 L 43.964085 137.358154 Z"/>
        <path id="path27781" fill="#000000" stroke="none" d="M 314.012329 402.730103 L 337.128052 379.619476 C 342.987701 373.757172 342.987701 364.257874 337.128052 358.398743 C 331.268524 352.53949 321.76532 352.53949 315.90567 358.398743 L 314.664093 359.639984 L 314.664093 357.231628 C 314.664093 350.907227 319.794586 345.780273 326.116486 345.780273 L 326.116486 344.4552 L 301.908325 344.4552 L 301.908325 345.780273 C 308.233521 345.780273 313.360565 350.907227 313.360565 357.231628 L 313.360565 359.639984 L 312.119141 358.398743 C 306.259583 352.53949 296.759399 352.53949 290.896667 358.398743 C 285.03714 364.257874 285.03714 373.757172 290.896667 379.619476 L 314.012329 402.730103 Z"/>
    </g>
</svg>
