<?xml version="1.0" encoding="UTF-8"?>
<!-- Generated by Pixelmator Pro 3.7 -->
<svg width="360" height="539" viewBox="0 0 360 539" xmlns="http://www.w3.org/2000/svg">
    <g id="Group-copy">
        <path id="Path" fill="#ffffff" stroke="none" d="M 17.13348 538.515991 L 342 538.515991 C 351.309326 538.515991 358.855286 530.973816 358.855286 521.669312 L 358.855286 17.772827 C 358.855286 8.46814 351.309326 0.925903 342 0.925903 L 17.13348 0.925903 C 7.823917 0.925903 0.277829 8.46814 0.277829 17.772827 L 0.277829 521.669312 C 0.277829 530.973816 7.823917 538.515991 17.13348 538.515991 Z"/>
        <path id="path1" fill="#b4171e" stroke="none" d="M 33.714252 99.536926 C 33.714252 97.805603 33.127453 95.905884 31.916567 93.716248 C 29.179688 88.800598 21.945759 87.209564 16.846214 92.986359 C 14.802079 95.282257 13.76615 98.002289 13.76615 101.068329 C 13.76615 106.820099 16.54373 111.867004 22.008167 116.065491 C 27.151125 120.02063 33.324116 122.029388 40.361736 122.029388 C 49.992306 122.029388 57.691406 119.116119 63.249516 113.370514 C 68.764091 107.665558 71.56031 100.946838 71.56031 93.401276 C 71.56031 88.22641 69.978043 83.029816 66.860344 77.964417 C 64.825531 74.673584 61.742279 71.794647 57.638199 69.355408 C 59.950844 67.789581 61.866978 65.949005 63.380466 63.828156 C 66.432808 59.564087 67.980629 54.376953 67.980629 48.419006 C 67.980629 42.583099 65.534081 37.077576 60.703045 32.040131 C 55.828243 26.965271 49.327759 24.395081 41.385395 24.395081 C 34.72541 24.395081 28.749083 26.294617 23.621696 30.037598 C 18.104053 34.080109 15.301463 39.404724 15.301463 45.864471 C 15.301463 49.835327 16.387413 52.770447 18.519085 54.588837 C 20.441589 56.235809 22.691589 57.109131 25.019806 57.109131 C 28.930172 57.109131 30.971123 55.293793 32.003986 53.753082 C 33.13689 52.056244 33.714252 49.916443 33.714252 47.396088 C 33.714252 45.299835 32.949665 43.419037 31.913498 42.536407 C 31.901112 42.508209 31.666933 41.859467 31.666933 39.729095 C 31.666933 38.93042 31.79175 38.266083 33.308422 37.598572 C 40.480061 34.448212 45.492306 36.266571 48.029335 39.803741 C 50.095413 42.701599 51.103386 46.017456 51.103386 49.953705 C 51.103386 54.660645 49.901821 58.147949 47.44265 60.605927 C 45.011444 63.035645 40.910786 64.264618 35.249802 64.264618 L 31.155279 64.264618 L 31.155279 76.021027 L 35.249802 76.021027 C 42.717674 76.021027 47.926228 77.474609 50.304348 80.22879 C 52.907326 83.242126 54.171181 87.21582 54.171181 92.381378 C 54.171181 98.838165 52.95723 103.529327 50.553978 106.330536 C 48.279087 108.98172 44.7775 110.27002 39.849609 110.27002 C 37.440582 110.27002 35.311977 109.758453 33.330486 108.704193 C 32.525311 108.279938 31.666933 107.656128 31.666933 107.203735 C 31.666933 107.107117 31.695129 106.570618 32.003986 105.893677 C 33.13689 104.196991 33.714252 102.054047 33.714252 99.536926 Z"/>
        <path id="path2" fill="#b4171e" stroke="none" d="M 325.419006 439.905426 C 325.419006 441.636536 326.005676 443.53595 327.216675 445.725708 C 329.95343 450.641724 337.187714 452.23233 342.286926 446.455536 C 344.331177 444.160034 345.367218 441.440033 345.367218 438.373779 C 345.367218 432.621918 342.58963 427.575073 337.122009 423.376617 C 331.982239 419.421478 325.809235 417.412628 318.771759 417.412628 C 309.14093 417.412628 301.441833 420.32608 295.883728 426.071533 C 290.369263 431.776489 287.572937 438.495483 287.572937 446.040894 C 287.572937 451.215454 289.155334 456.41214 292.272888 461.477875 C 294.307709 464.768524 297.391205 467.647705 301.494934 470.086914 C 299.182404 471.65271 297.263214 473.49292 295.752655 475.614136 C 292.700562 479.878082 291.152618 485.06543 291.152618 491.022888 C 291.152618 496.859009 293.599396 502.364471 298.430328 507.401978 C 303.305115 512.477051 309.805603 515.047241 317.748199 515.047241 C 324.407959 515.047241 330.384155 513.147583 335.508484 509.404541 C 341.029297 505.361938 343.831909 500.037659 343.831909 493.577576 C 343.831909 489.606934 342.745728 486.671631 340.614044 484.853058 C 338.688721 483.206207 336.441772 482.332764 334.113556 482.332764 C 330.203186 482.332764 328.162354 484.148163 327.129272 485.689026 C 325.996246 487.386108 325.419006 489.525879 325.419006 492.046173 C 325.419006 494.14209 326.180634 496.023071 327.219879 496.905945 C 327.232147 496.93396 327.466309 497.582703 327.466309 499.713257 C 327.466309 500.511536 327.341492 501.176025 325.824707 501.843567 C 318.653076 504.993958 313.641174 503.175385 311.10379 499.638092 C 309.037933 496.740479 308.029968 493.424896 308.029968 489.488159 C 308.029968 484.781464 309.231537 481.294159 311.690704 478.836243 C 314.121674 476.40625 318.222473 475.177246 323.883667 475.177246 L 327.978088 475.177246 L 327.978088 463.417786 L 323.883667 463.417786 C 316.41568 463.417786 311.206909 461.967468 308.828766 459.213196 C 306.226166 456.200256 304.962067 452.226074 304.962067 447.060944 C 304.962067 440.604187 306.176147 435.912567 308.579254 433.111755 C 310.854156 430.460297 314.355865 429.172089 319.283508 429.172089 C 321.689606 429.172089 323.821259 429.683655 325.803101 430.737976 C 326.608154 431.162109 327.466309 431.78595 327.466309 432.23819 C 327.466309 432.334991 327.43811 432.871521 327.129272 433.548279 C 325.996246 435.245392 325.419006 437.388092 325.419006 439.905426 Z"/>
        <path id="path3" fill="#000000" stroke="none" d="M 273.189301 438.760529 L 273.189301 100.68158 L 85.944054 100.68158 L 85.944054 438.760529 L 273.189301 438.760529 Z M 86.958397 101.685913 L 272.175079 101.685913 L 272.175079 437.756226 L 86.958397 437.756226 L 86.958397 101.685913 Z"/>
        <path id="path4" fill="#b4171e" stroke="none" d="M 179.658707 125.87558 C 177.430527 129.705719 174.038071 134.559204 168.923065 139.512726 C 164.897324 143.414703 160.837128 146.371826 157.373184 148.564484 C 160.837128 150.754395 164.897324 153.714355 168.923065 157.613434 C 174.038071 162.566742 177.430527 167.420197 179.658707 171.250641 C 181.890182 167.420197 185.28241 162.566742 190.397278 157.613434 C 194.423264 153.714355 198.48027 150.754395 201.947403 148.564484 C 198.48027 146.371826 194.423264 143.414703 190.397278 139.512726 C 185.28241 134.559204 181.890182 129.705719 179.658707 125.87558 Z"/>
        <path id="path5" fill="#b4171e" stroke="none" d="M 179.658707 247.022522 C 177.430527 250.849915 174.038071 255.703217 168.923065 260.659729 C 164.897324 264.558777 160.837128 267.518768 157.373184 269.708466 C 160.837128 271.898163 164.897324 274.858429 168.923065 278.757416 C 174.038071 283.713928 177.430527 288.567444 179.658707 292.397644 C 181.890182 288.567444 185.28241 283.713928 190.397278 278.757416 C 194.423264 274.858429 198.48027 271.898163 201.947403 269.708466 C 198.48027 267.518768 194.423264 264.558777 190.397278 260.659729 C 185.28241 255.703217 181.890182 250.849915 179.658707 247.022522 Z"/>
        <path id="path6" fill="#b4171e" stroke="none" d="M 179.658707 368.166565 C 177.430527 371.996887 174.038071 376.850403 168.923065 381.806946 C 164.897324 385.705994 160.837128 388.665985 157.373184 390.855713 C 160.837128 393.045349 164.897324 396.005615 168.923065 399.904663 C 174.038071 404.857758 177.430527 409.714447 179.658707 413.54187 C 181.890182 409.714447 185.28241 404.857758 190.397278 399.904663 C 194.423264 396.005615 198.48027 393.045349 201.947403 390.855713 C 198.48027 388.665985 194.423264 385.705994 190.397278 381.806946 C 185.28241 376.850403 181.890182 371.996887 179.658707 368.166565 Z"/>
        <path id="path7" fill="#b4171e" stroke="none" d="M 43.660286 136.355865 C 40.782784 141.299988 36.404533 147.566528 29.797636 153.963989 C 24.601589 158.995148 19.364841 162.816315 14.889616 165.642303 C 19.364841 168.471283 24.601589 172.29245 29.797636 177.323853 C 36.404533 183.721252 40.782784 189.98761 43.660286 194.931702 C 46.537674 189.98761 50.916042 183.721252 57.519871 177.323853 C 62.715919 172.29245 67.955849 168.471283 72.427895 165.642303 C 67.955849 162.816315 62.715919 158.995148 57.519871 153.963989 C 50.916042 147.566528 46.537674 141.299988 43.660286 136.355865 Z"/>
        <path id="path8" fill="#b4171e" stroke="none" d="M 315.847412 403.085999 C 318.724915 398.142181 323.103394 391.875824 329.710175 385.481445 C 334.906219 380.446777 340.143097 376.625854 344.618195 373.799866 C 340.143097 370.970581 334.906219 367.149658 329.710175 362.118408 C 323.103394 355.720886 318.724915 349.454254 315.847412 344.510437 C 312.970154 349.454254 308.591644 355.720886 301.988068 362.118408 C 296.791779 367.149658 291.552094 370.970581 287.080048 373.799866 C 291.552094 376.625854 296.791779 380.446777 301.988068 385.481445 C 308.591644 391.875824 312.970154 398.142181 315.847412 403.085999 Z"/>
    </g>
</svg>
