<?xml version="1.0" encoding="UTF-8"?>
<!-- Generated by Pixelmator Pro 3.7 -->
<svg width="360" height="540" viewBox="0 0 360 540" xmlns="http://www.w3.org/2000/svg">
    <g id="Group-copy">
        <path id="Path" fill="#ffffff" stroke="none" d="M 342.00296 1.232544 L 17.139616 1.232544 C 7.830406 1.232544 0.284317 8.782043 0.284317 18.09552 L 0.284317 522.474792 C 0.284317 531.788391 7.830406 539.337952 17.139616 539.337952 L 342.00296 539.337952 C 351.312286 539.337952 358.861542 531.788391 358.861542 522.474792 L 358.861542 18.09552 C 358.861542 8.782043 351.312286 1.232544 342.00296 1.232544 Z"/>
        <path id="path1" fill="#b4171e" stroke="none" d="M 33.720623 99.937897 C 33.720623 98.205139 33.133942 96.303619 31.922937 94.111847 C 29.18594 89.191193 21.952011 87.598907 16.852585 93.381256 C 14.808568 95.679138 13.772166 98.401764 13.772166 101.470947 C 13.772166 107.228302 16.549746 112.28009 22.01442 116.482544 C 27.154428 120.441498 33.330486 122.451965 40.367752 122.451965 C 49.998676 122.451965 57.69754 119.535889 63.252701 113.784912 C 68.767044 108.07431 71.563499 101.349152 71.563499 93.7966 C 71.563499 88.61676 69.984299 83.415192 66.8666 78.344666 C 64.831779 75.050873 61.748413 72.169037 57.644806 69.727417 C 59.957214 68.160126 61.87323 66.317963 63.386955 64.194885 C 66.438942 59.926697 67.98381 54.734589 67.98381 48.771271 C 67.98381 42.929657 65.540215 37.418854 60.706112 32.376404 C 55.834496 27.296631 49.333893 24.723999 41.391411 24.723999 C 34.731781 24.723999 28.755217 26.625305 23.627714 30.372192 C 18.110188 34.418518 15.307834 39.748016 15.307834 46.214233 C 15.307834 50.18866 16.393902 53.126587 18.525339 54.946899 C 20.447725 56.59549 22.697607 57.469727 25.025824 57.469727 C 28.936308 57.469727 30.974308 55.652588 32.007172 54.110199 C 33.143143 52.411682 33.720623 50.269867 33.720623 47.747162 C 33.720623 45.648987 32.955917 43.766449 31.916567 42.882782 C 31.907364 42.854584 31.673422 42.205078 31.673422 40.072815 C 31.673422 39.273407 31.794935 38.608337 33.314911 37.940186 C 40.483364 34.786987 45.498322 36.607086 48.032402 40.147644 C 50.101665 43.048157 51.106571 46.367065 51.106571 50.307404 C 51.106571 55.01889 49.908073 58.50943 47.445953 60.969574 C 45.017933 63.401886 40.917156 64.63208 35.252754 64.63208 L 31.161297 64.63208 L 31.161297 76.399689 L 35.252754 76.399689 C 42.720741 76.399689 47.932835 77.854614 50.307652 80.611481 C 52.913342 83.627533 54.177433 87.605164 54.177433 92.775543 C 54.177433 99.238464 52.960297 103.934296 50.560467 106.738007 C 48.285339 109.391846 44.783752 110.681519 39.856098 110.681519 C 37.446598 110.681519 35.318462 110.169403 33.336739 109.113892 C 32.531563 108.689362 31.673422 108.065094 31.673422 107.612244 C 31.673422 107.51532 31.698315 106.978302 32.007172 106.300964 C 33.143143 104.602448 33.720623 102.457428 33.720623 99.937897 Z"/>
        <path id="path2" fill="#b4171e" stroke="none" d="M 325.425354 440.632568 C 325.425354 442.365356 326.012054 444.266815 327.219879 446.458618 C 329.95993 451.37915 337.193726 452.971588 342.293396 447.189209 C 344.337433 444.891296 345.370392 442.168701 345.370392 439.09967 C 345.370392 433.342377 342.595886 428.290649 337.128387 424.087952 C 331.988251 420.128967 325.815277 418.1185 318.777985 418.1185 C 309.14389 418.1185 301.445038 421.034607 295.889984 426.785522 C 290.375641 432.496124 287.579437 439.221405 287.579437 446.773865 C 287.579437 451.953735 289.16156 457.155273 292.279266 462.225708 C 294.313843 465.519775 297.397339 468.401459 301.49823 470.843018 C 299.188782 472.41037 297.269348 474.252472 295.755737 476.375519 C 292.703735 480.643738 291.158875 485.835785 291.158875 491.799194 C 291.158875 497.640961 293.6026 503.15155 298.436584 508.194031 C 303.311249 513.273743 309.808777 515.846436 317.754333 515.846436 C 324.414215 515.846436 330.390411 513.945129 335.514984 510.198303 C 341.035553 506.151917 343.838165 500.822357 343.838165 494.356445 C 343.838165 490.381775 342.748779 487.443848 340.620636 485.623535 C 338.694946 483.974976 336.448029 483.10083 334.119934 483.10083 C 330.209686 483.10083 328.168365 484.917908 327.135406 486.460266 C 325.999542 488.158722 325.425354 490.300629 325.425354 492.823334 C 325.425354 494.921448 326.186768 496.804016 327.226105 497.687744 C 327.235321 497.715881 327.469391 498.365326 327.469391 500.497681 C 327.469391 501.296936 327.347626 501.962097 325.830963 502.63031 C 318.659424 505.783691 313.647308 503.963287 311.110046 500.422791 C 309.044098 497.522339 308.036224 494.203369 308.036224 490.263092 C 308.036224 485.551636 309.234619 482.061157 311.696838 479.600677 C 314.124756 477.16861 318.228821 475.938477 323.889801 475.938477 L 327.981262 475.938477 L 327.981262 464.167725 L 323.889801 464.167725 C 316.421936 464.167725 311.213165 462.716003 308.835144 459.959045 C 306.22934 456.942932 304.968567 452.965271 304.968567 447.794922 C 304.968567 441.33197 306.182373 436.636139 308.585388 433.832397 C 310.860535 431.178589 314.362 429.889191 319.286591 429.889191 C 321.695953 429.889191 323.827515 430.401031 325.809235 431.456543 C 326.614319 431.881134 327.469391 432.505371 327.469391 432.958191 C 327.469391 433.055084 327.444489 433.592102 327.135406 434.269531 C 325.999542 435.967987 325.425354 438.113068 325.425354 440.632568 Z"/>
        <path id="path3" fill="#000000" stroke="none" d="M 273.195557 439.486786 L 273.195557 101.083588 L 85.947243 101.083588 L 85.947243 439.486786 L 273.195557 439.486786 Z M 86.964645 102.089172 L 272.181213 102.089172 L 272.181213 438.481506 L 86.964645 438.481506 L 86.964645 102.089172 Z"/>
        <path id="path4" fill="#b4171e" stroke="none" d="M 56.911243 136.792358 C 52.020985 136.792358 47.414692 138.640656 43.887978 142.006439 C 40.364803 138.640656 35.758389 136.792358 30.871199 136.792358 C 25.824743 136.792358 21.084312 138.759277 17.520435 142.32486 C 13.953492 145.890442 11.987337 150.6362 11.987337 155.681732 C 11.987337 160.727142 13.953492 165.47287 17.520435 169.041534 L 43.891163 195.424072 L 70.258942 169.041534 C 73.826004 165.47287 75.792152 160.727142 75.792152 155.681732 C 75.792152 150.6362 73.826004 145.890442 70.258942 142.32486 C 66.695061 138.759277 61.954514 136.792358 56.911243 136.792358 Z"/>
        <path id="path5" fill="#b4171e" stroke="none" d="M 302.234741 403.778137 C 307.124878 403.778137 311.727997 401.929749 315.2547 398.563995 C 318.781067 401.929749 323.384308 403.778137 328.27478 403.778137 C 333.31781 403.778137 338.06131 401.811096 341.625305 398.245544 C 345.192505 394.680054 347.155334 389.934296 347.155334 384.885742 C 347.155334 379.843292 345.192505 375.097534 341.625305 371.528778 L 315.2547 345.146362 L 288.88385 371.528778 C 285.316803 375.097534 283.353607 379.843292 283.353607 384.885742 C 283.353607 389.934296 285.316803 394.680054 288.88385 398.245544 C 292.447632 401.811096 297.191467 403.778137 302.234741 403.778137 Z"/>
        <path id="path6" fill="#b4171e" stroke="none" d="M 179.571396 164.236542 L 197.556534 146.243347 C 202.119064 141.681732 202.119064 134.285339 197.556534 129.723724 C 192.99707 125.162231 185.60376 125.162231 181.044312 129.723724 L 179.571396 131.197418 L 178.098267 129.723724 C 173.538925 125.162231 166.145721 125.162231 161.586258 129.723724 C 157.026688 134.285339 157.026688 141.681732 161.586258 146.243347 L 179.571396 164.236542 Z"/>
        <path id="path7" fill="#b4171e" stroke="none" d="M 179.571396 289.240234 L 197.556534 271.246826 C 202.119064 266.685211 202.119064 259.288818 197.556534 254.727203 C 192.99707 250.16571 185.60376 250.16571 181.044312 254.727203 L 179.571396 256.201141 L 178.098267 254.727203 C 173.538925 250.16571 166.145721 250.16571 161.586258 254.727203 C 157.026688 259.288818 157.026688 266.685211 161.586258 271.246826 L 179.571396 289.240234 Z"/>
        <path id="path8" fill="#b4171e" stroke="none" d="M 161.586258 410.825043 C 166.145721 415.386475 173.538925 415.386475 178.098267 410.825043 L 179.571396 409.351135 L 181.044312 410.825043 C 185.60376 415.386475 192.99707 415.386475 197.556534 410.825043 C 202.119064 406.260193 202.119064 398.866974 197.556534 394.302124 L 179.571396 376.30896 L 161.586258 394.302124 C 157.026688 398.866974 157.026688 406.260193 161.586258 410.825043 L 161.586258 410.825043 Z"/>
    </g>
</svg>
