<?xml version="1.0" encoding="UTF-8"?>
<!-- Generated by Pixelmator Pro 3.7 -->
<svg width="360" height="538" viewBox="0 0 360 538" xmlns="http://www.w3.org/2000/svg">
    <g id="g323-copy">
        <path id="path27791" fill="#ffffff" stroke="none" d="M 340.456635 2.613464 L 17.380287 2.613464 C 8.122306 2.613464 0.617928 10.11731 0.617928 19.374817 L 0.617928 520.713867 C 0.617928 529.971008 8.122306 537.474976 17.380287 537.474976 L 340.456635 537.474976 C 349.711578 537.474976 357.21933 529.971008 357.21933 520.713867 L 357.21933 19.374817 C 357.21933 10.11731 349.711578 2.613464 340.456635 2.613464 Z"/>
        <path id="path27792" fill="#000000" stroke="none" d="M 46.02977 109.223328 C 46.02977 110.809082 45.669788 111.237305 45.669788 111.237305 C 45.666756 111.240356 44.993263 111.792847 42.432652 111.792847 L 32.665512 111.792847 L 32.665512 123.101379 L 74.812767 123.101379 L 74.812767 111.792847 L 66.076073 111.792847 C 64.635979 111.792847 63.506195 111.541443 62.891636 111.075989 C 62.686726 110.920746 62.479122 110.290619 62.479122 109.223328 L 62.479122 96.375336 L 76.355232 96.375336 L 76.355232 85.066803 L 62.479122 85.066803 L 62.479122 25.963074 L 50.955349 25.963074 L 11.591966 88.505096 L 11.591966 96.375336 L 46.02977 96.375336 L 46.02977 109.223328 Z M 27.768049 85.066803 L 46.02977 56.00058 L 46.02977 85.066803 L 27.768049 85.066803 Z"/>
        <path id="path27793" fill="#000000" stroke="none" d="M 311.804291 430.865265 C 311.804291 429.279327 312.164276 428.851288 312.164276 428.851288 C 312.170502 428.844879 312.843811 428.295746 315.401245 428.295746 L 325.168365 428.295746 L 325.168365 416.987061 L 283.021271 416.987061 L 283.021271 428.295746 L 291.757996 428.295746 C 293.201263 428.295746 294.330872 428.54715 294.945435 429.012421 C 295.147156 429.167511 295.358307 429.797668 295.358307 430.865265 L 295.358307 443.713257 L 281.478821 443.713257 L 281.478821 455.021973 L 295.358307 455.021973 L 295.358307 514.125488 L 306.878693 514.125488 L 346.241913 451.583344 L 346.241913 443.713257 L 311.804291 443.713257 L 311.804291 430.865265 Z M 330.069031 455.021973 L 311.804291 484.084808 L 311.804291 455.021973 L 330.069031 455.021973 Z"/>
        <path id="path27794" fill="#000000" stroke="none" d="M 272.02536 438.251221 L 272.02536 101.88385 L 85.808861 101.88385 L 85.808861 438.251221 L 272.02536 438.251221 Z M 86.817413 102.886292 L 271.016479 102.886292 L 271.016479 437.248932 L 86.817413 437.248932 L 86.817413 102.886292 Z"/>
        <path id="path27795" fill="#000000" stroke="none" d="M 132.462112 161.266815 L 133.421173 160.304749 L 133.421173 162.169739 C 133.421173 167.066803 129.451614 171.036041 124.557182 171.036041 L 124.557182 172.063232 L 143.299942 172.063232 L 143.299942 171.036041 C 138.402481 171.036041 134.43309 167.066803 134.43309 162.169739 L 134.43309 160.301575 L 135.391968 161.266815 C 139.929459 165.800659 147.288025 165.800659 151.8255 161.266815 C 156.362976 156.729401 156.362976 149.371429 151.8255 144.834381 L 133.927124 126.940277 L 116.031624 144.834381 C 111.494141 149.371429 111.494141 156.729401 116.031624 161.266815 C 120.569267 165.800659 127.924637 165.800659 132.462112 161.266815 Z"/>
        <path id="path27796" fill="#000000" stroke="none" d="M 133.927124 413.14798 L 151.822464 395.254059 C 156.359955 390.717163 156.359955 383.358826 151.822464 378.82196 C 147.284988 374.287598 139.929459 374.287598 135.391968 378.82196 L 134.43309 379.783813 L 134.43309 377.918884 C 134.43309 373.02179 138.402481 369.052399 143.296738 369.052399 L 143.296738 368.02536 L 124.554146 368.02536 L 124.554146 369.052399 C 129.451614 369.052399 133.424194 373.02179 133.424194 377.918884 L 133.424194 379.787048 L 132.462112 378.82196 C 127.924637 374.287598 120.569267 374.287598 116.031624 378.82196 C 111.49128 383.358826 111.49128 390.717163 116.031624 395.254059 L 133.927124 413.14798 Z"/>
        <path id="path27797" fill="#000000" stroke="none" d="M 222.442078 161.266815 L 223.40097 160.304749 L 223.40097 162.169739 C 223.40097 167.066803 219.43158 171.036041 214.53714 171.036041 L 214.53714 172.063232 L 233.279907 172.063232 L 233.279907 171.036041 C 228.382278 171.036041 224.412888 167.066803 224.412888 162.169739 L 224.412888 160.301575 L 225.374969 161.266815 C 229.912445 165.800659 237.268158 165.800659 241.805466 161.266815 C 246.342773 156.729401 246.342773 149.371429 241.805466 144.834381 L 223.906754 126.940277 L 206.011581 144.834381 C 201.473938 149.371429 201.473938 156.729401 206.011581 161.266815 C 210.549057 165.800659 217.904602 165.800659 222.442078 161.266815 Z"/>
        <path id="path27798" fill="#000000" stroke="none" d="M 223.906754 413.14798 L 241.805466 395.254059 C 246.342773 390.717163 246.342773 383.358826 241.805466 378.82196 C 237.264786 374.287598 229.909409 374.287598 225.371765 378.82196 L 224.412888 379.783813 L 224.412888 377.918884 C 224.412888 373.02179 228.382278 369.052399 233.279907 369.052399 L 233.279907 368.02536 L 214.53714 368.02536 L 214.53714 369.052399 C 219.434769 369.052399 223.40416 373.02179 223.40416 377.918884 L 223.40416 379.787048 L 222.442078 378.82196 C 217.904602 374.287598 210.549057 374.287598 206.011581 378.82196 C 201.473938 383.358826 201.473938 390.717163 206.011581 395.254059 L 223.906754 413.14798 Z"/>
        <path id="path27799" fill="#000000" stroke="none" d="M 43.975285 137.355133 L 20.859543 160.469116 C 14.996801 166.328217 14.996801 175.827515 20.859543 181.68985 C 26.719088 187.549133 36.219357 187.549133 42.081932 181.68985 L 43.323341 180.448456 L 43.323341 182.856812 C 43.323341 189.181366 38.193192 194.308136 31.870958 194.308136 L 31.870958 195.63324 L 56.076241 195.63324 L 56.076241 194.308136 C 49.754177 194.308136 44.623856 189.181366 44.623856 182.856812 L 44.623856 180.445587 L 45.868637 181.68985 C 51.72784 187.549133 61.228111 187.549133 67.090683 181.68985 C 72.950394 175.827515 72.950394 166.328217 67.090683 160.469116 L 43.975285 137.355133 Z"/>
        <path id="path27800" fill="#000000" stroke="none" d="M 313.861786 402.730103 L 336.977539 379.619476 C 342.83725 373.760376 342.83725 364.257874 336.977539 358.398743 C 331.11496 352.53949 321.614685 352.53949 315.755157 358.398743 L 314.51358 359.639984 L 314.51358 357.231628 C 314.51358 350.907227 319.640686 345.780273 325.965942 345.780273 L 325.965942 344.4552 L 301.757996 344.4552 L 301.757996 345.780273 C 308.082916 345.780273 313.210205 350.907227 313.210205 357.231628 L 313.210205 359.639984 L 311.968781 358.398743 C 306.10907 352.53949 296.605927 352.53949 290.746216 358.398743 C 284.886505 364.257874 284.886505 373.760376 290.746216 379.619476 L 313.861786 402.730103 Z"/>
    </g>
</svg>
