<?xml version="1.0" encoding="UTF-8"?>
<!-- Generated by Pixelmator Pro 3.7 -->
<svg width="360" height="537" viewBox="0 0 360 537" xmlns="http://www.w3.org/2000/svg">
    <g id="g23-copy">
        <g id="g24">
            <path id="path23998" fill="#ffffff" stroke="none" d="M 18.984207 534.831787 L 340.827423 534.831787 C 350.050079 534.831787 357.52597 527.360901 357.52597 518.144409 L 357.52597 19.018372 C 357.52597 9.801941 350.050079 2.330383 340.827423 2.330383 L 18.984207 2.330383 C 9.761395 2.330383 2.282473 9.801941 2.282473 19.018372 L 2.282473 518.144409 C 2.282473 527.360901 9.761395 534.831787 18.984207 534.831787 Z"/>
            <path id="path23999" fill="#000000" stroke="none" d="M 66.696236 160.257294 C 62.262623 157.519531 58.233913 157.66507 54.765083 158.95697 C 57.380836 155.970947 58.77216 151.887451 57.909523 147.428925 C 56.796467 141.651489 51.886665 137.162445 46.030869 136.554871 C 37.874821 135.707886 30.989328 142.079834 30.989328 150.057526 C 30.989328 153.479462 32.297287 156.569275 34.387375 158.95697 C 30.93079 157.66925 26.917511 157.520386 22.49329 160.231964 C 19.559187 162.028534 17.323679 164.849579 16.501297 168.186371 C 14.281555 177.180359 21.030851 185.222626 29.663086 185.222626 C 34.297638 185.222626 38.38187 182.892914 40.83358 179.352295 C 41.683807 178.610779 42.753757 178.17218 43.922333 178.023651 L 43.922333 181.715851 C 43.922333 188.043671 38.789959 193.172485 32.461163 193.172485 L 32.461163 194.497925 L 56.691299 194.497925 L 56.691299 193.172485 C 50.359482 193.172485 45.230125 188.043671 45.230125 181.715851 L 45.230125 178.023651 C 46.398869 178.169006 47.468655 178.610779 48.31871 179.352295 C 50.770424 182.892914 54.85482 185.222626 59.492393 185.222626 C 68.109032 185.222626 74.852287 177.205017 72.663406 168.22644 C 71.847061 164.889648 69.621117 162.063904 66.696236 160.257294 Z"/>
        </g>
        <g id="g25">
            <path id="path24000" fill="#000000" stroke="none" d="M 191.421082 262.832214 C 190.128723 262.832214 188.904297 263.098114 187.760376 263.524261 C 189.380478 261.676575 190.391388 259.282013 190.391388 256.634308 C 190.391388 250.82901 185.682693 246.120361 179.873367 246.120361 C 174.060837 246.120361 169.35199 250.82901 169.35199 256.634308 C 169.35199 259.282013 170.366074 261.676575 171.983002 263.524261 C 170.839081 263.098114 169.614822 262.832214 168.32547 262.832214 C 162.512955 262.832214 157.80426 267.541046 157.80426 273.346466 C 157.80426 279.15509 162.512955 283.860565 168.32547 283.860565 C 171.91507 283.860565 175.074936 282.059326 176.973145 279.315552 C 177.631821 278.74115 178.460236 278.401001 179.366318 278.286835 L 179.366318 281.147797 C 179.366318 286.045227 175.393463 290.015381 170.492889 290.015381 L 170.492889 291.043762 L 189.250488 291.043762 L 189.250488 290.015381 C 184.350082 290.015381 180.37706 286.045227 180.37706 281.147797 L 180.37706 278.286835 C 181.283142 278.401001 182.111725 278.74115 182.770233 279.315552 C 184.668777 282.056305 187.831497 283.860565 191.421082 283.860565 C 197.230423 283.860565 201.942291 279.15509 201.942291 273.346466 C 201.942291 267.541046 197.230423 262.832214 191.421082 262.832214 Z"/>
            <path id="path24001" fill="#000000" stroke="none" d="M 146.602905 142.771057 C 145.310547 142.771057 144.086273 143.03595 142.942032 143.461945 C 144.562302 141.613098 145.573212 139.221039 145.573212 136.571472 C 145.573212 130.765533 140.864517 126.058044 135.055008 126.058044 C 129.242661 126.058044 124.533638 130.765533 124.533638 136.571472 C 124.533638 139.221039 125.547897 141.613098 127.164986 143.461945 C 126.021065 143.03595 124.796638 142.771057 123.507294 142.771057 C 117.694771 142.771057 112.986084 147.478363 112.986084 153.284485 C 112.986084 159.091614 117.694771 163.79892 123.507294 163.79892 C 127.097054 163.79892 130.256592 161.996155 132.155121 159.253387 C 132.813644 158.679352 133.642059 158.339691 134.548141 158.224182 L 134.548141 161.084808 C 134.548141 165.983246 130.575272 169.9534 125.674538 169.9534 L 125.674538 170.982452 L 144.43248 170.982452 L 144.43248 169.9534 C 139.531906 169.9534 135.559052 165.983246 135.559052 161.084808 L 135.559052 158.224182 C 136.465118 158.338501 137.293549 158.678345 137.951889 159.252533 C 139.850418 161.995331 143.013474 163.79892 146.602905 163.79892 C 152.412079 163.79892 157.124115 159.091614 157.124115 153.284485 C 157.124115 147.478363 152.412079 142.771057 146.602905 142.771057 Z"/>
            <path id="path24002" fill="#000000" stroke="none" d="M 146.602905 373.263428 C 143.013474 373.263428 139.850418 375.064697 137.951889 377.808472 C 137.293549 378.382874 136.46814 378.723022 135.559052 378.837189 L 135.559052 375.976196 C 135.559052 371.079102 139.534927 367.105957 144.43248 367.105957 L 144.43248 366.079895 L 125.674538 366.079895 L 125.674538 367.105957 C 130.575272 367.105957 134.551315 371.079102 134.551315 375.976196 L 134.551315 378.837189 C 133.642059 378.723022 132.813644 378.382874 132.158142 377.808472 C 130.259613 375.067688 127.097054 373.263428 123.507294 373.263428 C 117.694771 373.263428 112.986084 377.968933 112.986084 383.77771 C 112.986084 389.582977 117.694771 394.291809 123.507294 394.291809 C 124.799652 394.291809 126.021065 394.025909 127.164986 393.599731 C 125.547897 395.447266 124.533638 397.841827 124.533638 400.489563 C 124.533638 406.294983 129.245682 411.003662 135.055008 411.003662 C 140.864517 411.003662 145.573212 406.294983 145.573212 400.489563 C 145.573212 397.841827 144.562302 395.447266 142.942032 393.599731 C 144.086273 394.025909 145.310547 394.291809 146.602905 394.291809 C 152.412079 394.291809 157.124115 389.582977 157.124115 383.77771 C 157.124115 377.968933 152.412079 373.263428 146.602905 373.263428 Z"/>
            <path id="path24003" fill="#000000" stroke="none" d="M 213.001587 163.79892 C 216.591187 163.79892 219.754074 161.995819 221.6521 159.253387 C 222.310776 158.679352 223.136353 158.339691 224.042267 158.224182 L 224.042267 161.084808 C 224.042267 165.983246 220.069061 169.9534 215.168655 169.9534 L 215.168655 170.979431 L 233.929626 170.979431 L 233.929626 169.9534 C 229.029388 169.9534 225.053345 165.983246 225.053345 161.084808 L 225.053345 158.224182 C 225.958908 158.338501 226.787674 158.678345 227.44635 159.252533 C 229.344711 161.995331 232.507599 163.79892 236.096863 163.79892 C 241.90654 163.79892 246.61824 159.091614 246.61824 153.284485 C 246.61824 147.478363 241.90654 142.771057 236.096863 142.771057 C 234.804672 142.771057 233.58342 143.03595 232.439499 143.461945 C 234.056427 141.613098 235.070358 139.221039 235.070358 136.571472 C 235.070358 130.765533 230.35881 126.058044 224.549149 126.058044 C 218.739975 126.058044 214.028091 130.765533 214.028091 136.571472 C 214.028091 139.221039 215.042358 141.613098 216.661957 143.461945 C 215.515198 143.03595 214.294113 142.771057 213.001587 142.771057 C 207.192245 142.771057 202.480209 147.478363 202.480209 153.284485 C 202.480209 159.091614 207.192245 163.79892 213.001587 163.79892 Z"/>
            <path id="path24004" fill="#000000" stroke="none" d="M 236.096863 373.263428 C 232.507599 373.263428 229.347733 375.064697 227.44635 377.808472 C 226.790848 378.382874 225.961929 378.723022 225.056183 378.837189 L 225.056183 375.976196 C 225.056183 371.079102 229.029388 367.105957 233.929626 367.105957 L 233.929626 366.079895 L 215.168655 366.079895 L 215.168655 367.105957 C 220.072418 367.105957 224.045273 371.079102 224.045273 375.976196 L 224.045273 378.837189 C 223.139542 378.723022 222.310776 378.382874 221.6521 377.808472 C 219.754074 375.067688 216.591187 373.263428 213.001587 373.263428 C 207.192245 373.263428 202.480209 377.968933 202.480209 383.77771 C 202.480209 389.582977 207.192245 394.291809 213.001587 394.291809 C 214.294113 394.291809 215.518387 394.025909 216.661957 393.599731 C 215.042358 395.447266 214.028091 397.841827 214.028091 400.489563 C 214.028091 406.294983 218.739975 411.003662 224.549149 411.003662 C 230.361664 411.003662 235.070358 406.294983 235.070358 400.489563 C 235.070358 397.841827 234.056427 395.447266 232.439499 393.599731 C 233.58342 394.025909 234.804672 394.291809 236.096863 394.291809 C 241.909546 394.291809 246.61824 389.582977 246.61824 383.77771 C 246.61824 377.968933 241.909546 373.263428 236.096863 373.263428 Z"/>
        </g>
        <path id="path24005" fill="#000000" stroke="none" d="M 272.657013 436.045593 L 272.657013 101.164124 L 87.151268 101.164124 L 87.151268 436.045593 L 272.657013 436.045593 Z M 88.159164 102.160828 L 271.652313 102.161163 L 271.652313 435.047577 L 88.159164 435.047577 L 88.159164 102.160828 Z"/>
        <path id="path24006" fill="#000000" stroke="none" d="M 272.657013 436.045593 L 272.657013 101.164124 L 87.151268 101.164124 L 87.151268 436.045593 L 272.657013 436.045593 Z M 88.159164 102.160828 L 271.652313 102.161163 L 271.652313 435.047577 L 88.159164 435.047577 L 88.159164 102.160828 Z"/>
        <path id="path24007" fill="#000000" stroke="none" d="M 24.453386 116.092499 C 29.935144 120.202148 36.279373 122.286224 43.297707 122.286224 C 53.454105 122.286224 61.171204 119.002747 66.23867 112.526367 C 71.058731 106.365173 73.507423 98.113892 73.507423 88.002319 C 73.507423 78.87738 71.123642 71.366913 66.417969 65.690735 C 61.523941 59.784546 55.123692 56.789124 47.39418 56.789124 C 43.57597 56.789124 39.804054 57.370544 36.177223 58.516083 C 34.823139 58.942932 33.49371 59.582184 32.176689 60.445587 L 33.329834 41.438263 L 69.701462 41.438263 L 72.873573 25.575928 L 22.010899 25.575928 L 19.024294 79.874054 L 22.762329 80.290009 C 23.736004 80.398132 24.706827 80.506287 25.680836 80.615417 L 30.235214 81.121216 L 31.543007 78.685913 C 33.997738 74.128479 36.109459 72.374664 37.442078 71.707916 C 39.600094 70.637146 42.255936 70.093262 45.344517 70.093262 C 49.051521 70.093262 51.521854 71.452423 53.352127 74.50116 C 55.513161 78.104675 56.610786 82.992371 56.610786 89.026154 C 56.610786 96.365601 55.374279 101.978088 52.925587 105.71991 C 50.786022 108.992798 47.885967 110.516754 43.810959 110.516754 C 40.576954 110.516754 37.664486 109.951935 34.897442 108.789612 C 32.544689 107.803802 32.544689 106.908539 32.544689 106.423523 C 32.544689 105.858887 32.934162 105.22464 32.881493 105.22464 C 34.693481 103.412354 35.617844 100.885498 35.617844 97.724762 C 35.617844 96.040527 35.141659 94.270813 34.152386 92.293365 C 33.339062 90.694305 31.255348 88.002319 26.401237 88.002319 C 23.077663 88.002319 20.276402 89.345886 18.310099 91.877899 C 16.544739 94.137177 15.648221 96.792297 15.648221 99.771271 C 15.648221 106.226379 18.613188 111.721985 24.453386 116.092499 Z"/>
        <path id="path24008" fill="#000000" stroke="none" d="M 293.115234 376.906189 C 297.545837 379.643585 301.574371 379.49823 305.043365 378.206818 C 302.427795 381.191681 301.036469 385.276001 301.898926 389.734375 C 303.015167 395.512146 307.921631 400.001343 313.777588 400.607056 C 321.933624 401.453552 328.818787 395.082642 328.818787 387.105103 C 328.818787 383.681824 327.511169 380.59198 325.421082 378.206818 C 328.877655 379.492188 332.890778 379.643585 337.318359 376.930817 C 340.249084 375.135773 342.484436 372.311859 343.306824 368.974915 C 345.526886 359.981079 338.777588 351.938354 330.145355 351.938354 C 325.510803 351.938354 321.426422 354.268005 318.974884 357.812195 C 318.124481 358.553528 317.057892 358.991943 315.885956 359.14032 L 315.885956 355.445099 C 315.885956 349.117767 321.018494 343.988647 327.347137 343.988647 L 327.347137 342.66333 L 303.117157 342.66333 L 303.117157 343.988647 C 309.448975 343.988647 314.581512 349.117767 314.581512 355.445099 L 314.581512 359.14032 C 313.409424 358.991943 312.339966 358.553528 311.489563 357.812195 C 309.037872 354.268005 304.953644 351.938354 300.319244 351.938354 C 291.702271 351.938354 284.956177 359.956268 287.14505 368.934692 C 287.961212 372.274658 290.190521 375.098572 293.115234 376.906189 Z"/>
        <path id="path24009" fill="#000000" stroke="none" d="M 335.354736 421.069946 C 329.873322 416.96048 323.529083 414.875244 316.51059 414.875244 C 306.357361 414.875244 298.640259 418.159363 293.572968 424.635559 C 288.749725 430.799286 286.301208 439.048737 286.301208 449.161316 C 286.301208 458.284912 288.684814 465.796021 293.390472 471.471863 C 298.287689 477.379242 304.687622 480.373169 312.414093 480.373169 C 316.232483 480.373169 320.004242 479.792267 323.631226 478.646027 C 324.988342 478.219696 326.314575 477.580109 327.631775 476.717865 L 326.481476 495.725708 L 290.110168 495.725708 L 286.934875 511.588226 L 337.797546 511.588226 L 340.784149 457.287048 L 337.046295 456.872955 C 336.072449 456.764984 335.101624 456.656677 334.127625 456.548706 L 329.573395 456.042053 L 328.265625 458.476532 C 325.813904 463.033997 323.701996 464.78894 322.369385 465.453033 C 320.208344 466.52533 317.552673 467.068848 314.463928 467.068848 C 310.757111 467.068848 308.286438 465.709351 306.456146 462.659943 C 304.295135 459.057434 303.19751 454.169556 303.19751 448.135284 C 303.19751 440.797363 304.434326 435.183716 306.882874 431.441895 C 309.02243 428.169983 311.925507 426.646729 316.000519 426.646729 C 319.231506 426.646729 322.143799 427.212036 324.911011 428.373871 C 327.263916 429.359497 327.263916 430.255585 327.263916 430.740417 C 327.263916 431.302917 326.874298 431.939301 326.92981 431.939301 C 325.11496 433.750122 324.190613 436.277283 324.190613 439.437866 C 324.190613 441.121918 324.666626 442.892334 325.659241 444.869598 C 326.469238 446.46698 328.553101 449.161316 333.407227 449.161316 C 336.730957 449.161316 339.531891 447.817078 341.501373 445.283539 C 343.26355 443.024933 344.163239 440.371185 344.163239 437.392517 C 344.163239 430.935242 341.195251 425.441803 335.354736 421.069946 Z"/>
    </g>
</svg>
