<?xml version="1.0" encoding="UTF-8"?>
<!-- Generated by Pixelmator Pro 3.7 -->
<svg width="360" height="539" viewBox="0 0 360 539" xmlns="http://www.w3.org/2000/svg">
    <g id="Group-copy">
        <path id="Path" fill="#ffffff" stroke="none" d="M 17.451775 538.515991 L 342.318054 538.515991 C 351.62738 538.515991 359.173706 530.973816 359.173706 521.669312 L 359.173706 17.772827 C 359.173706 8.46814 351.62738 0.925903 342.318054 0.925903 L 17.451775 0.925903 C 8.142329 0.925903 0.596123 8.46814 0.596123 17.772827 L 0.596123 521.669312 C 0.596123 530.973816 8.142329 538.515991 17.451775 538.515991 Z"/>
        <path id="path1" fill="#000000" stroke="none" d="M 273.507355 438.773102 L 273.507355 100.69101 L 86.26223 100.69101 L 86.26223 438.773102 L 273.507355 438.773102 Z M 87.276688 101.698395 L 272.493256 101.698395 L 272.493256 437.768585 L 87.276688 437.768585 L 87.276688 101.698395 Z"/>
        <path id="path2" fill="#000000" stroke="none" d="M 273.507355 438.760529 L 273.507355 100.68158 L 86.26223 100.68158 L 86.26223 438.760529 L 273.507355 438.760529 Z M 87.276688 101.685913 L 272.493256 101.685913 L 272.493256 437.756226 L 87.276688 437.756226 L 87.276688 101.685913 Z"/>
        <path id="path3" fill="#b4171e" stroke="none" d="M 22.972368 115.762878 C 28.508652 119.911377 34.909565 122.016968 41.996735 122.016968 C 52.245491 122.016968 60.035076 118.701355 65.150192 112.163483 C 70.018623 105.943604 72.487 97.612213 72.487 87.406189 C 72.487 78.191986 70.080795 70.609131 65.334236 64.879242 C 60.39077 58.918518 53.930748 55.892853 46.128777 55.892853 C 42.274567 55.892853 38.467072 56.479279 34.809643 57.636383 C 33.439491 58.066895 32.100605 58.712463 30.768089 59.585846 L 31.93202 40.396393 L 68.645409 40.396393 L 71.847343 24.382324 L 20.50683 24.382324 L 17.492239 79.199646 L 21.265165 79.617584 C 22.248243 79.726654 23.231321 79.835724 24.211212 79.94809 L 28.808306 80.456604 L 30.128435 77.998627 C 32.606361 73.397919 34.737797 71.62619 36.082817 70.955444 C 38.264275 69.873016 40.945114 69.324219 44.062698 69.324219 C 47.804714 69.324219 50.29491 70.696686 52.145683 73.775238 C 54.323956 77.412231 55.431732 82.346802 55.431732 88.438538 C 55.431732 95.846771 54.183449 101.514282 51.711777 105.291718 C 49.555328 108.595123 46.625092 110.135956 42.511574 110.135956 C 39.250538 110.135956 36.310627 109.565094 33.514404 108.392242 C 31.139589 107.394104 31.139589 106.492737 31.139589 106.002899 C 31.139589 105.43222 31.53256 104.792694 31.479591 104.792694 C 33.311726 102.961792 34.241478 100.410309 34.241478 97.219269 C 34.241478 95.519135 33.764038 93.731964 32.76244 91.735626 C 31.944645 90.122925 29.8381 87.406189 24.938522 87.406189 C 21.58346 87.406189 18.759163 88.759918 16.771183 91.317688 C 14.989304 93.597961 14.084208 96.277191 14.084208 99.287354 C 14.084208 105.803284 17.077208 111.349243 22.972368 115.762878 Z"/>
        <path id="path4" fill="#b4171e" stroke="none" d="M 336.794281 423.654053 C 331.261292 419.505707 324.857208 417.403412 317.772858 417.403412 C 307.524231 417.403412 299.73465 420.716064 294.619751 427.253906 C 289.751221 433.476685 287.279663 441.804932 287.279663 452.014069 C 287.279663 461.225098 289.685852 468.8078 294.435486 474.537933 C 299.379059 480.501923 305.838837 483.524445 313.637878 483.524445 C 317.49231 483.524445 321.299561 482.938049 324.960297 481.780792 C 326.330231 481.350281 327.669006 480.70459 328.998566 479.834351 L 327.837463 499.023712 L 291.12442 499.023712 L 287.919312 515.037781 L 339.259705 515.037781 L 342.274414 460.220764 L 338.501587 459.799561 C 337.518402 459.690491 336.538269 459.581177 335.555542 459.472107 L 330.958344 458.960541 L 329.638214 461.418549 C 327.163605 466.019531 325.032043 467.791199 323.68689 468.464874 C 321.505554 469.544037 318.824707 470.092957 315.706909 470.092957 C 311.96524 470.092957 309.471741 468.72049 307.624023 465.64502 C 305.442688 462.004944 304.3349 457.070374 304.3349 450.981689 C 304.3349 443.570435 305.583313 437.90271 308.054871 434.125427 C 310.214508 430.822144 313.144745 429.284454 317.258026 429.284454 C 320.519073 429.284454 323.459198 429.855347 326.252136 431.027985 C 328.627167 432.023132 328.627167 432.927643 328.627167 433.417206 C 328.627167 433.985168 328.233856 434.627655 328.286926 434.627655 C 326.458099 436.455597 325.525177 439.00708 325.525177 442.197998 C 325.525177 443.897797 326.005554 445.68515 327.007385 447.681458 C 327.825195 449.297241 329.928436 452.014069 334.828125 452.014069 C 338.183075 452.014069 341.010681 450.657196 342.998535 448.102539 C 344.777344 445.819427 345.682434 443.139954 345.682434 440.133026 C 345.682434 433.613861 342.689453 428.067841 336.794281 423.654053 Z"/>
        <path id="path5" fill="#b4171e" stroke="none" d="M 134.656693 171.250641 C 136.884995 167.420197 140.277206 162.566742 145.395401 157.613434 C 149.421143 153.714355 153.478271 150.754395 156.942215 148.564484 C 153.478271 146.371826 149.421143 143.414703 145.395401 139.512726 C 140.277206 134.559204 136.884995 129.705719 134.656693 125.87558 C 132.428162 129.705719 129.03595 134.559204 123.917992 139.512726 C 119.892014 143.414703 115.835121 146.371826 112.36763 148.564484 C 115.835121 150.754395 119.892014 153.714355 123.917992 157.613434 C 129.03595 162.566742 132.428162 167.420197 134.656693 171.250641 Z"/>
        <path id="path6" fill="#b4171e" stroke="none" d="M 225.113251 171.250641 C 227.341309 167.420197 230.733765 162.566742 235.851715 157.613434 C 239.874634 153.714355 243.93483 150.754395 247.398773 148.564484 C 243.93483 146.371826 239.874634 143.414703 235.851715 139.512726 C 230.733765 134.559204 227.341309 129.705719 225.113251 125.87558 C 222.884964 129.705719 219.492737 134.559204 214.374557 139.512726 C 210.348572 143.414703 206.291687 146.371826 202.824432 148.564484 C 206.291687 150.754395 210.348572 153.714355 214.374557 157.613434 C 219.492737 162.566742 222.884964 167.420197 225.113251 171.250641 Z"/>
        <path id="path7" fill="#b4171e" stroke="none" d="M 179.883209 292.397644 C 182.11174 288.567444 185.503952 283.713928 190.621902 278.757416 C 194.647888 274.858429 198.704773 271.898163 202.172028 269.708466 C 198.704773 267.518768 194.647888 264.558777 190.621902 260.659729 C 185.503952 255.703217 182.11174 250.849915 179.883209 247.022522 C 177.654907 250.849915 174.262695 255.703217 169.147812 260.659729 C 165.121826 264.558777 161.06163 267.518768 157.597687 269.708466 C 161.06163 271.898163 165.121826 274.858429 169.147812 278.757416 C 174.262695 283.713928 177.654907 288.567444 179.883209 292.397644 Z"/>
        <path id="path8" fill="#b4171e" stroke="none" d="M 134.656693 413.54187 C 136.884995 409.714447 140.277206 404.857758 145.395401 399.904663 C 149.421143 396.005615 153.478271 393.045349 156.942215 390.855713 C 153.478271 388.665985 149.421143 385.705994 145.395401 381.806946 C 140.277206 376.850403 136.884995 371.996887 134.656693 368.166565 C 132.428162 371.996887 129.03595 376.850403 123.917992 381.806946 C 119.892014 385.705994 115.835121 388.665985 112.36763 390.855713 C 115.835121 393.045349 119.892014 396.005615 123.917992 399.904663 C 129.03595 404.857758 132.428162 409.714447 134.656693 413.54187 Z"/>
        <path id="path9" fill="#b4171e" stroke="none" d="M 225.113251 413.54187 C 227.341309 409.714447 230.733765 404.857758 235.851715 399.904663 C 239.874634 396.005615 243.93483 393.045349 247.398773 390.855713 C 243.93483 388.665985 239.874634 385.705994 235.851715 381.806946 C 230.733765 376.850403 227.341309 371.996887 225.113251 368.166565 C 222.884964 371.996887 219.492737 376.850403 214.374557 381.806946 C 210.348572 385.705994 206.291687 388.665985 202.824432 390.855713 C 206.291687 393.045349 210.348572 396.005615 214.374557 399.904663 C 219.492737 404.857758 222.884964 409.714447 225.113251 413.54187 Z"/>
        <path id="path10" fill="#b4171e" stroke="none" d="M 44.165688 136.355865 C 41.288303 141.299988 36.909935 147.566528 30.303036 153.963989 C 25.106989 158.995148 19.870241 162.816315 15.395017 165.642303 C 19.870241 168.471283 25.106989 172.29245 30.303036 177.323853 C 36.909935 183.721252 41.288303 189.98761 44.165688 194.931702 C 47.043072 189.98761 51.421562 183.721252 58.025272 177.323853 C 63.221321 172.29245 68.46125 168.471283 72.933289 165.642303 C 68.46125 162.816315 63.221321 158.995148 58.025272 153.963989 C 51.421562 147.566528 47.043072 141.299988 44.165688 136.355865 Z"/>
        <path id="path11" fill="#b4171e" stroke="none" d="M 316.352936 403.085999 C 319.23056 398.142181 323.608795 391.875824 330.215576 385.481445 C 335.411865 380.446777 340.648712 376.625854 345.123718 373.799866 C 340.648712 370.970581 335.411865 367.149658 330.215576 362.118408 C 323.608795 355.720886 319.23056 349.454254 316.352936 344.510437 C 313.475525 349.454254 309.097046 355.720886 302.493591 362.118408 C 297.297302 367.149658 292.057587 370.970581 287.582123 373.799866 C 292.057587 376.625854 297.297302 380.446777 302.493591 385.481445 C 309.097046 391.875824 313.475525 398.142181 316.352936 403.085999 Z"/>
    </g>
</svg>
