<?xml version="1.0" encoding="UTF-8"?>
<!-- Generated by Pixelmator Pro 3.7 -->
<svg width="360" height="538" viewBox="0 0 360 538" xmlns="http://www.w3.org/2000/svg">
    <g id="g324-copy">
        <path id="path27801" fill="#ffffff" stroke="none" d="M 340.418915 2.613464 L 17.345602 2.613464 C 8.084253 2.613464 0.579539 10.11731 0.579539 19.374817 L 0.579539 520.713867 C 0.579539 529.971008 8.084253 537.474976 17.345602 537.474976 L 340.418915 537.474976 C 349.67688 537.474976 357.184143 529.971008 357.184143 520.713867 L 357.184143 19.374817 C 357.184143 10.11731 349.67688 2.613464 340.418915 2.613464 Z"/>
        <path id="path27802" fill="#000000" stroke="none" d="M 271.990173 438.251221 L 271.990173 101.88385 L 85.773674 101.88385 L 85.773674 438.251221 L 271.990173 438.251221 Z M 86.782562 102.886292 L 270.981628 102.886292 L 270.981628 437.248932 L 86.782562 437.248932 L 86.782562 102.886292 Z"/>
        <path id="path27803" fill="#000000" stroke="none" d="M 271.990173 438.251221 L 271.990173 101.88385 L 85.773674 101.88385 L 85.773674 438.251221 L 271.990173 438.251221 Z M 86.782562 102.886292 L 270.981628 102.886292 L 270.981628 437.248932 L 86.782562 437.248932 L 86.782562 102.886292 Z"/>
        <path id="path27804" fill="#000000" stroke="none" d="M 22.835735 116.879211 C 28.338497 121.006714 34.707199 123.101379 41.752426 123.101379 C 51.947567 123.101379 59.694237 119.802521 64.780945 113.297974 C 69.619476 107.109802 72.077553 98.82077 72.077553 88.663544 C 72.077553 79.499359 69.684807 71.954926 64.961105 66.253937 C 60.047985 60.323608 53.62355 57.313202 45.864426 57.313202 C 42.031586 57.313202 38.245216 57.896698 34.60466 59.048004 C 33.24202 59.47641 31.910694 60.118652 30.588631 60.987579 L 31.746363 41.895691 L 68.253975 41.895691 L 71.441269 25.963074 L 20.38389 25.963074 L 17.385843 80.501617 L 21.138201 80.917389 C 22.115604 81.026001 23.090315 81.134613 24.067888 81.246429 L 28.639547 81.752136 L 29.952183 79.306885 C 32.413624 74.729248 34.536301 72.966644 35.874191 72.299469 C 38.040478 71.222595 40.706326 70.676331 43.80674 70.676331 C 47.528118 70.676331 50.007744 72.04184 51.845028 75.104919 C 54.014683 78.723206 55.116344 83.633087 55.116344 89.693787 C 55.116344 97.06424 53.875099 102.703094 51.416859 106.461487 C 49.269093 109.747711 46.358097 111.280762 42.264278 111.280762 C 39.02108 111.280762 36.097622 110.712952 33.319809 109.546143 C 30.957872 108.552948 30.957872 107.656067 30.957872 107.168915 C 30.957872 106.600922 31.348835 105.964539 31.296135 105.964539 C 33.114899 104.143036 34.042801 101.604492 34.042801 98.429749 C 34.042801 96.738403 33.564789 94.960327 32.571896 92.973938 C 31.755455 91.369629 29.663759 88.663544 24.79105 88.663544 C 21.454573 88.663544 18.642916 90.013397 16.668743 92.55835 C 14.896788 94.826782 13.996666 97.492462 13.996666 100.487366 C 13.996666 106.970032 16.972824 112.488159 22.835735 116.879211 Z"/>
        <path id="path27805" fill="#000000" stroke="none" d="M 334.928619 423.209229 C 329.42569 419.081879 323.057312 416.987061 316.011932 416.987061 C 305.819794 416.987061 298.070099 420.285889 292.983215 426.790466 C 288.144714 432.97879 285.686615 441.26767 285.686615 451.422028 C 285.686615 460.589233 288.079193 468.133484 292.803253 473.834473 C 297.716187 479.764923 304.140625 482.775208 311.89975 482.775208 C 315.732758 482.775208 319.518951 482.191803 323.159515 481.040405 C 324.522156 480.612183 325.853485 479.969757 327.175537 479.100861 L 326.017975 498.192749 L 289.510193 498.192749 L 286.322723 514.125488 L 337.380127 514.125488 L 340.37851 459.586792 L 336.625977 459.171204 C 335.648407 459.062408 334.674042 458.953644 333.696106 458.842163 L 329.124786 458.336304 L 327.811646 460.781738 C 325.350708 465.359192 323.230896 467.118744 321.893188 467.789124 C 319.723877 468.865997 317.057861 469.412109 313.957428 469.412109 C 310.236053 469.412109 307.756256 468.0466 305.918976 464.983673 C 303.749481 461.365051 302.647675 456.455505 302.647675 450.394836 C 302.647675 443.0242 303.889069 437.385345 306.347321 433.627289 C 308.494751 430.340546 311.40625 428.807831 315.499908 428.807831 C 318.743256 428.807831 321.666718 429.375671 324.44455 430.54248 C 326.806305 431.532623 326.806305 432.432343 326.806305 432.919678 C 326.806305 433.487671 326.415009 434.123871 326.468048 434.123871 C 324.649292 435.945404 323.721375 438.483948 323.721375 441.658844 C 323.721375 443.35022 324.199219 445.128296 325.195648 447.114502 C 326.008728 448.718964 328.100586 451.422028 332.973297 451.422028 C 336.309448 451.422028 339.121429 450.075043 341.09845 447.530273 C 342.867401 445.26181 343.767517 442.592926 343.767517 439.601074 C 343.767517 433.118225 340.791016 427.597412 334.928619 423.209229 Z"/>
        <path id="path27806" fill="#000000" stroke="none" d="M 132.427429 161.266815 L 133.386322 160.304749 L 133.386322 162.169739 C 133.386322 167.066803 129.416931 171.036041 124.522491 171.036041 L 124.522491 172.063232 L 143.264923 172.063232 L 143.264923 171.036041 C 138.36763 171.036041 134.394699 167.066803 134.394699 162.169739 L 134.394699 160.301575 L 135.357117 161.266815 C 139.89476 165.800659 147.250137 165.800659 151.790649 161.266815 C 156.328293 156.729401 156.328293 149.371429 151.790649 144.834381 L 133.892105 126.940277 L 115.996765 144.834381 C 111.45929 149.371429 111.45929 156.729401 115.996765 161.266815 C 120.534081 165.800659 127.889618 165.800659 132.427429 161.266815 Z"/>
        <path id="path27807" fill="#000000" stroke="none" d="M 178.881836 247.484253 L 160.986664 265.37851 C 156.449356 269.915558 156.449356 277.270538 160.986664 281.807739 C 165.524139 286.344604 172.879684 286.344604 177.41716 281.807739 L 178.376205 280.848572 L 178.376205 282.713867 C 178.376205 287.607758 174.406647 291.580017 169.51239 291.580017 L 169.51239 292.604187 L 188.251785 292.604187 L 188.251785 291.580017 C 183.357361 291.580017 179.384766 287.607758 179.384766 282.713867 L 179.384766 280.845367 L 180.347015 281.807739 C 184.884659 286.344604 192.240204 286.344604 196.777512 281.807739 C 201.315155 277.270538 201.315155 269.915558 196.777512 265.37851 L 178.881836 247.484253 Z"/>
        <path id="path27808" fill="#000000" stroke="none" d="M 133.892105 413.14798 L 151.787781 395.254059 C 156.325256 390.717163 156.325256 383.358826 151.787781 378.82196 C 147.250137 374.287598 139.89476 374.287598 135.357117 378.82196 L 134.398071 379.783813 L 134.398071 377.918884 C 134.398071 373.02179 138.36763 369.052399 143.261887 369.052399 L 143.261887 368.02536 L 124.519463 368.02536 L 124.519463 369.052399 C 129.416931 369.052399 133.386322 373.02179 133.386322 377.918884 L 133.386322 379.787048 L 132.427429 378.82196 C 127.889618 374.287598 120.531052 374.287598 115.993736 378.82196 C 111.456253 383.358826 111.456253 390.717163 115.993736 395.254059 L 133.892105 413.14798 Z"/>
        <path id="path27809" fill="#000000" stroke="none" d="M 222.406891 161.266815 L 223.366104 160.304749 L 223.366104 162.169739 C 223.366104 167.066803 219.396713 171.036041 214.502121 171.036041 L 214.502121 172.063232 L 233.244888 172.063232 L 233.244888 171.036041 C 228.347595 171.036041 224.378036 167.066803 224.378036 162.169739 L 224.378036 160.301575 L 225.336746 161.266815 C 229.87439 165.800659 237.232956 165.800659 241.770615 161.266815 C 246.307922 156.729401 246.307922 149.371429 241.770615 144.834381 L 223.871902 126.940277 L 205.97673 144.834381 C 201.439255 149.371429 201.439255 156.729401 205.97673 161.266815 C 210.514038 165.800659 217.869583 165.800659 222.406891 161.266815 Z"/>
        <path id="path27810" fill="#000000" stroke="none" d="M 223.871902 413.14798 L 241.767578 395.254059 C 246.304886 390.717163 246.304886 383.358826 241.767578 378.82196 C 237.229935 374.287598 229.87439 374.287598 225.336746 378.82196 L 224.378036 379.783813 L 224.378036 377.918884 C 224.378036 373.02179 228.347595 369.052399 233.241852 369.052399 L 233.241852 368.02536 L 214.502121 368.02536 L 214.502121 369.052399 C 219.396713 369.052399 223.368973 373.02179 223.368973 377.918884 L 223.368973 379.787048 L 222.406891 378.82196 C 217.869583 374.287598 210.514038 374.287598 205.97673 378.82196 C 201.43605 383.358826 201.43605 390.717163 205.97673 395.254059 L 223.871902 413.14798 Z"/>
        <path id="path27811" fill="#000000" stroke="none" d="M 43.037277 137.355133 L 19.921537 160.469116 C 14.061827 166.328217 14.061827 175.827515 19.921537 181.68985 C 25.780912 187.549133 35.284214 187.549133 41.143925 181.68985 L 42.385338 180.448456 L 42.385338 182.856812 C 42.385338 189.181366 37.255184 194.308136 30.933123 194.308136 L 30.933123 195.63324 L 55.141098 195.63324 L 55.141098 194.308136 C 48.815834 194.308136 43.685848 189.181366 43.685848 182.856812 L 43.685848 180.445587 L 44.930462 181.68985 C 50.789837 187.549133 60.290108 187.549133 66.152679 181.68985 C 72.01239 175.827515 72.01239 166.328217 66.152679 160.469116 L 43.037277 137.355133 Z"/>
        <path id="path27812" fill="#000000" stroke="none" d="M 314.727234 402.730103 L 337.842651 379.619476 C 343.702362 373.760376 343.702362 364.257874 337.842651 358.398743 C 331.983093 352.53949 322.479797 352.53949 316.620087 358.398743 L 315.378845 359.639984 L 315.378845 357.231628 C 315.378845 350.907227 320.509003 345.780273 326.831055 345.780273 L 326.831055 344.4552 L 302.622925 344.4552 L 302.622925 345.780273 C 308.948181 345.780273 314.078491 350.907227 314.078491 357.231628 L 314.078491 359.639984 L 312.83371 358.398743 C 306.973999 352.53949 297.47406 352.53949 291.611145 358.398743 C 285.75177 364.257874 285.75177 373.760376 291.611145 379.619476 L 314.727234 402.730103 Z"/>
    </g>
</svg>
