<?xml version="1.0" encoding="UTF-8"?>
<!-- Generated by Pixelmator Pro 3.7 -->
<svg width="360" height="538" viewBox="0 0 360 538" xmlns="http://www.w3.org/2000/svg">
    <g id="g16-copy">
        <path id="path23919" fill="#ffffff" stroke="none" d="M 17.60557 537.20166 L 340.678711 537.20166 C 349.93988 537.20166 357.444275 529.697632 357.444275 520.440308 L 357.444275 19.102661 C 357.444275 9.845337 349.93988 2.340698 340.678711 2.340698 L 17.60557 2.340698 C 8.347252 2.340698 0.840012 9.845337 0.840012 19.102661 L 0.840012 520.440308 C 0.840012 529.697632 8.347252 537.20166 17.60557 537.20166 Z"/>
        <path id="path23920" fill="#000000" stroke="none" d="M 45.0788 123.297546 C 52.607925 123.297546 59.308495 120.415314 64.994446 114.731323 C 70.680229 109.046844 73.56041 100.464447 73.56041 89.222778 C 73.56041 81.668427 71.536736 74.754669 67.551689 68.678497 C 63.203461 62.061584 56.158405 58.707672 46.605602 58.707672 C 41.788792 58.707672 37.217133 60.027405 33.014885 62.622681 C 32.400322 63.004425 31.807652 63.412109 31.233332 63.846741 C 32.102303 51.926788 34.234745 46.560394 36.087353 44.160431 C 39.374325 39.917053 43.145035 37.855896 47.623585 37.855896 C 49.985352 37.855896 50.696053 38.248108 50.674503 38.364624 L 50.674503 39.583313 C 50.333042 40.515686 50.165173 41.474548 50.165173 42.433533 C 50.165173 45.251465 50.997105 47.503052 52.617355 49.113586 C 56.158405 52.674103 63.690903 52.286987 66.77903 48.589722 C 68.240837 46.819702 68.985725 44.409302 68.985725 41.416443 C 68.985725 38.195221 67.151466 34.89502 63.37756 31.33432 C 59.733971 27.901947 54.94511 26.158905 49.147362 26.158905 C 37.946358 26.158905 28.952385 30.937439 22.409752 40.366852 C 16.187029 49.325775 13.036773 62.172577 13.036773 78.542206 C 13.036773 92.549591 15.668777 103.505493 20.867289 111.097046 C 26.391602 119.192108 34.541691 123.297546 45.0788 123.297546 Z M 37.968246 74.526825 C 42.965046 71.098816 48.982861 70.357727 53.300106 75.941345 C 55.605972 78.934723 56.775997 83.405945 56.775997 89.222778 C 56.775997 100.740112 54.985184 105.619171 53.48616 107.679993 C 51.543304 110.355621 48.868198 111.600372 45.0788 111.600372 C 41.450363 111.600372 38.328224 109.470367 35.540981 105.094635 C 32.518353 100.342377 30.938511 93.413269 30.842201 84.497131 C 33.126514 79.554749 35.522461 76.200836 37.968246 74.526825 Z"/>
        <path id="path23921" fill="#000000" stroke="none" d="M 145.744034 143.40387 C 144.446732 143.40387 143.217606 143.670258 142.072495 144.098145 C 143.695618 142.241089 144.71376 139.83844 144.71376 137.177124 C 144.71376 131.345123 139.983673 126.616608 134.152069 126.616608 C 128.317276 126.616608 123.590553 131.345123 123.590553 137.177124 C 123.590553 139.83844 124.608368 142.241089 126.231819 144.098145 C 125.083344 143.670258 123.857422 143.40387 122.56028 143.40387 C 116.725487 143.40387 111.998756 148.132202 111.998756 153.963715 C 111.998756 159.796722 116.725487 164.524719 122.56028 164.524719 C 126.16346 164.524719 129.335266 162.713989 131.24411 159.959381 C 131.901947 159.382813 132.733871 159.041473 133.64325 158.925598 L 133.64325 161.798584 C 133.64325 166.71875 129.654999 170.706482 124.735825 170.706482 L 124.735825 171.740082 L 143.568497 171.740082 L 143.568497 170.706482 C 138.646286 170.706482 134.657867 166.71875 134.657867 161.798584 L 134.657867 158.925598 C 135.567413 159.040619 136.399353 159.381958 137.060211 159.958374 C 138.965851 162.713135 142.140854 164.524719 145.744034 164.524719 C 151.575806 164.524719 156.305893 159.796722 156.305893 153.963715 C 156.305893 148.132202 151.575806 143.40387 145.744034 143.40387 Z"/>
        <path id="path23922" fill="#000000" stroke="none" d="M 145.744034 263.947327 C 144.446732 263.947327 143.217606 264.21405 142.072495 264.642303 C 143.695618 262.783539 144.71376 260.381744 144.71376 257.718933 C 144.71376 251.887604 139.983673 247.160919 134.152069 247.160919 C 128.317276 247.160919 123.590553 251.887604 123.590553 257.718933 C 123.590553 260.381744 124.608368 262.783539 126.231819 264.642303 C 125.083344 264.21405 123.857422 263.947327 122.56028 263.947327 C 116.725487 263.947327 111.998756 268.676697 111.998756 274.508026 C 111.998756 280.339172 116.725487 285.068695 122.56028 285.068695 C 126.16346 285.068695 129.335266 283.256439 131.24411 280.503693 C 131.901947 279.92627 132.733871 279.585114 133.64325 279.467072 L 133.64325 282.340881 C 133.64325 287.262695 129.654999 291.25061 124.735825 291.25061 L 124.735825 292.280884 L 143.568497 292.280884 L 143.568497 291.25061 C 138.646286 291.25061 134.657867 287.262695 134.657867 282.340881 L 134.657867 279.467072 C 135.567413 279.582062 136.399353 279.923248 137.060211 280.500671 C 138.965851 283.256439 142.140854 285.068695 145.744034 285.068695 C 151.575806 285.068695 156.305893 280.339172 156.305893 274.508026 C 156.305893 268.676697 151.575806 263.947327 145.744034 263.947327 Z"/>
        <path id="path23923" fill="#000000" stroke="none" d="M 145.744034 374.917419 C 142.140854 374.917419 138.965851 376.726624 137.060211 379.482574 C 136.399353 380.059509 135.57045 380.401184 134.66124 380.515839 L 134.66124 377.642212 C 134.66124 372.723389 138.649307 368.735291 143.568497 368.735291 L 143.568497 367.702026 L 124.735825 367.702026 L 124.735825 368.735291 C 129.654999 368.735291 133.646118 372.723389 133.646118 377.642212 L 133.646118 380.515839 C 132.736908 380.401184 131.905136 380.059509 131.24411 379.482574 C 129.33847 376.729675 126.16346 374.917419 122.56028 374.917419 C 116.728516 374.917419 111.998756 379.643738 111.998756 385.478271 C 111.998756 391.309265 116.728516 396.03894 122.56028 396.03894 C 123.857422 396.03894 125.086372 395.771881 126.231819 395.343811 C 124.608368 397.199524 123.590553 399.604706 123.590553 402.26416 C 123.590553 408.095337 128.320313 412.824829 134.152069 412.824829 C 139.983673 412.824829 144.71376 408.095337 144.71376 402.26416 C 144.71376 399.604706 143.695618 397.199524 142.072495 395.343811 C 143.220642 395.771881 144.446732 396.03894 145.744034 396.03894 C 151.575806 396.03894 156.305893 391.309265 156.305893 385.478271 C 156.305893 379.643738 151.575806 374.917419 145.744034 374.917419 Z"/>
        <path id="path23924" fill="#000000" stroke="none" d="M 235.723999 143.40387 C 234.426697 143.40387 233.197571 143.670258 232.05246 144.098145 C 233.675583 142.241089 234.69339 139.83844 234.69339 137.177124 C 234.69339 131.345123 229.963638 126.616608 224.131699 126.616608 C 218.300278 126.616608 213.570511 131.345123 213.570511 137.177124 C 213.570511 139.83844 214.588333 142.241089 216.211609 144.098145 C 215.063141 143.670258 213.837219 143.40387 212.539902 143.40387 C 206.708481 143.40387 201.978378 148.132202 201.978378 153.963715 C 201.978378 159.796722 206.708481 164.524719 212.539902 164.524719 C 216.143417 164.524719 219.318085 162.713989 221.22374 159.959381 C 221.881897 159.382813 222.713501 159.041473 223.623047 158.925598 L 223.623047 161.798584 C 223.623047 166.71875 219.634628 170.706482 214.715622 170.706482 L 214.715622 171.740082 L 233.548126 171.740082 L 233.548126 170.706482 C 228.625916 170.706482 224.637833 166.71875 224.637833 161.798584 L 224.637833 158.925598 C 225.547379 159.040619 226.378799 159.381958 227.040009 159.958374 C 228.94548 162.713135 232.120819 164.524719 235.723999 164.524719 C 241.555771 164.524719 246.285522 159.796722 246.285522 153.963715 C 246.285522 148.132202 241.555771 143.40387 235.723999 143.40387 Z"/>
        <path id="path23925" fill="#000000" stroke="none" d="M 235.723999 263.947327 C 234.426697 263.947327 233.197571 264.21405 232.05246 264.642303 C 233.675583 262.783539 234.69339 260.381744 234.69339 257.718933 C 234.69339 251.887604 229.963638 247.160919 224.131699 247.160919 C 218.300278 247.160919 213.570511 251.887604 213.570511 257.718933 C 213.570511 260.381744 214.588333 262.783539 216.211609 264.642303 C 215.063141 264.21405 213.837219 263.947327 212.539902 263.947327 C 206.708481 263.947327 201.978378 268.676697 201.978378 274.508026 C 201.978378 280.339172 206.708481 285.068695 212.539902 285.068695 C 216.143417 285.068695 219.318085 283.256439 221.22374 280.503693 C 221.881897 279.92627 222.713501 279.585114 223.623047 279.467072 L 223.623047 282.340881 C 223.623047 287.262695 219.634628 291.25061 214.715622 291.25061 L 214.715622 292.280884 L 233.548126 292.280884 L 233.548126 291.25061 C 228.625916 291.25061 224.637833 287.262695 224.637833 282.340881 L 224.637833 279.467072 C 225.547379 279.582062 226.378799 279.923248 227.040009 280.500671 C 228.94548 283.256439 232.120819 285.068695 235.723999 285.068695 C 241.555771 285.068695 246.285522 280.339172 246.285522 274.508026 C 246.285522 268.676697 241.555771 263.947327 235.723999 263.947327 Z"/>
        <path id="path23926" fill="#000000" stroke="none" d="M 235.723999 374.917419 C 232.120819 374.917419 228.948517 376.726624 227.040009 379.482574 C 226.382004 380.059509 225.550415 380.401184 224.641205 380.515839 L 224.641205 377.642212 C 224.641205 372.723389 228.628937 368.735291 233.548126 368.735291 L 233.548126 367.702026 L 214.715622 367.702026 L 214.715622 368.735291 C 219.637833 368.735291 223.626083 372.723389 223.626083 377.642212 L 223.626083 380.515839 C 222.716858 380.401184 221.884766 380.059509 221.22374 379.482574 C 219.318085 376.729675 216.143417 374.917419 212.539902 374.917419 C 206.708481 374.917419 201.978378 379.643738 201.978378 385.478271 C 201.978378 391.309265 206.708481 396.03894 212.539902 396.03894 C 213.837219 396.03894 215.066345 395.771881 216.211609 395.343811 C 214.588333 397.199524 213.570511 399.604706 213.570511 402.26416 C 213.570511 408.095337 218.300278 412.824829 224.131699 412.824829 C 229.96666 412.824829 234.69339 408.095337 234.69339 402.26416 C 234.69339 399.604706 233.675583 397.199524 232.05246 395.343811 C 233.200592 395.771881 234.426697 396.03894 235.723999 396.03894 C 241.555771 396.03894 246.285522 391.309265 246.285522 385.478271 C 246.285522 379.643738 241.555771 374.917419 235.723999 374.917419 Z"/>
        <path id="path23927" fill="#000000" stroke="none" d="M 58.780979 158.765625 C 57.104996 158.765625 55.51926 159.109009 54.035728 159.661835 C 56.136852 157.263733 57.44949 154.160217 57.44949 150.723114 C 57.44949 143.190826 51.341595 137.084167 43.809097 137.084167 C 36.276939 137.084167 30.168879 143.190826 30.168879 150.723114 C 30.168879 154.160217 31.484713 157.263733 33.579605 159.661835 C 32.099442 159.109009 30.513201 158.765625 28.837385 158.765625 C 21.305058 158.765625 15.196828 164.872284 15.196828 172.404083 C 15.196828 179.935852 21.305058 186.043335 28.837385 186.043335 C 33.489529 186.043335 37.589573 183.703339 40.05051 180.147003 C 40.904163 179.402222 41.978214 178.9617 43.154465 178.8125 L 43.154465 182.521027 C 43.154465 188.876923 38.002594 194.028442 31.649212 194.028442 L 31.649212 195.359772 L 55.968987 195.359772 L 55.968987 194.028442 C 49.616112 194.028442 44.464237 188.876923 44.464237 182.521027 L 44.464237 178.8125 C 45.636955 178.9617 46.711174 179.402222 47.564655 180.147003 C 50.025593 183.703339 54.125641 186.043335 58.780979 186.043335 C 66.313309 186.043335 72.421371 179.935852 72.421371 172.404083 C 72.421371 164.872284 66.313309 158.765625 58.780979 158.765625 Z"/>
        <path id="path23928" fill="#000000" stroke="none" d="M 313.205475 416.244751 C 305.676361 416.244751 298.975464 419.127838 293.289673 424.813171 C 287.603729 430.495667 284.723694 439.079559 284.723694 450.319702 C 284.723694 457.876404 286.747192 464.787476 290.732239 470.864166 C 295.080322 477.480377 302.128723 480.835144 311.67868 480.835144 C 316.495483 480.835144 321.066803 479.516266 325.269226 476.921997 C 325.883789 476.54007 326.476471 476.130371 327.050598 475.696075 C 326.181641 487.616058 324.04953 492.981781 322.196747 495.383575 C 318.909943 499.626099 315.138916 501.686768 310.663727 501.686768 C 308.298767 501.686768 307.588074 501.295746 307.609772 501.177521 L 307.609772 499.961212 C 307.95108 499.02713 308.118774 498.067963 308.118774 497.109283 C 308.118774 494.291382 307.287018 492.04129 305.666931 490.430756 C 302.128723 486.868042 294.593201 487.256012 291.504913 490.955139 C 290.043427 492.724121 289.301422 495.132507 289.301422 498.127075 C 289.301422 501.34845 291.132813 504.647461 294.906708 508.209839 C 298.550323 511.642242 303.342041 513.38324 309.136597 513.38324 C 320.337585 513.38324 329.33493 508.607269 335.87738 499.176147 C 342.096924 490.216888 345.247009 477.371765 345.247009 461.001831 C 345.247009 446.993256 342.615509 436.038177 337.416656 428.447296 C 331.892334 420.350555 323.742249 416.244751 313.205475 416.244751 Z M 320.31604 465.017334 C 315.319244 468.443176 309.301086 469.18512 304.984161 463.602173 C 302.678131 460.607605 301.507935 456.13858 301.507935 450.319702 C 301.507935 438.803223 303.298584 433.924835 304.797791 431.864014 C 306.740631 429.189087 309.419128 427.944641 313.205475 427.944641 C 316.833588 427.944641 319.955872 430.073303 322.74295 434.449219 C 325.76593 439.20047 327.345276 446.130219 327.441742 455.046204 C 325.15744 459.989746 322.764526 463.341492 320.31604 465.017334 Z"/>
        <path id="path23929" fill="#000000" stroke="none" d="M 299.50296 380.77652 C 301.179108 380.77652 302.765015 380.435181 304.248566 379.88269 C 302.150452 382.278442 300.834625 385.381958 300.834625 388.820374 C 300.834625 396.352478 306.942169 402.459839 314.474854 402.459839 C 322.007507 402.459839 328.115417 396.352478 328.115417 388.820374 C 328.115417 385.381958 326.802429 382.278442 324.704346 379.88269 C 326.184845 380.435181 327.770752 380.77652 329.446564 380.77652 C 336.979218 380.77652 343.086945 374.672058 343.086945 367.140442 C 343.086945 359.605469 336.979218 353.50116 329.446564 353.50116 C 324.794403 353.50116 320.69455 355.83783 318.233276 359.394287 C 317.379791 360.142303 316.306061 360.582642 315.132843 360.731689 L 315.132843 357.020111 C 315.132843 350.667786 320.281677 345.512878 326.634888 345.512878 L 326.634888 344.181702 L 302.314972 344.181702 L 302.314972 345.512878 C 308.671204 345.512878 313.820038 350.667786 313.820038 357.020111 L 313.820038 360.731689 C 312.64682 360.582642 311.572937 360.142303 310.719635 359.397644 C 308.258362 355.841003 304.158295 353.50116 299.50296 353.50116 C 291.970459 353.50116 285.862915 359.605469 285.862915 367.140442 C 285.862915 374.672058 291.970459 380.77652 299.50296 380.77652 Z"/>
        <path id="path23930" fill="#000000" stroke="none" d="M 272.250305 437.903137 L 272.250305 101.5383 L 86.033806 101.5383 L 86.030777 437.903137 L 272.250305 437.903137 Z M 87.042534 102.539398 L 271.238708 102.539734 L 271.238708 436.901031 L 87.042534 436.901031 L 87.042534 102.539398 Z"/>
    </g>
</svg>
