<?xml version="1.0" encoding="UTF-8"?>
<!-- Generated by Pixelmator Pro 3.7 -->
<svg width="360" height="538" viewBox="0 0 360 538" xmlns="http://www.w3.org/2000/svg">
    <g id="g325-copy">
        <path id="path27813" fill="#ffffff" stroke="none" d="M 340.365204 2.831055 L 17.30755 2.831055 C 8.049569 2.831055 0.544686 10.334961 0.544686 19.592285 L 0.544686 520.903564 C 0.544686 530.160889 8.049569 537.664917 17.30755 537.664917 L 340.365204 537.664917 C 349.623352 537.664917 357.127716 530.160889 357.127716 520.903564 L 357.127716 19.592285 C 357.127716 10.334961 349.623352 2.831055 340.365204 2.831055 Z"/>
        <path id="path27814" fill="#b4171e" stroke="none" d="M 44.780609 123.781525 C 52.306877 123.781525 59.010811 120.898438 64.693222 115.216309 C 70.379173 109.530975 73.259361 100.950104 73.259361 89.709778 C 73.259361 82.152893 71.235855 75.241669 67.25367 69.165649 C 62.90258 62.549194 55.857353 59.194427 46.304554 59.194427 C 41.490772 59.194427 36.916084 60.513367 32.716866 63.11087 C 32.102303 63.492432 31.506599 63.899109 30.93548 64.333405 C 31.804283 52.413605 33.933525 47.047791 35.789501 44.648773 C 39.072941 40.406586 42.843987 38.342834 47.322536 38.342834 C 49.684471 38.342834 50.395004 38.736938 50.373451 38.851959 L 50.373451 40.071381 C 50.035023 41.002441 49.86446 41.961456 49.86446 42.920288 C 49.86446 45.73819 50.696053 47.991241 52.319336 49.601929 C 55.857353 53.161377 63.390018 52.773468 66.477974 49.077454 C 67.939789 47.308472 68.684669 44.897064 68.684669 41.90564 C 68.684669 38.684326 66.850418 35.382111 63.07634 31.822662 C 59.432751 28.390381 54.644058 26.646301 48.84631 26.646301 C 37.648506 26.646301 28.651165 31.425446 22.108702 40.856445 C 15.889009 49.812744 12.738921 62.660919 12.738921 79.027832 C 12.738921 93.036407 15.370925 103.991486 20.566069 111.582367 C 26.093918 119.675903 34.240807 123.781525 44.780609 123.781525 Z M 37.670223 75.011963 C 42.663994 71.585999 48.681808 70.844391 53.002087 76.42749 C 55.304924 79.422058 56.474945 83.8909 56.474945 89.709778 C 56.474945 101.226257 54.687164 106.104828 53.185108 108.165466 C 51.242256 110.840576 48.567146 112.085175 44.780609 112.085175 C 41.149651 112.085175 38.030205 109.955994 35.243298 105.580444 C 32.2173 100.825836 30.640659 93.899078 30.541487 84.983276 C 32.828495 80.039551 35.221409 76.687836 37.670223 75.011963 Z"/>
        <path id="path27815" fill="#b4171e" stroke="none" d="M 312.891968 416.714233 C 305.362518 416.714233 298.661926 419.597168 292.976166 425.279785 C 287.293579 430.964966 284.41037 439.545837 284.41037 450.786011 C 284.41037 458.339996 286.433868 465.253937 290.418732 471.330292 C 294.767151 477.946838 301.815399 481.301605 311.365173 481.301605 C 316.181976 481.301605 320.753632 479.979523 324.952698 477.385071 C 325.570282 477.003174 326.163116 476.596985 326.73407 476.162354 C 325.865112 488.082153 323.736023 493.448212 321.88324 495.847168 C 318.596436 500.089355 314.825409 502.149841 310.347015 502.149841 C 307.98526 502.149841 307.274536 501.759003 307.296265 501.643982 L 307.296265 500.424469 C 307.637573 499.490387 307.805084 498.531372 307.805084 497.572357 C 307.805084 494.754639 306.973511 492.504883 305.353241 490.894012 C 301.815399 487.334503 294.279694 487.719452 291.191742 491.418579 C 289.729919 493.187378 288.988068 495.598785 288.988068 498.590637 C 288.988068 501.811707 290.822174 505.110535 294.593201 508.673279 C 298.236786 512.105652 303.02887 513.84668 308.823242 513.84668 C 320.024078 513.84668 329.018372 509.070496 335.560852 499.639404 C 341.780365 490.683197 344.933655 477.835022 344.933655 461.468109 C 344.933655 447.459351 342.298798 436.504303 337.103485 428.913757 C 331.579163 420.820038 323.428741 416.714233 312.891968 416.714233 Z M 320.002197 465.480591 C 315.005402 468.90979 308.987732 469.651733 304.670319 464.068787 C 302.364471 461.07373 301.194611 456.605042 301.194611 450.786011 C 301.194611 439.269653 302.985413 434.39093 304.484283 432.330475 C 306.42746 429.655365 309.102417 428.410919 312.891968 428.410919 C 316.520416 428.410919 319.642365 430.539764 322.426422 434.915497 C 325.452423 439.666748 327.032104 446.59668 327.128235 455.512665 C 324.843933 460.453186 322.447968 463.807922 320.002197 465.480591 Z"/>
        <path id="path27816" fill="#000000" stroke="none" d="M 271.936798 438.369781 L 271.936798 102.023773 L 85.729729 102.023773 L 85.729729 438.369781 L 271.936798 438.369781 Z M 86.741142 103.023376 L 270.928253 103.023376 L 270.928253 437.370361 L 86.741142 437.370361 L 86.741142 103.023376 Z"/>
        <path id="path27817" fill="#b4171e" stroke="none" d="M 56.192585 137.566803 C 51.329136 137.566803 46.748047 139.403992 43.241344 142.749298 C 39.737339 139.403992 35.15625 137.566803 30.296 137.566803 C 25.277647 137.566803 20.563038 139.521851 17.018959 143.065887 C 13.471511 146.609924 11.519228 151.326996 11.519228 156.342102 C 11.519228 161.357056 13.471511 166.070923 17.018959 169.618317 L 43.244377 195.841705 L 69.466766 169.618317 C 73.014046 166.070923 74.966156 161.357056 74.966156 156.342102 C 74.966156 151.326996 73.014046 146.609924 69.466766 143.065887 C 65.922348 139.521851 61.204708 137.566803 56.192585 137.566803 Z"/>
        <path id="path27818" fill="#b4171e" stroke="none" d="M 301.480164 402.929138 C 306.343445 402.929138 310.921173 401.09198 314.428375 397.746643 C 317.935242 401.09198 322.513306 402.929138 327.37674 402.929138 C 332.392059 402.929138 337.106506 400.974091 340.650757 397.426849 C 344.198029 393.886047 346.153351 389.168793 346.153351 384.153839 C 346.153351 379.138885 344.198029 374.425018 340.650757 370.877625 L 314.428375 344.654236 L 288.205811 370.877625 C 284.658386 374.425018 282.7034 379.138885 282.7034 384.153839 C 282.7034 389.168793 284.658386 393.886047 288.205811 397.426849 C 291.750244 400.974091 296.464508 402.929138 301.480164 402.929138 Z"/>
        <path id="path27819" fill="#b4171e" stroke="none" d="M 135.30072 130.553162 L 133.835709 132.017853 L 132.370865 130.553162 C 127.836243 126.019318 120.48407 126.019318 115.949455 130.553162 C 111.414841 135.087372 111.414841 142.439117 115.949455 146.973145 L 133.835709 164.854431 L 151.721786 146.973145 C 156.25589 142.439117 156.25589 135.087372 151.721786 130.553162 C 147.1875 126.019318 139.834824 126.019318 135.30072 130.553162 Z"/>
        <path id="path27820" fill="#b4171e" stroke="none" d="M 151.721786 254.796265 C 147.1875 250.262238 139.834824 250.262238 135.30072 254.796265 L 133.835709 256.261292 L 132.370865 254.796265 C 127.836243 250.262238 120.48407 250.262238 115.949455 254.796265 C 111.414841 259.330444 111.414841 266.682037 115.949455 271.216064 L 133.835709 289.101074 L 151.721786 271.216064 C 156.25589 266.682037 156.25589 259.330444 151.721786 254.796265 L 151.721786 254.796265 Z"/>
        <path id="path27821" fill="#b4171e" stroke="none" d="M 241.676651 254.796265 C 237.142212 250.262238 229.789871 250.262238 225.255417 254.796265 L 223.790573 256.261292 L 222.325729 254.796265 C 217.79129 250.262238 210.438614 250.262238 205.904495 254.796265 C 201.369888 259.330444 201.369888 266.682037 205.904495 271.216064 L 223.790573 289.101074 L 241.676651 271.216064 C 246.210938 266.682037 246.210938 259.330444 241.676651 254.796265 L 241.676651 254.796265 Z"/>
        <path id="path27822" fill="#b4171e" stroke="none" d="M 133.835709 375.638123 L 115.949455 393.522949 C 111.414841 398.056824 111.414841 405.408569 115.949455 409.942932 C 120.48407 414.476959 127.836243 414.476959 132.370865 409.942932 L 133.835709 408.478088 L 135.30072 409.942932 C 139.834824 414.476959 147.1875 414.476959 151.721786 409.942932 L 151.721786 409.942932 C 156.25589 405.408569 156.25589 398.056824 151.721786 393.522949 L 133.835709 375.638123 Z"/>
        <path id="path27823" fill="#b4171e" stroke="none" d="M 225.255417 130.553162 L 223.790573 132.017853 L 222.325729 130.553162 C 217.79129 126.019318 210.438614 126.019318 205.904495 130.553162 C 201.369888 135.087372 201.369888 142.439117 205.904495 146.973145 L 223.790573 164.854431 L 241.676651 146.973145 C 246.210938 142.439117 246.210938 135.087372 241.676651 130.553162 C 237.142212 126.019318 229.789871 126.019318 225.255417 130.553162 Z"/>
        <path id="path27824" fill="#b4171e" stroke="none" d="M 223.790573 375.638123 L 205.904495 393.522949 C 201.369888 398.056824 201.369888 405.408569 205.904495 409.942932 C 210.438614 414.476959 217.79129 414.476959 222.325729 409.942932 L 223.790573 408.478088 L 225.255417 409.942932 C 229.789871 414.476959 237.142212 414.476959 241.676651 409.942932 L 241.676651 409.942932 C 246.210938 405.408569 246.210938 398.056824 241.676651 393.522949 L 223.790573 375.638123 Z"/>
    </g>
</svg>
