<?xml version="1.0" encoding="UTF-8"?>
<!-- Generated by Pixelmator Pro 3.7 -->
<svg width="360" height="538" viewBox="0 0 360 538" xmlns="http://www.w3.org/2000/svg">
    <g id="g316-copy">
        <path id="path27703" fill="#ffffff" stroke="none" d="M 340.383728 2.613464 L 17.30755 2.613464 C 8.049569 2.613464 0.544686 10.11731 0.544686 19.374817 L 0.544686 520.713867 C 0.544686 529.971008 8.049569 537.474976 17.30755 537.474976 L 340.383728 537.474976 C 349.641876 537.474976 357.146576 529.971008 357.146576 520.713867 L 357.146576 19.374817 C 357.146576 10.11731 349.641876 2.613464 340.383728 2.613464 Z"/>
        <path id="path27704" fill="#000000" stroke="none" d="M 44.78381 123.57019 C 52.312939 123.57019 59.013672 120.686951 64.699623 115.004822 C 70.38221 109.319489 73.265427 100.73877 73.265427 89.495087 C 73.265427 81.941559 71.241753 75.027283 67.257034 68.950775 C 62.90881 62.334564 55.860386 58.979645 46.307415 58.979645 C 41.493805 58.979645 36.922146 60.298676 32.720062 62.896332 C 32.105503 63.278076 31.512661 63.684418 30.938511 64.118866 C 31.807652 52.198914 33.936558 46.833344 35.792362 44.434418 C 39.07597 40.189026 42.850384 38.128387 47.325733 38.128387 C 49.690361 38.128387 50.401234 38.519379 50.379681 38.637268 L 50.379681 39.856934 C 50.038387 40.787659 49.870522 41.746826 49.870522 42.705841 C 49.870522 45.523743 50.702282 47.77652 52.322365 49.387238 C 55.860386 52.946899 63.395912 52.558929 66.484039 48.862671 C 67.945854 47.09082 68.687698 44.682617 68.687698 41.687897 C 68.687698 38.466339 66.856644 35.167664 63.082569 31.608154 C 59.43898 28.175934 54.647091 26.431854 48.852707 26.431854 C 37.651535 26.431854 28.654364 31.210724 22.1119 40.638977 C 15.892208 49.598236 12.738921 62.446198 12.738921 78.813477 C 12.738921 92.821869 15.373956 103.776764 20.569437 111.37085 C 26.096781 119.464386 34.247036 123.57019 44.78381 123.57019 Z M 37.673592 74.800812 C 42.670395 71.37146 48.688206 70.629669 53.005119 76.212799 C 55.311153 79.20752 56.481346 83.679565 56.481346 89.495087 C 56.481346 101.011749 54.690361 105.890289 53.191505 107.953979 C 51.248653 110.629089 48.570179 111.873688 44.78381 111.873688 C 41.155544 111.873688 38.033573 109.744507 35.24633 105.368927 C 32.223362 100.614655 30.64369 93.684723 30.547213 84.768585 C 32.831863 79.828064 35.224442 76.47348 37.673592 74.800812 Z"/>
        <path id="path27705" fill="#000000" stroke="none" d="M 312.910675 416.518555 C 305.381378 416.518555 298.68045 419.401306 292.995026 425.083801 C 287.309052 430.768951 284.42569 439.352844 284.42569 450.593506 C 284.42569 458.146851 286.452393 465.06131 290.434235 471.137634 C 294.785675 477.753937 301.830872 481.108704 311.383698 481.108704 C 316.2005 481.108704 320.772003 479.789825 324.974396 477.192261 C 325.588806 476.810669 326.181641 476.404022 326.755615 475.969543 C 325.883789 487.889618 323.7547 493.25531 321.901764 495.654175 C 318.61496 499.899597 314.844269 501.960236 310.365692 501.960236 C 308.003784 501.960236 307.29306 501.569214 307.314789 501.451263 L 307.314789 500.231659 C 307.653229 499.30069 307.823792 498.341766 307.823792 497.382843 C 307.823792 494.564941 306.992188 492.31189 305.372284 490.701294 C 301.830872 487.141693 294.298218 487.529572 291.210266 491.225677 C 289.748444 492.997681 289.003571 495.405975 289.003571 498.400635 C 289.003571 501.622009 290.83783 504.920837 294.611725 508.480469 C 298.25531 511.912659 303.044342 513.656799 308.841766 513.656799 C 320.042938 513.656799 329.036896 508.877625 335.579376 499.449646 C 341.801941 490.490204 344.952362 477.642303 344.952362 461.274963 C 344.952362 447.266388 342.320526 436.311646 337.122009 428.717743 C 331.597351 420.624207 323.447449 416.518555 312.910675 416.518555 Z M 320.021057 465.287781 C 315.024231 468.71698 309.006256 469.45874 304.686157 463.875793 C 302.383331 460.881073 301.213287 456.40918 301.213287 450.593506 C 301.213287 439.076691 303.003937 434.198303 304.503143 432.134277 C 306.445984 429.459351 309.121094 428.215088 312.910675 428.215088 C 316.53894 428.215088 319.661072 430.343933 322.447968 434.722839 C 325.470947 439.473938 327.050598 446.40387 327.146759 455.319672 C 324.862762 460.260376 322.466827 463.61496 320.021057 465.287781 Z"/>
        <path id="path27706" fill="#000000" stroke="none" d="M 271.952454 438.176788 L 271.952454 101.812439 L 85.735954 101.812439 L 85.735954 438.176788 L 271.952454 438.176788 Z M 86.747543 102.811707 L 270.943726 102.811707 L 270.943726 437.174347 L 86.747543 437.174347 L 86.747543 102.811707 Z"/>
        <path id="path27707" fill="#000000" stroke="none" d="M 133.857254 126.940277 L 115.961914 144.834381 C 111.421402 149.371429 111.421402 156.729401 115.961914 161.266815 C 120.499222 165.800659 127.854759 165.800659 132.39241 161.266815 L 133.351456 160.304749 L 133.351456 162.169739 C 133.351456 167.066803 129.381897 171.036041 124.48764 171.036041 L 124.48764 172.063232 L 143.227203 172.063232 L 143.227203 171.036041 C 138.332779 171.036041 134.360184 167.066803 134.360184 162.169739 L 134.360184 160.301575 L 135.322266 161.266815 C 139.859573 165.800659 147.215118 165.800659 151.752762 161.266815 C 156.29007 156.729401 156.29007 149.371429 151.752762 144.834381 L 133.857254 126.940277 Z"/>
        <path id="path27708" fill="#000000" stroke="none" d="M 135.322266 378.82196 L 134.36322 379.783813 L 134.36322 377.918884 C 134.36322 373.02179 138.332779 369.052399 143.227203 369.052399 L 143.227203 368.02536 L 124.484276 368.02536 L 124.484276 369.052399 C 129.381897 369.052399 133.351456 373.02179 133.351456 377.918884 L 133.351456 379.787048 L 132.389206 378.82196 C 127.852066 374.287598 120.496193 374.287598 115.958885 378.82196 C 111.421402 383.358826 111.421402 390.717163 115.958885 395.254059 L 133.857254 413.14798 L 151.752762 395.254059 C 156.29007 390.717163 156.29007 383.358826 151.752762 378.82196 C 147.215118 374.287598 139.859573 374.287598 135.322266 378.82196 Z"/>
        <path id="path27709" fill="#000000" stroke="none" d="M 223.837051 126.940277 L 205.941544 144.834381 C 201.404236 149.371429 201.404236 156.729401 205.941544 161.266815 C 210.479187 165.800659 217.834732 165.800659 222.37204 161.266815 L 223.331421 160.304749 L 223.331421 162.169739 C 223.331421 167.066803 219.361862 171.036041 214.46727 171.036041 L 214.46727 172.063232 L 233.210022 172.063232 L 233.210022 171.036041 C 228.312393 171.036041 224.339813 167.066803 224.339813 162.169739 L 224.339813 160.301575 L 225.301895 161.266815 C 229.839539 165.800659 237.198273 165.800659 241.735748 161.266815 C 246.273071 156.729401 246.273071 149.371429 241.735748 144.834381 L 223.837051 126.940277 Z"/>
        <path id="path27710" fill="#000000" stroke="none" d="M 133.857254 247.484253 L 115.961914 265.37851 C 111.421402 269.915558 111.421402 277.270538 115.961914 281.807739 C 120.499222 286.344604 127.854759 286.344604 132.39241 281.807739 L 133.351456 280.848572 L 133.351456 282.713867 C 133.351456 287.607758 129.381897 291.580017 124.48764 291.580017 L 124.48764 292.604187 L 143.227203 292.604187 L 143.227203 291.580017 C 138.332779 291.580017 134.360184 287.607758 134.360184 282.713867 L 134.360184 280.845367 L 135.322266 281.807739 C 139.859573 286.344604 147.215118 286.344604 151.752762 281.807739 C 156.29007 277.270538 156.29007 269.915558 151.752762 265.37851 L 133.857254 247.484253 Z"/>
        <path id="path27711" fill="#000000" stroke="none" d="M 223.837051 247.484253 L 205.941544 265.37851 C 201.404236 269.915558 201.404236 277.270538 205.941544 281.807739 C 210.479187 286.344604 217.834732 286.344604 222.37204 281.807739 L 223.331421 280.848572 L 223.331421 282.713867 C 223.331421 287.607758 219.361862 291.580017 214.46727 291.580017 L 214.46727 292.604187 L 233.210022 292.604187 L 233.210022 291.580017 C 228.312393 291.580017 224.339813 287.607758 224.339813 282.713867 L 224.339813 280.845367 L 225.301895 281.807739 C 229.839539 286.344604 237.198273 286.344604 241.735748 281.807739 C 246.273071 277.270538 246.273071 269.915558 241.735748 265.37851 L 223.837051 247.484253 Z"/>
        <path id="path27712" fill="#000000" stroke="none" d="M 225.301895 378.82196 L 224.342834 379.783813 L 224.342834 377.918884 C 224.342834 373.02179 228.312393 369.052399 233.207001 369.052399 L 233.207001 368.02536 L 214.464233 368.02536 L 214.464233 369.052399 C 219.361862 369.052399 223.331421 373.02179 223.331421 377.918884 L 223.331421 379.787048 L 222.37204 378.82196 C 217.834732 374.287598 210.476166 374.287598 205.938843 378.82196 C 201.400864 383.358826 201.400864 390.717163 205.938843 395.254059 L 223.837051 413.14798 L 241.732391 395.254059 C 246.270035 390.717163 246.270035 383.358826 241.732391 378.82196 C 237.195084 374.287598 229.839539 374.287598 225.301895 378.82196 Z"/>
        <path id="path27713" fill="#000000" stroke="none" d="M 43.514446 137.358154 L 20.398539 160.469116 C 14.538827 166.328217 14.538827 175.830719 20.398539 181.68985 C 26.258419 187.549133 35.761551 187.549133 41.621262 181.68985 L 42.862843 180.448456 L 42.862843 182.856812 C 42.862843 189.181366 37.732521 194.308136 31.410122 194.308136 L 31.410122 195.63324 L 55.618435 195.63324 L 55.618435 194.308136 C 49.293339 194.308136 44.163017 189.181366 44.163017 182.856812 L 44.163017 180.445587 L 45.407463 181.68985 C 51.267174 187.549133 60.767277 187.549133 66.63002 181.68985 C 72.489731 175.830719 72.489731 166.328217 66.63002 160.469116 L 43.514446 137.358154 Z"/>
        <path id="path27714" fill="#000000" stroke="none" d="M 314.180206 402.730103 L 337.295593 379.619476 C 343.155151 373.760376 343.155151 364.257874 337.295593 358.398743 C 331.432861 352.53949 321.932739 352.53949 316.073364 358.398743 L 314.831787 359.639984 L 314.831787 357.231628 C 314.831787 350.907227 319.958923 345.780273 326.283997 345.780273 L 326.283997 344.4552 L 302.07605 344.4552 L 302.07605 345.780273 C 308.401306 345.780273 313.528076 350.907227 313.528076 357.231628 L 313.528076 359.643005 L 312.286835 358.398743 C 306.42746 352.53949 296.924011 352.53949 291.064636 358.398743 C 285.204895 364.257874 285.204895 373.760376 291.064636 379.619476 L 314.180206 402.730103 Z"/>
    </g>
</svg>
