<?xml version="1.0" encoding="UTF-8"?>
<!-- Generated by Pixelmator Pro 3.7 -->
<svg width="360" height="539" viewBox="0 0 360 539" xmlns="http://www.w3.org/2000/svg">
    <g id="Group-copy">
        <path id="Path" fill="#ffffff" stroke="none" d="M 17.295931 538.491028 L 342.143707 538.491028 C 351.453033 538.491028 358.999115 530.948975 358.999115 521.644226 L 358.999115 17.772827 C 358.999115 8.46814 351.453033 0.925903 342.143707 0.925903 L 17.295931 0.925903 C 7.986603 0.925903 0.440515 8.46814 0.440515 17.772827 L 0.440515 521.644226 C 0.440515 530.948975 7.986603 538.491028 17.295931 538.491028 Z"/>
        <path id="path1" fill="#b4171e" stroke="none" d="M 25.83135 52.074982 C 26.701998 48.007477 28.009621 45.016083 29.723076 43.17572 C 31.180527 41.609894 33.096661 40.87677 35.743053 40.87677 L 54.605206 40.87677 C 43.591862 61.167358 36.872772 75.512512 34.110764 84.617584 C 31.080484 94.605316 29.539036 103.176941 29.539036 110.095276 C 29.539036 114.384338 30.531433 117.456696 32.553509 119.468475 C 34.526031 121.44928 37.053745 122.494171 39.874973 122.494171 C 43.220482 122.494171 45.767067 121.471252 47.455509 119.449921 C 48.984455 117.603394 49.696072 114.961304 49.696072 111.13092 L 49.652657 101.246277 C 49.346634 99.087738 49.178165 97.387665 49.178165 96.149445 C 49.178165 88.416779 51.256397 79.096588 55.363781 68.447601 C 59.564125 57.53656 65.275246 46.210815 72.334335 34.785034 L 72.952286 33.786896 L 72.952286 24.862976 L 18.8001 24.862976 L 13.928718 54.086761 L 25.001286 55.93335 L 25.83135 52.074982 Z"/>
        <path id="path2" fill="#b4171e" stroke="none" d="M 333.608521 487.342407 C 332.734314 491.409912 331.426941 494.401123 329.716797 496.241425 C 328.256256 497.807251 326.339905 498.540161 323.696564 498.540161 L 304.834412 498.540161 C 315.847748 478.246826 322.567078 463.904449 325.328857 454.79953 C 328.359375 444.811859 329.897766 436.240295 329.897766 429.318604 C 329.897766 425.033051 328.908417 421.960541 326.883057 419.948517 C 324.913605 417.967896 322.382813 416.922913 319.561584 416.922913 C 316.219391 416.922913 313.672546 417.946198 311.981293 419.967163 C 310.45517 421.813995 309.743561 424.455872 309.743561 428.286255 L 309.787201 438.171112 C 310.092987 440.329681 310.261688 442.02948 310.261688 443.267944 C 310.261688 451.000366 308.183228 460.317505 304.073242 470.96637 C 299.875488 481.880524 294.164612 493.20639 287.105286 504.628937 L 286.484039 505.630188 L 286.484039 514.551208 L 340.639526 514.551208 L 345.511139 485.330353 L 334.438568 483.483887 L 333.608521 487.342407 Z"/>
        <path id="path3" fill="#000000" stroke="none" d="M 273.339386 438.68869 L 273.339386 100.625397 L 86.100487 100.625397 L 86.100487 438.68869 L 273.339386 438.68869 Z M 87.11483 101.629791 L 272.32196 101.629791 L 272.32196 437.68457 L 87.11483 437.68457 L 87.11483 101.629791 Z"/>
        <path id="path4" fill="#b4171e" stroke="none" d="M 134.494598 125.881775 C 132.266312 129.712006 128.874084 134.565399 123.756134 139.518799 C 119.730156 143.417786 115.673264 146.378021 112.209076 148.567657 C 115.673264 150.757385 119.730156 153.717438 123.756134 157.616486 C 128.874084 162.572998 132.266312 167.426453 134.494598 171.253632 C 136.723129 167.426453 140.115356 162.572998 145.23024 157.616486 C 149.255981 153.717438 153.31311 150.757385 156.780365 148.567657 C 153.31311 146.378021 149.255981 143.417786 145.23024 139.518799 C 140.115356 134.565399 136.723129 129.712006 134.494598 125.881775 Z"/>
        <path id="path5" fill="#b4171e" stroke="none" d="M 224.945023 125.881775 C 222.716736 129.712006 219.324509 134.565399 214.209396 139.518799 C 210.18364 143.417786 206.123459 146.378021 202.659271 148.567657 C 206.123459 150.757385 210.18364 153.717438 214.209396 157.616486 C 219.324509 162.572998 222.716736 167.426453 224.945023 171.253632 C 227.173309 167.426453 230.565536 162.572998 235.683731 157.616486 C 239.709473 153.717438 243.766602 150.757385 247.230545 148.567657 C 243.766602 146.378021 239.709473 143.417786 235.683731 139.518799 C 230.565536 134.565399 227.173309 129.712006 224.945023 125.881775 Z"/>
        <path id="path6" fill="#b4171e" stroke="none" d="M 134.494598 247.022522 C 132.266312 250.849915 128.874084 255.703217 123.756134 260.659729 C 119.730156 264.558777 115.673264 267.518768 112.209076 269.708466 C 115.673264 271.898163 119.730156 274.858429 123.756134 278.757416 C 128.874084 283.710754 132.266312 288.56424 134.494598 292.394653 C 136.723129 288.56424 140.115356 283.710754 145.23024 278.757416 C 149.255981 274.858429 153.31311 271.898163 156.780365 269.708466 C 153.31311 267.518768 149.255981 264.558777 145.23024 260.659729 C 140.115356 255.703217 136.723129 250.849915 134.494598 247.022522 Z"/>
        <path id="path7" fill="#b4171e" stroke="none" d="M 224.945023 247.022522 C 222.716736 250.849915 219.324509 255.703217 214.209396 260.659729 C 210.18364 264.558777 206.123459 267.518768 202.659271 269.708466 C 206.123459 271.898163 210.18364 274.858429 214.209396 278.757416 C 219.324509 283.710754 222.716736 288.56424 224.945023 292.394653 C 227.173309 288.56424 230.565536 283.710754 235.683731 278.757416 C 239.709473 274.858429 243.766602 271.898163 247.230545 269.708466 C 243.766602 267.518768 239.709473 264.558777 235.683731 260.659729 C 230.565536 255.703217 227.173309 250.849915 224.945023 247.022522 Z"/>
        <path id="path8" fill="#b4171e" stroke="none" d="M 179.718277 185.006378 C 177.48999 188.8367 174.097763 193.690247 168.982651 198.643524 C 164.956894 202.542572 160.89978 205.502625 157.432755 207.692322 C 160.89978 209.881958 164.956894 212.842224 168.982651 216.741211 C 174.097763 221.697784 177.48999 226.5513 179.718277 230.381439 C 181.949631 226.5513 185.342102 221.697784 190.456985 216.741211 C 194.482956 212.842224 198.539856 209.881958 202.007111 207.692322 C 198.539856 205.502625 194.482956 202.542572 190.456985 198.643524 C 185.342102 193.690247 181.949631 188.8367 179.718277 185.006378 Z"/>
        <path id="path9" fill="#b4171e" stroke="none" d="M 134.494598 368.160278 C 132.266312 371.990662 128.874084 376.844147 123.756134 381.800568 C 119.730156 385.699585 115.673264 388.659729 112.209076 390.849487 C 115.673264 393.039124 119.730156 395.999359 123.756134 399.898376 C 128.874084 404.851471 132.266312 409.704987 134.494598 413.535583 C 136.723129 409.704987 140.115356 404.851471 145.23024 399.898376 C 149.255981 395.999359 153.31311 393.039124 156.780365 390.849487 C 153.31311 388.659729 149.255981 385.699585 145.23024 381.800568 C 140.115356 376.844147 136.723129 371.990662 134.494598 368.160278 Z"/>
        <path id="path10" fill="#b4171e" stroke="none" d="M 224.945023 368.160278 C 222.716736 371.990662 219.324509 376.844147 214.209396 381.800568 C 210.18364 385.699585 206.123459 388.659729 202.659271 390.849487 C 206.123459 393.039124 210.18364 395.999359 214.209396 399.898376 C 219.324509 404.851471 222.716736 409.704987 224.945023 413.535583 C 227.173309 409.704987 230.565536 404.851471 235.683731 399.898376 C 239.709473 395.999359 243.766602 393.039124 247.230545 390.849487 C 243.766602 388.659729 239.709473 385.699585 235.683731 381.800568 C 230.565536 376.844147 227.173309 371.990662 224.945023 368.160278 Z"/>
        <path id="path11" fill="#b4171e" stroke="none" d="M 43.632446 136.34967 C 40.755058 141.293671 36.376808 147.560333 29.772861 153.954681 C 24.576815 158.988892 19.337118 162.809998 14.864959 165.636047 C 19.337118 168.462036 24.576815 172.282959 29.772861 177.317596 C 36.376808 183.712006 40.755058 189.978394 43.632446 194.922272 C 46.50983 189.978394 50.888317 183.712006 57.492031 177.317596 C 62.688076 172.282959 67.927773 168.462036 72.400169 165.636047 C 67.927773 162.809998 62.688076 158.988892 57.492031 153.954681 C 50.888317 147.560333 46.50983 141.293671 43.632446 136.34967 Z"/>
        <path id="path12" fill="#b4171e" stroke="none" d="M 315.80719 403.067566 C 318.68457 398.123413 323.063049 391.857025 329.666748 385.462646 C 334.862823 380.428101 340.102753 376.607086 344.574677 373.781067 C 340.102753 370.955078 334.862823 367.133972 329.666748 362.099487 C 323.063049 355.705139 318.68457 349.438782 315.80719 344.494751 C 312.929779 349.438782 308.5513 355.705139 301.947815 362.099487 C 296.751556 367.133972 291.511841 370.955078 287.039703 373.781067 C 291.511841 376.607086 296.751556 380.428101 301.947815 385.462646 C 308.5513 391.857025 312.929779 398.123413 315.80719 403.067566 Z"/>
    </g>
</svg>
