<?xml version="1.0" encoding="UTF-8"?>
<!-- Generated by Pixelmator Pro 3.7 -->
<svg width="360" height="538" viewBox="0 0 360 538" xmlns="http://www.w3.org/2000/svg">
    <g id="g326-copy">
        <path id="path27825" fill="#ffffff" stroke="none" d="M 340.330017 2.831055 L 17.272697 2.831055 C 8.014716 2.831055 0.509833 10.334961 0.509833 19.592285 L 0.509833 520.903564 C 0.509833 530.160889 8.014716 537.664917 17.272697 537.664917 L 340.330017 537.664917 C 349.588501 537.664917 357.092865 530.160889 357.092865 520.903564 L 357.092865 19.592285 C 357.092865 10.334961 349.588501 2.831055 340.330017 2.831055 Z"/>
        <path id="path27826" fill="#b4171e" stroke="none" d="M 25.761045 53.720001 C 26.626987 49.673248 27.930361 46.697205 29.631096 44.866089 C 31.083647 43.308105 32.989124 42.578857 35.618095 42.578857 L 54.376179 42.578857 C 43.423527 62.766327 36.74165 77.038757 33.994816 86.097382 C 30.981277 96.034515 29.448074 104.562347 29.448074 111.445801 C 29.448074 115.712921 30.434738 118.769592 32.44915 120.771484 C 34.407665 122.742035 36.924671 123.781525 39.730434 123.781525 C 43.054451 123.781525 45.586781 122.763763 47.269161 120.752625 C 48.786537 118.915436 49.494209 116.286804 49.494209 112.476196 L 49.450935 102.641449 C 49.146519 100.49408 48.978989 98.802734 48.978989 97.570435 C 48.978989 89.877319 51.045933 80.604675 55.13335 70.009644 C 59.307987 59.153931 64.987373 47.885742 72.007843 36.518188 L 72.622406 35.524902 L 72.622406 26.646301 L 18.76852 26.646301 L 13.92376 55.721558 L 24.935345 57.558899 L 25.761045 53.720001 Z"/>
        <path id="path27827" fill="#b4171e" stroke="none" d="M 331.84201 486.775757 C 330.976227 490.822632 329.672333 493.798828 327.971771 495.629944 C 326.519409 497.187744 324.613739 497.917084 321.984772 497.917084 L 303.226685 497.917084 C 314.179016 477.726593 320.861389 463.457184 323.608215 454.398407 C 326.621429 444.461426 328.154633 435.933594 328.154633 429.047119 C 328.154633 424.78302 327.167969 421.726349 325.1539 419.72464 C 323.195374 417.753906 320.678528 416.714233 317.872772 416.714233 C 314.548767 416.714233 312.016083 417.732361 310.334045 419.743317 C 308.816345 421.580505 308.10849 424.209137 308.10849 428.019897 L 308.151947 437.854492 C 308.456024 440.002014 308.623718 441.693207 308.623718 442.925354 C 308.623718 450.618439 306.556427 459.888397 302.46936 470.483276 C 298.294708 481.34201 292.615173 492.610291 285.595032 503.974884 L 284.980804 504.97113 L 284.980804 513.84668 L 338.834198 513.84668 L 343.678955 484.774231 L 332.667358 482.937042 L 331.84201 486.775757 Z"/>
        <path id="path27828" fill="#000000" stroke="none" d="M 271.904968 438.369781 L 271.904968 102.023773 L 85.697906 102.023773 L 85.697906 438.369781 L 271.904968 438.369781 Z M 86.706627 103.023376 L 270.896423 103.023376 L 270.893036 437.370361 L 86.706627 437.370361 L 86.706627 103.023376 Z"/>
        <path id="path27829" fill="#b4171e" stroke="none" d="M 56.15773 137.566803 C 51.294281 137.566803 46.716225 139.403992 43.209522 142.749298 C 39.702484 139.403992 35.124428 137.566803 30.261147 137.566803 C 25.245825 137.566803 20.531553 139.521851 16.984106 143.065887 C 13.439689 146.609924 11.484206 151.326996 11.484206 156.342102 C 11.484206 161.357056 13.439689 166.070923 16.984106 169.618317 L 43.209522 195.841705 L 69.431908 169.618317 C 72.979187 166.070923 74.931473 161.357056 74.931473 156.342102 C 74.931473 151.326996 72.979187 146.609924 69.431908 143.065887 C 65.887497 139.521851 61.172886 137.566803 56.15773 137.566803 Z"/>
        <path id="path27830" fill="#b4171e" stroke="none" d="M 301.445313 402.929138 C 306.308258 402.929138 310.886322 401.09198 314.393524 397.746643 C 317.900391 401.09198 322.478455 402.929138 327.341736 402.929138 C 332.357208 402.929138 337.071655 400.974091 340.618927 397.426849 C 344.163177 393.886047 346.118347 389.168793 346.118347 384.153839 C 346.118347 379.138885 344.163177 374.425018 340.618927 370.877625 L 314.393524 344.654236 L 288.171143 370.877625 C 284.623505 374.425018 282.671417 379.138885 282.671417 384.153839 C 282.671417 389.168793 284.623505 393.886047 288.171143 397.426849 C 291.715393 400.974091 296.42981 402.929138 301.445313 402.929138 Z"/>
        <path id="path27831" fill="#b4171e" stroke="none" d="M 135.268723 130.553162 L 133.803879 132.017853 L 132.339035 130.553162 C 127.80442 126.019318 120.451912 126.019318 115.917633 130.553162 C 111.383186 135.087372 111.383186 142.439117 115.917633 146.973145 L 133.803879 164.854431 L 151.689789 146.973145 C 156.224075 142.439117 156.224075 135.087372 151.689789 130.553162 C 147.152481 126.019318 139.803009 126.019318 135.268723 130.553162 Z"/>
        <path id="path27832" fill="#b4171e" stroke="none" d="M 151.689789 254.796265 C 147.152481 250.262238 139.803009 250.262238 135.268723 254.796265 L 133.803879 256.261292 L 132.339035 254.796265 C 127.80442 250.262238 120.451912 250.262238 115.917633 254.796265 C 111.383186 259.330444 111.383186 266.682037 115.917633 271.216064 L 133.803879 289.101074 L 151.689789 271.216064 C 156.224075 266.682037 156.224075 259.330444 151.689789 254.796265 L 151.689789 254.796265 Z"/>
        <path id="path27833" fill="#b4171e" stroke="none" d="M 241.641632 254.796265 C 237.107361 250.262238 229.754852 250.262238 225.220566 254.796265 L 223.755722 256.261292 L 222.290878 254.796265 C 217.756607 250.262238 210.404099 250.262238 205.869476 254.796265 C 201.33519 259.330444 201.33519 266.682037 205.869476 271.216064 L 223.755722 289.101074 L 241.641632 271.216064 C 246.176254 266.682037 246.176254 259.330444 241.641632 254.796265 L 241.641632 254.796265 Z"/>
        <path id="path27834" fill="#b4171e" stroke="none" d="M 133.803879 375.638123 L 115.917633 393.522949 C 111.383186 398.056824 111.383186 405.408569 115.917633 409.942932 C 120.451912 414.476959 127.80442 414.476959 132.339035 409.942932 L 133.803879 408.478088 L 135.268723 409.942932 C 139.803009 414.476959 147.152481 414.476959 151.689789 409.942932 L 151.689789 409.942932 C 156.224075 405.408569 156.224075 398.056824 151.689789 393.522949 L 133.803879 375.638123 Z"/>
        <path id="path27835" fill="#b4171e" stroke="none" d="M 225.220566 130.553162 L 223.755722 132.017853 L 222.290878 130.553162 C 217.756607 126.019318 210.404099 126.019318 205.869476 130.553162 C 201.33519 135.087372 201.33519 142.439117 205.869476 146.973145 L 223.755722 164.854431 L 241.641632 146.973145 C 246.176254 142.439117 246.176254 135.087372 241.641632 130.553162 C 237.107361 126.019318 229.754852 126.019318 225.220566 130.553162 Z"/>
        <path id="path27836" fill="#b4171e" stroke="none" d="M 180.258621 192.673035 L 178.793777 194.138062 L 177.328934 192.673035 C 172.794312 188.139008 165.442154 188.139008 160.907532 192.673035 C 156.373245 197.207062 156.373245 204.558807 160.907532 209.093018 L 178.793777 226.977844 L 196.679688 209.093018 C 201.213974 204.558807 201.213974 197.207062 196.679688 192.673035 C 192.145401 188.139008 184.792908 188.139008 180.258621 192.673035 Z"/>
        <path id="path27837" fill="#b4171e" stroke="none" d="M 223.755722 375.638123 L 205.869476 393.522949 C 201.33519 398.056824 201.33519 405.408569 205.869476 409.942932 C 210.404099 414.476959 217.756607 414.476959 222.290878 409.942932 L 223.755722 408.478088 L 225.220566 409.942932 C 229.754852 414.476959 237.107361 414.476959 241.641632 409.942932 L 241.641632 409.942932 C 246.176254 405.408569 246.176254 398.056824 241.641632 393.522949 L 223.755722 375.638123 Z"/>
    </g>
</svg>
