<?xml version="1.0" encoding="UTF-8"?>
<!-- Generated by Pixelmator Pro 3.7 -->
<svg width="360" height="539" viewBox="0 0 360 539" xmlns="http://www.w3.org/2000/svg">
    <g id="g327-copy">
        <path id="path27838" fill="#ffffff" stroke="none" d="M 342.065826 0.748413 L 17.215 0.748413 C 7.905673 0.748413 0.359585 8.290649 0.359585 17.595215 L 0.359585 521.466675 C 0.359585 530.77124 7.905673 538.313477 17.215 538.313477 L 342.065826 538.313477 C 351.372101 538.313477 358.918182 530.77124 358.918182 521.466675 L 358.918182 17.595215 C 358.918182 8.290649 351.372101 0.748413 342.065826 0.748413 Z"/>
        <path id="path27839" fill="#b4171e" stroke="none" d="M 18.947096 79.08432 C 15.564073 83.863007 13.847787 89.642914 13.847787 96.274261 C 13.847787 103.286224 16.906145 109.484131 22.932257 114.696289 C 28.786835 119.771301 35.880611 122.341583 44.022705 122.341583 C 52.885853 122.341583 60.188442 119.737091 65.724724 114.605957 C 71.345482 109.396881 74.19455 102.886993 74.19455 95.251343 C 74.19455 89.680176 72.584206 84.44632 69.41684 79.686371 C 67.338379 76.582764 64.495201 73.6539 60.918701 70.933868 C 64.12075 68.725342 66.682915 66.286072 68.574272 63.63501 C 71.626259 59.37088 73.171013 54.698334 73.171013 49.757507 C 73.171013 42.810852 70.493469 36.815979 65.206825 31.931061 C 60.013607 27.140228 53.232224 24.713196 45.043179 24.713196 C 36.167759 24.713196 29.03977 27.140228 23.859297 31.931061 C 18.572645 36.803253 15.894872 42.804596 15.894872 49.757507 C 15.894872 55.035217 17.439623 59.879456 20.491846 64.146515 C 22.264524 66.626129 24.49258 68.856476 27.145344 70.821625 C 23.815645 73.319977 21.072279 76.086823 18.947096 79.08432 Z M 34.426228 40.047546 C 36.332924 37.67038 39.903286 36.469666 45.043179 36.469666 C 49.53091 36.469666 52.64566 37.698578 54.574299 40.221924 C 56.765076 43.098083 57.829201 46.382446 57.829201 50.269012 C 57.829201 53.566101 57.052223 56.336029 55.448013 58.734619 C 54.068661 60.802734 52.033844 62.621063 49.381317 64.171509 C 43.557884 61.803925 38.985687 59.124573 35.783634 56.195587 C 32.762794 53.444427 31.236917 50.75882 31.236917 48.2258 C 31.236917 45.403076 32.279099 42.723602 34.426228 40.047546 Z M 32.020031 84.932709 C 33.602531 82.013397 35.693268 79.549011 38.396053 77.431152 C 45.012032 80.369446 50.052116 83.548065 53.403759 86.897858 C 56.727558 90.219849 58.340973 93.451385 58.340973 96.782715 C 58.340973 100.931274 57.23933 104.243927 54.967388 106.917145 C 52.89529 109.350189 49.215683 110.585327 44.022705 110.585327 C 39.616138 110.585327 36.105232 109.281342 33.287071 106.598785 C 30.531433 103.978638 29.189598 100.600616 29.189598 96.274261 C 29.189598 92.147614 30.116402 88.435699 32.020031 84.932709 Z"/>
        <path id="path27840" fill="#b4171e" stroke="none" d="M 340.333984 460.027588 C 343.716766 455.252197 345.429962 449.469116 345.429962 442.840698 C 345.429962 435.825562 342.371613 429.627747 336.348572 424.415619 C 330.493988 419.340607 323.397156 416.770325 315.258118 416.770325 C 306.391907 416.770325 299.089325 419.374939 293.556091 424.50592 C 287.935577 429.715149 285.083221 436.224915 285.083221 443.860779 C 285.083221 449.431519 286.693542 454.665588 289.864227 459.425629 C 291.939392 462.529114 294.785614 465.458221 298.35907 468.178162 C 295.160065 470.389618 292.594849 472.825592 290.703735 475.477112 C 287.65152 479.74408 286.10675 484.413574 286.10675 489.354401 C 286.10675 496.300812 288.787354 502.295898 294.071167 507.180603 C 299.26416 511.971924 306.045532 514.401672 314.234589 514.401672 C 323.110016 514.401672 330.238007 511.971924 335.421783 507.180603 C 340.705109 502.308411 343.385956 496.30719 343.385956 489.354401 C 343.385956 484.076691 341.841217 479.232666 338.788971 474.965607 C 337.013489 472.485779 334.788025 470.255554 332.135498 468.290405 C 335.462128 465.791931 338.208557 463.025085 340.333984 460.027588 Z M 324.851532 499.064606 C 322.944855 501.441406 319.377533 502.645294 314.234589 502.645294 C 309.749908 502.645294 306.632111 501.41333 304.703461 498.889984 C 302.515991 496.013824 301.448578 492.729431 301.448578 488.842896 C 301.448578 485.545898 302.228851 482.779175 303.829742 480.377258 C 305.209106 478.312378 307.247223 476.490845 309.89975 474.940613 C 315.720123 477.311035 320.292084 479.987457 323.494141 482.916412 C 326.514984 485.67041 328.044159 488.35321 328.044159 490.889038 C 328.044159 493.708832 326.998657 496.388062 324.851532 499.064606 Z M 327.260803 454.179199 C 325.678528 457.098724 323.584503 459.562897 320.881714 461.683685 C 314.265717 458.742432 309.228699 455.563843 305.877075 452.217102 C 302.553497 448.891937 300.936798 445.6604 300.936798 442.329071 C 300.936798 438.180634 302.041504 434.867981 304.310364 432.194855 C 306.382477 429.761841 310.062073 428.52655 315.258118 428.52655 C 319.661621 428.52655 323.172516 429.830566 325.993774 432.516052 C 328.746338 435.13327 330.088165 438.511261 330.088165 442.840698 C 330.088165 446.964264 329.161377 450.676208 327.260803 454.179199 Z"/>
        <path id="path27841" fill="#000000" stroke="none" d="M 273.258453 438.564087 L 273.258453 100.497803 L 86.019554 100.497803 L 86.019554 438.564087 L 273.258453 438.564087 Z M 87.036728 101.50528 L 272.24411 101.50528 L 272.24411 437.556763 L 87.036728 437.556763 L 87.036728 101.50528 Z"/>
        <path id="path27842" fill="#b4171e" stroke="none" d="M 56.318661 136.197144 C 51.425335 136.197144 46.822227 138.043701 43.29858 141.402924 C 39.772102 138.043701 35.165924 136.197144 30.278732 136.197144 C 25.235346 136.197144 20.491846 138.162201 16.927853 141.727539 C 13.36079 145.28653 11.397703 150.02774 11.397703 155.068329 C 11.397703 160.109009 13.36079 164.847137 16.927853 168.412384 L 43.29858 194.769653 L 69.66954 168.412384 C 77.025223 161.051025 77.025223 149.079468 69.66954 141.727539 C 66.102478 138.162201 61.358746 136.197144 56.318661 136.197144 Z"/>
        <path id="path27843" fill="#b4171e" stroke="none" d="M 302.962158 402.861694 C 307.852661 402.861694 312.455536 401.018219 315.982025 397.658966 C 319.505676 401.018219 324.111847 402.861694 329.002106 402.861694 C 334.045258 402.861694 338.788971 400.899841 342.349915 397.334351 C 345.916962 393.772278 347.883118 389.034302 347.883118 383.990417 C 347.883118 378.953003 345.916962 374.211792 342.349915 370.649658 L 315.982025 344.292236 L 289.611298 370.649658 C 282.252533 378.010986 282.252533 389.979492 289.611298 397.334351 C 293.178589 400.899841 297.919006 402.861694 302.962158 402.861694 Z"/>
        <path id="path27844" fill="#b4171e" stroke="none" d="M 135.86499 129.147675 L 134.391968 130.619965 L 132.918945 129.147675 C 128.359238 124.590668 120.966286 124.590668 116.406593 129.147675 C 111.84713 133.704926 111.84713 141.094238 116.406593 145.651611 L 134.391968 163.627441 L 152.37709 145.651611 C 156.936554 141.094238 156.936554 133.704926 152.37709 129.147675 C 147.817642 124.590668 140.424438 124.590668 135.86499 129.147675 Z"/>
        <path id="path27845" fill="#b4171e" stroke="none" d="M 135.86499 254.02536 L 134.391968 255.497742 L 132.918945 254.02536 C 128.359238 249.468201 120.966286 249.468201 116.406593 254.02536 C 111.84713 258.582611 111.84713 265.971893 116.406593 270.529144 L 134.391968 288.505127 L 152.37709 270.529144 C 156.936554 265.971893 156.936554 258.582611 152.37709 254.02536 C 147.817642 249.468201 140.424438 249.468201 135.86499 254.02536 Z"/>
        <path id="path27846" fill="#b4171e" stroke="none" d="M 226.31517 254.02536 L 224.842148 255.497742 L 223.369125 254.02536 C 218.809662 249.468201 211.416473 249.468201 206.85701 254.02536 C 202.297318 258.582611 202.297318 265.971893 206.85701 270.529144 L 224.842148 288.505127 L 242.827515 270.529144 C 247.386749 265.971893 247.386749 258.582611 242.827515 254.02536 C 238.267822 249.468201 230.874863 249.468201 226.31517 254.02536 Z"/>
        <path id="path27847" fill="#b4171e" stroke="none" d="M 134.391968 375.487427 L 116.406593 393.460419 C 111.84713 398.017548 111.84713 405.407227 116.406593 409.964233 C 120.966286 414.521484 128.359238 414.521484 132.918945 409.964233 L 134.391968 408.491943 L 135.86499 409.964233 C 140.424438 414.521484 147.817642 414.521484 152.37709 409.964233 C 156.936554 405.407227 156.936554 398.017548 152.37709 393.460419 L 134.391968 375.487427 Z"/>
        <path id="path27848" fill="#b4171e" stroke="none" d="M 226.31517 129.147675 L 224.842148 130.619965 L 223.369125 129.147675 C 218.809662 124.590668 211.416473 124.590668 206.85701 129.147675 C 202.297318 133.704926 202.297318 141.094238 206.85701 145.651611 L 224.842148 163.627441 L 242.827515 145.651611 C 247.386749 141.094238 247.386749 133.704926 242.827515 129.147675 C 238.267822 124.590668 230.874863 124.590668 226.31517 129.147675 Z"/>
        <path id="path27849" fill="#b4171e" stroke="none" d="M 179.63121 226.064697 L 197.616348 208.088715 C 202.175812 203.531464 202.175812 196.142181 197.616348 191.58493 C 193.056885 187.027802 185.666763 187.027802 181.104233 191.58493 L 179.63121 193.057312 L 178.158188 191.58493 C 173.598495 187.027802 166.208374 187.027802 161.649139 191.58493 C 157.08638 196.142181 157.08638 203.531464 161.649139 208.088715 L 179.63121 226.064697 Z"/>
        <path id="path27850" fill="#b4171e" stroke="none" d="M 179.634277 313.046997 L 161.649139 331.023193 C 157.089447 335.580444 157.089447 342.969727 161.649139 347.526855 C 166.208374 352.084106 173.601791 352.084106 178.161255 347.526855 L 179.634277 346.054596 L 181.107071 347.526855 C 185.666763 352.084106 193.056885 352.084106 197.616348 347.526855 C 202.178879 342.969727 202.178879 335.580444 197.616348 331.023193 L 179.634277 313.046997 Z"/>
        <path id="path27851" fill="#b4171e" stroke="none" d="M 224.842148 375.487427 L 206.85701 393.460419 C 202.297318 398.017548 202.297318 405.407227 206.85701 409.964233 C 211.416473 414.521484 218.809662 414.521484 223.369125 409.964233 L 224.842148 408.491943 L 226.31517 409.964233 C 230.874863 414.521484 238.267822 414.521484 242.827515 409.964233 C 247.386749 405.407227 247.386749 398.017548 242.827515 393.460419 L 224.842148 375.487427 Z"/>
    </g>
</svg>
