<?xml version="1.0" encoding="UTF-8"?>
<!-- Generated by Pixelmator Pro 3.7 -->
<svg width="360" height="538" viewBox="0 0 360 538" xmlns="http://www.w3.org/2000/svg">
    <g id="g318-copy">
        <path id="path27728" fill="#ffffff" stroke="none" d="M 340.314178 2.613464 L 17.237675 2.613464 C 7.979526 2.613464 0.475148 10.11731 0.475148 19.374817 L 0.475148 520.713867 C 0.475148 529.971008 7.979526 537.474976 17.237675 537.474976 L 340.314178 537.474976 C 349.571991 537.474976 357.076385 529.971008 357.076385 520.713867 L 357.076385 19.374817 C 357.076385 10.11731 349.571991 2.613464 340.314178 2.613464 Z"/>
        <path id="path27729" fill="#000000" stroke="none" d="M 18.960129 80.532623 C 15.595703 85.283691 13.889076 91.037567 13.889076 97.632233 C 13.889076 104.608459 16.930563 110.774902 22.92329 115.963989 C 28.745623 121.012939 35.803474 123.57019 43.897495 123.57019 C 52.714844 123.57019 59.97744 120.978607 65.483231 115.873718 C 71.072868 110.69104 73.906586 104.211395 73.906586 96.614288 C 73.906586 91.074615 72.305023 85.867188 69.15477 81.131592 C 67.087822 78.040558 64.257141 75.126495 60.7038 72.42038 C 63.888065 70.223328 66.435883 67.796448 68.316605 65.158539 C 71.352036 60.913147 72.888603 56.267487 72.888603 51.351715 C 72.888603 44.437256 70.225616 38.4729 64.96801 33.615906 C 59.803677 28.846313 53.059334 26.431854 44.915478 26.431854 C 36.089035 26.431854 29.000202 28.846313 23.845299 33.615906 C 18.587688 38.46347 15.924704 44.434418 15.924704 51.351715 C 15.924704 56.602753 17.460938 61.422028 20.496363 65.667603 C 22.259228 68.134583 24.475014 70.353668 27.113079 72.308746 C 23.801859 74.794739 21.073545 77.54715 18.960129 80.532623 Z M 34.357151 41.687897 C 36.253368 39.326172 39.800983 38.128387 44.915478 38.128387 C 49.375336 38.128387 52.475754 39.350922 54.394196 41.864716 C 56.569908 44.72287 57.630993 47.993927 57.630993 51.860596 C 57.630993 55.14093 56.855469 57.893494 55.262997 60.283356 C 53.891098 62.337769 51.864559 64.150208 49.226833 65.692352 C 43.438175 63.336853 38.891769 60.671173 35.707165 57.757111 C 32.703056 55.016815 31.182314 52.347931 31.182314 49.82489 C 31.182314 47.01944 32.221848 44.353577 34.357151 41.687897 Z M 31.961206 86.348297 C 33.534821 83.446838 35.617256 80.992004 38.301792 78.884888 C 44.881466 81.808044 49.893925 84.97049 53.227036 88.303528 C 56.532528 91.608582 58.140152 94.823761 58.140152 98.141113 C 58.140152 102.268646 57.041351 105.564453 54.785156 108.223907 C 52.724274 110.644745 49.065193 111.873688 43.897495 111.873688 C 39.515423 111.873688 36.023708 110.573181 33.220974 107.904449 C 30.483566 105.297546 29.146349 101.939575 29.146349 97.632233 C 29.146349 93.526611 30.071053 89.833374 31.961206 86.348297 Z"/>
        <path id="path27730" fill="#000000" stroke="none" d="M 338.5914 459.555817 C 341.955811 454.804565 343.662781 449.050873 343.662781 442.45636 C 343.662781 435.480133 340.621307 429.313538 334.628235 424.124786 C 328.805908 419.07547 321.748383 416.518555 313.654022 416.518555 C 304.83667 416.518555 297.574097 419.10965 292.068298 424.214722 C 286.478973 429.397369 283.645264 435.877014 283.645264 443.474304 C 283.645264 449.013641 285.24649 454.221252 288.396759 458.956848 C 290.46405 462.047882 293.294373 464.962097 296.848053 467.66803 C 293.663452 469.865265 291.115631 472.291992 289.234924 474.929871 C 286.199493 479.175354 284.663269 483.821106 284.663269 488.736786 C 284.663269 495.651154 287.325897 501.615784 292.583527 506.472443 C 297.747833 511.242371 304.492188 513.656799 312.636047 513.656799 C 321.46283 513.656799 328.551331 511.242371 333.706573 506.472443 C 338.963837 501.625031 341.626831 495.654175 341.626831 488.736786 C 341.626831 483.485931 340.090576 478.666382 337.055145 474.42099 C 335.292297 471.953857 333.076508 469.734924 330.43811 467.779694 C 333.749664 465.294006 336.477966 462.541107 338.5914 459.555817 Z M 323.194366 498.400635 C 321.298157 500.762268 317.750885 501.960236 312.636047 501.960236 C 308.176178 501.960236 305.075775 500.737518 303.157654 498.223816 C 300.981964 495.36557 299.920532 492.094574 299.920532 488.227814 C 299.920532 484.947571 300.693359 482.194916 302.288513 479.805328 C 303.660431 477.750916 305.686951 475.938568 308.325012 474.39624 C 314.113342 476.754608 318.660095 479.417358 321.84436 482.331421 C 324.848816 485.071686 326.369537 487.74057 326.369537 490.263702 C 326.369537 493.069153 325.329681 495.734863 323.194366 498.400635 Z M 325.590302 453.740143 C 324.016693 456.641754 321.934265 459.096436 319.249725 461.203735 C 312.670044 458.280396 307.657928 455.11795 304.324493 451.784912 C 301.016296 448.480011 299.411377 445.264832 299.411377 441.947327 C 299.411377 437.819794 300.510162 434.524139 302.766357 431.864532 C 304.82724 429.443848 308.486328 428.215088 313.654022 428.215088 C 318.036438 428.215088 321.527802 429.515259 324.3302 432.184326 C 327.067627 434.790894 328.405518 438.148682 328.405518 442.45636 C 328.405518 446.562164 327.480469 450.255066 325.590302 453.740143 Z"/>
        <path id="path27731" fill="#000000" stroke="none" d="M 271.885773 438.176788 L 271.885773 101.812439 L 85.669113 101.812439 L 85.669113 438.176788 L 271.885773 438.176788 Z M 86.677666 102.811707 L 270.87384 102.811707 L 270.87384 437.174347 L 86.677666 437.174347 L 86.677666 102.811707 Z"/>
        <path id="path27732" fill="#000000" stroke="none" d="M 133.787384 126.940277 L 115.889008 144.834381 C 111.351364 149.371429 111.351364 156.729401 115.889008 161.266815 C 120.426323 165.800659 127.781853 165.800659 132.319504 161.266815 L 133.281586 160.304749 L 133.281586 162.169739 C 133.281586 167.066803 129.30899 171.036041 124.414734 171.036041 L 124.414734 172.063232 L 143.156998 172.063232 L 143.156998 171.036041 C 138.259705 171.036041 134.290146 167.066803 134.290146 162.169739 L 134.290146 160.301575 L 135.252228 161.266815 C 139.789871 165.800659 147.145401 165.800659 151.682724 161.266815 C 156.220367 156.729401 156.220367 149.371429 151.682724 144.834381 L 133.787384 126.940277 Z"/>
        <path id="path27733" fill="#000000" stroke="none" d="M 135.249191 378.82196 L 134.290146 379.783813 L 134.290146 377.918884 C 134.290146 373.02179 138.259705 369.052399 143.156998 369.052399 L 143.156998 368.02536 L 124.414734 368.02536 L 124.414734 369.052399 C 129.312027 369.052399 133.281586 373.02179 133.281586 377.918884 L 133.281586 379.787048 L 132.319504 378.82196 C 127.781853 374.287598 120.426323 374.287598 115.889008 378.82196 C 111.351364 383.358826 111.351364 390.717163 115.889008 395.254059 L 133.784348 413.14798 L 151.682724 395.254059 C 156.220367 390.717163 156.220367 383.358826 151.682724 378.82196 C 147.145401 374.287598 139.786499 374.287598 135.249191 378.82196 Z"/>
        <path id="path27734" fill="#000000" stroke="none" d="M 223.767517 126.940277 L 205.868805 144.834381 C 201.331161 149.371429 201.331161 156.729401 205.868805 161.266815 C 210.406113 165.800659 217.764679 165.800659 222.302338 161.266815 L 223.261047 160.304749 L 223.261047 162.169739 C 223.261047 167.066803 219.291824 171.036041 214.394196 171.036041 L 214.394196 172.063232 L 233.137115 172.063232 L 233.137115 171.036041 C 228.239487 171.036041 224.269928 167.066803 224.269928 162.169739 L 224.269928 160.301575 L 225.232361 161.266815 C 229.769669 165.800659 237.125198 165.800659 241.662857 161.266815 C 246.200165 156.729401 246.200165 149.371429 241.662857 144.834381 L 223.767517 126.940277 Z"/>
        <path id="path27735" fill="#000000" stroke="none" d="M 178.777283 187.210815 L 160.878571 205.107941 C 156.341263 209.64502 156.341263 216.999969 160.878571 221.537201 C 165.416214 226.074249 172.771759 226.074249 177.309067 221.537201 L 178.271484 220.574982 L 178.271484 222.440125 C 178.271484 227.337189 174.298889 231.30658 169.404633 231.30658 L 169.404633 232.333801 L 188.147232 232.333801 L 188.147232 231.30658 C 183.249603 231.30658 179.28038 227.337189 179.28038 222.440125 L 179.28038 220.574982 L 180.242126 221.537201 C 184.77977 226.074249 192.1353 226.074249 196.672958 221.537201 C 201.210266 216.999969 201.210266 209.64502 196.672958 205.107941 L 178.777283 187.210815 Z"/>
        <path id="path27736" fill="#000000" stroke="none" d="M 180.242126 318.551392 L 179.28038 319.513275 L 179.28038 317.648315 C 179.28038 312.751221 183.25296 308.78183 188.147232 308.78183 L 188.147232 307.754822 L 169.404633 307.754822 L 169.404633 308.78183 C 174.301926 308.78183 178.271484 312.751221 178.271484 317.648315 L 178.271484 319.513275 L 177.309067 318.551392 C 172.771759 314.014191 165.416214 314.014191 160.878571 318.551392 C 156.341263 323.08844 156.341263 330.44342 160.878571 334.980652 L 178.777283 352.877777 L 196.672958 334.980652 C 201.210266 330.44342 201.210266 323.08844 196.672958 318.551392 C 192.1353 314.014191 184.77977 314.014191 180.242126 318.551392 Z"/>
        <path id="path27737" fill="#000000" stroke="none" d="M 133.787384 247.484253 L 115.889008 265.37851 C 111.351364 269.915558 111.351364 277.270538 115.889008 281.807739 C 120.426323 286.344604 127.781853 286.344604 132.319504 281.807739 L 133.281586 280.848572 L 133.281586 282.713867 C 133.281586 287.607758 129.30899 291.580017 124.414734 291.580017 L 124.414734 292.604187 L 143.156998 292.604187 L 143.156998 291.580017 C 138.259705 291.580017 134.290146 287.607758 134.290146 282.713867 L 134.290146 280.845367 L 135.252228 281.807739 C 139.789871 286.344604 147.145401 286.344604 151.682724 281.807739 C 156.220367 277.270538 156.220367 269.915558 151.682724 265.37851 L 133.787384 247.484253 Z"/>
        <path id="path27738" fill="#000000" stroke="none" d="M 223.767517 247.484253 L 205.868805 265.37851 C 201.331161 269.915558 201.331161 277.270538 205.868805 281.807739 C 210.406113 286.344604 217.764679 286.344604 222.302338 281.807739 L 223.261047 280.848572 L 223.261047 282.713867 C 223.261047 287.607758 219.291824 291.580017 214.394196 291.580017 L 214.394196 292.604187 L 233.137115 292.604187 L 233.137115 291.580017 C 228.239487 291.580017 224.269928 287.607758 224.269928 282.713867 L 224.269928 280.845367 L 225.232361 281.807739 C 229.769669 286.344604 237.125198 286.344604 241.662857 281.807739 C 246.200165 277.270538 246.200165 269.915558 241.662857 265.37851 L 223.767517 247.484253 Z"/>
        <path id="path27739" fill="#000000" stroke="none" d="M 225.232361 378.82196 L 224.269928 379.783813 L 224.269928 377.918884 C 224.269928 373.02179 228.242859 369.052399 233.137115 369.052399 L 233.137115 368.02536 L 214.394196 368.02536 L 214.394196 369.052399 C 219.291824 369.052399 223.261047 373.02179 223.261047 377.918884 L 223.261047 379.787048 L 222.299301 378.82196 C 217.761658 374.287598 210.406113 374.287598 205.868805 378.82196 C 201.331161 383.358826 201.331161 390.717163 205.868805 395.254059 L 223.767517 413.14798 L 241.662857 395.254059 C 246.200165 390.717163 246.200165 383.358826 241.662857 378.82196 C 237.125198 374.287598 229.769669 374.287598 225.232361 378.82196 Z"/>
        <path id="path27740" fill="#000000" stroke="none" d="M 44.406654 137.358154 L 21.291082 160.469116 C 15.431372 166.328217 15.431372 175.830719 21.291082 181.68985 C 27.150457 187.549133 36.653759 187.549133 42.51347 181.68985 L 43.755051 180.448456 L 43.755051 182.856812 C 43.755051 189.181366 38.624729 194.308136 32.30233 194.308136 L 32.30233 195.63324 L 56.510643 195.63324 L 56.510643 194.308136 C 50.185547 194.308136 45.058258 189.181366 45.058258 182.856812 L 45.058258 180.445587 L 46.299839 181.68985 C 52.159214 187.549133 61.659821 187.549133 67.522224 181.68985 C 73.381935 175.830719 73.381935 166.328217 67.522224 160.469116 L 44.406654 137.358154 Z"/>
        <path id="path27741" fill="#000000" stroke="none" d="M 313.144867 402.730103 L 336.260773 379.619476 C 342.120148 373.760376 342.120148 364.257874 336.260773 358.398743 C 330.401062 352.53949 320.897766 352.53949 315.038391 358.398743 L 313.796814 359.639984 L 313.796814 357.231628 C 313.796814 350.907227 318.926788 345.780273 325.24884 345.780273 L 325.24884 344.4552 L 301.040894 344.4552 L 301.040894 345.780273 C 307.365967 345.780273 312.493256 350.907227 312.493256 357.231628 L 312.493256 359.643005 L 311.251678 358.398743 C 305.392303 352.53949 295.892029 352.53949 290.029297 358.398743 C 284.169586 364.257874 284.169586 373.760376 290.029297 379.619476 L 313.144867 402.730103 Z"/>
    </g>
</svg>
