<?xml version="1.0" encoding="UTF-8"?>
<!-- Generated by Pixelmator Pro 3.7 -->
<svg width="360" height="540" viewBox="0 0 360 540" xmlns="http://www.w3.org/2000/svg">
    <g id="Group-copy">
        <path id="Path" fill="#ffffff" stroke="none" d="M 342.057098 1.232544 L 17.193529 1.232544 C 7.884438 1.232544 0.335046 8.782043 0.335046 18.09552 L 0.335046 522.474792 C 0.335046 531.788391 7.884438 539.337952 17.193529 539.337952 L 342.057098 539.337952 C 351.36618 539.337952 358.91275 531.788391 358.91275 522.474792 L 358.91275 18.09552 C 358.91275 8.782043 351.36618 1.232544 342.057098 1.232544 Z"/>
        <path id="path1" fill="#000000" stroke="none" d="M 273.249481 439.486786 L 273.249481 101.083588 L 86.001152 101.083588 L 86.001152 439.486786 L 273.249481 439.486786 Z M 87.015259 102.089172 L 272.232544 102.089172 L 272.232544 438.481506 L 87.015259 438.481506 L 87.015259 102.089172 Z"/>
        <path id="path2" fill="#b4171e" stroke="none" d="M 35.697044 111.31839 L 30.141884 111.31839 L 30.141884 111.31839 C 29.820522 111.324646 29.5959 111.30896 29.430264 111.324646 C 29.231125 110.640808 29.13061 109.960144 29.13061 109.298248 C 29.13061 108.480194 29.290112 107.406158 29.527002 106.185516 L 33.337563 90.090454 L 49.650536 90.090454 L 54.088245 109.5448 C 54.228397 109.969574 54.319 110.481689 54.293991 111.31839 L 48.33017 111.31839 L 48.33017 122.439697 L 78.139839 122.439697 L 78.139839 111.31839 L 74.098518 111.31839 L 71.623901 110.981201 C 71.561134 110.92807 70.980705 110.412781 70.450294 108.854828 L 50.221058 24.711487 L 36.36808 29.329437 L 16.048239 109.138916 C 15.811346 110.575073 15.436661 110.981201 15.436661 110.981201 L 8.920721 111.31839 L 8.920721 122.439697 L 35.697044 122.439697 L 35.697044 111.31839 Z M 36.346371 78.969147 L 41.926071 56.901428 L 47.241035 78.969147 L 36.346371 78.969147 Z"/>
        <path id="path3" fill="#b4171e" stroke="none" d="M 323.554047 429.227051 L 329.109222 429.227051 L 329.109222 429.227051 C 329.430115 429.22406 329.65802 429.239746 329.820374 429.22406 C 330.019989 429.907959 330.120026 430.585327 330.120026 431.250275 C 330.120026 432.065247 329.963806 433.139282 329.726929 434.359924 L 325.916382 450.458069 L 309.601044 450.458069 L 305.162842 431.000488 C 305.022705 430.575806 304.932098 430.063812 304.95993 429.227051 L 310.920471 429.227051 L 310.920471 418.109009 L 281.111267 418.109009 L 281.111267 429.227051 L 285.155426 429.227051 L 287.627197 429.56427 C 287.689484 429.617432 288.269928 430.13269 288.800323 431.690582 L 309.032867 515.837219 L 322.883026 511.21933 L 343.205688 431.406616 C 343.443054 429.970337 343.813965 429.56427 343.813965 429.56427 L 350.330841 429.227051 L 350.330841 418.109009 L 323.554047 418.109009 L 323.554047 429.227051 Z M 322.904724 461.576324 L 317.324554 483.644043 L 312.010071 461.576324 L 322.904724 461.576324 Z"/>
        <path id="path4" fill="#b4171e" stroke="none" d="M 43.27475 195.424072 L 69.645241 169.038452 C 77.003983 161.670044 77.003983 149.687012 69.645241 142.32486 C 66.078178 138.759277 61.337509 136.792358 56.294357 136.792358 C 51.406933 136.792358 46.801228 138.640656 43.27475 142.003357 C 39.751102 138.640656 35.144451 136.792358 30.254194 136.792358 C 25.214346 136.792358 20.470848 138.759277 16.903786 142.32486 C 13.336252 145.890442 11.373637 150.6362 11.373637 155.681732 C 11.373637 160.727142 13.336252 165.47287 16.903786 169.038452 L 43.27475 195.424072 Z"/>
        <path id="path5" fill="#b4171e" stroke="none" d="M 315.973511 345.146362 L 289.60257 371.528778 C 282.243805 378.897369 282.243805 390.883423 289.60257 398.245544 C 293.169617 401.811096 297.913116 403.778137 302.95343 403.778137 C 307.843689 403.778137 312.44986 401.929749 315.973511 398.567078 C 319.5 401.929749 324.106171 403.778137 328.993591 403.778137 C 334.036743 403.778137 338.780243 401.811096 342.344482 398.245544 C 345.911072 394.680054 347.877472 389.934296 347.877472 384.888763 C 347.877472 379.843292 345.911072 375.097534 342.344482 371.528778 L 315.973511 345.146362 Z"/>
        <path id="path6" fill="#b4171e" stroke="none" d="M 229.839294 226.86792 L 229.839294 226.86792 C 217.109421 214.132263 196.468231 214.132263 183.738831 226.86792 L 179.62532 230.982941 L 175.512268 226.86792 C 162.78241 214.132263 142.141678 214.132263 129.411804 226.86792 C 116.679108 239.606445 116.679108 260.256775 129.411804 272.992218 L 179.62532 323.228333 L 229.839294 272.992218 C 242.569153 260.256775 242.569153 239.606445 229.839294 226.86792 Z"/>
    </g>
</svg>
