<?xml version="1.0" encoding="UTF-8"?>
<!-- Generated by Pixelmator Pro 3.7 -->
<svg width="360" height="539" viewBox="0 0 360 539" xmlns="http://www.w3.org/2000/svg">
    <g id="Group-copy">
        <path id="Path" fill="#ffffff" stroke="none" d="M 17.529991 538.491028 L 342.377502 538.491028 C 351.687073 538.491028 359.233154 530.948975 359.233154 521.644226 L 359.233154 17.772827 C 359.233154 8.46814 351.687073 0.925903 342.377502 0.925903 L 17.529991 0.925903 C 8.2209 0.925903 0.674339 8.46814 0.674339 17.772827 L 0.674339 521.644226 C 0.674339 530.948975 8.2209 538.491028 17.529991 538.491028 Z"/>
        <path id="path1" fill="#b4171e" stroke="none" d="M 40.415058 110.316895 L 34.828754 110.316895 C 32.990719 110.316895 31.642513 109.929901 30.799706 109.165833 C 30.559511 108.944214 29.916317 108.36731 29.916317 106.24942 L 29.916317 24.89093 L 22.348522 24.89093 L 21.362259 27.139923 C 20.50388 29.101837 19.321308 30.51474 17.745176 31.469238 C 16.044462 32.50177 13.678848 33.025818 10.717701 33.025818 L 5.577339 33.025818 L 5.577339 44.211365 L 14.736839 44.211365 C 15.395606 44.211365 15.620229 44.351624 15.629194 44.719696 L 15.629194 106.24942 C 15.629194 107.737244 15.357855 108.76358 14.818006 109.309265 C 14.521655 109.61203 13.519819 110.316895 10.717701 110.316895 L 5.577339 110.316895 L 5.577339 121.502441 L 40.415058 121.502441 L 40.415058 110.316895 Z"/>
        <path id="path2" fill="#b4171e" stroke="none" d="M 59.8265 25.399475 C 52.526741 25.399475 46.569054 30.165588 42.112942 39.566925 C 37.964973 48.306732 35.861736 59.794922 35.861736 73.703552 C 35.861736 88.678833 38.049446 100.547577 42.37154 108.975464 C 46.96875 117.96521 52.845272 122.519043 59.8265 122.519043 C 66.841705 122.519043 72.662071 117.846466 77.12809 108.635529 C 81.285027 100.054443 83.394402 88.30127 83.394402 73.703552 C 83.394402 59.105469 81.281723 47.427338 77.112518 38.989716 C 72.643669 29.969025 66.829437 25.399475 59.8265 25.399475 Z M 66.251839 102.178741 C 63.661598 110.316895 60.775009 110.316895 59.8265 110.316895 C 57.485424 110.316895 55.304321 107.531372 53.353504 102.025848 C 51.022808 95.484955 49.839764 85.955841 49.839764 73.703552 C 49.839764 62.121826 51.025639 52.83606 53.360107 46.107788 C 55.319893 40.462067 57.498165 37.601776 59.8265 37.601776 C 61.614513 37.601776 64.245331 38.459473 66.417473 45.8862 C 68.405571 52.686066 69.413536 62.046936 69.413536 73.703552 C 69.413536 85.98703 68.349411 95.569061 66.251839 102.178741 Z"/>
        <path id="path3" fill="#b4171e" stroke="none" d="M 319.49292 429.153381 L 325.079224 429.153381 C 326.917267 429.153381 328.265472 429.536987 329.108276 430.301208 C 329.34848 430.522675 329.99118 431.099854 329.99118 433.220825 L 329.99118 514.579346 L 337.556152 514.579346 L 338.545258 512.327332 C 339.403625 510.3685 340.58667 508.952179 342.162323 508.000885 C 343.863525 506.965332 346.228668 506.441223 349.190765 506.441223 L 354.327332 506.441223 L 354.327332 495.255737 L 345.171143 495.255737 C 344.509552 495.255737 344.28775 495.118561 344.27832 494.747375 L 344.27832 433.220825 C 344.27832 431.729797 344.55014 430.703735 345.08667 430.157745 C 345.386322 429.855347 346.384857 429.153381 349.190765 429.153381 L 354.327332 429.153381 L 354.327332 417.964844 L 319.49292 417.964844 L 319.49292 429.153381 Z"/>
        <path id="path4" fill="#b4171e" stroke="none" d="M 300.081482 514.070862 C 307.37793 514.070862 313.338928 509.301636 317.792206 499.90033 C 321.942535 491.160095 324.046234 479.672211 324.046234 465.763672 C 324.046234 450.788239 321.858551 438.919739 317.53598 430.491486 C 312.936401 421.505096 307.062714 416.947845 300.081482 416.947845 C 293.065796 416.947845 287.242615 421.620544 282.779877 430.831604 C 278.622955 439.412384 276.513123 451.165588 276.513123 465.763672 C 276.513123 480.361389 278.625793 492.039795 282.795471 500.477356 C 287.264313 509.498016 293.078552 514.070862 300.081482 514.070862 Z M 293.65567 437.288361 C 296.243073 429.153381 299.132965 429.153381 300.081482 429.153381 C 302.422089 429.153381 304.603668 431.938995 306.554016 437.441254 C 308.885162 443.982178 310.064911 453.511444 310.064911 465.763672 C 310.064911 477.34845 308.882355 486.631226 306.547882 493.359314 C 304.588074 499.005035 302.409821 501.865448 300.081482 501.865448 C 298.290161 501.865448 295.662659 501.007629 293.490509 493.580627 C 291.499115 486.780945 290.494446 477.420074 290.494446 465.763672 C 290.494446 453.480255 291.558563 443.897797 293.65567 437.288361 Z"/>
        <path id="path5" fill="#000000" stroke="none" d="M 273.573181 438.741882 L 273.573181 100.675262 L 86.334312 100.675262 L 86.334312 438.741882 L 273.573181 438.741882 Z M 87.351723 101.682739 L 272.559082 101.682739 L 272.559082 437.734222 L 87.351723 437.734222 L 87.351723 101.682739 Z"/>
        <path id="path6" fill="#b4171e" stroke="none" d="M 134.728653 125.906769 C 132.500366 129.736969 129.10791 134.590393 123.990196 139.543915 C 119.963982 143.442963 115.907089 146.403015 112.442902 148.592682 C 115.907089 150.782318 119.963982 153.742371 123.990196 157.641418 C 129.10791 162.59787 132.500366 167.451385 134.728653 171.28183 C 136.956955 167.451385 140.349411 162.59787 145.464294 157.641418 C 149.490036 153.742371 153.547394 150.782318 157.01442 148.592682 C 153.547394 146.403015 149.490036 143.442963 145.464294 139.543915 C 140.349411 134.590393 136.956955 129.736969 134.728653 125.906769 Z"/>
        <path id="path7" fill="#b4171e" stroke="none" d="M 225.179321 125.906769 C 222.950562 129.736969 219.558563 134.590393 214.44368 139.543915 C 210.417938 143.442963 206.357285 146.403015 202.893555 148.592682 C 206.357285 150.782318 210.417938 153.742371 214.44368 157.641418 C 219.558563 162.59787 222.950562 167.451385 225.179321 171.28183 C 227.407135 167.451385 230.799606 162.59787 235.917786 157.641418 C 239.943527 153.742371 244.000412 150.782318 247.464615 148.592682 C 244.000412 146.403015 239.943527 143.442963 235.917786 139.543915 C 230.799606 134.590393 227.407135 129.736969 225.179321 125.906769 Z"/>
        <path id="path8" fill="#b4171e" stroke="none" d="M 134.728653 207.717224 C 132.500366 211.547852 129.10791 216.401367 123.990196 221.357666 C 119.963982 225.256683 115.907089 228.216705 112.442902 230.406403 C 115.907089 232.596069 119.963982 235.556335 123.990196 239.455353 C 129.10791 244.408661 132.500366 249.262146 134.728653 253.09256 C 136.956955 249.262146 140.349411 244.408661 145.464294 239.455353 C 149.490036 235.556335 153.547394 232.596069 157.01442 230.406403 C 153.547394 228.216705 149.490036 225.256683 145.464294 221.357666 C 140.349411 216.401367 136.956955 211.547852 134.728653 207.717224 Z"/>
        <path id="path9" fill="#b4171e" stroke="none" d="M 225.179321 207.717224 C 222.950562 211.547852 219.558563 216.401367 214.44368 221.357666 C 210.417938 225.256683 206.357285 228.216705 202.893555 230.406403 C 206.357285 232.596069 210.417938 235.556335 214.44368 239.455353 C 219.558563 244.408661 222.950562 249.262146 225.179321 253.09256 C 227.407135 249.262146 230.799606 244.408661 235.917786 239.455353 C 239.943527 235.556335 244.000412 232.596069 247.464615 230.406403 C 244.000412 228.216705 239.943527 225.256683 235.917786 221.357666 C 230.799606 216.401367 227.407135 211.547852 225.179321 207.717224 Z"/>
        <path id="path10" fill="#b4171e" stroke="none" d="M 179.952332 168.88327 C 177.724045 172.713409 174.332062 177.566925 169.216705 182.520233 C 165.190964 186.422424 161.134064 189.379517 157.66658 191.569183 C 161.134064 193.762085 165.190964 196.718903 169.216705 200.61792 C 174.332062 205.574493 177.724045 210.427917 179.952332 214.258331 C 182.183929 210.427917 185.57309 205.574493 190.690796 200.61792 C 194.717026 196.718903 198.773911 193.762085 202.241394 191.569183 C 198.773911 189.379517 194.717026 186.41925 190.690796 182.520233 C 185.57309 177.566925 182.183929 172.713409 179.952332 168.88327 Z"/>
        <path id="path11" fill="#b4171e" stroke="none" d="M 134.728653 289.531189 C 132.500366 293.361603 129.10791 298.215027 123.990196 303.168396 C 119.963982 307.067444 115.907089 310.027679 112.442902 312.217316 C 115.907089 314.407043 119.963982 317.367065 123.990196 321.266113 C 129.10791 326.222412 132.500366 331.075928 134.728653 334.906494 C 136.956955 331.075928 140.349411 326.222412 145.464294 321.266113 C 149.490036 317.367065 153.547394 314.407043 157.01442 312.217316 C 153.547394 310.027679 149.490036 307.067444 145.464294 303.168396 C 140.349411 298.215027 136.956955 293.361603 134.728653 289.531189 Z"/>
        <path id="path12" fill="#b4171e" stroke="none" d="M 225.179321 289.531189 C 222.950562 293.361603 219.558563 298.215027 214.44368 303.168396 C 210.417938 307.067444 206.357285 310.027679 202.893555 312.217316 C 206.357285 314.407043 210.417938 317.367065 214.44368 321.266113 C 219.558563 326.222412 222.950562 331.075928 225.179321 334.906494 C 227.407135 331.075928 230.799606 326.222412 235.917786 321.266113 C 239.943527 317.367065 244.000412 314.407043 247.464615 312.217316 C 244.000412 310.027679 239.943527 307.067444 235.917786 303.168396 C 230.799606 298.215027 227.407135 293.361603 225.179321 289.531189 Z"/>
        <path id="path13" fill="#b4171e" stroke="none" d="M 134.728653 368.188293 C 132.500366 372.015686 129.10791 376.869202 123.990196 381.8255 C 119.963982 385.724548 115.907089 388.684784 112.442902 390.87442 C 115.907089 393.064026 119.963982 396.02417 123.990196 399.923187 C 129.10791 404.876404 132.500366 409.729919 134.728653 413.560547 C 136.956955 409.729919 140.349411 404.876404 145.464294 399.923187 C 149.490036 396.02417 153.547394 393.064026 157.01442 390.87442 C 153.547394 388.684784 149.490036 385.724548 145.464294 381.8255 C 140.349411 376.869202 136.956955 372.015686 134.728653 368.188293 Z"/>
        <path id="path14" fill="#b4171e" stroke="none" d="M 179.952332 325.208679 C 177.724045 329.039185 174.332062 333.8927 169.216705 338.848999 C 165.190964 342.748016 161.134064 345.708282 157.66658 347.897888 C 161.134064 350.087524 165.190964 353.047668 169.216705 356.946655 C 174.332062 361.900146 177.724045 366.753662 179.952332 370.583801 C 182.183929 366.753662 185.57309 361.900146 190.690796 356.946655 C 194.717026 353.047668 198.773911 350.087524 202.241394 347.897888 C 198.773911 345.708282 194.717026 342.748016 190.690796 338.848999 C 185.57309 333.8927 182.183929 329.039185 179.952332 325.208679 Z"/>
        <path id="path15" fill="#b4171e" stroke="none" d="M 225.179321 368.188293 C 222.950562 372.015686 219.558563 376.869202 214.44368 381.8255 C 210.417938 385.724548 206.357285 388.684784 202.893555 390.87442 C 206.357285 393.064026 210.417938 396.02417 214.44368 399.923187 C 219.558563 404.876404 222.950562 409.729919 225.179321 413.560547 C 227.407135 409.729919 230.799606 404.876404 235.917786 399.923187 C 239.943527 396.02417 244.000412 393.064026 247.464615 390.87442 C 244.000412 388.684784 239.943527 385.724548 235.917786 381.8255 C 230.799606 376.869202 227.407135 372.015686 225.179321 368.188293 Z"/>
        <path id="path16" fill="#b4171e" stroke="none" d="M 43.872639 136.374786 C 40.995491 141.318634 36.616768 147.585266 30.010225 153.979614 C 24.814178 159.013885 19.577549 162.83493 15.102087 165.661041 C 19.577549 168.48703 24.814178 172.308136 30.010225 177.342346 C 36.616768 183.736694 40.995491 190.003357 43.872639 194.947174 C 46.74696 190.003357 51.12521 183.736694 57.732224 177.342346 C 62.928272 172.308136 68.164902 168.48703 72.640366 165.661041 C 68.164902 162.83493 62.928272 159.013885 57.732224 153.979614 C 51.12521 147.585266 46.74696 141.318634 43.872639 136.374786 Z"/>
        <path id="path17" fill="#b4171e" stroke="none" d="M 316.047607 403.092224 C 318.924744 398.148468 323.303467 391.881958 329.907196 385.487579 C 335.103241 380.453064 340.339874 376.635071 344.815338 373.80603 C 340.339874 370.980042 335.103241 367.158997 329.907196 362.127777 C 323.303467 355.730347 318.924744 349.463715 316.047607 344.519653 C 313.170471 349.463715 308.791748 355.730347 302.184723 362.127777 C 296.988678 367.158997 291.752045 370.980042 287.279877 373.80603 C 291.752045 376.635071 296.988678 380.453064 302.184723 385.487579 C 308.791748 391.881958 313.170471 398.148468 316.047607 403.092224 Z"/>
    </g>
</svg>
