<?xml version="1.0" encoding="UTF-8"?>
<!-- Generated by Pixelmator Pro 3.7 -->
<svg width="208" height="376" viewBox="0 0 208 376" xmlns="http://www.w3.org/2000/svg">
    <g id="Group-copy">
        <path id="Path" fill="#000000" stroke="none" d="M 207.803741 376.238831 L 207.803741 0.252655 L -0.239464 0.252655 L -0.239464 376.238831 L 207.803741 376.238831 Z M 0.890732 1.369995 L 206.676971 1.369995 L 206.676971 375.121735 L 0.890732 375.121735 L 0.890732 1.369995 Z"/>
        <path id="path1" fill="#b4171e" stroke="none" d="M 55.144608 32.144287 L 53.507919 33.781708 L 51.871231 32.144287 C 46.804901 27.07608 38.5905 27.07608 33.52417 32.144287 C 28.457848 37.212891 28.457848 45.431091 33.52417 50.499573 L 53.507919 70.488312 L 73.491394 50.499573 C 78.557205 45.431091 78.557205 37.212891 73.491394 32.144287 C 68.425339 27.07608 60.210419 27.07608 55.144608 32.144287 Z"/>
        <path id="path2" fill="#b4171e" stroke="none" d="M 73.491394 171.030243 C 68.425339 165.961914 60.210419 165.961914 55.144608 171.030243 L 53.507919 172.667938 L 51.871231 171.030243 C 46.804901 165.961914 38.5905 165.961914 33.52417 171.030243 C 28.457848 176.098694 28.457848 184.316895 33.52417 189.385376 L 53.507919 209.378052 L 73.491394 189.385376 C 78.557205 184.316895 78.557205 176.098694 73.491394 171.030243 L 73.491394 171.030243 Z"/>
        <path id="path3" fill="#b4171e" stroke="none" d="M 173.995026 171.030243 C 168.928955 165.961914 160.714294 165.961914 155.648224 171.030243 L 154.011536 172.667938 L 152.374847 171.030243 C 147.308777 165.961914 139.093857 165.961914 134.028046 171.030243 C 128.961731 176.098694 128.961731 184.316895 134.028046 189.385376 L 154.011536 209.378052 L 173.995026 189.385376 C 179.061096 184.316895 179.061096 176.098694 173.995026 171.030243 L 173.995026 171.030243 Z"/>
        <path id="path4" fill="#b4171e" stroke="none" d="M 53.507919 306.114136 L 33.52417 326.106506 C 28.457848 331.174988 28.457848 339.39325 33.52417 344.461792 C 38.5905 349.530212 46.804901 349.530212 51.871231 344.461792 L 53.507919 342.824341 L 55.144608 344.461792 C 60.210419 349.530212 68.425339 349.530212 73.491394 344.461792 L 73.491394 344.461792 C 78.557205 339.39325 78.557205 331.174988 73.491394 326.106506 L 53.507919 306.114136 Z"/>
        <path id="path5" fill="#b4171e" stroke="none" d="M 155.648224 32.144287 L 154.011536 33.781708 L 152.374847 32.144287 C 147.308777 27.07608 139.093857 27.07608 134.028046 32.144287 C 128.961731 37.212891 128.961731 45.431091 134.028046 50.499573 L 154.011536 70.488312 L 173.995026 50.499573 C 179.061096 45.431091 179.061096 37.212891 173.995026 32.144287 C 168.928955 27.07608 160.714294 27.07608 155.648224 32.144287 Z"/>
        <path id="path6" fill="#b4171e" stroke="none" d="M 154.011536 306.114136 L 134.028046 326.106506 C 128.961731 331.174988 128.961731 339.39325 134.028046 344.461792 C 139.093857 349.530212 147.308777 349.530212 152.374847 344.461792 L 154.011536 342.824341 L 155.648224 344.461792 C 160.714294 349.530212 168.928955 349.530212 173.995026 344.461792 L 173.995026 344.461792 C 179.061096 339.39325 179.061096 331.174988 173.995026 326.106506 L 154.011536 306.114136 Z"/>
    </g>
</svg>
