<?xml version="1.0" encoding="UTF-8"?>
<!-- Generated by Pixelmator Pro 3.7 -->
<svg width="208" height="375" viewBox="0 0 208 375" xmlns="http://www.w3.org/2000/svg">
    <g id="Group-copy">
        <path id="Path" fill="#000000" stroke="none" d="M 66.275848 46.735382 C 64.82634 46.735382 63.453125 47.032837 62.173763 47.510895 C 63.987152 45.436523 65.124687 42.752838 65.124687 39.78006 C 65.124687 33.265839 59.839973 27.984131 53.324402 27.984131 C 46.80542 27.984131 41.52438 33.265839 41.52438 39.78006 C 41.52438 42.752838 42.661652 45.436523 44.475304 47.510895 C 43.192272 47.032837 41.822464 46.735382 40.373219 46.735382 C 33.854237 46.735382 28.573196 52.016815 28.573196 58.530518 C 28.573196 65.046082 33.854237 70.32724 40.373219 70.32724 C 44.399014 70.32724 47.942692 68.304504 50.075397 65.227692 C 50.810509 64.583771 51.73988 64.202454 52.756031 64.072968 L 52.756031 67.282135 C 52.756031 72.777954 48.300022 77.232239 42.804005 77.232239 L 42.804005 78.386688 L 63.845062 78.386688 L 63.845062 77.232239 C 58.345638 77.232239 53.889629 72.777954 53.889629 67.282135 L 53.889629 64.072968 C 54.905777 64.201385 55.835152 64.582733 56.573669 65.226654 C 58.702705 68.303711 62.250053 70.32724 66.275848 70.32724 C 72.79142 70.32724 78.076134 65.046082 78.076134 58.530518 C 78.076134 52.016815 72.79142 46.735382 66.275848 46.735382 Z"/>
        <path id="path1" fill="#000000" stroke="none" d="M 66.275848 181.3815 C 64.82634 181.3815 63.453125 181.679474 62.173763 182.157776 C 63.987152 180.081589 65.124687 177.398682 65.124687 174.424347 C 65.124687 167.910889 59.839973 162.631302 53.324402 162.631302 C 46.80542 162.631302 41.52438 167.910889 41.52438 174.424347 C 41.52438 177.398682 42.661652 180.081589 44.475304 182.157776 C 43.192272 181.679474 41.822464 181.3815 40.373219 181.3815 C 33.854237 181.3815 28.573196 186.66423 28.573196 193.177689 C 28.573196 199.691147 33.854237 204.973877 40.373219 204.973877 C 44.399014 204.973877 47.942692 202.94957 50.075397 199.874863 C 50.810509 199.229889 51.73988 198.848816 52.756031 198.716995 L 52.756031 201.926941 C 52.756031 207.424576 48.300022 211.879135 42.804005 211.879135 L 42.804005 213.029922 L 63.845062 213.029922 L 63.845062 211.879135 C 58.345638 211.879135 53.889629 207.424576 53.889629 201.926941 L 53.889629 198.716995 C 54.905777 198.845413 55.835152 199.226471 56.573669 199.871445 C 58.702705 202.94957 62.250053 204.973877 66.275848 204.973877 C 72.79142 204.973877 78.076134 199.691147 78.076134 193.177689 C 78.076134 186.66423 72.79142 181.3815 66.275848 181.3815 Z"/>
        <path id="path2" fill="#000000" stroke="none" d="M 66.275848 305.334259 C 62.250053 305.334259 58.702705 307.355133 56.573669 310.433533 C 55.835152 311.077972 54.909187 311.459564 53.893299 311.587708 L 53.893299 308.377777 C 53.893299 302.883545 58.349045 298.428986 63.845062 298.428986 L 63.845062 297.27478 L 42.804005 297.27478 L 42.804005 298.428986 C 48.300022 298.428986 52.759174 302.883545 52.759174 308.377777 L 52.759174 311.587708 C 51.74329 311.459564 50.813915 311.077972 50.075397 310.433533 C 47.946362 307.358551 44.399014 305.334259 40.373219 305.334259 C 33.857643 305.334259 28.573196 310.613586 28.573196 317.130707 C 28.573196 323.64389 33.857643 328.92688 40.373219 328.92688 C 41.822464 328.92688 43.195679 328.628632 44.475304 328.15033 C 42.661652 330.223145 41.52438 332.909698 41.52438 335.880371 C 41.52438 342.393829 46.80883 347.676575 53.324402 347.676575 C 59.839973 347.676575 65.124687 342.393829 65.124687 335.880371 C 65.124687 332.909698 63.987152 330.223145 62.173763 328.15033 C 63.456532 328.628632 64.82634 328.92688 66.275848 328.92688 C 72.79142 328.92688 78.076134 323.64389 78.076134 317.130707 C 78.076134 310.613586 72.79142 305.334259 66.275848 305.334259 Z"/>
        <path id="path3" fill="#000000" stroke="none" d="M 166.807526 46.735382 C 165.358017 46.735382 163.984787 47.032837 162.705429 47.510895 C 164.518829 45.436523 165.656097 42.752838 165.656097 39.78006 C 165.656097 33.265839 160.371643 27.984131 153.855804 27.984131 C 147.3405 27.984131 142.056046 33.265839 142.056046 39.78006 C 142.056046 42.752838 143.193314 45.436523 145.006973 47.510895 C 143.723679 47.032837 142.354126 46.735382 140.904617 46.735382 C 134.389313 46.735382 129.104599 52.016815 129.104599 58.530518 C 129.104599 65.046082 134.389313 70.32724 140.904617 70.32724 C 144.930679 70.32724 148.477768 68.304504 150.606812 65.227692 C 151.342178 64.583771 152.271286 64.202454 153.28743 64.072968 L 153.28743 67.282135 C 153.28743 72.777954 148.831421 77.232239 143.335419 77.232239 L 143.335419 78.386688 L 164.376465 78.386688 L 164.376465 77.232239 C 158.877045 77.232239 154.421295 72.777954 154.421295 67.282135 L 154.421295 64.072968 C 155.437454 64.201385 156.366302 64.582733 157.105072 65.226654 C 159.234116 68.303711 162.781723 70.32724 166.807526 70.32724 C 173.32309 70.32724 178.607544 65.046082 178.607544 58.530518 C 178.607544 52.016815 173.32309 46.735382 166.807526 46.735382 Z"/>
        <path id="path4" fill="#000000" stroke="none" d="M 166.807526 181.3815 C 165.358017 181.3815 163.984787 181.679474 162.705429 182.157776 C 164.518829 180.081589 165.656097 177.398682 165.656097 174.424347 C 165.656097 167.910889 160.371643 162.631302 153.855804 162.631302 C 147.3405 162.631302 142.056046 167.910889 142.056046 174.424347 C 142.056046 177.398682 143.193314 180.081589 145.006973 182.157776 C 143.723679 181.679474 142.354126 181.3815 140.904617 181.3815 C 134.389313 181.3815 129.104599 186.66423 129.104599 193.177689 C 129.104599 199.691147 134.389313 204.973877 140.904617 204.973877 C 144.930679 204.973877 148.477768 202.94957 150.606812 199.874863 C 151.342178 199.229889 152.271286 198.848816 153.28743 198.716995 L 153.28743 201.926941 C 153.28743 207.424576 148.831421 211.879135 143.335419 211.879135 L 143.335419 213.029922 L 164.376465 213.029922 L 164.376465 211.879135 C 158.877045 211.879135 154.421295 207.424576 154.421295 201.926941 L 154.421295 198.716995 C 155.437454 198.845413 156.366302 199.226471 157.105072 199.871445 C 159.234116 202.94957 162.781723 204.973877 166.807526 204.973877 C 173.32309 204.973877 178.607544 199.691147 178.607544 193.177689 C 178.607544 186.66423 173.32309 181.3815 166.807526 181.3815 Z"/>
        <path id="path5" fill="#000000" stroke="none" d="M 166.807526 305.334259 C 162.781723 305.334259 159.237518 307.355133 157.105072 310.433533 C 156.369965 311.077972 155.440857 311.459564 154.424973 311.587708 L 154.424973 308.377777 C 154.424973 302.883545 158.880447 298.428986 164.376465 298.428986 L 164.376465 297.27478 L 143.335419 297.27478 L 143.335419 298.428986 C 148.834839 298.428986 153.290848 302.883545 153.290848 308.377777 L 153.290848 311.587708 C 152.274963 311.459564 151.345322 311.077972 150.606812 310.433533 C 148.477768 307.358551 144.930679 305.334259 140.904617 305.334259 C 134.389313 305.334259 129.104599 310.613586 129.104599 317.130707 C 129.104599 323.64389 134.389313 328.92688 140.904617 328.92688 C 142.354126 328.92688 143.727356 328.628632 145.006973 328.15033 C 143.193314 330.223145 142.056046 332.909698 142.056046 335.880371 C 142.056046 342.393829 147.3405 347.676575 153.855804 347.676575 C 160.375046 347.676575 165.656097 342.393829 165.656097 335.880371 C 165.656097 332.909698 164.518829 330.223145 162.705429 328.15033 C 163.988205 328.628632 165.358017 328.92688 166.807526 328.92688 C 173.32309 328.92688 178.607544 323.64389 178.607544 317.130707 C 178.607544 310.613586 173.32309 305.334259 166.807526 305.334259 Z"/>
        <path id="path6" fill="#000000" stroke="none" d="M 207.617081 375.688904 L 207.617081 -0.028198 L -0.436609 -0.028198 L -0.440017 375.688904 L 207.617081 375.688904 Z M 0.690436 1.090088 L 206.486893 1.090363 L 206.486893 374.56955 L 0.690436 374.56955 L 0.690436 1.090088 Z"/>
    </g>
</svg>
