<?xml version="1.0" encoding="UTF-8"?>
<!-- Generated by Pixelmator Pro 3.7 -->
<svg width="208" height="378" viewBox="0 0 208 378" xmlns="http://www.w3.org/2000/svg">
    <path id="Path-copy-10" fill="#000000" stroke="none" d="M 207.713806 378.138702 L 207.713806 1.815613 L -0.329384 1.815613 L -0.329384 378.138702 L 207.713806 378.138702 Z M 0.797661 2.933929 L 206.587036 2.933929 L 206.583374 377.020569 L 0.797661 377.020569 L 0.797661 2.933929 Z"/>
    <path id="Path-copy-7" fill="#b4171e" stroke="none" d="M 56.699448 30.730316 L 54.634933 32.797607 L 52.570419 30.730316 C 46.179764 24.331573 35.817825 24.331573 29.427505 30.730316 C 23.036858 37.129547 23.036858 47.505249 29.427505 53.904327 L 54.634933 79.140656 L 79.841705 53.904327 C 86.23201 47.505249 86.23201 37.129547 79.841705 30.730316 C 73.447083 24.331573 63.089432 24.331573 56.699448 30.730316 Z"/>
    <path id="Path-copy-6" fill="#b4171e" stroke="none" d="M 79.841705 169.740738 C 73.447083 163.341827 63.089432 163.341827 56.699448 169.740738 L 54.634933 171.808365 L 52.570419 169.740738 C 46.179764 163.341827 35.817825 163.341827 29.427505 169.740738 C 23.036858 176.139816 23.036858 186.515518 29.427505 192.914581 L 54.634933 218.155899 L 79.841705 192.914581 C 86.23201 186.515518 86.23201 176.139816 79.841705 169.740738 L 79.841705 169.740738 Z"/>
    <path id="Path-copy-5" fill="#b4171e" stroke="none" d="M 180.342163 169.740738 C 173.951843 163.341827 163.589905 163.341827 157.1996 169.740738 L 155.135071 171.808365 L 153.070557 169.740738 C 146.680237 163.341827 136.318298 163.341827 129.927643 169.740738 C 123.537323 176.139816 123.537323 186.515518 129.927643 192.914581 L 155.135071 218.155899 L 180.342163 192.914581 C 186.732483 186.515518 186.732483 176.139816 180.342163 169.740738 L 180.342163 169.740738 Z"/>
    <path id="Path-copy-4" fill="#b4171e" stroke="none" d="M 54.634933 303.951172 L 29.427505 329.192047 C 23.036858 335.591125 23.036858 345.966919 29.427505 352.366058 C 35.817825 358.765137 46.179764 358.765137 52.570419 352.366058 L 54.634933 350.298767 L 56.699448 352.366058 C 63.089432 358.765137 73.447083 358.765137 79.841705 352.366058 L 79.841705 352.366058 C 86.23201 345.966919 86.23201 335.591125 79.841705 329.192047 L 54.634933 303.951172 Z"/>
    <path id="Path-copy-3" fill="#b4171e" stroke="none" d="M 157.1996 30.730316 L 155.135071 32.797607 L 153.070557 30.730316 C 146.680237 24.331573 136.318298 24.331573 129.927643 30.730316 C 123.537323 37.129547 123.537323 47.505249 129.927643 53.904327 L 155.135071 79.140656 L 180.342163 53.904327 C 186.732483 47.505249 186.732483 37.129547 180.342163 30.730316 C 173.951843 24.331573 163.589905 24.331573 157.1996 30.730316 Z"/>
    <path id="Path-copy-2" fill="#b4171e" stroke="none" d="M 106.964951 100.233765 L 104.900436 102.301392 L 102.835922 100.233765 C 96.445602 93.834869 86.083664 93.834869 79.693344 100.233765 C 73.302689 106.632843 73.302689 117.008545 79.693344 123.407623 L 104.900436 148.648926 L 130.107529 123.407623 C 136.497849 117.008545 136.497849 106.632843 130.107529 100.233765 C 123.717224 93.834869 113.35527 93.834869 106.964951 100.233765 Z"/>
    <path id="Path-copy" fill="#b4171e" stroke="none" d="M 155.135071 303.951172 L 129.927643 329.192047 C 123.537323 335.591125 123.537323 345.966919 129.927643 352.366058 C 136.318298 358.765137 146.680237 358.765137 153.070557 352.366058 L 155.135071 350.298767 L 157.1996 352.366058 C 163.589905 358.765137 173.951843 358.765137 180.342163 352.366058 L 180.342163 352.366058 C 186.732483 345.966919 186.732483 335.591125 180.342163 329.192047 L 155.135071 303.951172 Z"/>
</svg>
