<?xml version="1.0" encoding="UTF-8"?>
<!-- Generated by Pixelmator Pro 3.7 -->
<svg width="360" height="538" viewBox="0 0 360 538" xmlns="http://www.w3.org/2000/svg">
    <g id="g317-copy">
        <path id="path27715" fill="#ffffff" stroke="none" d="M 340.348877 2.613464 L 17.272697 2.613464 C 8.014716 2.613464 0.509833 10.11731 0.509833 19.374817 L 0.509833 520.713867 C 0.509833 529.971008 8.014716 537.474976 17.272697 537.474976 L 340.348877 537.474976 C 349.607025 537.474976 357.111389 529.971008 357.111389 520.713867 L 357.111389 19.374817 C 357.111389 10.11731 349.607025 2.613464 340.348877 2.613464 Z"/>
        <path id="path27716" fill="#000000" stroke="none" d="M 25.761045 53.505646 C 26.630018 49.458801 27.930361 46.482574 29.634127 44.648254 C 31.083647 43.093658 32.989124 42.364502 35.618095 42.364502 L 54.379379 42.364502 C 43.426723 62.551636 36.744678 76.827271 33.997845 85.885864 C 30.981277 95.822998 29.451105 104.350983 29.451105 111.234283 C 29.451105 115.501404 30.434738 118.558258 32.44915 120.559814 C 34.407665 122.530518 36.924671 123.57019 39.730434 123.57019 C 43.057484 123.57019 45.589977 122.552246 47.269161 120.541107 C 48.789906 118.704102 49.497406 116.075623 49.497406 112.261505 L 49.453629 102.42691 C 49.149887 100.28241 48.982353 98.588043 48.982353 97.3591 C 48.982353 89.665649 51.049301 80.393005 55.136551 69.797974 C 59.31102 58.939392 64.993767 47.671112 72.011047 36.303467 L 72.628471 35.307434 L 72.628471 26.431854 L 18.76852 26.431854 L 13.92376 55.507019 L 24.938375 57.34436 L 25.761045 53.505646 Z"/>
        <path id="path27717" fill="#000000" stroke="none" d="M 331.860535 486.583038 C 330.991394 490.629791 329.691193 493.609039 327.990631 495.440063 C 326.537903 496.994873 324.632263 497.724182 322.003296 497.724182 L 303.242188 497.724182 C 314.197876 477.536804 320.879913 463.261322 323.626404 454.202545 C 326.640289 444.265594 328.170471 435.73761 328.170471 428.854309 C 328.170471 424.587036 327.186493 421.530334 325.172424 419.528809 C 323.213898 417.558075 320.696716 416.518555 317.890961 416.518555 C 314.567291 416.518555 312.034607 417.536499 310.35257 419.550354 C 308.831818 421.384674 308.123993 424.01297 308.123993 427.826935 L 308.167755 437.661682 C 308.474884 439.809021 308.639221 441.500397 308.639221 442.72934 C 308.639221 450.422607 306.572266 459.695404 302.487885 470.290466 C 298.310547 481.149017 292.630981 492.417297 285.610535 503.785034 L 284.995972 504.781158 L 284.995972 513.656799 L 338.852722 513.656799 L 343.697479 484.581421 L 332.685883 482.744141 L 331.860535 486.583038 Z"/>
        <path id="path27718" fill="#000000" stroke="none" d="M 271.920471 438.176788 L 271.920471 101.812439 L 85.700935 101.812439 L 85.700935 438.176788 L 271.920471 438.176788 Z M 86.712692 102.811707 L 270.908875 102.811707 L 270.908875 437.174347 L 86.712692 437.174347 L 86.712692 102.811707 Z"/>
        <path id="path27719" fill="#000000" stroke="none" d="M 133.822403 126.940277 L 115.923691 144.834381 C 111.386383 149.371429 111.386383 156.729401 115.923691 161.266815 C 120.461342 165.800659 127.819908 165.800659 132.357224 161.266815 L 133.316605 160.304749 L 133.316605 162.169739 C 133.316605 167.066803 129.34671 171.036041 124.449417 171.036041 L 124.449417 172.063232 L 143.192352 172.063232 L 143.192352 171.036041 C 138.294724 171.036041 134.325165 167.066803 134.325165 162.169739 L 134.325165 160.301575 L 135.287247 161.266815 C 139.824554 165.800659 147.180435 165.800659 151.717743 161.266815 C 156.255386 156.729401 156.255386 149.371429 151.717743 144.834381 L 133.822403 126.940277 Z"/>
        <path id="path27720" fill="#000000" stroke="none" d="M 135.287247 378.82196 L 134.325165 379.783813 L 134.325165 377.918884 C 134.325165 373.02179 138.29808 369.052399 143.192352 369.052399 L 143.192352 368.02536 L 124.449417 368.02536 L 124.449417 369.052399 C 129.34671 369.052399 133.316605 373.02179 133.316605 377.918884 L 133.316605 379.787048 L 132.354187 378.82196 C 127.816879 374.287598 120.461342 374.287598 115.923691 378.82196 C 111.386383 383.358826 111.386383 390.717163 115.923691 395.254059 L 133.822403 413.14798 L 151.717743 395.254059 C 156.255386 390.717163 156.255386 383.358826 151.717743 378.82196 C 147.180435 374.287598 139.824554 374.287598 135.287247 378.82196 Z"/>
        <path id="path27721" fill="#000000" stroke="none" d="M 223.802536 126.940277 L 205.90686 144.834381 C 201.36618 149.371429 201.36618 156.729401 205.90686 161.266815 C 210.444504 165.800659 217.800034 165.800659 222.337357 161.266815 L 223.296402 160.304749 L 223.296402 162.169739 C 223.296402 167.066803 219.326843 171.036041 214.432587 171.036041 L 214.432587 172.063232 L 233.171814 172.063232 L 233.171814 171.036041 C 228.277542 171.036041 224.304962 167.066803 224.304962 162.169739 L 224.304962 160.301575 L 225.267044 161.266815 C 229.804352 165.800659 237.159882 165.800659 241.69754 161.266815 C 246.235184 156.729401 246.235184 149.371429 241.69754 144.834381 L 223.802536 126.940277 Z"/>
        <path id="path27722" fill="#000000" stroke="none" d="M 178.812302 187.210815 L 160.913589 205.107941 C 156.376282 209.64502 156.376282 216.999969 160.913589 221.537201 C 165.451233 226.074249 172.806778 226.074249 177.347458 221.537201 L 178.306168 220.574982 L 178.306168 222.440125 C 178.306168 227.337189 174.336945 231.30658 169.439316 231.30658 L 169.439316 232.333801 L 188.182251 232.333801 L 188.182251 231.30658 C 183.284622 231.30658 179.315063 227.337189 179.315063 222.440125 L 179.315063 220.574982 L 180.277145 221.537201 C 184.814789 226.074249 192.170319 226.074249 196.707642 221.537201 C 201.245285 216.999969 201.245285 209.64502 196.707642 205.107941 L 178.812302 187.210815 Z"/>
        <path id="path27723" fill="#000000" stroke="none" d="M 133.822403 247.484253 L 115.923691 265.37851 C 111.386383 269.915558 111.386383 277.270538 115.923691 281.807739 C 120.461342 286.344604 127.819908 286.344604 132.357224 281.807739 L 133.316605 280.848572 L 133.316605 282.713867 C 133.316605 287.607758 129.34671 291.580017 124.449417 291.580017 L 124.449417 292.604187 L 143.192352 292.604187 L 143.192352 291.580017 C 138.294724 291.580017 134.325165 287.607758 134.325165 282.713867 L 134.325165 280.845367 L 135.287247 281.807739 C 139.824554 286.344604 147.180435 286.344604 151.717743 281.807739 C 156.255386 277.270538 156.255386 269.915558 151.717743 265.37851 L 133.822403 247.484253 Z"/>
        <path id="path27724" fill="#000000" stroke="none" d="M 223.802536 247.484253 L 205.90686 265.37851 C 201.36618 269.915558 201.36618 277.270538 205.90686 281.807739 C 210.444504 286.344604 217.800034 286.344604 222.337357 281.807739 L 223.296402 280.848572 L 223.296402 282.713867 C 223.296402 287.607758 219.326843 291.580017 214.432587 291.580017 L 214.432587 292.604187 L 233.171814 292.604187 L 233.171814 291.580017 C 228.277542 291.580017 224.304962 287.607758 224.304962 282.713867 L 224.304962 280.845367 L 225.267044 281.807739 C 229.804352 286.344604 237.159882 286.344604 241.69754 281.807739 C 246.235184 277.270538 246.235184 269.915558 241.69754 265.37851 L 223.802536 247.484253 Z"/>
        <path id="path27725" fill="#000000" stroke="none" d="M 225.267044 378.82196 L 224.307983 379.783813 L 224.307983 377.918884 C 224.307983 373.02179 228.277542 369.052399 233.171814 369.052399 L 233.171814 368.02536 L 214.429214 368.02536 L 214.429214 369.052399 C 219.326843 369.052399 223.296402 373.02179 223.296402 377.918884 L 223.296402 379.787048 L 222.33432 378.82196 C 217.796677 374.287598 210.441132 374.287598 205.903824 378.82196 C 201.36618 383.358826 201.36618 390.717163 205.903824 395.254059 L 223.802536 413.14798 L 241.69754 395.254059 C 246.235184 390.717163 246.235184 383.358826 241.69754 378.82196 C 237.159882 374.287598 229.804352 374.287598 225.267044 378.82196 Z"/>
        <path id="path27726" fill="#000000" stroke="none" d="M 43.277714 137.358154 L 20.161974 160.469116 C 14.299232 166.328217 14.299232 175.830719 20.161974 181.68985 C 26.021519 187.549133 35.521786 187.549133 41.384361 181.68985 L 42.622913 180.448456 L 42.622913 182.856812 C 42.622913 189.181366 37.495792 194.308136 31.173389 194.308136 L 31.173389 195.63324 L 55.378838 195.63324 L 55.378838 194.308136 C 49.056606 194.308136 43.926285 189.181366 43.926285 182.856812 L 43.926285 180.445587 L 45.16787 181.68985 C 51.030441 187.549133 60.530712 187.549133 66.390251 181.68985 C 72.252998 175.830719 72.252998 166.328217 66.390251 160.469116 L 43.277714 137.358154 Z"/>
        <path id="path27727" fill="#000000" stroke="none" d="M 314.34671 402.730103 L 337.462616 379.619476 C 343.321991 373.760376 343.321991 364.257874 337.462616 358.398743 C 331.599884 352.53949 322.099609 352.53949 316.240234 358.398743 L 314.998657 359.639984 L 314.998657 357.231628 C 314.998657 350.907227 320.12561 345.780273 326.45105 345.780273 L 326.45105 344.4552 L 302.242737 344.4552 L 302.242737 345.780273 C 308.56781 345.780273 313.695435 350.907227 313.695435 357.231628 L 313.695435 359.643005 L 312.453857 358.398743 C 306.594147 352.53949 297.090851 352.53949 291.23114 358.398743 C 285.371765 364.257874 285.371765 373.760376 291.23114 379.619476 L 314.34671 402.730103 Z"/>
    </g>
</svg>
