<?xml version="1.0" encoding="UTF-8"?>
<!-- Generated by Pixelmator Pro 3.7 -->
<svg width="209" height="376" viewBox="0 0 209 376" xmlns="http://www.w3.org/2000/svg">
    <g id="Group-copy">
        <path id="Path" fill="#000000" stroke="none" d="M 66.678123 47.000397 C 65.225258 47.000397 63.848602 47.29834 62.562363 47.777161 C 64.383705 45.699341 65.523819 43.011169 65.523819 40.033447 C 65.523819 33.508331 60.226421 28.217834 53.69482 28.217834 C 47.159019 28.217834 41.865303 33.508331 41.865303 40.033447 C 41.865303 43.011169 43.004887 45.699341 44.823074 47.777161 C 43.536835 47.29834 42.163864 47.000397 40.710472 47.000397 C 34.175194 47.000397 28.881475 52.290619 28.881475 58.815216 C 28.881475 65.341644 34.175194 70.631622 40.710472 70.631622 C 44.746857 70.631622 48.299656 68.60553 50.437431 65.52356 C 51.174381 64.878571 52.105812 64.496613 53.124504 64.366913 L 53.124504 67.581451 C 53.124504 73.086426 48.657093 77.548157 43.147861 77.548157 L 43.147861 78.704529 L 64.241257 78.704529 L 64.241257 77.548157 C 58.728348 77.548157 54.260937 73.086426 54.260937 67.581451 L 54.260937 64.366913 C 55.279625 64.495544 56.211586 64.877533 56.951687 65.522522 C 59.086308 68.604736 62.642262 70.631622 66.678123 70.631622 C 73.210243 70.631622 78.508171 65.341644 78.508171 58.815216 C 78.508171 52.290619 73.210243 47.000397 66.678123 47.000397 Z"/>
        <path id="path1" fill="#000000" stroke="none" d="M 117.069618 94.895264 C 115.616753 94.895264 114.240105 95.190613 112.953865 95.669678 C 114.775208 93.593445 115.915314 90.905792 115.915314 87.926758 C 115.915314 81.402435 110.61792 76.110626 104.085793 76.110626 C 97.550514 76.110626 92.256271 81.402435 92.256271 87.926758 C 92.256271 90.905792 93.396385 93.593445 95.214577 95.669678 C 93.928337 95.190613 92.555367 94.895264 91.101967 94.895264 C 84.566689 94.895264 79.272446 100.183655 79.272446 106.708008 C 79.272446 113.235992 84.566689 118.527557 91.101967 118.527557 C 95.138359 118.527557 98.690628 116.499603 100.828934 113.416351 C 101.565353 112.773987 102.497314 112.391998 103.515999 112.259979 L 103.515999 115.475281 C 103.515999 120.982346 99.049118 125.444077 93.53936 125.444077 L 93.53936 126.597061 L 114.632759 126.597061 L 114.632759 125.444077 C 109.119324 125.444077 104.652435 120.982346 104.652435 115.475281 L 104.652435 112.259979 C 105.671127 112.388611 106.602562 112.770294 107.343185 113.416351 C 109.477806 116.499603 113.03376 118.527557 117.069618 118.527557 C 123.601746 118.527557 128.899139 113.235992 128.899139 106.708008 C 128.899139 100.183655 123.601746 94.895264 117.069618 94.895264 Z"/>
        <path id="path2" fill="#000000" stroke="none" d="M 66.678123 138.117874 C 65.225258 138.117874 63.848602 138.416351 62.562363 138.895706 C 64.383705 136.815521 65.523819 134.128143 65.523819 131.152252 C 65.523819 124.624512 60.226421 119.336365 53.69482 119.336365 C 47.159019 119.336365 41.865303 124.624512 41.865303 131.152252 C 41.865303 134.128143 43.004887 136.815521 44.823074 138.895706 C 43.536835 138.416351 42.163864 138.117874 40.710472 138.117874 C 34.175194 138.117874 28.881475 143.409424 28.881475 149.933746 C 28.881475 156.457825 34.175194 161.749634 40.710472 161.749634 C 44.746857 161.749634 48.299656 159.721954 50.437431 156.642105 C 51.174381 155.996048 52.105812 155.614349 53.124504 155.485718 L 53.124504 158.697617 C 53.124504 164.204422 48.657093 168.666168 43.147861 168.666168 L 43.147861 169.818878 L 64.241257 169.818878 L 64.241257 168.666168 C 58.728348 168.666168 54.260937 164.204422 54.260937 158.697617 L 54.260937 155.485718 C 55.279625 155.614349 56.211586 155.996048 56.951687 156.638687 C 59.086308 159.721954 62.642262 161.749634 66.678123 161.749634 C 73.210243 161.749634 78.508171 156.457825 78.508171 149.933746 C 78.508171 143.409424 73.210243 138.117874 66.678123 138.117874 Z"/>
        <path id="path3" fill="#000000" stroke="none" d="M 66.678123 306.030975 C 62.642262 306.030975 59.086308 308.055237 56.951687 311.138763 C 56.211586 311.784302 55.283306 312.166504 54.264614 312.294891 L 54.264614 309.07959 C 54.264614 303.576172 58.731503 299.114166 64.241257 299.114166 L 64.241257 297.958069 L 43.147861 297.958069 L 43.147861 299.114166 C 48.657093 299.114166 53.128181 303.576172 53.128181 309.07959 L 53.128181 312.294891 C 52.109493 312.166504 51.177532 311.784302 50.437431 311.138763 C 48.302811 308.058655 44.746857 306.030975 40.710472 306.030975 C 34.178871 306.030975 28.881475 311.319092 28.881475 317.847107 C 28.881475 324.371185 34.178871 329.662994 40.710472 329.662994 C 42.163864 329.662994 43.540516 329.364258 44.823074 328.885162 C 43.004887 330.961395 41.865303 333.652466 41.865303 336.628082 C 41.865303 343.152405 47.162697 348.44397 53.69482 348.44397 C 60.226421 348.44397 65.523819 343.152405 65.523819 336.628082 C 65.523819 333.652466 64.383705 330.961395 62.562363 328.885162 C 63.852283 329.364258 65.225258 329.662994 66.678123 329.662994 C 73.213402 329.662994 78.508171 324.371185 78.508171 317.847107 C 78.508171 311.319092 73.213402 306.030975 66.678123 306.030975 Z"/>
        <path id="path4" fill="#000000" stroke="none" d="M 66.678123 218.506821 C 62.642262 218.506821 59.086308 220.530823 56.951687 223.614349 C 56.211586 224.260132 55.283306 224.64209 54.264614 224.770462 L 54.264614 221.55542 C 54.264614 216.051758 58.731503 211.586609 64.241257 211.586609 L 64.241257 210.43364 L 43.147861 210.43364 L 43.147861 211.586609 C 48.657093 211.586609 53.128181 216.051758 53.128181 221.55542 L 53.128181 224.770462 C 52.109493 224.64209 51.177532 224.260132 50.437431 223.614349 C 48.302811 220.530823 44.746857 218.506821 40.710472 218.506821 C 34.178871 218.506821 28.881475 223.794952 28.881475 230.322693 C 28.881475 236.847031 34.178871 242.135162 40.710472 242.135162 C 42.163864 242.135162 43.540516 241.839828 44.823074 241.361008 C 43.004887 243.437241 41.865303 246.124634 41.865303 249.103668 C 41.865303 255.628006 47.162697 260.9198 53.69482 260.9198 C 60.226421 260.9198 65.523819 255.628006 65.523819 249.103668 C 65.523819 246.124634 64.383705 243.437241 62.562363 241.361008 C 63.852283 241.839828 65.225258 242.135162 66.678123 242.135162 C 73.213402 242.135162 78.508171 236.847031 78.508171 230.322693 C 78.508171 223.794952 73.213402 218.506821 66.678123 218.506821 Z"/>
        <path id="path5" fill="#000000" stroke="none" d="M 167.461121 47.000397 C 166.008255 47.000397 164.631607 47.29834 163.348511 47.777161 C 165.167236 45.699341 166.306824 43.011169 166.306824 40.033447 C 166.306824 33.508331 161.008896 28.217834 154.477295 28.217834 C 147.945694 28.217834 142.647781 33.508331 142.647781 40.033447 C 142.647781 43.011169 143.787888 45.699341 145.606079 47.777161 C 144.319839 47.29834 142.946869 47.000397 141.493988 47.000397 C 134.961868 47.000397 129.663956 52.290619 129.663956 58.815216 C 129.663956 65.341644 134.961868 70.631622 141.493988 70.631622 C 145.529327 70.631622 149.085815 68.60553 151.21991 65.52356 C 151.960526 64.878571 152.888809 64.496613 153.907501 64.366913 L 153.907501 67.581451 C 153.907501 73.086426 149.440094 77.548157 143.930862 77.548157 L 143.930862 78.704529 L 165.024261 78.704529 L 165.024261 77.548157 C 159.510818 77.548157 155.04393 73.086426 155.04393 67.581451 L 155.04393 64.366913 C 156.062622 64.495544 156.994064 64.877533 157.73468 65.522522 C 159.868774 68.604736 163.425262 70.631622 167.461121 70.631622 C 173.992722 70.631622 179.290649 65.341644 179.290649 58.815216 C 179.290649 52.290619 173.992722 47.000397 167.461121 47.000397 Z"/>
        <path id="path6" fill="#000000" stroke="none" d="M 167.461121 138.117874 C 166.008255 138.117874 164.631607 138.416351 163.348511 138.895706 C 165.167236 136.815521 166.306824 134.128143 166.306824 131.152252 C 166.306824 124.624512 161.008896 119.336365 154.477295 119.336365 C 147.945694 119.336365 142.647781 124.624512 142.647781 131.152252 C 142.647781 134.128143 143.787888 136.815521 145.606079 138.895706 C 144.319839 138.416351 142.946869 138.117874 141.493988 138.117874 C 134.961868 138.117874 129.663956 143.409424 129.663956 149.933746 C 129.663956 156.457825 134.961868 161.749634 141.493988 161.749634 C 145.529327 161.749634 149.085815 159.721954 151.21991 156.642105 C 151.960526 155.996048 152.888809 155.614349 153.907501 155.485718 L 153.907501 158.697617 C 153.907501 164.204422 149.440094 168.666168 143.930862 168.666168 L 143.930862 169.818878 L 165.024261 169.818878 L 165.024261 168.666168 C 159.510818 168.666168 155.04393 164.204422 155.04393 158.697617 L 155.04393 155.485718 C 156.062622 155.614349 156.994064 155.996048 157.73468 156.638687 C 159.868774 159.721954 163.425262 161.749634 167.461121 161.749634 C 173.992722 161.749634 179.290649 156.457825 179.290649 149.933746 C 179.290649 143.409424 173.992722 138.117874 167.461121 138.117874 Z"/>
        <path id="path7" fill="#000000" stroke="none" d="M 167.461121 306.030975 C 163.425262 306.030975 159.872467 308.055237 157.73468 311.138763 C 156.997742 311.784302 156.065781 312.166504 155.047607 312.294891 L 155.047607 309.07959 C 155.047607 303.576172 159.514496 299.114166 165.024261 299.114166 L 165.024261 297.958069 L 143.930862 297.958069 L 143.930862 299.114166 C 149.443771 299.114166 153.91066 303.576172 153.91066 309.07959 L 153.91066 312.294891 C 152.891968 312.166504 151.960526 311.784302 151.21991 311.138763 C 149.085815 308.058655 145.529327 306.030975 141.493988 306.030975 C 134.961868 306.030975 129.663956 311.319092 129.663956 317.847107 C 129.663956 324.371185 134.961868 329.662994 141.493988 329.662994 C 142.946869 329.662994 144.322983 329.364258 145.606079 328.885162 C 143.787888 330.961395 142.647781 333.652466 142.647781 336.628082 C 142.647781 343.152405 147.945694 348.44397 154.477295 348.44397 C 161.008896 348.44397 166.306824 343.152405 166.306824 336.628082 C 166.306824 333.652466 165.167236 330.961395 163.348511 328.885162 C 164.63475 329.364258 166.008255 329.662994 167.461121 329.662994 C 173.996399 329.662994 179.290649 324.371185 179.290649 317.847107 C 179.290649 311.319092 173.996399 306.030975 167.461121 306.030975 Z"/>
        <path id="path8" fill="#000000" stroke="none" d="M 167.461121 218.506821 C 163.425262 218.506821 159.872467 220.530823 157.73468 223.614349 C 156.997742 224.260132 156.065781 224.64209 155.047607 224.770462 L 155.047607 221.55542 C 155.047607 216.051758 159.514496 211.586609 165.024261 211.586609 L 165.024261 210.43364 L 143.930862 210.43364 L 143.930862 211.586609 C 149.443771 211.586609 153.91066 216.051758 153.91066 221.55542 L 153.91066 224.770462 C 152.891968 224.64209 151.960526 224.260132 151.21991 223.614349 C 149.085815 220.530823 145.529327 218.506821 141.493988 218.506821 C 134.961868 218.506821 129.663956 223.794952 129.663956 230.322693 C 129.663956 236.847031 134.961868 242.135162 141.493988 242.135162 C 142.946869 242.135162 144.322983 241.839828 145.606079 241.361008 C 143.787888 243.437241 142.647781 246.124634 142.647781 249.103668 C 142.647781 255.628006 147.945694 260.9198 154.477295 260.9198 C 161.008896 260.9198 166.306824 255.628006 166.306824 249.103668 C 166.306824 246.124634 165.167236 243.437241 163.348511 241.361008 C 164.63475 241.839828 166.008255 242.135162 167.461121 242.135162 C 173.996399 242.135162 179.290649 236.847031 179.290649 230.322693 C 179.290649 223.794952 173.996399 218.506821 167.461121 218.506821 Z"/>
        <path id="path9" fill="#000000" stroke="none" d="M 117.069618 258.232422 C 113.03376 258.232422 109.477806 260.260101 107.343185 263.343384 C 106.602562 263.985748 105.674805 264.367706 104.652435 264.499756 L 104.652435 261.284454 C 104.652435 255.781052 109.123001 251.315643 114.632759 251.315643 L 114.632759 250.162933 L 93.53936 250.162933 L 93.53936 251.315643 C 99.049118 251.315643 103.519157 255.781052 103.519157 261.284454 L 103.519157 264.499756 C 102.500992 264.371124 101.569031 263.989166 100.828934 263.343384 C 98.694313 260.260101 95.138359 258.232422 91.101967 258.232422 C 84.570374 258.232422 79.272446 263.523987 79.272446 270.051727 C 79.272446 276.57605 84.570374 281.864197 91.101967 281.864197 C 92.555367 281.864197 93.932014 281.569122 95.214577 281.089783 C 93.396385 283.16626 92.256271 285.853668 92.256271 288.832947 C 92.256271 295.3573 97.554199 300.648865 104.085793 300.648865 C 110.61792 300.648865 115.915314 295.3573 115.915314 288.832947 C 115.915314 285.853668 114.775208 283.16626 112.953865 281.089783 C 114.243782 281.569122 115.616753 281.864197 117.069618 281.864197 C 123.601746 281.864197 128.899139 276.57605 128.899139 270.051727 C 128.899139 263.523987 123.601746 258.232422 117.069618 258.232422 Z"/>
        <path id="path10" fill="#000000" stroke="none" d="M 208.376389 376.503082 L 208.376389 0.158722 L -0.197437 0.158722 L -0.197437 376.503082 L 208.376389 376.503082 Z M 0.932162 1.2789 L 207.243103 1.279144 L 207.243103 375.381866 L 0.932162 375.381866 L 0.932162 1.2789 Z"/>
    </g>
</svg>
