<?xml version="1.0" encoding="UTF-8"?>
<!-- Generated by Pixelmator Pro 3.7 -->
<svg width="210" height="378" viewBox="0 0 210 378" xmlns="http://www.w3.org/2000/svg">
    <path id="Path-copy-6" fill="#000000" stroke="none" d="M 208.903885 377.218567 L 208.903885 0.878113 L 0.85033 0.878113 L 0.85033 377.218567 L 208.903885 377.218567 Z M 1.977375 1.996429 L 207.773697 1.996429 L 207.773697 376.100586 L 1.977375 376.100586 L 1.977375 1.996429 Z"/>
    <path id="Path-copy-5" fill="#ff0000" stroke="none" d="M 57.903347 29.723511 L 55.838829 31.790802 L 53.774311 29.723511 C 47.383663 23.324615 37.022049 23.324615 30.631733 29.723511 C 24.241085 36.122589 24.241085 46.498291 30.631733 52.897369 L 55.838829 78.138336 L 81.045929 52.897369 C 87.436241 46.498291 87.436241 36.122589 81.045929 29.723511 C 74.655609 23.324615 64.293663 23.324615 57.903347 29.723511 Z"/>
    <path id="Path-copy-4" fill="#ff0000" stroke="none" d="M 106.09259 217.152084 L 131.298203 191.912582 C 137.688065 185.513977 137.688065 175.139008 131.298203 168.740387 C 124.908348 162.341949 114.54715 162.341949 108.15696 168.740387 L 106.09259 170.807877 L 104.028221 168.740387 C 97.638687 162.341949 87.277489 162.341949 80.883331 168.740387 C 74.493141 175.139008 74.493141 185.513977 80.883331 191.912582 L 106.09259 217.152084 Z"/>
    <path id="Path-copy-3" fill="#ff0000" stroke="none" d="M 55.838829 302.95813 L 30.631733 328.199005 C 24.241085 334.602631 24.241085 344.973877 30.631733 351.377502 C 37.022049 357.776306 47.383663 357.776306 53.774311 351.377502 L 55.838829 349.309875 L 57.903347 351.377502 C 64.293663 357.776306 74.655609 357.776306 81.045929 351.377502 C 87.436241 344.973877 87.436241 334.602631 81.045929 328.199005 L 55.838829 302.95813 Z"/>
    <path id="Path-copy-2" fill="#ff0000" stroke="none" d="M 156.345886 78.138641 L 181.553452 52.897522 C 187.943802 46.498413 187.943802 36.12265 181.553452 29.723541 C 175.162766 23.324615 164.801102 23.324615 158.410751 29.723541 L 156.345886 31.790863 L 154.281677 29.723541 C 147.891327 23.324615 137.529327 23.324615 131.138641 29.723541 C 124.748627 36.12265 124.748627 46.498413 131.138641 52.897522 L 156.345886 78.138641 Z"/>
    <path id="Path-copy" fill="#ff0000" stroke="none" d="M 154.281677 351.377777 L 156.345886 349.31012 L 158.410751 351.377777 C 164.801102 357.776611 175.162766 357.776611 181.553452 351.377777 C 187.943802 344.974121 187.943802 334.602814 181.553452 328.199158 L 156.345886 302.95813 L 131.138641 328.199158 C 124.748627 334.602814 124.748627 344.974121 131.138641 351.377777 C 137.529327 357.776611 147.891327 357.776611 154.281677 351.377777 Z"/>
</svg>
