<?xml version="1.0" encoding="UTF-8"?>
<!-- Generated by Pixelmator Pro 3.7 -->
<svg width="360" height="538" viewBox="0 0 360 538" xmlns="http://www.w3.org/2000/svg">
    <g id="g319-copy">
        <path id="path27742" fill="#ffffff" stroke="none" d="M 340.279175 2.613464 L 17.202654 2.613464 C 7.944504 2.613464 0.440127 10.11731 0.440127 19.374817 L 0.440127 520.713867 C 0.440127 529.971008 7.944504 537.474976 17.202654 537.474976 L 340.279175 537.474976 C 349.537323 537.474976 357.041687 529.971008 357.041687 520.713867 L 357.041687 19.374817 C 357.041687 10.11731 349.537323 2.613464 340.279175 2.613464 Z"/>
        <path id="path27743" fill="#000000" stroke="none" d="M 39.083378 90.00412 C 45.063644 90.00412 50.172077 88.356384 54.266232 85.103851 C 53.213902 93.389709 51.531857 99.65567 49.250404 103.811127 C 45.271755 111.035767 40.963768 111.873688 38.065395 111.873688 C 37.295597 111.873688 36.634563 111.814575 36.243263 111.622101 C 36.196793 111.501038 36.032463 111.004608 36.032463 109.837799 C 36.032463 107.2435 35.569775 104.890869 34.657528 102.833435 C 33.875271 101.079926 31.817417 98.141113 26.873653 98.141113 C 22.255522 98.141113 20.020878 100.614655 19.102236 102.088623 C 17.848194 104.096558 17.212082 106.188019 17.212082 108.313995 C 17.212082 113.111725 19.536638 117.118317 23.940598 119.889435 C 27.807785 122.331818 32.385506 123.57019 37.556236 123.57019 C 48.877964 123.57019 57.838093 118.198059 64.191475 107.609253 C 70.141098 97.684937 73.161034 85.0914 73.161034 70.170288 C 73.161034 56.500214 70.516571 45.790649 65.302399 38.336334 C 59.765625 30.438141 51.972321 26.431854 42.133957 26.431854 C 32.745487 26.431854 25.35594 29.674805 20.157597 36.073792 C 15.166689 42.21228 12.634025 49.921021 12.634025 58.979645 C 12.634025 69.518951 15.07038 77.395264 19.872036 82.394714 C 24.713428 87.443695 31.178272 90.00412 39.083378 90.00412 Z M 32.919586 43.003571 C 34.886852 39.676941 37.817215 38.128387 42.133957 38.128387 C 46.733566 38.128387 49.806034 39.80423 51.798557 43.40097 C 54.160492 47.686615 55.358635 53.607849 55.358635 61.015533 C 55.358635 64.131165 53.769531 67.73111 50.631737 71.722046 C 45.274784 78.527893 37.65221 79.455902 32.941135 73.087555 C 30.604122 69.931519 29.41844 65.009674 29.41844 58.470917 C 29.41844 52.121429 30.594692 46.910828 32.919586 43.003571 Z"/>
        <path id="path27744" fill="#000000" stroke="none" d="M 318.398438 450.08429 C 312.418182 450.08429 307.309753 451.732208 303.212555 454.984558 C 304.267914 446.698547 305.94693 440.432922 308.231079 436.277649 C 312.210052 429.052856 316.518036 428.215088 319.416412 428.215088 C 320.183197 428.215088 320.84726 428.273865 321.238556 428.466309 C 321.285034 428.587402 321.449341 429.083984 321.449341 430.250793 C 321.449341 432.845245 321.912048 435.197571 322.821259 437.255157 C 323.606201 439.008484 325.661041 441.947327 330.605133 441.947327 C 335.226288 441.947327 337.460938 439.473938 338.376556 437.999817 C 339.633606 435.992035 340.269745 433.900238 340.269745 431.774445 C 340.269745 426.976715 337.942139 422.970276 333.541229 420.199158 C 329.674042 417.756592 325.095978 416.518555 319.925568 416.518555 C 308.600494 416.518555 299.643738 421.89035 293.290344 432.479004 C 287.340729 442.403503 284.32077 454.99704 284.32077 469.921173 C 284.32077 483.588379 286.96524 494.298035 292.179413 501.75235 C 297.713165 509.650299 305.506134 513.656799 315.34787 513.656799 C 324.736328 513.656799 332.125885 510.413879 337.324219 504.014648 C 342.315125 497.876251 344.847443 490.16748 344.847443 481.108704 C 344.847443 470.569641 342.408081 462.693329 337.609772 457.693878 C 332.768036 452.644562 326.303528 450.08429 318.398438 450.08429 Z M 324.559204 497.084778 C 322.594635 500.411682 319.664612 501.960236 315.34787 501.960236 C 310.74826 501.960236 307.675781 500.284454 305.683258 496.687622 C 303.32132 492.401825 302.123169 486.480652 302.123169 479.072906 C 302.123169 475.957092 303.71228 472.357147 306.850067 468.366394 C 312.203674 461.56073 319.82962 460.63269 324.537323 467.000854 C 326.874664 470.156921 328.063385 475.078918 328.063385 481.617676 C 328.063385 487.967163 326.887115 493.177704 324.559204 497.084778 Z"/>
        <path id="path27745" fill="#000000" stroke="none" d="M 271.850403 438.176788 L 271.850403 101.812439 L 85.634094 101.812439 L 85.634094 438.176788 L 271.850403 438.176788 Z M 86.642647 102.811707 L 270.838837 102.811707 L 270.838837 437.174347 L 86.642647 437.174347 L 86.642647 102.811707 Z"/>
        <path id="path27746" fill="#000000" stroke="none" d="M 133.749664 126.940277 L 115.853989 144.834381 C 111.316673 149.371429 111.316673 156.729401 115.853989 161.266815 C 120.391632 165.800659 127.746834 165.800659 132.284485 161.266815 L 133.24353 160.304749 L 133.24353 162.169739 C 133.24353 167.066803 129.273972 171.036041 124.379715 171.036041 L 124.379715 172.063232 L 143.122299 172.063232 L 143.122299 171.036041 C 138.225006 171.036041 134.255112 167.066803 134.255112 162.169739 L 134.255112 160.301575 L 135.217545 161.266815 C 139.754852 165.800659 147.110382 165.800659 151.64769 161.266815 C 156.185349 156.729401 156.185349 149.371429 151.64769 144.834381 L 133.749664 126.940277 Z"/>
        <path id="path27747" fill="#000000" stroke="none" d="M 135.214508 378.82196 L 134.255112 379.783813 L 134.255112 377.918884 C 134.255112 373.02179 138.225006 369.052399 143.119278 369.052399 L 143.119278 368.02536 L 124.379715 368.02536 L 124.379715 369.052399 C 129.277008 369.052399 133.246567 373.02179 133.246567 377.918884 L 133.246567 379.787048 L 132.284485 378.82196 C 127.746834 374.287598 120.391632 374.287598 115.853989 378.82196 C 111.316673 383.358826 111.316673 390.717163 115.853989 395.254059 L 133.749664 413.14798 L 151.64769 395.254059 C 156.185349 390.717163 156.185349 383.358826 151.64769 378.82196 C 147.110382 374.287598 139.751816 374.287598 135.214508 378.82196 Z"/>
        <path id="path27748" fill="#000000" stroke="none" d="M 223.732147 126.940277 L 205.833786 144.834381 C 201.296478 149.371429 201.296478 156.729401 205.833786 161.266815 C 210.371429 165.800659 217.726959 165.800659 222.264282 161.266815 L 223.2267 160.304749 L 223.2267 162.169739 C 223.2267 167.066803 219.253769 171.036041 214.359512 171.036041 L 214.359512 172.063232 L 233.102097 172.063232 L 233.102097 171.036041 C 228.204803 171.036041 224.235245 167.066803 224.235245 162.169739 L 224.235245 160.301575 L 225.197327 161.266815 C 229.73465 165.800659 237.090179 165.800659 241.627823 161.266815 C 246.165146 156.729401 246.165146 149.371429 241.627823 144.834381 L 223.732147 126.940277 Z"/>
        <path id="path27749" fill="#000000" stroke="none" d="M 133.749664 208.344666 L 115.853989 226.23877 C 111.316673 230.77597 111.316673 238.130951 115.853989 242.667816 C 120.391632 247.204865 127.746834 247.204865 132.284485 242.667816 L 133.24353 241.708984 L 133.24353 243.570923 C 133.24353 248.46817 129.273972 252.44043 124.379715 252.44043 L 124.379715 253.4646 L 143.122299 253.4646 L 143.122299 252.44043 C 138.225006 252.44043 134.255112 248.46817 134.255112 243.570923 L 134.255112 241.70578 L 135.217545 242.667816 C 139.754852 247.204865 147.110382 247.204865 151.64769 242.667816 C 156.185349 238.130951 156.185349 230.77597 151.64769 226.23877 L 133.749664 208.344666 Z"/>
        <path id="path27750" fill="#000000" stroke="none" d="M 223.732147 208.344666 L 205.833786 226.23877 C 201.296478 230.77597 201.296478 238.130951 205.833786 242.667816 C 210.371429 247.204865 217.726959 247.204865 222.264282 242.667816 L 223.2267 241.708984 L 223.2267 243.570923 C 223.2267 248.46817 219.253769 252.44043 214.359512 252.44043 L 214.359512 253.4646 L 233.102097 253.4646 L 233.102097 252.44043 C 228.204803 252.44043 224.235245 248.46817 224.235245 243.570923 L 224.235245 241.70578 L 225.197327 242.667816 C 229.73465 247.204865 237.090179 247.204865 241.627823 242.667816 C 246.165146 238.130951 246.165146 230.77597 241.627823 226.23877 L 223.732147 208.344666 Z"/>
        <path id="path27751" fill="#000000" stroke="none" d="M 178.739227 247.484253 L 160.844223 265.37851 C 156.30658 269.915558 156.30658 277.270538 160.844223 281.807739 C 165.381531 286.344604 172.737076 286.344604 177.274384 281.807739 L 178.233429 280.848572 L 178.233429 282.713867 C 178.233429 287.607758 174.264206 291.580017 169.369614 291.580017 L 169.369614 292.604187 L 188.112198 292.604187 L 188.112198 291.580017 C 183.214569 291.580017 179.24501 287.607758 179.24501 282.713867 L 179.24501 280.845367 L 180.207092 281.807739 C 184.744751 286.344604 192.100281 286.344604 196.637589 281.807739 C 201.175247 277.270538 201.175247 269.915558 196.637589 265.37851 L 178.739227 247.484253 Z"/>
        <path id="path27752" fill="#000000" stroke="none" d="M 225.19397 378.82196 L 224.235245 379.783813 L 224.235245 377.918884 C 224.235245 373.02179 228.204803 369.052399 233.102097 369.052399 L 233.102097 368.02536 L 214.359512 368.02536 L 214.359512 369.052399 C 219.256805 369.052399 223.2267 373.02179 223.2267 377.918884 L 223.2267 379.787048 L 222.264282 378.82196 C 217.726959 374.287598 210.371429 374.287598 205.833786 378.82196 C 201.296478 383.358826 201.296478 390.717163 205.833786 395.254059 L 223.729126 413.14798 L 241.627823 395.254059 C 246.165146 390.717163 246.165146 383.358826 241.627823 378.82196 C 237.090179 374.287598 229.731613 374.287598 225.19397 378.82196 Z"/>
        <path id="path27753" fill="#000000" stroke="none" d="M 135.214508 300.561157 L 134.255112 301.520142 L 134.255112 299.658081 C 134.255112 294.760803 138.225006 290.791748 143.119278 290.791748 L 143.119278 289.764374 L 124.379715 289.764374 L 124.379715 290.791748 C 129.277008 290.791748 133.246567 294.760803 133.246567 299.658081 L 133.246567 301.523193 L 132.284485 300.561157 C 127.746834 296.024109 120.391632 296.024109 115.853989 300.561157 C 111.316673 305.098206 111.316673 312.453339 115.853989 316.990387 L 133.749664 334.887512 L 151.64769 316.990387 C 156.185349 312.453339 156.185349 305.098206 151.64769 300.561157 C 147.110382 296.024109 139.751816 296.024109 135.214508 300.561157 Z"/>
        <path id="path27754" fill="#000000" stroke="none" d="M 225.19397 300.561157 L 224.235245 301.520142 L 224.235245 299.658081 C 224.235245 294.760803 228.204803 290.791748 233.102097 290.791748 L 233.102097 289.764374 L 214.359512 289.764374 L 214.359512 290.791748 C 219.256805 290.791748 223.2267 294.760803 223.2267 299.658081 L 223.2267 301.523193 L 222.264282 300.561157 C 217.726959 296.024109 210.371429 296.024109 205.833786 300.561157 C 201.296478 305.098206 201.296478 312.453339 205.833786 316.990387 L 223.729126 334.887512 L 241.627823 316.990387 C 246.165146 312.453339 246.165146 305.098206 241.627823 300.561157 C 237.090179 296.024109 229.731613 296.024109 225.19397 300.561157 Z"/>
        <path id="path27755" fill="#000000" stroke="none" d="M 315.093292 402.730103 L 338.208862 379.619476 C 344.068573 373.760376 344.068573 364.257874 338.208862 358.398743 C 332.346436 352.53949 322.846161 352.53949 316.98645 358.398743 L 315.745209 359.639984 L 315.745209 357.231628 C 315.745209 350.907227 320.872162 345.780273 327.197266 345.780273 L 327.197266 344.4552 L 302.989288 344.4552 L 302.989288 345.780273 C 309.314392 345.780273 314.441345 350.907227 314.441345 357.231628 L 314.441345 359.643005 L 313.200104 358.398743 C 307.340729 352.53949 297.837433 352.53949 291.977722 358.398743 C 286.117981 364.257874 286.117981 373.760376 291.977722 379.619476 L 315.093292 402.730103 Z"/>
    </g>
</svg>
