<?xml version="1.0" encoding="UTF-8"?>
<!-- Generated by Pixelmator Pro 3.7 -->
<svg width="208" height="375" viewBox="0 0 208 375" xmlns="http://www.w3.org/2000/svg">
    <g id="Group-copy">
        <path id="Path" fill="#000000" stroke="none" d="M 207.480011 375.335571 L 207.480011 -0.045715 L -0.29478 -0.045715 L -0.29478 375.335571 L 207.480011 375.335571 Z M 0.830361 1.071594 L 206.354355 1.071838 L 206.354355 374.216705 L 0.830361 374.216705 L 0.830361 1.071594 Z"/>
        <path id="path1" fill="#000000" stroke="none" d="M 66.327988 46.593018 C 64.880554 46.593018 63.509178 46.889954 62.23127 47.367554 C 64.042496 45.295044 65.178368 42.61377 65.178368 39.643646 C 65.178368 33.135498 59.900742 27.858826 53.393902 27.858826 C 46.887196 27.858826 41.609699 33.135498 41.609699 39.643646 C 41.609699 42.61377 42.745575 45.295044 44.556667 47.367554 C 43.275223 46.889954 41.907513 46.593018 40.460079 46.593018 C 33.949707 46.593018 28.675875 51.86972 28.675875 58.377869 C 28.675875 64.887329 33.949707 70.164001 40.460079 70.164001 C 44.48048 70.164001 48.023071 68.142822 50.149254 65.068787 C 50.88678 64.425171 51.811375 64.044434 52.825901 63.9151 L 52.825901 67.121643 C 52.825901 72.612518 48.376255 77.062836 42.887348 77.062836 L 42.887348 78.21286 L 63.900589 78.21286 L 63.900589 77.062836 C 58.408146 77.062836 53.95837 72.612518 53.95837 67.121643 L 53.95837 63.9151 C 54.972897 64.043121 55.901024 64.424103 56.638683 65.067719 C 58.764996 68.142303 62.307327 70.164001 66.327988 70.164001 C 72.834824 70.164001 78.112457 64.887329 78.112457 58.377869 C 78.112457 51.86972 72.834824 46.593018 66.327988 46.593018 Z"/>
        <path id="path2" fill="#000000" stroke="none" d="M 66.327988 304.960632 C 62.307327 304.960632 58.764996 306.979706 56.638683 310.055328 C 55.90456 310.699219 54.976433 311.080444 53.962036 311.208496 L 53.962036 308.001434 C 53.962036 302.512115 58.411812 298.058411 63.900589 298.058411 L 63.900589 296.908386 L 42.887348 296.908386 L 42.887348 298.058411 C 48.379662 298.058411 52.829433 302.512115 52.829433 308.001434 L 52.829433 311.208496 C 51.814907 311.080444 50.88678 310.699219 50.149254 310.055328 C 48.023071 306.983124 44.48048 304.960632 40.460079 304.960632 C 33.953239 304.960632 28.675875 310.235229 28.675875 316.746521 C 28.675875 323.253876 33.953239 328.532135 40.460079 328.532135 C 41.907513 328.532135 43.278889 328.234161 44.556667 327.756287 C 42.745575 329.82724 41.609699 332.511414 41.609699 335.479401 C 41.609699 341.98703 46.887196 347.265045 53.393902 347.265045 C 59.900742 347.265045 65.178368 341.98703 65.178368 335.479401 C 65.178368 332.511414 64.042496 329.82724 62.23127 327.756287 C 63.512714 328.234161 64.880554 328.532135 66.327988 328.532135 C 72.838234 328.532135 78.112457 323.253876 78.112457 316.746521 C 78.112457 310.235229 72.838234 304.960632 66.327988 304.960632 Z"/>
        <path id="path3" fill="#000000" stroke="none" d="M 166.724762 46.593018 C 165.277206 46.593018 163.909485 46.889954 162.628052 47.367554 C 164.43927 45.295044 165.575012 42.61377 165.575012 39.643646 C 165.575012 33.135498 160.297516 27.858826 153.790817 27.858826 C 147.283966 27.858826 142.00647 33.135498 142.00647 39.643646 C 142.00647 42.61377 143.142227 45.295044 144.956848 47.367554 C 143.671997 46.889954 142.304291 46.593018 140.85672 46.593018 C 134.349884 46.593018 129.072388 51.86972 129.072388 58.377869 C 129.072388 64.887329 134.349884 70.164001 140.85672 70.164001 C 144.877121 70.164001 148.419846 68.142822 150.546036 65.068787 C 151.283691 64.425171 152.208282 64.044434 153.222809 63.9151 L 153.222809 67.121643 C 153.222809 72.612518 148.773041 77.062836 143.284256 77.062836 L 143.284256 78.21286 L 164.297363 78.21286 L 164.297363 77.062836 C 158.808456 77.062836 154.355286 72.612518 154.355286 67.121643 L 154.355286 63.9151 C 155.369812 64.043121 156.297928 64.424103 157.035583 65.067719 C 159.161636 68.142303 162.704239 70.164001 166.724762 70.164001 C 173.231476 70.164001 178.508972 64.887329 178.508972 58.377869 C 178.508972 51.86972 173.231476 46.593018 166.724762 46.593018 Z"/>
        <path id="path4" fill="#000000" stroke="none" d="M 166.724762 304.960632 C 162.704239 304.960632 159.165054 306.979706 157.035583 310.055328 C 156.301331 310.699219 155.373337 311.080444 154.358688 311.208496 L 154.358688 308.001434 C 154.358688 302.512115 158.808456 298.058411 164.297363 298.058411 L 164.297363 296.908386 L 143.284256 296.908386 L 143.284256 298.058411 C 148.776566 298.058411 153.226349 302.512115 153.226349 308.001434 L 153.226349 311.208496 C 152.211548 311.080444 151.283691 310.699219 150.546036 310.055328 C 148.419846 306.983124 144.877121 304.960632 140.85672 304.960632 C 134.349884 304.960632 129.072388 310.235229 129.072388 316.746521 C 129.072388 323.253876 134.349884 328.532135 140.85672 328.532135 C 142.304291 328.532135 143.675537 328.234161 144.956848 327.756287 C 143.142227 329.82724 142.00647 332.511414 142.00647 335.479401 C 142.00647 341.98703 147.283966 347.265045 153.790817 347.265045 C 160.301056 347.265045 165.575012 341.98703 165.575012 335.479401 C 165.575012 332.511414 164.43927 329.82724 162.628052 327.756287 C 163.909485 328.234161 165.277206 328.532135 166.724762 328.532135 C 173.235138 328.532135 178.508972 323.253876 178.508972 316.746521 C 178.508972 310.235229 173.235138 304.960632 166.724762 304.960632 Z"/>
    </g>
</svg>
