<?xml version="1.0" encoding="UTF-8"?>
<!-- Generated by Pixelmator Pro 3.7 -->
<svg width="400" height="400" viewBox="0 0 400 400" xmlns="http://www.w3.org/2000/svg">
    <path id="Path-copy" fill="#000000" stroke="none" d="M 277.033142 161.901733 C 268.302887 161.901733 260.046814 163.692963 252.328461 166.573761 C 263.253021 154.077545 270.092468 137.906433 270.092468 119.991791 C 270.092468 80.735413 238.290665 48.915924 199.058731 48.915924 C 159.825638 48.915924 128.024994 80.735413 128.024994 119.991791 C 128.024994 137.906433 134.864456 154.077545 145.796082 166.573761 C 138.069458 163.692963 129.806335 161.901733 121.0914 161.901733 C 81.851234 161.901733 50.050594 193.730652 50.050594 232.97818 C 50.050594 272.241028 81.851234 304.061707 121.0914 304.061707 C 145.330154 304.061707 166.67334 291.876862 179.496887 273.339417 C 183.931427 269.454407 189.526077 267.157532 195.641937 266.378784 L 195.641937 285.718506 C 195.641937 318.831238 168.813538 345.676727 135.728073 345.676727 L 135.728073 352.621521 L 262.396454 352.621521 L 262.396454 345.676727 C 229.2957 345.676727 202.46611 318.831238 202.46611 285.718506 L 202.46611 266.378784 C 208.581985 267.149872 214.177811 269.446747 218.620575 273.331177 C 231.442963 291.869202 252.794388 304.061707 277.033142 304.061707 C 316.265045 304.061707 348.066864 272.241028 348.066864 232.97818 C 348.066864 193.730652 316.265045 161.901733 277.033142 161.901733 Z"/>
</svg>
