<?xml version="1.0" encoding="UTF-8"?>
<!-- Generated by Pixelmator Pro 3.7 -->
<svg width="360" height="537" viewBox="0 0 360 537" xmlns="http://www.w3.org/2000/svg">
    <g id="g10-copy">
        <g id="g11">
            <path id="path23892" fill="#ffffff" stroke="none" d="M 19.056164 534.831787 L 340.899231 534.831787 C 350.121857 534.831787 357.597931 527.360901 357.597931 518.144409 L 357.597931 19.018372 C 357.597931 9.801941 350.121857 2.330383 340.899231 2.330383 L 19.056164 2.330383 C 9.833183 2.330383 2.357448 9.801941 2.357448 19.018372 L 2.357448 518.144409 C 2.357448 527.360901 9.833183 534.831787 19.056164 534.831787 Z"/>
            <path id="path23893" fill="#000000" stroke="none" d="M 47.595959 108.470215 C 47.595959 110.048157 47.237522 110.474823 47.237522 110.474823 C 47.234165 110.47937 46.563412 111.028931 44.012741 111.028931 L 34.283047 111.028931 L 34.283047 122.286224 L 76.269272 122.286224 L 76.269272 111.028931 L 67.565918 111.028931 C 66.131325 111.028931 65.00602 110.778625 64.393639 110.314728 C 64.189507 110.160156 63.982361 109.531281 63.982361 108.470215 L 63.982361 95.678253 L 77.805679 95.678253 L 77.805679 84.421112 L 63.982361 84.421112 L 63.982361 25.575928 L 52.502739 25.575928 L 13.289767 87.842712 L 13.289767 95.678253 L 47.595959 95.678253 L 47.595959 108.470215 Z M 29.40411 84.421112 L 47.595959 55.483093 L 47.595959 84.421112 L 29.40411 84.421112 Z"/>
            <path id="path23894" fill="#000000" stroke="none" d="M 146.705551 142.771057 C 145.413361 142.771057 144.188934 143.03595 143.048035 143.461945 C 144.665115 141.613098 145.679214 139.221039 145.679214 136.571472 C 145.679214 130.765533 140.967163 126.058044 135.157837 126.058044 C 129.348495 126.058044 124.63662 130.765533 124.63662 136.571472 C 124.63662 139.221039 125.650719 141.613098 127.267807 143.461945 C 126.12355 143.03595 124.902473 142.771057 123.610283 142.771057 C 117.797592 142.771057 113.089066 147.478363 113.089066 153.284485 C 113.089066 159.091614 117.797592 163.79892 123.610283 163.79892 C 127.199707 163.79892 130.362595 161.995819 132.260971 159.253387 C 132.919312 158.679352 133.744873 158.339691 134.65062 158.224182 L 134.65062 161.084808 C 134.65062 165.983246 130.677933 169.9534 125.777351 169.9534 L 125.777351 170.979431 L 144.538315 170.979431 L 144.538315 169.9534 C 139.634552 169.9534 135.661697 165.983246 135.661697 161.084808 L 135.661697 158.224182 C 136.567612 158.338501 137.396194 158.678345 138.054871 159.252533 C 139.953247 161.995331 143.115967 163.79892 146.705551 163.79892 C 152.51506 163.79892 157.227097 159.091614 157.227097 153.284485 C 157.227097 147.478363 152.51506 142.771057 146.705551 142.771057 Z"/>
            <path id="path23895" fill="#000000" stroke="none" d="M 146.705551 373.263428 C 143.115967 373.263428 139.953247 375.064697 138.054871 377.808472 C 137.399384 378.382874 136.570801 378.723022 135.665054 378.837189 L 135.665054 375.976196 C 135.665054 371.079102 139.637909 367.105957 144.538315 367.105957 L 144.538315 366.079895 L 125.777351 366.079895 L 125.777351 367.105957 C 130.680954 367.105957 134.653809 371.079102 134.653809 375.976196 L 134.653809 378.837189 C 133.748062 378.723022 132.919312 378.382874 132.260971 377.808472 C 130.362595 375.067688 127.199707 373.263428 123.610283 373.263428 C 117.800781 373.263428 113.089066 377.968933 113.089066 383.77771 C 113.089066 389.582977 117.800781 394.291809 123.610283 394.291809 C 124.902473 394.291809 126.126907 394.025909 127.267807 393.599731 C 125.650719 395.447266 124.63662 397.841827 124.63662 400.489563 C 124.63662 406.294983 129.348495 411.003662 135.157837 411.003662 C 140.967163 411.003662 145.679214 406.294983 145.679214 400.489563 C 145.679214 397.841827 144.665115 395.447266 143.048035 393.599731 C 144.192123 394.025909 145.413361 394.291809 146.705551 394.291809 C 152.518082 394.291809 157.227097 389.582977 157.227097 383.77771 C 157.227097 377.968933 152.518082 373.263428 146.705551 373.263428 Z"/>
            <path id="path23896" fill="#000000" stroke="none" d="M 236.342087 142.771057 C 235.049561 142.771057 233.828476 143.03595 232.684387 143.461945 C 234.301483 141.613098 235.315414 139.221039 235.315414 136.571472 C 235.315414 130.765533 230.603699 126.058044 224.794357 126.058044 C 218.984863 126.058044 214.27298 130.765533 214.27298 136.571472 C 214.27298 139.221039 215.287079 141.613098 216.907181 143.461945 C 215.760086 143.03595 214.538834 142.771057 213.246475 142.771057 C 207.436966 142.771057 202.725098 147.478363 202.725098 153.284485 C 202.725098 159.091614 207.436966 163.79892 213.246475 163.79892 C 216.835907 163.79892 219.998962 161.995819 221.897324 159.253387 C 222.555832 158.679352 223.381409 158.339691 224.28714 158.224182 L 224.28714 161.084808 C 224.28714 165.983246 220.314285 169.9534 215.413879 169.9534 L 215.413879 170.979431 L 234.174835 170.979431 L 234.174835 169.9534 C 229.274094 169.9534 225.298218 165.983246 225.298218 161.084808 L 225.298218 158.224182 C 226.204132 158.338501 227.032715 158.678345 227.691238 159.252533 C 229.589432 161.995331 232.752319 163.79892 236.342087 163.79892 C 242.151245 163.79892 246.863129 159.091614 246.863129 153.284485 C 246.863129 147.478363 242.151245 142.771057 236.342087 142.771057 Z"/>
            <path id="path23897" fill="#000000" stroke="none" d="M 236.342087 373.263428 C 232.752319 373.263428 229.592453 375.064697 227.691238 377.808472 C 227.035736 378.382874 226.207153 378.723022 225.301239 378.837189 L 225.301239 375.976196 C 225.301239 371.079102 229.274094 367.105957 234.174835 367.105957 L 234.174835 366.079895 L 215.413879 366.079895 L 215.413879 367.105957 C 220.317474 367.105957 224.290329 371.079102 224.290329 375.976196 L 224.290329 378.837189 C 223.384262 378.723022 222.555832 378.382874 221.897324 377.808472 C 219.998962 375.067688 216.835907 373.263428 213.246475 373.263428 C 207.436966 373.263428 202.725098 377.968933 202.725098 383.77771 C 202.725098 389.582977 207.436966 394.291809 213.246475 394.291809 C 214.538834 394.291809 215.763092 394.025909 216.907181 393.599731 C 215.287079 395.447266 214.27298 397.841827 214.27298 400.489563 C 214.27298 406.294983 218.984863 411.003662 224.794357 411.003662 C 230.60672 411.003662 235.315414 406.294983 235.315414 400.489563 C 235.315414 397.841827 234.301483 395.447266 232.684387 393.599731 C 233.828476 394.025909 235.049561 394.291809 236.342087 394.291809 C 242.154602 394.291809 246.863129 389.582977 246.863129 383.77771 C 246.863129 377.968933 242.154602 373.263428 236.342087 373.263428 Z"/>
            <path id="path23898" fill="#000000" stroke="none" d="M 67.562729 160.263824 C 63.12912 157.519531 59.094536 157.664063 55.625206 158.95697 C 58.240959 155.970612 59.632278 151.886597 58.769642 147.427734 C 57.653732 141.649963 52.743935 137.161774 46.888138 136.554382 C 38.73209 135.709229 31.849785 142.080505 31.849785 150.057526 C 31.849785 153.479462 33.157578 156.569275 35.247494 158.95697 C 31.781855 157.666382 27.759348 157.519714 23.328922 160.249908 C 20.400856 162.053345 18.17189 164.877258 17.352528 168.214203 C 15.154256 177.198822 21.900364 185.222626 30.520187 185.222626 C 35.158096 185.222626 39.238804 182.892914 41.694038 179.352295 C 42.544094 178.610779 43.610859 178.17218 44.782623 178.023651 L 44.782623 181.715851 C 44.782623 188.043671 39.650246 193.172485 33.321617 193.172485 L 33.321617 194.497925 L 57.551586 194.497925 L 57.551586 193.172485 C 51.219772 193.172485 46.087395 188.043671 46.087395 181.715851 L 46.087395 178.023651 C 47.258991 178.169006 48.328606 178.610779 49.178997 179.352295 C 51.630878 182.892914 55.714939 185.222626 60.349663 185.222626 C 68.96328 185.222626 75.706367 177.211212 73.523697 168.238831 C 72.713554 164.898712 70.484589 162.072937 67.562729 160.263824 Z"/>
            <path id="path23899" fill="#000000" stroke="none" d="M 312.356079 428.692078 C 312.356079 427.113464 312.714691 426.686951 312.714691 426.686951 C 312.720886 426.683929 313.391815 426.134033 315.939301 426.134033 L 325.669312 426.134033 L 325.669312 414.875244 L 283.683105 414.875244 L 283.683105 426.134033 L 292.386444 426.134033 C 293.824066 426.134033 294.949371 426.384003 295.561584 426.847565 C 295.762695 427.002319 295.973022 427.632324 295.973022 428.692078 L 295.973022 441.483551 L 282.146515 441.483551 L 282.146515 452.742188 L 295.973022 452.742188 L 295.973022 511.588226 L 307.44928 511.588226 L 346.662262 449.318726 L 346.662262 441.483551 L 312.356079 441.483551 L 312.356079 428.692078 Z M 330.551117 452.742188 L 312.356079 481.680176 L 312.356079 452.742188 L 330.551117 452.742188 Z"/>
            <path id="path23900" fill="#000000" stroke="none" d="M 292.392303 376.899811 C 296.826111 379.643585 300.857666 379.49823 304.329834 378.206818 C 301.714264 381.191681 300.322937 385.276001 301.182373 389.734375 C 302.301819 395.512146 307.208252 400.001343 313.06424 400.607056 C 321.21994 401.453552 328.105591 395.082642 328.105591 387.105103 C 328.105591 383.681824 326.794617 380.59198 324.707886 378.206818 C 328.170349 379.495239 332.195862 379.643585 336.626465 376.912231 C 339.551178 375.110962 341.783508 372.283691 342.59967 368.947083 C 344.797943 359.965332 338.051819 351.938354 329.432007 351.938354 C 324.797302 351.938354 320.713226 354.268005 318.261353 357.812195 C 317.41095 358.553528 316.341156 358.991943 315.169739 359.14032 L 315.169739 355.445099 C 315.169739 349.117767 320.301941 343.988647 326.630737 343.988647 L 326.630737 342.66333 L 302.403809 342.66333 L 302.403809 343.988647 C 308.732422 343.988647 313.864807 349.117767 313.864807 355.445099 L 313.864807 359.14032 C 312.696045 358.991943 311.626434 358.553528 310.776398 357.812195 C 308.324493 354.268005 304.240265 351.938354 299.602539 351.938354 C 290.989075 351.938354 284.245819 359.94989 286.428497 368.925629 C 287.241821 372.262207 289.467621 375.089172 292.392303 376.899811 Z"/>
        </g>
        <path id="path23901" fill="#000000" stroke="none" d="M 272.729126 436.045593 L 272.729126 101.164124 L 87.223396 101.164124 L 87.223396 436.045593 L 272.729126 436.045593 Z M 88.227928 102.160828 L 271.724091 102.161163 L 271.724091 435.047577 L 88.227928 435.047577 L 88.227928 102.160828 Z"/>
    </g>
</svg>
