<?xml version="1.0" encoding="UTF-8"?>
<!-- Generated by Pixelmator Pro 3.7 -->
<svg width="208" height="376" viewBox="0 0 208 376" xmlns="http://www.w3.org/2000/svg">
    <g id="Group-copy">
        <path id="Path" fill="#000000" stroke="none" d="M 207.637009 376.602142 L 207.637009 0.889191 L -0.416684 0.889191 L -0.416684 376.602142 L 207.637009 376.602142 Z M 0.710361 2.00531 L 206.509964 2.00531 L 206.506683 375.486023 L 0.710361 375.486023 L 0.710361 2.00531 Z"/>
        <path id="path1" fill="#ff0000" stroke="none" d="M 103.714241 28.887695 C 101.238098 33.144196 97.469223 38.537964 91.782486 44.042877 C 87.309303 48.379242 82.801384 51.665527 78.952217 54.102264 C 82.801384 56.53595 87.309303 59.825439 91.782486 64.158508 C 97.469223 69.663239 101.238098 75.056946 103.714241 79.313782 C 106.189987 75.056946 109.95919 69.663239 115.645996 64.158508 C 120.119179 59.825439 124.627029 56.53595 128.479477 54.102264 C 124.627029 51.665527 120.119179 48.379242 115.645996 44.042877 C 109.95919 38.537964 106.189987 33.144196 103.714241 28.887695 Z"/>
        <path id="path2" fill="#ff0000" stroke="none" d="M 103.714241 298.149841 C 101.238098 302.406555 97.469223 307.800354 91.782486 313.308655 C 87.309303 317.641724 82.801384 320.931213 78.952217 323.364716 C 82.801384 325.798096 87.309303 329.08786 91.782486 333.420929 C 97.469223 338.925415 101.238098 344.322723 103.714241 348.576233 C 106.189987 344.322723 109.95919 338.925415 115.645996 333.420929 C 120.119179 329.08786 124.627029 325.798096 128.479477 323.364716 C 124.627029 320.931213 120.119179 317.641724 115.645996 313.308655 C 109.95919 307.800354 106.189987 302.406555 103.714241 298.149841 Z"/>
    </g>
</svg>
