<?xml version="1.0" encoding="UTF-8"?>
<!-- Generated by Pixelmator Pro 3.7 -->
<svg width="208" height="376" viewBox="0 0 208 376" xmlns="http://www.w3.org/2000/svg">
    <g id="Group-copy">
        <path id="Path" fill="#000000" stroke="none" d="M 207.661316 376.903687 L 207.661316 1.183685 L -0.392368 1.183685 L -0.392368 376.903687 L 207.661316 376.903687 Z M 0.734349 2.303436 L 206.534546 2.303436 L 206.534546 375.784088 L 0.734349 375.784088 L 0.734349 2.303436 Z"/>
        <path id="path1" fill="#000000" stroke="none" d="M 103.637756 29.171661 L 83.640572 49.159119 C 78.570969 54.227081 78.570969 62.445892 83.640572 67.513977 C 88.709915 72.5784 96.928246 72.5784 102.001129 67.513977 L 103.072723 66.439453 L 103.072723 68.522614 C 103.072723 73.992706 98.637489 78.4263 93.165665 78.4263 L 93.165665 79.5737 L 114.106567 79.5737 L 114.106567 78.4263 C 108.634674 78.4263 104.199509 73.992706 104.199509 68.522614 L 104.199509 66.435913 L 105.274643 67.513977 C 110.343987 72.5784 118.562248 72.5784 123.631859 67.513977 C 128.701202 62.445892 128.701202 54.227081 123.631859 49.159119 L 103.637756 29.171661 Z"/>
        <path id="path2" fill="#000000" stroke="none" d="M 101.997849 310.521484 C 96.928246 305.456818 88.709915 305.456818 83.640572 310.521484 C 78.570969 315.589325 78.570969 323.80838 83.640572 328.876068 L 103.634476 348.863556 L 123.631859 328.876068 C 128.701202 323.80838 128.701202 315.589325 123.631859 310.521484 C 118.562248 305.456818 110.343987 305.456818 105.274643 310.521484 L 104.199509 311.596008 L 104.199509 309.512756 C 104.199509 304.042755 108.638275 299.609039 114.106567 299.609039 L 114.106567 298.461792 L 93.165665 298.461792 L 93.165665 299.609039 C 98.637489 299.609039 103.072723 304.042755 103.072723 309.512756 L 103.072723 311.599548 L 101.997849 310.521484 Z"/>
    </g>
</svg>
