<?xml version="1.0" encoding="UTF-8"?>
<!-- Generated by Pixelmator Pro 3.7 -->
<svg width="360" height="540" viewBox="0 0 360 540" xmlns="http://www.w3.org/2000/svg">
    <g id="Group-copy">
        <path id="Path" fill="#ffffff" stroke="none" d="M 342.405243 1.232544 L 17.538958 1.232544 C 8.229394 1.232544 0.683423 8.782043 0.683423 18.09552 L 0.683423 522.474792 C 0.683423 531.788391 8.229394 539.337952 17.538958 539.337952 L 342.405243 539.337952 C 351.711487 539.337952 359.260651 531.788391 359.260651 522.474792 L 359.260651 18.09552 C 359.260651 8.782043 351.711487 1.232544 342.405243 1.232544 Z"/>
        <path id="path1" fill="#b4171e" stroke="none" d="M 46.349976 108.489655 C 46.349976 110.085022 45.987915 110.51593 45.987915 110.51593 C 45.981899 110.51889 45.304607 111.07489 42.733131 111.07489 L 32.911797 111.07489 L 32.911797 122.451965 L 75.292534 122.451965 L 75.292534 111.07489 L 66.50737 111.07489 C 65.056168 111.07489 63.920197 110.821869 63.30225 110.353516 C 63.099453 110.197388 62.887218 109.560516 62.887218 108.489655 L 62.887218 95.56369 L 76.843422 95.56369 L 76.843422 84.186279 L 62.887218 84.186279 L 62.887218 24.723999 L 51.302879 24.723999 L 11.721542 87.645874 L 11.721542 95.56369 L 46.349976 95.56369 L 46.349976 108.489655 Z M 27.984138 84.186279 L 46.349976 54.94397 L 46.349976 84.186279 L 27.984138 84.186279 Z"/>
        <path id="path2" fill="#b4171e" stroke="none" d="M 313.593994 432.081024 C 313.593994 430.485413 313.956055 430.054565 313.956055 430.054565 C 313.962311 430.051544 314.639465 429.495758 317.214142 429.495758 L 327.032288 429.495758 L 327.032288 418.1185 L 284.651672 418.1185 L 284.651672 429.495758 L 293.439911 429.495758 C 294.887909 429.495758 296.023895 429.748627 296.641846 430.216888 C 296.847687 430.373047 297.056732 431.009979 297.056732 432.081024 L 297.056732 445.006714 L 283.100647 445.006714 L 283.100647 456.384216 L 297.056732 456.384216 L 297.056732 515.846436 L 308.641449 515.846436 L 348.225739 452.924622 L 348.225739 445.006714 L 313.593994 445.006714 L 313.593994 432.081024 Z M 331.960175 456.384216 L 313.593994 485.62677 L 313.593994 456.384216 L 331.960175 456.384216 Z"/>
        <path id="path3" fill="#000000" stroke="none" d="M 273.594543 439.486786 L 273.594543 101.083588 L 86.349411 101.083588 L 86.349411 439.486786 L 273.594543 439.486786 Z M 87.363754 102.089172 L 272.580322 102.089172 L 272.580322 438.481506 L 87.363754 438.481506 L 87.363754 102.089172 Z"/>
        <path id="path4" fill="#b4171e" stroke="none" d="M 57.310234 136.792358 C 52.419975 136.792358 47.816982 138.640656 44.287319 142.006439 C 40.76379 138.640656 36.157612 136.792358 31.270422 136.792358 C 26.223967 136.792358 21.483418 138.759277 17.919542 142.32486 C 14.35248 145.890442 12.389628 150.6362 12.389628 155.681732 C 12.389628 160.727142 14.35248 165.47287 17.919542 169.041534 L 44.290268 195.424072 L 70.661232 169.041534 C 74.225342 165.47287 76.191383 160.727142 76.191383 155.681732 C 76.191383 150.6362 74.225342 145.890442 70.661232 142.32486 C 67.09417 138.759277 62.353619 136.792358 57.310234 136.792358 Z"/>
        <path id="path5" fill="#b4171e" stroke="none" d="M 302.633728 403.778137 C 307.523865 403.778137 312.130402 401.929749 315.656982 398.563995 C 319.180176 401.929749 323.786591 403.778137 328.673767 403.778137 C 333.720001 403.778137 338.460663 401.811096 342.024536 398.245544 C 345.591492 394.680054 347.557648 389.934296 347.557648 384.885742 C 347.557648 379.843292 345.591492 375.097534 342.024536 371.528778 L 315.653809 345.146362 L 289.286285 371.528778 C 285.718964 375.097534 283.75293 379.843292 283.75293 384.885742 C 283.75293 389.934296 285.718964 394.680054 289.286285 398.245544 C 292.850159 401.811096 297.590454 403.778137 302.633728 403.778137 Z"/>
        <path id="path6" fill="#b4171e" stroke="none" d="M 136.21666 129.723724 L 134.743759 131.197418 L 133.270615 129.723724 C 128.711273 125.162231 121.318199 125.162231 116.758629 129.723724 C 112.195984 134.285339 112.195984 141.681732 116.758629 146.243347 L 134.743759 164.236542 L 152.729019 146.243347 C 157.288589 141.681732 157.288589 134.285339 152.729019 129.723724 C 148.169434 125.162231 140.776245 125.162231 136.21666 129.723724 Z"/>
        <path id="path7" fill="#b4171e" stroke="none" d="M 134.743759 376.30896 L 116.758629 394.302124 C 112.195984 398.866974 112.195984 406.260193 116.758629 410.825043 C 121.318199 415.386475 128.711273 415.386475 133.270615 410.825043 L 134.743759 409.351135 L 136.21666 410.825043 C 140.776245 415.386475 148.169434 415.386475 152.729019 410.825043 C 157.288589 406.260193 157.288589 398.866974 152.729019 394.302124 L 134.743759 376.30896 Z"/>
        <path id="path8" fill="#b4171e" stroke="none" d="M 225.200317 164.236542 L 243.185455 146.243347 C 247.745026 141.681732 247.745026 134.285339 243.185455 129.723724 C 238.625992 125.162231 231.232681 125.162231 226.67334 129.723724 L 225.200317 131.197418 L 223.727295 129.723724 C 219.167831 125.162231 211.774643 125.162231 207.212006 129.723724 C 202.652664 134.285339 202.652664 141.681732 207.212006 146.243347 L 225.200317 164.236542 Z"/>
        <path id="path9" fill="#b4171e" stroke="none" d="M 223.727295 410.825043 L 225.200317 409.351135 L 226.67334 410.825043 C 231.232681 415.386475 238.625992 415.386475 243.185455 410.825043 C 247.745026 406.260193 247.745026 398.866974 243.185455 394.302124 L 225.200317 376.30896 L 207.212006 394.302124 C 202.652664 398.866974 202.652664 406.260193 207.212006 410.825043 C 211.774643 415.386475 219.164658 415.386475 223.727295 410.825043 Z"/>
    </g>
</svg>
