<?xml version="1.0" encoding="UTF-8"?>
<!-- Generated by Pixelmator Pro 3.7 -->
<svg width="360" height="538" viewBox="0 0 360 538" xmlns="http://www.w3.org/2000/svg">
    <g id="g20-copy">
        <path id="path23973" fill="#ffffff" stroke="none" d="M 17.31378 537.20166 L 340.389954 537.20166 C 349.648102 537.20166 357.152802 529.697632 357.152802 520.440308 L 357.152802 19.102661 C 357.152802 9.845337 349.648102 2.340698 340.389954 2.340698 L 17.31378 2.340698 C 8.055294 2.340698 0.550916 9.845337 0.550916 19.102661 L 0.550916 520.440308 C 0.550916 529.697632 8.055294 537.20166 17.31378 537.20166 Z"/>
        <path id="path23974" fill="#000000" stroke="none" d="M 40.075432 111.154968 L 34.519802 111.154968 C 32.691944 111.154968 31.35136 110.770203 30.513536 110.011414 C 30.274111 109.790131 29.634968 109.215576 29.634968 107.107941 L 29.634968 26.158905 L 22.109037 26.158905 L 21.128098 28.398376 C 20.271753 30.348724 19.098532 31.75531 17.527613 32.704041 C 15.83614 33.73175 13.487001 34.253632 10.538456 34.253632 L 5.430024 34.253632 L 5.430024 45.383972 L 14.535964 45.383972 C 15.193966 45.383972 15.41386 45.52121 15.423289 45.89035 L 15.423289 107.107941 C 15.423289 108.589142 15.156923 109.611145 14.619477 110.15387 C 14.324825 110.453949 13.328394 111.154968 10.538456 111.154968 L 5.430024 111.154968 L 5.430024 122.285339 L 40.075432 122.285339 L 40.075432 111.154968 Z"/>
        <path id="path23975" fill="#000000" stroke="none" d="M 59.380051 26.664581 C 52.12352 26.664581 46.195446 31.407593 41.763874 40.762238 C 37.639412 49.457794 35.544518 60.88855 35.544518 74.727905 C 35.544518 89.626587 37.722927 101.43692 42.021484 109.821625 C 46.593143 118.764557 52.437027 123.297546 59.380051 123.297546 C 66.357086 123.297546 72.148102 118.649384 76.586075 109.484497 C 80.720634 100.946747 82.821259 89.252411 82.821259 74.727905 C 82.821259 60.203705 80.71727 48.582977 76.57058 40.187836 C 72.126549 31.213074 66.344292 26.664581 59.380051 26.664581 Z M 65.770134 103.060242 C 63.197063 111.154968 60.323277 111.154968 59.380051 111.154968 C 57.052128 111.154968 54.882477 108.383362 52.943157 102.907196 C 50.624664 96.398743 49.448074 86.917786 49.448074 74.727905 C 49.448074 63.202484 50.627693 53.963684 52.949219 47.270844 C 54.89864 41.652863 57.064251 38.806824 59.380051 38.806824 C 61.161434 38.806824 63.774918 39.660919 65.934471 47.049896 C 67.914871 53.816498 68.913994 63.12854 68.913994 74.727905 C 68.913994 86.949463 67.855942 96.482941 65.770134 103.060242 Z"/>
        <path id="path23976" fill="#000000" stroke="none" d="M 145.455276 143.40387 C 144.158142 143.40387 142.929016 143.670258 141.780716 144.098145 C 143.40686 142.241089 144.424835 139.83844 144.424835 137.177124 C 144.424835 131.345123 139.695251 126.616608 133.863815 126.616608 C 128.028351 126.616608 123.302132 131.345123 123.302132 137.177124 C 123.302132 139.83844 124.319771 142.241089 125.942886 144.098145 C 124.794586 143.670258 123.568832 143.40387 122.271011 143.40387 C 116.436554 143.40387 111.709991 148.132202 111.709991 153.963715 C 111.709991 159.796722 116.436554 164.524719 122.271011 164.524719 C 125.874863 164.524719 129.046677 162.713989 130.955353 159.959381 C 131.613342 159.382813 132.445114 159.041473 133.35466 158.925598 L 133.35466 161.798584 C 133.35466 166.71875 129.365906 170.706482 124.447403 170.706482 L 124.447403 171.740082 L 143.279572 171.740082 L 143.279572 170.706482 C 138.357697 170.706482 134.369278 166.71875 134.369278 161.798584 L 134.369278 158.925598 C 135.278488 159.040619 136.11058 159.381958 136.771286 159.958374 C 138.677261 162.713135 141.852097 164.524719 145.455276 164.524719 C 151.287384 164.524719 156.017303 159.796722 156.017303 153.963715 C 156.017303 148.132202 151.287384 143.40387 145.455276 143.40387 Z"/>
        <path id="path23977" fill="#000000" stroke="none" d="M 190.445175 186.210907 C 189.148041 186.210907 187.918915 186.474762 186.770615 186.902985 C 188.396759 185.047302 189.414734 182.645142 189.414734 179.982666 C 189.414734 174.151337 184.68515 169.421631 178.853043 169.421631 C 173.018585 169.421631 168.291687 174.151337 168.291687 179.982666 C 168.291687 182.645142 169.309677 185.047302 170.932785 186.902985 C 169.784485 186.474762 168.558731 186.210907 167.261246 186.210907 C 161.426453 186.210907 156.699554 190.937408 156.699554 196.768738 C 156.699554 202.603241 161.426453 207.332611 167.261246 207.332611 C 170.864761 207.332611 174.03624 205.520172 175.945587 202.764404 C 176.602905 202.190338 177.435013 201.848846 178.344559 201.730804 L 178.344559 204.604614 C 178.344559 209.526611 174.356476 213.514374 169.437302 213.514374 L 169.437302 214.544952 L 188.26947 214.544952 L 188.26947 213.514374 C 183.34726 213.514374 179.359177 209.526611 179.359177 204.604614 L 179.359177 201.730804 C 180.268723 201.845825 181.100143 202.186981 181.76152 202.764404 C 183.66716 205.520172 186.841995 207.332611 190.445175 207.332611 C 196.277283 207.332611 201.006866 202.603241 201.006866 196.768738 C 201.006866 190.937408 196.277283 186.210907 190.445175 186.210907 Z"/>
        <path id="path23978" fill="#000000" stroke="none" d="M 145.455276 224.841919 C 144.158142 224.841919 142.929016 225.108673 141.780716 225.537048 C 143.40686 223.677826 144.424835 221.276001 144.424835 218.616211 C 144.424835 212.78186 139.695251 208.055542 133.863815 208.055542 C 128.028351 208.055542 123.302132 212.78186 123.302132 218.616211 C 123.302132 221.276001 124.319771 223.677826 125.942886 225.537048 C 124.794586 225.108673 123.568832 224.841919 122.271011 224.841919 C 116.436554 224.841919 111.709991 229.571289 111.709991 235.402618 C 111.709991 241.233612 116.436554 245.963135 122.271011 245.963135 C 125.874863 245.963135 129.046677 244.150879 130.955353 241.398315 C 131.613342 240.820862 132.445114 240.479706 133.35466 240.364685 L 133.35466 243.235474 C 133.35466 248.157318 129.365906 252.14505 124.447403 252.14505 L 124.447403 253.175293 L 143.279572 253.175293 L 143.279572 252.14505 C 138.357697 252.14505 134.369278 248.157318 134.369278 243.235474 L 134.369278 240.364685 C 135.278488 240.479706 136.11058 240.820862 136.771286 241.395264 C 138.677261 244.150879 141.852097 245.963135 145.455276 245.963135 C 151.287384 245.963135 156.017303 241.233612 156.017303 235.402618 C 156.017303 229.571289 151.287384 224.841919 145.455276 224.841919 Z"/>
        <path id="path23979" fill="#000000" stroke="none" d="M 145.455276 374.917419 C 141.852097 374.917419 138.677261 376.726624 136.771286 379.482574 C 136.11058 380.059509 135.28186 380.401184 134.372299 380.515839 L 134.372299 377.642212 C 134.372299 372.723389 138.360382 368.735291 143.279572 368.735291 L 143.279572 367.702026 L 124.447403 367.702026 L 124.447403 368.735291 C 129.365906 368.735291 133.357697 372.723389 133.357697 377.642212 L 133.357697 380.515839 C 132.448135 380.401184 131.616379 380.059509 130.955353 379.482574 C 129.049698 376.729675 125.874863 374.917419 122.271011 374.917419 C 116.43959 374.917419 111.709991 379.643738 111.709991 385.478271 C 111.709991 391.309265 116.43959 396.03894 122.271011 396.03894 C 123.568832 396.03894 124.797951 395.771881 125.942886 395.343811 C 124.319771 397.199524 123.302132 399.604706 123.302132 402.26416 C 123.302132 408.095337 128.031723 412.824829 133.863815 412.824829 C 139.695251 412.824829 144.424835 408.095337 144.424835 402.26416 C 144.424835 399.604706 143.40686 397.199524 141.780716 395.343811 C 142.932388 395.771881 144.158142 396.03894 145.455276 396.03894 C 151.29007 396.03894 156.017303 391.309265 156.017303 385.478271 C 156.017303 379.643738 151.29007 374.917419 145.455276 374.917419 Z"/>
        <path id="path23980" fill="#000000" stroke="none" d="M 145.455276 296.690948 C 141.852097 296.690948 138.677261 298.5 136.771286 301.255951 C 136.11058 301.833191 135.28186 302.174561 134.372299 302.289215 L 134.372299 299.415741 C 134.372299 294.496765 138.360382 290.505981 143.279572 290.505981 L 143.279572 289.475403 L 124.447403 289.475403 L 124.447403 290.505981 C 129.365906 290.505981 133.357697 294.496765 133.357697 299.415741 L 133.357697 302.289215 C 132.448135 302.174561 131.616379 301.833191 130.955353 301.255951 C 129.049698 298.5 125.874863 296.690948 122.271011 296.690948 C 116.43959 296.690948 111.709991 301.41745 111.709991 307.251648 C 111.709991 313.082947 116.43959 317.809296 122.271011 317.809296 C 123.568832 317.809296 124.797951 317.54541 125.942886 317.117371 C 124.319771 318.973083 123.302132 321.375061 123.302132 324.037537 C 123.302132 329.868866 128.031723 334.598389 133.863815 334.598389 C 139.695251 334.598389 144.424835 329.868866 144.424835 324.037537 C 144.424835 321.375061 143.40686 318.973083 141.780716 317.117371 C 142.932388 317.54541 144.158142 317.809296 145.455276 317.809296 C 151.29007 317.809296 156.017303 313.082947 156.017303 307.251648 C 156.017303 301.41745 151.29007 296.690948 145.455276 296.690948 Z"/>
        <path id="path23981" fill="#000000" stroke="none" d="M 235.435074 143.40387 C 234.137924 143.40387 232.909149 143.670258 231.763535 144.098145 C 233.387329 142.241089 234.404633 139.83844 234.404633 137.177124 C 234.404633 131.345123 229.674698 126.616608 223.843277 126.616608 C 218.01152 126.616608 213.281586 131.345123 213.281586 137.177124 C 213.281586 139.83844 214.299576 142.241089 215.922684 144.098145 C 214.774384 143.670258 213.54863 143.40387 212.25148 143.40387 C 206.419724 143.40387 201.689453 148.132202 201.689453 153.963715 C 201.689453 159.796722 206.419724 164.524719 212.25148 164.524719 C 215.854324 164.524719 219.029495 162.713989 220.934799 159.959381 C 221.596176 159.382813 222.424911 159.041473 223.334457 158.925598 L 223.334457 161.798584 C 223.334457 166.71875 219.346039 170.706482 214.4272 170.706482 L 214.4272 171.740082 L 233.259705 171.740082 L 233.259705 170.706482 C 228.337143 170.706482 224.349075 166.71875 224.349075 161.798584 L 224.349075 158.925598 C 225.258621 159.040619 226.090042 159.381958 226.751419 159.958374 C 228.656723 162.713135 231.831894 164.524719 235.435074 164.524719 C 241.26683 164.524719 245.996765 159.796722 245.996765 153.963715 C 245.996765 148.132202 241.26683 143.40387 235.435074 143.40387 Z"/>
        <path id="path23982" fill="#000000" stroke="none" d="M 235.435074 224.841919 C 234.137924 224.841919 232.909149 225.108673 231.763535 225.537048 C 233.387329 223.677826 234.404633 221.276001 234.404633 218.616211 C 234.404633 212.78186 229.674698 208.055542 223.843277 208.055542 C 218.01152 208.055542 213.281586 212.78186 213.281586 218.616211 C 213.281586 221.276001 214.299576 223.677826 215.922684 225.537048 C 214.774384 225.108673 213.54863 224.841919 212.25148 224.841919 C 206.419724 224.841919 201.689453 229.571289 201.689453 235.402618 C 201.689453 241.233612 206.419724 245.963135 212.25148 245.963135 C 215.854324 245.963135 219.029495 244.150879 220.934799 241.398315 C 221.596176 240.820862 222.424911 240.479706 223.334457 240.364685 L 223.334457 243.235474 C 223.334457 248.157318 219.346039 252.14505 214.4272 252.14505 L 214.4272 253.175293 L 233.259705 253.175293 L 233.259705 252.14505 C 228.337143 252.14505 224.349075 248.157318 224.349075 243.235474 L 224.349075 240.364685 C 225.258621 240.479706 226.090042 240.820862 226.751419 241.395264 C 228.656723 244.150879 231.831894 245.963135 235.435074 245.963135 C 241.26683 245.963135 245.996765 241.233612 245.996765 235.402618 C 245.996765 229.571289 241.26683 224.841919 235.435074 224.841919 Z"/>
        <path id="path23983" fill="#000000" stroke="none" d="M 235.435074 374.917419 C 231.831894 374.917419 228.660095 376.726624 226.751419 379.482574 C 226.093414 380.059509 225.261322 380.401184 224.352432 380.515839 L 224.352432 377.642212 C 224.352432 372.723389 228.340515 368.735291 233.259705 368.735291 L 233.259705 367.702026 L 214.4272 367.702026 L 214.4272 368.735291 C 219.349075 368.735291 223.337143 372.723389 223.337143 377.642212 L 223.337143 380.515839 C 222.427597 380.401184 221.596176 380.059509 220.934799 379.482574 C 219.029495 376.729675 215.854324 374.917419 212.25148 374.917419 C 206.419724 374.917419 201.689453 379.643738 201.689453 385.478271 C 201.689453 391.309265 206.419724 396.03894 212.25148 396.03894 C 213.54863 396.03894 214.777405 395.771881 215.922684 395.343811 C 214.299576 397.199524 213.281586 399.604706 213.281586 402.26416 C 213.281586 408.095337 218.01152 412.824829 223.843277 412.824829 C 229.674698 412.824829 234.404633 408.095337 234.404633 402.26416 C 234.404633 399.604706 233.387329 397.199524 231.763535 395.343811 C 232.911835 395.771881 234.137924 396.03894 235.435074 396.03894 C 241.269867 396.03894 245.996765 391.309265 245.996765 385.478271 C 245.996765 379.643738 241.269867 374.917419 235.435074 374.917419 Z"/>
        <path id="path23984" fill="#000000" stroke="none" d="M 235.435074 296.690948 C 231.831894 296.690948 228.660095 298.5 226.751419 301.255951 C 226.093414 301.833191 225.261322 302.174561 224.352432 302.289215 L 224.352432 299.415741 C 224.352432 294.496765 228.340515 290.505981 233.259705 290.505981 L 233.259705 289.475403 L 214.4272 289.475403 L 214.4272 290.505981 C 219.349075 290.505981 223.337143 294.496765 223.337143 299.415741 L 223.337143 302.289215 C 222.427597 302.174561 221.596176 301.833191 220.934799 301.255951 C 219.029495 298.5 215.854324 296.690948 212.25148 296.690948 C 206.419724 296.690948 201.689453 301.41745 201.689453 307.251648 C 201.689453 313.082947 206.419724 317.809296 212.25148 317.809296 C 213.54863 317.809296 214.777405 317.54541 215.922684 317.117371 C 214.299576 318.973083 213.281586 321.375061 213.281586 324.037537 C 213.281586 329.868866 218.01152 334.598389 223.843277 334.598389 C 229.674698 334.598389 234.404633 329.868866 234.404633 324.037537 C 234.404633 321.375061 233.387329 318.973083 231.763535 317.117371 C 232.911835 317.54541 234.137924 317.809296 235.435074 317.809296 C 241.269867 317.809296 245.996765 313.082947 245.996765 307.251648 C 245.996765 301.41745 241.269867 296.690948 235.435074 296.690948 Z"/>
        <path id="path23985" fill="#000000" stroke="none" d="M 190.445175 332.196594 C 186.841995 332.196594 183.66716 334.00885 181.76152 336.764618 C 181.100143 337.338684 180.271759 337.679993 179.359177 337.798035 L 179.359177 334.924377 C 179.359177 330.005615 183.350281 326.014465 188.26947 326.014465 L 188.26947 324.984253 L 169.437302 324.984253 L 169.437302 326.014465 C 174.356476 326.014465 178.34726 330.005615 178.34726 334.924377 L 178.34726 337.798035 C 177.43837 337.683228 176.606277 337.341705 175.945587 336.764618 C 174.039597 334.00885 170.864761 332.196594 167.261246 332.196594 C 161.429489 332.196594 156.699554 336.925934 156.699554 342.760315 C 156.699554 348.591461 161.429489 353.317932 167.261246 353.317932 C 168.558731 353.317932 169.787857 353.054077 170.932785 352.625671 C 169.309677 354.48175 168.291687 356.883545 168.291687 359.546356 C 168.291687 365.377502 173.021622 370.107056 178.853043 370.107056 C 184.68515 370.107056 189.414734 365.377502 189.414734 359.546356 C 189.414734 356.883545 188.396759 354.48175 186.770615 352.625671 C 187.922272 353.054077 189.148041 353.317932 190.445175 353.317932 C 196.277283 353.317932 201.006866 348.591461 201.006866 342.760315 C 201.006866 336.925934 196.277283 332.196594 190.445175 332.196594 Z"/>
        <path id="path23986" fill="#000000" stroke="none" d="M 57.474407 158.765625 C 55.798088 158.765625 54.212353 159.109009 52.728989 159.661835 C 54.826912 157.263733 56.139885 154.160217 56.139885 150.723114 C 56.139885 143.190826 50.034683 137.084167 42.502693 137.084167 C 34.966663 137.084167 28.862137 143.190826 28.862137 150.723114 C 28.862137 154.160217 30.17477 157.263733 32.273369 159.661835 C 30.789331 159.109009 29.203596 158.765625 27.530643 158.765625 C 19.995285 158.765625 13.890086 164.872284 13.890086 172.404083 C 13.890086 179.935852 19.995285 186.043335 27.530643 186.043335 C 32.182785 186.043335 36.283001 183.703339 38.743938 180.147003 C 39.597588 179.402222 40.671471 178.9617 41.844692 178.8125 L 41.844692 182.521027 C 41.844692 188.876923 36.692146 194.028442 30.339439 194.028442 L 30.339439 195.359772 L 54.662582 195.359772 L 54.662582 194.028442 C 48.306507 194.028442 43.153961 188.876923 43.153961 182.521027 L 43.153961 178.8125 C 44.330551 178.9617 45.40443 179.402222 46.258083 180.147003 C 48.719021 183.703339 52.819237 186.043335 57.474407 186.043335 C 65.006737 186.043335 71.111259 179.935852 71.111259 172.404083 C 71.111259 164.872284 65.006737 158.765625 57.474407 158.765625 Z"/>
        <path id="path23987" fill="#000000" stroke="none" d="M 317.630981 428.388184 L 323.186615 428.388184 C 325.014832 428.388184 326.355743 428.77298 327.193237 429.533447 C 327.432312 429.753876 328.06842 430.327942 328.06842 432.435211 L 328.06842 513.38324 L 335.598053 513.38324 L 336.578674 511.14563 C 337.432312 509.193604 338.608582 507.788025 340.175781 506.83844 C 341.867249 505.811066 344.219757 505.289734 347.165283 505.289734 L 352.276733 505.289734 L 352.276733 494.161041 L 343.167755 494.161041 C 342.513123 494.161041 342.28952 494.021423 342.279755 493.651978 L 342.279755 432.435211 C 342.279755 430.954865 342.550171 429.933716 343.086945 429.390808 C 343.381592 429.089722 344.378021 428.388184 347.165283 428.388184 L 352.276733 428.388184 L 352.276733 417.256805 L 317.630981 417.256805 L 317.630981 428.388184 Z"/>
        <path id="path23988" fill="#000000" stroke="none" d="M 298.323669 512.87738 C 305.582581 512.87738 311.507599 508.135406 315.939514 498.781769 C 320.064331 490.086243 322.15921 478.653595 322.15921 464.815613 C 322.15921 449.91626 319.98349 438.108093 315.681915 429.7229 C 311.110596 420.778778 305.266357 416.244751 298.323669 416.244751 C 291.346649 416.244751 285.558655 420.893799 281.11731 430.057831 C 276.983429 438.595093 274.885162 450.291748 274.885162 464.815613 C 274.885162 479.339478 276.986115 490.961548 281.132813 499.356171 C 285.577179 508.330933 291.359436 512.87738 298.323669 512.87738 Z M 291.933258 436.48175 C 294.509369 428.388184 297.379791 428.388184 298.323669 428.388184 C 300.654633 428.388184 302.823608 431.159454 304.763947 436.637146 C 307.082092 443.144775 308.25531 452.625702 308.25531 464.815613 C 308.25531 476.341553 307.07605 485.58017 304.754517 492.271301 C 302.80542 497.891296 300.641846 500.737183 298.323669 500.737183 C 296.545319 500.737183 293.929138 499.883575 291.768921 492.494598 C 289.791901 485.725983 288.789398 476.415955 288.789398 464.815613 C 288.789398 452.594543 289.847778 443.061066 291.933258 436.48175 Z"/>
        <path id="path23989" fill="#000000" stroke="none" d="M 300.232361 380.77652 C 301.90799 380.77652 303.494415 380.435181 304.974396 379.88269 C 302.876831 382.278442 301.563507 385.381958 301.563507 388.820374 C 301.563507 396.352478 307.671417 402.459839 315.204071 402.459839 C 322.736389 402.459839 328.844635 396.352478 328.844635 388.820374 C 328.844635 385.381958 327.52829 382.278442 325.430695 379.88269 C 326.914063 380.435181 328.499786 380.77652 330.176117 380.77652 C 337.708435 380.77652 343.816345 374.672058 343.816345 367.140442 C 343.816345 359.605469 337.708435 353.50116 330.176117 353.50116 C 325.520264 353.50116 321.423767 355.83783 318.96283 359.394287 C 318.109161 360.142303 317.034943 360.582642 315.859039 360.731689 L 315.859039 357.020111 C 315.859039 350.667786 321.010925 345.512878 327.364288 345.512878 L 327.364288 344.181702 L 303.044189 344.181702 L 303.044189 345.512878 C 309.397217 345.512878 314.549438 350.667786 314.549438 357.020111 L 314.549438 360.731689 C 313.376221 360.582642 312.302673 360.142303 311.449005 359.397644 C 308.987396 355.841003 304.884827 353.50116 300.232361 353.50116 C 292.700012 353.50116 286.592133 359.605469 286.592133 367.140442 C 286.592133 374.672058 292.700012 380.77652 300.232361 380.77652 Z"/>
        <path id="path23990" fill="#000000" stroke="none" d="M 271.964569 437.903137 L 271.964569 101.5383 L 85.748245 101.5383 L 85.748245 437.903137 L 271.964569 437.903137 Z M 86.756805 102.539398 L 270.953003 102.539734 L 270.953003 436.901031 L 86.756805 436.901031 L 86.756805 102.539398 Z"/>
    </g>
</svg>
