<?xml version="1.0" encoding="UTF-8"?>
<!-- Generated by Pixelmator Pro 3.7 -->
<svg width="360" height="538" viewBox="0 0 360 538" xmlns="http://www.w3.org/2000/svg">
    <g id="g19-copy">
        <path id="path23958" fill="#ffffff" stroke="none" d="M 17.385843 537.20166 L 340.462341 537.20166 C 349.720154 537.20166 357.224884 529.697632 357.224884 520.440308 L 357.224884 19.102661 C 357.224884 9.845337 349.720154 2.340698 340.462341 2.340698 L 17.385843 2.340698 C 8.127694 2.340698 0.623316 9.845337 0.623316 19.102661 L 0.623316 520.440308 C 0.623316 529.697632 8.127694 537.20166 17.385843 537.20166 Z"/>
        <path id="path23959" fill="#000000" stroke="none" d="M 39.266232 89.730988 C 45.246834 89.730988 50.355602 88.083771 54.452114 84.830536 C 53.397091 93.116913 51.717739 99.383881 49.433594 103.53714 C 45.454945 110.763458 41.146957 111.600372 38.251278 111.600372 C 37.481815 111.600372 36.820446 111.541779 36.426456 111.350983 C 36.379982 111.229401 36.215652 110.731812 36.215652 109.566162 C 36.215652 106.970367 35.752964 104.617737 34.84375 102.562134 C 34.05846 100.808655 32.003635 97.868652 27.059874 97.868652 C 22.441744 97.868652 20.204067 100.342377 19.288456 101.815643 C 18.031385 103.82309 17.395271 105.915558 17.395271 108.040009 C 17.395271 112.840088 19.722858 116.845184 24.123787 119.615631 C 27.994005 122.057495 32.572063 123.297546 37.73909 123.297546 C 49.064522 123.297546 58.021282 117.925934 64.374329 107.335785 C 70.324287 97.41333 73.343887 84.820435 73.343887 69.896149 C 73.343887 56.228241 70.69976 45.516846 65.488953 38.062866 C 59.951847 30.164001 52.158539 26.158905 42.320179 26.158905 C 32.928677 26.158905 25.539129 29.400818 20.343817 35.800812 C 15.349878 41.940491 12.817214 49.649078 12.817214 58.707672 C 12.817214 69.244629 15.2566 77.122955 20.05489 82.123444 C 24.899651 87.172394 31.361464 89.730988 39.266232 89.730988 Z M 33.105804 42.730591 C 35.070042 39.402954 38.000069 37.855896 42.320179 37.855896 C 46.916756 37.855896 49.989223 39.530243 51.981747 43.127502 C 54.346714 47.412964 55.541489 53.33606 55.541489 60.742065 C 55.541489 63.857513 53.952721 67.459473 50.817955 71.448761 C 45.461006 78.256439 37.835735 79.183441 33.127357 72.815613 C 30.790342 69.658051 29.601629 64.736725 29.601629 58.199646 C 29.601629 51.847473 30.780912 46.639526 33.105804 42.730591 Z"/>
        <path id="path23960" fill="#000000" stroke="none" d="M 145.527679 143.40387 C 144.230194 143.40387 143.001083 143.670258 141.852768 144.098145 C 143.479263 142.241089 144.497238 139.83844 144.497238 137.177124 C 144.497238 131.345123 139.767303 126.616608 133.935547 126.616608 C 128.100754 126.616608 123.374191 131.345123 123.374191 137.177124 C 123.374191 139.83844 124.392174 142.241089 126.015289 144.098145 C 124.866989 143.670258 123.640892 143.40387 122.343414 143.40387 C 116.508621 143.40387 111.782059 148.132202 111.782059 153.963715 C 111.782059 159.796722 116.508621 164.524719 122.343414 164.524719 C 125.94693 164.524719 129.11908 162.713989 131.024719 159.959381 C 131.68541 159.382813 132.517181 159.041473 133.426727 158.925598 L 133.426727 161.798584 C 133.426727 166.71875 129.438309 170.706482 124.519463 170.706482 L 124.519463 171.740082 L 143.351959 171.740082 L 143.351959 170.706482 C 138.429749 170.706482 134.441345 166.71875 134.441345 161.798584 L 134.441345 158.925598 C 135.350891 159.040619 136.182648 159.381958 136.843689 159.958374 C 138.749329 162.713135 141.9245 164.524719 145.527679 164.524719 C 151.359436 164.524719 156.089035 159.796722 156.089035 153.963715 C 156.089035 148.132202 151.359436 143.40387 145.527679 143.40387 Z"/>
        <path id="path23961" fill="#000000" stroke="none" d="M 145.527679 224.841919 C 144.230194 224.841919 143.001083 225.108673 141.852768 225.537048 C 143.479263 223.677826 144.497238 221.276001 144.497238 218.616211 C 144.497238 212.78186 139.767303 208.055542 133.935547 208.055542 C 128.100754 208.055542 123.374191 212.78186 123.374191 218.616211 C 123.374191 221.276001 124.392174 223.677826 126.015289 225.537048 C 124.866989 225.108673 123.640892 224.841919 122.343414 224.841919 C 116.508621 224.841919 111.782059 229.571289 111.782059 235.402618 C 111.782059 241.233612 116.508621 245.963135 122.343414 245.963135 C 125.94693 245.963135 129.11908 244.150879 131.024719 241.398315 C 131.68541 240.820862 132.517181 240.479706 133.426727 240.364685 L 133.426727 243.235474 C 133.426727 248.157318 129.438309 252.14505 124.519463 252.14505 L 124.519463 253.175293 L 143.351959 253.175293 L 143.351959 252.14505 C 138.429749 252.14505 134.441345 248.157318 134.441345 243.235474 L 134.441345 240.364685 C 135.350891 240.479706 136.182648 240.820862 136.843689 241.395264 C 138.749329 244.150879 141.9245 245.963135 145.527679 245.963135 C 151.359436 245.963135 156.089035 241.233612 156.089035 235.402618 C 156.089035 229.571289 151.359436 224.841919 145.527679 224.841919 Z"/>
        <path id="path23962" fill="#000000" stroke="none" d="M 145.527679 374.917419 C 141.9245 374.917419 138.749329 376.726624 136.843689 379.482574 C 136.182648 380.059509 135.353912 380.401184 134.441345 380.515839 L 134.441345 377.642212 C 134.441345 372.723389 138.432785 368.735291 143.351959 368.735291 L 143.351959 367.702026 L 124.519463 367.702026 L 124.519463 368.735291 C 129.438309 368.735291 133.429749 372.723389 133.429749 377.642212 L 133.429749 380.515839 C 132.520538 380.401184 131.688782 380.059509 131.02774 379.482574 C 129.122101 376.729675 125.94693 374.917419 122.343414 374.917419 C 116.511986 374.917419 111.782059 379.643738 111.782059 385.478271 C 111.782059 391.309265 116.511986 396.03894 122.343414 396.03894 C 123.640892 396.03894 124.866989 395.771881 126.015289 395.343811 C 124.392174 397.199524 123.374191 399.604706 123.374191 402.26416 C 123.374191 408.095337 128.10379 412.824829 133.935547 412.824829 C 139.767303 412.824829 144.497238 408.095337 144.497238 402.26416 C 144.497238 399.604706 143.479263 397.199524 141.852768 395.343811 C 143.00444 395.771881 144.230194 396.03894 145.527679 396.03894 C 151.359436 396.03894 156.089035 391.309265 156.089035 385.478271 C 156.089035 379.643738 151.359436 374.917419 145.527679 374.917419 Z"/>
        <path id="path23963" fill="#000000" stroke="none" d="M 145.527679 296.690948 C 141.9245 296.690948 138.749329 298.5 136.843689 301.255951 C 136.182648 301.833191 135.353912 302.174561 134.441345 302.289215 L 134.441345 299.415741 C 134.441345 294.496765 138.432785 290.505981 143.351959 290.505981 L 143.351959 289.475403 L 124.519463 289.475403 L 124.519463 290.505981 C 129.438309 290.505981 133.429749 294.496765 133.429749 299.415741 L 133.429749 302.289215 C 132.520538 302.174561 131.688782 301.833191 131.02774 301.255951 C 129.122101 298.5 125.94693 296.690948 122.343414 296.690948 C 116.511986 296.690948 111.782059 301.41745 111.782059 307.251648 C 111.782059 313.082947 116.511986 317.809296 122.343414 317.809296 C 123.640892 317.809296 124.866989 317.54541 126.015289 317.117371 C 124.392174 318.973083 123.374191 321.375061 123.374191 324.037537 C 123.374191 329.868866 128.10379 334.598389 133.935547 334.598389 C 139.767303 334.598389 144.497238 329.868866 144.497238 324.037537 C 144.497238 321.375061 143.479263 318.973083 141.852768 317.117371 C 143.00444 317.54541 144.230194 317.809296 145.527679 317.809296 C 151.359436 317.809296 156.089035 313.082947 156.089035 307.251648 C 156.089035 301.41745 151.359436 296.690948 145.527679 296.690948 Z"/>
        <path id="path23964" fill="#000000" stroke="none" d="M 235.507477 143.40387 C 234.209991 143.40387 232.981216 143.670258 231.832901 144.098145 C 233.459045 142.241089 234.477036 139.83844 234.477036 137.177124 C 234.477036 131.345123 229.747101 126.616608 223.91568 126.616608 C 218.080887 126.616608 213.353653 131.345123 213.353653 137.177124 C 213.353653 139.83844 214.371628 142.241089 215.995087 144.098145 C 214.846786 143.670258 213.620697 143.40387 212.323547 143.40387 C 206.488754 143.40387 201.761856 148.132202 201.761856 153.963715 C 201.761856 159.796722 206.488754 164.524719 212.323547 164.524719 C 215.926727 164.524719 219.098526 162.713989 221.007202 159.959381 C 221.665207 159.382813 222.496964 159.041473 223.406525 158.925598 L 223.406525 161.798584 C 223.406525 166.71875 219.418106 170.706482 214.499252 170.706482 L 214.499252 171.740082 L 233.332092 171.740082 L 233.332092 170.706482 C 228.409546 170.706482 224.421478 166.71875 224.421478 161.798584 L 224.421478 158.925598 C 225.330688 159.040619 226.162445 159.381958 226.823471 159.958374 C 228.729126 162.713135 231.903961 164.524719 235.507477 164.524719 C 241.339233 164.524719 246.069168 159.796722 246.069168 153.963715 C 246.069168 148.132202 241.339233 143.40387 235.507477 143.40387 Z"/>
        <path id="path23965" fill="#000000" stroke="none" d="M 235.507477 224.841919 C 234.209991 224.841919 232.981216 225.108673 231.832901 225.537048 C 233.459045 223.677826 234.477036 221.276001 234.477036 218.616211 C 234.477036 212.78186 229.747101 208.055542 223.91568 208.055542 C 218.080887 208.055542 213.353653 212.78186 213.353653 218.616211 C 213.353653 221.276001 214.371628 223.677826 215.995087 225.537048 C 214.846786 225.108673 213.620697 224.841919 212.323547 224.841919 C 206.488754 224.841919 201.761856 229.571289 201.761856 235.402618 C 201.761856 241.233612 206.488754 245.963135 212.323547 245.963135 C 215.926727 245.963135 219.098526 244.150879 221.007202 241.398315 C 221.665207 240.820862 222.496964 240.479706 223.406525 240.364685 L 223.406525 243.235474 C 223.406525 248.157318 219.418106 252.14505 214.499252 252.14505 L 214.499252 253.175293 L 233.332092 253.175293 L 233.332092 252.14505 C 228.409546 252.14505 224.421478 248.157318 224.421478 243.235474 L 224.421478 240.364685 C 225.330688 240.479706 226.162445 240.820862 226.823471 241.395264 C 228.729126 244.150879 231.903961 245.963135 235.507477 245.963135 C 241.339233 245.963135 246.069168 241.233612 246.069168 235.402618 C 246.069168 229.571289 241.339233 224.841919 235.507477 224.841919 Z"/>
        <path id="path23966" fill="#000000" stroke="none" d="M 235.507477 374.917419 C 231.903961 374.917419 228.729126 376.726624 226.823471 379.482574 C 226.162445 380.059509 225.33371 380.401184 224.4245 380.515839 L 224.4245 377.642212 C 224.4245 372.723389 228.412582 368.735291 233.332092 368.735291 L 233.332092 367.702026 L 214.499252 367.702026 L 214.499252 368.735291 C 219.418106 368.735291 223.409546 372.723389 223.409546 377.642212 L 223.409546 380.515839 C 222.500336 380.401184 221.668579 380.059509 221.007202 379.482574 C 219.101898 376.729675 215.926727 374.917419 212.323547 374.917419 C 206.491791 374.917419 201.761856 379.643738 201.761856 385.478271 C 201.761856 391.309265 206.491791 396.03894 212.323547 396.03894 C 213.620697 396.03894 214.846786 395.771881 215.995087 395.343811 C 214.371628 397.199524 213.353653 399.604706 213.353653 402.26416 C 213.353653 408.095337 218.083923 412.824829 223.91568 412.824829 C 229.747101 412.824829 234.477036 408.095337 234.477036 402.26416 C 234.477036 399.604706 233.459045 397.199524 231.832901 395.343811 C 232.984238 395.771881 234.209991 396.03894 235.507477 396.03894 C 241.339233 396.03894 246.069168 391.309265 246.069168 385.478271 C 246.069168 379.643738 241.339233 374.917419 235.507477 374.917419 Z"/>
        <path id="path23967" fill="#000000" stroke="none" d="M 235.507477 296.690948 C 231.903961 296.690948 228.729126 298.5 226.823471 301.255951 C 226.162445 301.833191 225.33371 302.174561 224.4245 302.289215 L 224.4245 299.415741 C 224.4245 294.496765 228.412582 290.505981 233.332092 290.505981 L 233.332092 289.475403 L 214.499252 289.475403 L 214.499252 290.505981 C 219.418106 290.505981 223.409546 294.496765 223.409546 299.415741 L 223.409546 302.289215 C 222.500336 302.174561 221.668579 301.833191 221.007202 301.255951 C 219.101898 298.5 215.926727 296.690948 212.323547 296.690948 C 206.491791 296.690948 201.761856 301.41745 201.761856 307.251648 C 201.761856 313.082947 206.491791 317.809296 212.323547 317.809296 C 213.620697 317.809296 214.846786 317.54541 215.995087 317.117371 C 214.371628 318.973083 213.353653 321.375061 213.353653 324.037537 C 213.353653 329.868866 218.083923 334.598389 223.91568 334.598389 C 229.747101 334.598389 234.477036 329.868866 234.477036 324.037537 C 234.477036 321.375061 233.459045 318.973083 231.832901 317.117371 C 232.984238 317.54541 234.209991 317.809296 235.507477 317.809296 C 241.339233 317.809296 246.069168 313.082947 246.069168 307.251648 C 246.069168 301.41745 241.339233 296.690948 235.507477 296.690948 Z"/>
        <path id="path23968" fill="#000000" stroke="none" d="M 190.517242 263.947327 C 189.220428 263.947327 187.991318 264.21405 186.842667 264.642303 C 188.469147 262.783539 189.487137 260.381744 189.487137 257.718933 C 189.487137 251.887604 184.757202 247.160919 178.925446 247.160919 C 173.090652 247.160919 168.363754 251.887604 168.363754 257.718933 C 168.363754 260.381744 169.382065 262.783539 171.005188 264.642303 C 169.856888 264.21405 168.630798 263.947327 167.333649 263.947327 C 161.498856 263.947327 156.771957 268.676697 156.771957 274.508026 C 156.771957 280.339172 161.498856 285.068695 167.333649 285.068695 C 170.936829 285.068695 174.108627 283.256439 176.014282 280.503693 C 176.675308 279.92627 177.507065 279.585114 178.416626 279.467072 L 178.416626 282.340881 C 178.416626 287.262695 174.428207 291.25061 169.509369 291.25061 L 169.509369 292.280884 L 188.341858 292.280884 L 188.341858 291.25061 C 183.419647 291.25061 179.43158 287.262695 179.43158 282.340881 L 179.43158 279.467072 C 180.34079 279.582062 181.172546 279.923248 181.833588 280.500671 C 183.739227 283.256439 186.914398 285.068695 190.517242 285.068695 C 196.349335 285.068695 201.079269 280.339172 201.079269 274.508026 C 201.079269 268.676697 196.349335 263.947327 190.517242 263.947327 Z"/>
        <path id="path23969" fill="#000000" stroke="none" d="M 58.052261 158.765625 C 56.376617 158.765625 54.790543 159.109009 53.310211 159.661835 C 55.408134 157.263733 56.721107 154.160217 56.721107 150.723114 C 56.721107 143.190826 50.613213 137.084167 43.080551 137.084167 C 35.547886 137.084167 29.439991 143.190826 29.439991 150.723114 C 29.439991 154.160217 30.75633 157.263733 32.854256 159.661835 C 31.370556 159.109009 29.784819 158.765625 28.108837 158.765625 C 20.576172 158.765625 14.471646 164.872284 14.471646 172.404083 C 14.471646 179.935852 20.576172 186.043335 28.108837 186.043335 C 32.764347 186.043335 36.861195 183.703339 39.325497 180.147003 C 40.17881 179.402222 41.249325 178.9617 42.425915 178.8125 L 42.425915 182.521027 C 42.425915 188.876923 37.273708 194.028442 30.920662 194.028442 L 30.920662 195.359772 L 55.243805 195.359772 L 55.243805 194.028442 C 48.887394 194.028442 43.735184 188.876923 43.735184 182.521027 L 43.735184 178.8125 C 44.911774 178.9617 45.985653 179.402222 46.835938 180.147003 C 49.300243 183.703339 53.40012 186.043335 58.052261 186.043335 C 65.58493 186.043335 71.692818 179.935852 71.692818 172.404083 C 71.692818 164.872284 65.58493 158.765625 58.052261 158.765625 Z"/>
        <path id="path23970" fill="#000000" stroke="none" d="M 318.58197 449.810822 C 312.601013 449.810822 307.492584 451.45874 303.399109 454.714142 C 304.454132 446.425079 306.133148 440.159119 308.414276 436.007202 C 312.395935 428.779358 316.700897 427.944641 319.599609 427.944641 C 320.369415 427.944641 321.030457 428.000366 321.424774 428.192871 C 321.470917 428.313934 321.635925 428.810364 321.635925 429.977173 C 321.635925 432.571625 322.09491 434.926941 323.007477 436.981537 C 323.792755 438.735016 325.84726 441.673828 330.791351 441.673828 C 335.409485 441.673828 337.647156 439.20047 338.562775 437.726501 C 339.816803 435.721436 340.452911 433.62677 340.452911 431.50415 C 340.452911 426.7034 338.128357 422.696625 333.72406 419.928406 C 329.857208 417.486176 325.27951 416.244751 320.108765 416.244751 C 308.786713 416.244751 299.826569 421.616882 293.476563 432.208557 C 287.527283 442.130005 284.504303 454.723572 284.504303 469.647339 C 284.504303 483.314758 287.148438 494.027679 292.36261 501.481812 C 297.899384 509.380005 305.692352 513.38324 315.531036 513.38324 C 324.919189 513.38324 332.312103 510.143188 337.507751 503.74115 C 342.497986 497.602692 345.03064 489.893738 345.03064 480.835144 C 345.03064 470.299194 342.594299 462.419861 337.793304 457.420074 C 332.951569 452.371094 326.486725 449.810822 318.58197 449.810822 Z M 324.745422 496.814423 C 322.777802 500.141388 319.848114 501.686768 315.531036 501.686768 C 310.931091 501.686768 307.858643 500.014099 305.866455 496.417175 C 303.504517 492.131378 302.306366 486.207092 302.306366 478.802612 C 302.306366 475.686493 303.895477 472.083679 307.033264 468.095764 C 312.389893 461.287079 320.015503 460.35907 324.723877 466.727386 C 327.060883 469.886475 328.246552 474.805267 328.246552 481.344025 C 328.246552 487.696869 327.069977 492.904144 324.745422 496.814423 Z"/>
        <path id="path23971" fill="#000000" stroke="none" d="M 299.795593 380.77652 C 301.471588 380.77652 303.057648 380.435181 304.541016 379.88269 C 302.443085 382.278442 301.127075 385.381958 301.127075 388.820374 C 301.127075 396.352478 307.234985 402.459839 314.767303 402.459839 C 322.303009 402.459839 328.407867 396.352478 328.407867 388.820374 C 328.407867 385.381958 327.09491 382.278442 324.996979 379.88269 C 326.480347 380.435181 328.066406 380.77652 329.739014 380.77652 C 337.271698 380.77652 343.379578 374.672058 343.379578 367.140442 C 343.379578 359.605469 337.271698 353.50116 329.739014 353.50116 C 325.086884 353.50116 320.987 355.83783 318.526062 359.394287 C 317.672424 360.142303 316.598541 360.582642 315.425323 360.731689 L 315.425323 357.020111 C 315.425323 350.667786 320.577179 345.512878 326.930237 345.512878 L 326.930237 344.181702 L 302.607422 344.181702 L 302.607422 345.512878 C 308.963501 345.512878 314.115692 350.667786 314.115692 357.020111 L 314.115692 360.731689 C 312.939453 360.582642 311.86557 360.142303 311.011932 359.397644 C 308.550995 355.841003 304.450775 353.50116 299.795593 353.50116 C 292.263275 353.50116 286.155029 359.605469 286.155029 367.140442 C 286.155029 374.672058 292.263275 380.77652 299.795593 380.77652 Z"/>
        <path id="path23972" fill="#000000" stroke="none" d="M 272.033936 437.903137 L 272.033936 101.5383 L 85.817284 101.5383 L 85.817284 437.903137 L 272.033936 437.903137 Z M 86.829201 102.539398 L 271.025055 102.539734 L 271.025055 436.901031 L 86.829201 436.901031 L 86.829201 102.539398 Z"/>
    </g>
</svg>
