<?xml version="1.0" encoding="UTF-8"?>
<!-- Generated by Pixelmator Pro 3.7 -->
<svg width="209" height="378" viewBox="0 0 209 378" xmlns="http://www.w3.org/2000/svg">
    <path id="Path-copy-3" fill="#000000" stroke="none" d="M 207.644089 377.218567 L 207.644089 0.878113 L -0.409606 0.878113 L -0.409606 377.218567 L 207.644089 377.218567 Z M 0.717177 1.996429 L 206.513504 1.996429 L 206.513504 376.100586 L 0.717177 376.100586 L 0.717177 1.996429 Z"/>
    <path id="Path-copy-2" fill="#b4171e" stroke="none" d="M 103.834114 78.138336 L 129.041214 52.897369 C 135.431519 46.498291 135.431519 36.122589 129.041214 29.723511 C 122.650558 23.324615 112.288864 23.324615 105.898544 29.723511 L 103.834114 31.790802 L 101.76976 29.723511 C 95.379112 23.324615 85.017334 23.324615 78.626686 29.723511 C 72.236366 36.122589 72.236366 46.498291 78.626686 52.897369 L 103.834114 78.138336 Z"/>
    <path id="Path-copy" fill="#b4171e" stroke="none" d="M 78.626686 351.377502 C 85.017334 357.776306 95.379112 357.776306 101.76976 351.377502 L 103.834114 349.309875 L 105.898544 351.377502 C 112.288864 357.776306 122.650558 357.776306 129.041214 351.377502 C 135.431519 344.973877 135.431519 334.602631 129.041214 328.199005 L 103.834114 302.95813 L 78.626686 328.199005 C 72.236366 334.602631 72.236366 344.973877 78.626686 351.377502 L 78.626686 351.377502 Z"/>
</svg>
