<?xml version="1.0" encoding="UTF-8"?>
<!-- Generated by Pixelmator Pro 3.7 -->
<svg width="201" height="361" viewBox="0 0 201 361" xmlns="http://www.w3.org/2000/svg">
    <path id="Path-copy-11" fill="#000000" stroke="none" d="M 199.930679 360.839447 L 199.930679 0.871399 L 0.930684 0.871399 L 0.930684 360.839447 L 199.930679 360.839447 Z M 2.008487 1.944122 L 198.852875 1.944122 L 198.852875 359.766785 L 2.008487 359.766785 L 2.008487 1.944122 Z"/>
    <path id="Path-copy-10" fill="#ff0000" stroke="none" d="M 51.962021 19.758118 L 49.897846 21.825409 L 47.833668 19.758118 C 41.443386 13.359406 31.081499 13.359406 24.691217 19.758118 C 18.300274 26.157166 18.300274 36.532806 24.691217 42.932007 L 49.897846 68.172668 L 75.105133 42.932007 C 81.495415 36.532806 81.495415 26.157166 75.105133 19.758118 C 68.714851 13.359406 58.352962 13.359406 51.962021 19.758118 Z"/>
    <path id="Path-copy-9" fill="#ff0000" stroke="none" d="M 51.962021 110.837952 L 49.897846 112.905411 L 47.833668 110.837952 C 41.443386 104.439087 31.081499 104.439087 24.691217 110.837952 C 18.300274 117.237 18.300274 127.61264 24.691217 134.011673 L 49.897846 159.252518 L 75.105133 134.011673 C 81.495415 127.61264 81.495415 117.237 75.105133 110.837952 C 68.714851 104.439087 58.352962 104.439087 51.962021 110.837952 Z"/>
    <path id="Path-copy-8" fill="#ff0000" stroke="none" d="M 49.897846 292.982269 L 24.691217 318.218872 C 18.300274 324.61792 18.300274 334.993896 24.691217 341.3927 C 31.081499 347.791718 41.443386 347.791718 47.833668 341.3927 L 49.897846 339.325409 L 51.962021 341.3927 C 58.352962 347.791718 68.714851 347.791718 75.105133 341.3927 C 81.495415 334.993896 81.495415 324.61792 75.105133 318.218872 L 49.897846 292.982269 Z"/>
    <path id="Path-copy-7" fill="#ff0000" stroke="none" d="M 49.897846 201.898911 L 24.691217 227.140091 C 18.300274 233.539124 18.300274 243.914764 24.691217 250.313812 C 31.081499 256.712585 41.443386 256.712585 47.833668 250.313812 L 49.897846 248.246277 L 51.962021 250.313812 C 58.352962 256.712585 68.714851 256.712585 75.105133 250.313812 C 81.495415 243.914764 81.495415 233.539124 75.105133 227.140091 L 49.897846 201.898911 Z"/>
    <path id="Path-copy-6" fill="#ff0000" stroke="none" d="M 150.436661 201.898911 L 125.229759 227.140366 C 118.838745 233.539459 118.838745 243.915222 125.229759 250.314331 C 131.619446 256.713196 141.982117 256.713196 148.372467 250.314331 L 150.436661 248.246796 L 152.500854 250.314331 C 158.891876 256.713196 169.253876 256.713196 175.644226 250.314331 C 182.034576 243.915222 182.034576 233.539459 175.644226 227.140366 L 150.436661 201.898911 Z"/>
    <path id="Path-copy-5" fill="#ff0000" stroke="none" d="M 152.500854 110.838013 L 150.436661 112.905487 L 148.372467 110.838013 C 141.982117 104.439056 131.619446 104.439056 125.229759 110.838013 L 125.229759 110.838013 C 118.838745 117.237122 118.838745 127.612885 125.229759 134.011993 L 150.436661 159.253098 L 175.644226 134.011993 C 182.034576 127.612885 182.034576 117.237122 175.644226 110.838013 C 169.253876 104.439056 158.891876 104.439056 152.500854 110.838013 Z"/>
    <path id="Path-copy-4" fill="#ff0000" stroke="none" d="M 102.232018 65.296509 L 100.167816 67.363647 L 98.102959 65.296509 C 91.712608 58.8974 81.350601 58.8974 74.960251 65.296509 C 68.569901 71.695435 68.569901 82.071533 74.960251 88.470306 L 100.167816 113.711761 L 125.374725 88.470306 C 131.765076 82.071533 131.765076 71.695435 125.374725 65.296509 C 118.984367 58.8974 108.622368 58.8974 102.232018 65.296509 Z"/>
    <path id="Path-copy-3" fill="#ff0000" stroke="none" d="M 100.167816 247.440857 L 74.960251 272.681976 C 68.569901 279.08075 68.569901 289.456848 74.960251 295.855713 C 81.350601 302.254822 91.712608 302.254822 98.102959 295.855713 L 100.167816 293.788727 L 102.232018 295.855713 C 108.622368 302.254822 118.984367 302.254822 125.374725 295.855713 C 131.765076 289.456848 131.765076 279.08075 125.374725 272.681976 L 100.167816 247.440857 Z"/>
    <path id="Path-copy-2" fill="#ff0000" stroke="none" d="M 150.402054 68.173248 L 175.609619 42.932312 C 181.999969 36.533051 181.999969 26.157288 175.609619 19.758179 C 169.219269 13.359406 158.857269 13.359406 152.466248 19.758179 L 150.402054 21.82547 L 148.337189 19.758179 C 141.946838 13.359406 131.584839 13.359406 125.194489 19.758179 C 118.804138 26.157288 118.804138 36.533051 125.194489 42.932312 L 150.402054 68.173248 Z"/>
    <path id="Path-copy" fill="#ff0000" stroke="none" d="M 150.402054 292.982269 L 125.194489 318.219177 C 118.804138 324.618286 118.804138 334.994354 125.194489 341.393219 L 125.194489 341.393219 C 131.584839 347.792328 141.946838 347.792328 148.337189 341.393219 L 150.402054 339.325928 L 152.466248 341.393219 C 158.857269 347.792328 169.219269 347.792328 175.609619 341.393219 C 181.999969 334.994354 181.999969 324.618286 175.609619 318.219177 L 150.402054 292.982269 Z"/>
</svg>
