<?xml version="1.0" encoding="UTF-8"?>
<!-- Generated by Pixelmator Pro 3.7 -->
<svg width="360" height="540" viewBox="0 0 360 540" xmlns="http://www.w3.org/2000/svg">
    <g id="Group-copy">
        <path id="Path" fill="#ffffff" stroke="none" d="M 341.981842 1.232544 L 17.131004 1.232544 C 7.824743 1.232544 0.278655 8.782043 0.278655 18.09552 L 0.278655 522.449829 C 0.278655 531.763428 7.824743 539.312927 17.131004 539.312927 L 341.981842 539.312927 C 351.291168 539.312927 358.83725 531.763428 358.83725 522.449829 L 358.83725 18.09552 C 358.83725 8.782043 351.291168 1.232544 341.981842 1.232544 Z"/>
        <path id="path1" fill="#b4171e" stroke="none" d="M 39.132683 89.175507 C 45.146286 89.175507 50.280281 87.5177 54.399696 84.245636 C 53.338638 92.582001 51.650192 98.885803 49.356308 103.063232 C 45.352272 110.331818 41.023804 111.174744 38.109138 111.174744 C 37.335228 111.174744 36.67033 111.115387 36.277004 110.925018 C 36.230286 110.803101 36.064884 110.300415 36.064884 109.129578 C 36.064884 106.516479 35.599831 104.149567 34.682465 102.082916 C 33.896053 100.318756 31.826788 97.358887 26.858431 97.358887 C 22.211672 97.358887 19.964739 99.850433 19.044069 101.330383 C 17.780096 103.350525 17.140205 105.454956 17.140205 107.593475 C 17.140205 112.423492 19.48081 116.451141 23.90625 119.239288 C 27.794672 121.696381 32.398018 122.942261 37.597134 122.942261 C 48.981857 122.942261 57.988701 117.537567 64.376755 106.884827 C 70.359451 96.903076 73.395866 84.233124 73.395866 69.221649 C 73.395866 55.468475 70.736969 44.693695 65.497276 37.194153 C 59.929607 29.24823 52.093304 25.220337 42.200241 25.220337 C 32.759964 25.220337 25.329252 28.479858 20.10206 34.918121 C 15.083683 41.096802 12.537096 48.852356 12.537096 57.962952 C 12.537096 68.56601 14.990011 76.490112 19.814913 81.519928 C 24.683228 86.599792 31.18383 89.175507 39.132683 89.175507 Z M 32.937866 41.889832 C 34.913223 38.542847 37.859505 36.988068 42.200241 36.988068 C 46.825294 36.988068 49.915031 38.670776 51.918468 42.28949 C 54.293518 46.601349 55.498268 52.561584 55.498268 60.011078 C 55.498268 63.145874 53.897125 66.767639 50.745098 70.782806 C 45.358643 77.629883 37.693871 78.563232 32.956509 72.156525 C 30.606701 68.981354 29.414455 64.029297 29.414455 57.453918 C 29.414455 51.062866 30.597263 45.823914 32.937866 41.889832 Z"/>
        <path id="path2" fill="#b4171e" stroke="none" d="M 319.980164 451.422943 C 313.966309 451.422943 308.829498 453.080933 304.713135 456.352753 C 305.771118 448.01651 307.462646 441.709808 309.756531 437.532135 C 313.757263 430.263641 318.08902 429.420624 321.003937 429.420624 C 321.774536 429.420624 322.442505 429.480103 322.835602 429.670441 C 322.882538 429.795532 323.047943 430.294861 323.047943 431.468811 C 323.047943 434.078979 323.513 436.445587 324.427307 438.512695 C 325.21701 440.276672 327.285797 443.236511 332.254181 443.236511 C 336.901154 443.236511 339.148102 440.748199 340.068756 439.265076 C 341.332733 437.245117 341.972382 435.140747 341.972382 433.001923 C 341.972382 428.174988 339.631775 424.144135 335.206573 421.356079 C 331.317932 418.9021 326.714813 417.653198 321.515717 417.653198 C 310.130981 417.653198 301.121063 423.0578 294.73584 433.710724 C 288.753387 443.692383 285.716736 456.362244 285.716736 471.376801 C 285.716736 485.126984 288.372803 495.901825 293.61557 503.401306 C 299.183228 511.347229 307.019531 515.378052 316.912354 515.378052 C 326.352875 515.378052 333.783356 512.115356 339.011017 505.677338 C 344.025848 499.498566 346.572449 491.746277 346.572449 482.632416 C 346.572449 472.032654 344.122833 464.105286 339.297913 459.075348 C 334.4263 453.995636 327.928772 451.422943 319.980164 451.422943 Z M 326.174957 498.705566 C 324.199615 502.052551 321.253571 503.610382 316.912354 503.610382 C 312.287292 503.610382 309.197815 501.924438 307.194122 498.305908 C 304.819305 493.994202 303.614807 488.037048 303.614807 480.58429 C 303.614807 477.45282 305.212646 473.82782 308.367493 469.815887 C 313.754181 462.96579 321.418732 462.032135 326.156097 468.438934 C 328.503082 471.614319 329.698395 476.565918 329.698395 483.14447 C 329.698395 489.532501 328.515564 494.771545 326.174957 498.705566 Z"/>
        <path id="path3" fill="#000000" stroke="none" d="M 273.177277 439.467896 L 273.177277 101.077576 L 85.938393 101.077576 L 85.938393 439.467896 L 273.177277 439.467896 Z M 86.952728 102.085999 L 272.160095 102.085999 L 272.160095 438.459534 L 86.952728 438.459534 L 86.952728 102.085999 Z"/>
        <path id="path4" fill="#b4171e" stroke="none" d="M 56.228527 136.811127 C 51.341339 136.811127 46.734924 138.659424 43.208447 142.025177 C 39.688103 138.659424 35.081928 136.811127 30.191433 136.811127 C 25.148281 136.811127 20.407848 138.778046 16.843855 142.346802 C 13.276793 145.90921 11.313706 150.654968 11.313706 155.700378 C 11.313706 160.74588 13.276793 165.488556 16.843855 169.05722 L 43.211514 195.439758 L 69.57917 169.05722 C 73.146233 165.488556 75.109322 160.74588 75.109322 155.700378 C 75.109322 150.654968 73.146233 145.90921 69.57917 142.346802 C 66.015419 138.778046 61.27475 136.811127 56.228527 136.811127 Z"/>
        <path id="path5" fill="#b4171e" stroke="none" d="M 302.884552 403.731201 C 307.771729 403.731201 312.377899 401.886047 315.904388 398.520325 C 319.424744 401.886047 324.031158 403.731201 328.924469 403.731201 C 333.964569 403.731201 338.708069 401.767426 342.268982 398.198639 C 345.836029 394.633118 347.801971 389.890564 347.801971 384.841858 C 347.801971 379.799622 345.836029 375.053894 342.268982 371.488281 L 315.901306 345.105713 L 289.533661 371.488281 C 285.96637 375.053894 284.00351 379.799622 284.00351 384.841858 C 284.00351 389.890564 285.96637 394.633118 289.533661 398.198639 C 293.097656 401.767426 297.838074 403.731201 302.884552 403.731201 Z"/>
        <path id="path6" fill="#b4171e" stroke="none" d="M 135.787125 129.754883 L 134.314102 131.228577 L 132.84108 129.754883 C 128.281616 125.193512 120.888184 125.193512 116.328964 129.754883 C 111.769272 134.316498 111.769272 141.712891 116.328964 146.274628 L 134.314102 164.2677 L 152.29924 146.274628 C 156.858688 141.712891 156.858688 134.316498 152.29924 129.754883 C 147.739777 125.193512 140.346588 125.193512 135.787125 129.754883 Z"/>
        <path id="path7" fill="#b4171e" stroke="none" d="M 135.787125 211.65332 L 134.314102 213.127136 L 132.84108 211.65332 C 128.281616 207.091827 120.888184 207.091827 116.328964 211.65332 C 111.769272 216.214935 111.769272 223.611328 116.328964 228.172943 L 134.314102 246.166138 L 152.29924 228.172943 C 156.858688 223.611328 156.858688 216.214935 152.29924 211.65332 C 147.739777 207.091827 140.346588 207.091827 135.787125 211.65332 Z"/>
        <path id="path8" fill="#b4171e" stroke="none" d="M 134.314102 376.330688 L 116.328964 394.320862 C 111.769272 398.882507 111.769272 406.279114 116.328964 410.840576 C 120.888184 415.402161 128.281616 415.402161 132.84108 410.840576 L 134.314102 409.366882 L 135.787125 410.840576 C 140.346588 415.402161 147.739777 415.402161 152.29924 410.840576 C 156.858688 406.279114 156.858688 398.882507 152.29924 394.320862 L 134.314102 376.330688 Z"/>
        <path id="path9" fill="#b4171e" stroke="none" d="M 134.314102 294.429077 L 116.328964 312.422485 C 111.769272 316.984131 111.769272 324.380493 116.328964 328.942108 C 120.888184 333.50354 128.281616 333.50354 132.84108 328.942108 L 134.314102 327.468262 L 135.787125 328.942108 C 140.346588 333.50354 147.739777 333.50354 152.29924 328.942108 C 156.858688 324.380493 156.858688 316.984131 152.29924 312.422485 L 134.314102 294.429077 Z"/>
        <path id="path10" fill="#b4171e" stroke="none" d="M 224.798737 294.429077 L 206.813599 312.422485 C 202.253906 316.984131 202.253906 324.380493 206.813599 328.942108 C 211.372818 333.50354 218.766251 333.50354 223.325714 328.942108 L 224.798737 327.468262 L 226.271759 328.942108 C 230.831223 333.50354 238.221344 333.50354 242.783875 328.942108 C 247.343338 324.380493 247.343338 316.984131 242.783875 312.422485 L 224.798737 294.429077 Z"/>
        <path id="path11" fill="#b4171e" stroke="none" d="M 226.271759 211.65332 L 224.798737 213.127136 L 223.325714 211.65332 C 218.766251 207.091827 211.372818 207.091827 206.813599 211.65332 L 206.813599 211.65332 C 202.253906 216.214935 202.253906 223.611328 206.813599 228.172943 L 224.798737 246.166138 L 242.783875 228.172943 C 247.343338 223.611328 247.343338 216.214935 242.783875 211.65332 C 238.221344 207.091827 230.831223 207.091827 226.271759 211.65332 Z"/>
        <path id="path12" fill="#b4171e" stroke="none" d="M 181.029434 254.752228 L 179.556412 256.226044 L 178.083389 254.752228 C 173.523697 250.190735 166.130737 250.190735 161.571045 254.752228 C 157.011826 259.313843 157.011826 266.710236 161.571045 271.271851 L 179.556412 289.265045 L 197.54155 271.271851 C 202.101242 266.710236 202.101242 259.313843 197.54155 254.752228 C 192.982101 250.190735 185.588898 250.190735 181.029434 254.752228 Z"/>
        <path id="path13" fill="#b4171e" stroke="none" d="M 224.767349 164.2677 L 242.752731 146.274628 C 247.31218 141.712891 247.31218 134.316498 242.752731 129.754883 C 238.190201 125.193512 230.800079 125.193512 226.240372 129.754883 L 224.767349 131.228577 L 223.294571 129.754883 C 218.735107 125.193512 211.341675 125.193512 206.782227 129.754883 C 202.222763 134.316498 202.222763 141.712891 206.782227 146.274628 L 224.767349 164.2677 Z"/>
        <path id="path14" fill="#b4171e" stroke="none" d="M 224.767349 376.330688 L 206.782227 394.320862 C 202.222763 398.882507 202.222763 406.279114 206.782227 410.840576 L 206.782227 410.840576 C 211.341675 415.402161 218.735107 415.402161 223.294571 410.840576 L 224.767349 409.366882 L 226.240372 410.840576 C 230.800079 415.402161 238.190201 415.402161 242.752731 410.840576 C 247.31218 406.279114 247.31218 398.882507 242.752731 394.320862 L 224.767349 376.330688 Z"/>
    </g>
</svg>
