<?xml version="1.0" encoding="UTF-8"?>
<!-- Generated by Pixelmator Pro 3.7 -->
<svg width="208" height="376" viewBox="0 0 208 376" xmlns="http://www.w3.org/2000/svg">
    <g id="Group-copy">
        <path id="Path" fill="#000000" stroke="none" d="M 207.396881 376.634857 L 207.396881 0.291168 L -1.176937 0.291168 L -1.176937 376.634857 L 207.396881 376.634857 Z M -0.047338 1.409088 L 206.263611 1.409088 L 206.263611 375.513245 L -0.047338 375.513245 L -0.047338 1.409088 Z"/>
        <path id="path1" fill="#000000" stroke="none" d="M 52.718475 28.40567 L 32.671104 48.426514 C 27.588694 53.50293 27.588694 61.735443 32.671104 66.812012 C 37.75325 71.884888 45.991863 71.884888 51.074276 66.812012 L 52.151836 65.735687 L 52.151836 67.822296 C 52.151836 73.301544 47.702297 77.742554 42.220402 77.742554 L 42.220402 78.891846 L 63.213135 78.891846 L 63.213135 77.742554 C 57.727558 77.742554 53.2817 73.301544 53.2817 67.822296 L 53.2817 65.732147 L 54.359261 66.812012 C 59.441669 71.884888 67.680283 71.884888 72.762428 66.812012 C 77.844841 61.735443 77.844841 53.50293 72.762428 48.426514 L 52.718475 28.40567 Z"/>
        <path id="path2" fill="#000000" stroke="none" d="M 54.355843 310.225189 L 53.2817 311.301514 L 53.2817 309.214783 C 53.2817 303.735657 57.727558 299.294525 63.213135 299.294525 L 63.213135 298.145355 L 42.220402 298.145355 L 42.220402 299.294525 C 47.705711 299.294525 52.151836 303.735657 52.151836 309.214783 L 52.151836 311.305054 L 51.074276 310.225189 C 45.991863 305.152069 37.75325 305.152069 32.671104 310.225189 C 27.588694 315.301483 27.588694 323.534271 32.671104 328.610443 L 52.715061 348.631287 L 72.762428 328.610443 C 77.844841 323.534271 77.844841 315.301483 72.762428 310.225189 C 67.680283 305.152069 59.437992 305.152069 54.355843 310.225189 Z"/>
        <path id="path3" fill="#000000" stroke="none" d="M 153.50148 28.40567 L 133.453842 48.426514 C 128.371689 53.50293 128.371689 61.735443 133.453842 66.812012 C 138.536255 71.884888 146.778275 71.884888 151.860687 66.812012 L 152.93457 65.735687 L 152.93457 67.822296 C 152.93457 73.301544 148.488708 77.742554 143.003143 77.742554 L 143.003143 78.891846 L 163.99614 78.891846 L 163.99614 77.742554 C 158.510559 77.742554 154.064438 73.301544 154.064438 67.822296 L 154.064438 65.732147 L 155.142258 66.812012 C 160.224411 71.884888 168.463013 71.884888 173.545425 66.812012 C 178.627579 61.735443 178.627579 53.50293 173.545425 48.426514 L 153.50148 28.40567 Z"/>
        <path id="path4" fill="#000000" stroke="none" d="M 103.109978 95.839813 L 83.06234 115.864044 C 77.980194 120.940475 77.980194 129.169586 83.06234 134.246002 C 88.144753 139.322296 96.383362 139.322296 101.465515 134.246002 L 102.543335 133.169556 L 102.543335 135.256302 C 102.543335 140.735428 98.093796 145.176559 92.6119 145.176559 L 92.6119 146.325989 L 113.604637 146.325989 L 113.604637 145.176559 C 108.119057 145.176559 103.673195 140.735428 103.673195 135.256302 L 103.673195 133.169556 L 104.750763 134.246002 C 109.832909 139.322296 118.071785 139.322296 123.153931 134.246002 C 128.236084 129.169586 128.236084 120.940475 123.153931 115.864044 L 103.109978 95.839813 Z"/>
        <path id="path5" fill="#000000" stroke="none" d="M 104.750763 242.791061 L 103.673195 243.867386 L 103.673195 241.78064 C 103.673195 236.301514 108.122742 231.860382 113.604637 231.860382 L 113.604637 230.711227 L 92.6119 230.711227 L 92.6119 231.860382 C 98.097214 231.860382 102.543335 236.301514 102.543335 241.78064 L 102.543335 243.867386 L 101.465515 242.791061 C 96.383362 237.714645 88.144753 237.714645 83.06234 242.791061 C 77.980194 247.867355 77.980194 256.096588 83.06234 261.173157 L 103.109978 281.197388 L 123.153931 261.173157 C 128.236084 256.096588 128.236084 247.867355 123.153931 242.791061 C 118.071785 237.714645 109.832909 237.714645 104.750763 242.791061 Z"/>
        <path id="path6" fill="#000000" stroke="none" d="M 52.718475 163.277084 L 32.671104 183.298187 C 27.588694 188.374619 27.588694 196.603729 32.671104 201.680145 C 37.75325 206.756302 45.991863 206.756302 51.074276 201.680145 L 52.151836 200.607101 L 52.151836 202.693985 C 52.151836 208.169556 47.702297 212.613968 42.220402 212.613968 L 42.220402 213.759857 L 63.213135 213.759857 L 63.213135 212.613968 C 57.727558 212.613968 53.2817 208.169556 53.2817 202.693985 L 53.2817 200.603424 L 54.359261 201.680145 C 59.441669 206.756302 67.680283 206.756302 72.762428 201.680145 C 77.844841 196.603729 77.844841 188.374619 72.762428 183.298187 L 52.718475 163.277084 Z"/>
        <path id="path7" fill="#000000" stroke="none" d="M 153.50148 163.277084 L 133.453842 183.298187 C 128.371689 188.374619 128.371689 196.603729 133.453842 201.680145 C 138.536255 206.756302 146.778275 206.756302 151.860687 201.680145 L 152.93457 200.607101 L 152.93457 202.693985 C 152.93457 208.169556 148.488708 212.613968 143.003143 212.613968 L 143.003143 213.759857 L 163.99614 213.759857 L 163.99614 212.613968 C 158.510559 212.613968 154.064438 208.169556 154.064438 202.693985 L 154.064438 200.603424 L 155.142258 201.680145 C 160.224411 206.756302 168.463013 206.756302 173.545425 201.680145 C 178.627579 196.603729 178.627579 188.374619 173.545425 183.298187 L 153.50148 163.277084 Z"/>
        <path id="path8" fill="#000000" stroke="none" d="M 155.142258 310.225189 L 154.064438 311.301514 L 154.064438 309.214783 C 154.064438 303.735657 158.514236 299.294525 163.99614 299.294525 L 163.99614 298.145355 L 143.003143 298.145355 L 143.003143 299.294525 C 148.488708 299.294525 152.93457 303.735657 152.93457 309.214783 L 152.93457 311.305054 L 151.85701 310.225189 C 146.774857 305.152069 138.536255 305.152069 133.453842 310.225189 C 128.371689 315.301483 128.371689 323.534271 133.453842 328.610443 L 153.50148 348.631287 L 173.545425 328.610443 C 178.627579 323.534271 178.627579 315.301483 173.545425 310.225189 C 168.463013 305.152069 160.224411 305.152069 155.142258 310.225189 Z"/>
    </g>
</svg>
