<?xml version="1.0" encoding="UTF-8"?>
<!-- Generated by Pixelmator Pro 3.7 -->
<svg width="360" height="539" viewBox="0 0 360 539" xmlns="http://www.w3.org/2000/svg">
    <g id="Group-copy">
        <path id="Path" fill="#ffffff" stroke="none" d="M 17.211933 538.491028 L 342.062775 538.491028 C 351.369019 538.491028 358.9151 530.948975 358.9151 521.644226 L 358.9151 17.772827 C 358.9151 8.46814 351.369019 0.925903 342.062775 0.925903 L 17.211933 0.925903 C 7.90237 0.925903 0.356281 8.46814 0.356281 17.772827 L 0.356281 521.644226 C 0.356281 530.948975 7.90237 538.491028 17.211933 538.491028 Z"/>
        <path id="path1" fill="#b4171e" stroke="none" d="M 18.943792 79.261993 C 15.561006 84.040466 13.844484 89.820496 13.844484 96.451904 C 13.844484 103.463867 16.902842 109.661835 22.92919 114.873993 C 28.784002 119.948883 35.877308 122.519043 44.019634 122.519043 C 52.882786 122.519043 60.185375 119.914612 65.721657 114.783417 C 71.342178 109.574341 74.191483 103.064606 74.191483 95.428802 C 74.191483 89.857849 72.581375 84.62384 69.413536 79.863953 C 67.335075 76.760406 64.492134 73.83136 60.915634 71.111389 C 64.117683 68.902985 66.679611 66.463776 68.570969 63.812408 C 71.623192 59.54834 73.167946 54.876007 73.167946 49.934967 C 73.167946 42.988586 70.490402 36.9935 65.203751 32.108826 C 60.010777 27.317688 53.229156 24.89093 45.040112 24.89093 C 36.164455 24.89093 29.036703 27.317688 23.855993 32.108826 C 18.569342 36.980957 15.891805 42.982361 15.891805 49.934967 C 15.891805 55.212891 17.436556 60.056915 20.488779 64.323975 C 22.261457 66.803894 24.48975 69.034058 27.142277 70.999146 C 23.812344 73.497498 21.069212 76.264343 18.943792 79.261993 Z M 34.423161 40.224945 C 36.33009 37.848083 39.900219 36.647308 45.040112 36.647308 C 49.527843 36.647308 52.642357 37.876099 54.570995 40.399689 C 56.761772 43.275543 57.826134 46.559967 57.826134 50.446716 C 57.826134 53.743622 57.04892 56.513489 55.44471 58.912079 C 54.065357 60.980255 52.030777 62.798828 49.378014 64.348907 C 43.554585 61.981567 38.98262 59.302094 35.780804 56.37323 C 32.762794 53.622131 31.233614 50.93634 31.233614 48.403564 C 31.233614 45.580566 32.276031 42.901276 34.423161 40.224945 Z M 32.01696 85.110413 C 33.599228 82.190796 35.693268 79.726654 38.39275 77.608856 C 45.008965 80.54715 50.049049 83.725525 53.400692 87.0755 C 56.724255 90.397614 58.337902 93.628906 58.337902 96.960449 C 58.337902 101.109009 57.236263 104.42157 54.964321 107.094666 C 52.891987 109.527649 49.212616 110.762848 44.019634 110.762848 C 39.613071 110.762848 36.102165 109.459015 33.284004 106.776489 C 30.528366 104.156311 29.186295 100.77832 29.186295 96.451904 C 29.186295 92.325256 30.113333 88.61322 32.01696 85.110413 Z"/>
        <path id="path2" fill="#b4171e" stroke="none" d="M 340.330658 460.205261 C 343.713684 455.429626 345.42691 449.646576 345.42691 443.018341 C 345.42691 436.003204 342.368561 429.805359 336.34552 424.593079 C 330.490936 419.518005 323.394073 416.947845 315.255066 416.947845 C 306.388855 416.947845 299.086029 419.552368 293.55304 424.683472 C 287.932281 429.8927 285.083221 436.402405 285.083221 444.0383 C 285.083221 449.609253 286.690247 454.843262 289.860931 459.60318 C 291.936554 462.706879 294.782562 465.635681 298.355743 468.355682 C 295.157257 470.567322 292.591797 473.003357 290.700653 475.654663 C 287.648438 479.921692 286.103455 484.591309 286.103455 489.531921 C 286.103455 496.478516 288.784515 502.473541 294.067871 507.358246 C 299.260864 512.149353 306.04248 514.579346 314.231506 514.579346 C 323.107178 514.579346 330.234924 512.149353 335.418457 507.358246 C 340.702057 502.486084 343.382904 496.484772 343.382904 489.531921 C 343.382904 484.254395 341.838135 479.410095 338.785919 475.143097 C 337.010162 472.66333 334.785187 470.433044 332.132416 468.467957 C 335.462128 465.969421 338.205475 463.202728 340.330658 460.205261 Z M 324.84848 499.242096 C 322.941528 501.618927 319.374481 502.822998 314.231506 502.822998 C 309.746857 502.822998 306.629272 501.590912 304.700623 499.067444 C 302.512695 496.191589 301.445496 492.906921 301.445496 489.020569 C 301.445496 485.723419 302.225525 482.956848 303.826691 480.554993 C 305.206024 478.489868 307.243927 476.668243 309.896667 475.118164 C 315.717041 477.488708 320.288788 480.164978 323.490814 483.094055 C 326.511658 485.848206 328.041077 488.530731 328.041077 491.066742 C 328.041077 493.886353 326.995605 496.565826 324.84848 499.242096 Z M 327.257721 454.356628 C 325.675232 457.276215 323.581421 459.740356 320.878876 461.86145 C 314.262665 458.920135 309.225647 455.741608 305.873993 452.394592 C 302.550201 449.069641 300.933716 445.837952 300.933716 442.506897 C 300.933716 438.358307 302.038422 435.045654 304.307312 432.372437 C 306.379639 429.939514 310.058777 428.704224 315.255066 428.704224 C 319.658569 428.704224 323.169464 430.008026 325.990692 432.693756 C 328.743256 435.310699 330.085114 438.68869 330.085114 443.018341 C 330.085114 447.142029 329.158051 450.853729 327.257721 454.356628 Z"/>
        <path id="path3" fill="#000000" stroke="none" d="M 273.255371 438.741882 L 273.255371 100.675262 L 86.016251 100.675262 L 86.016251 438.741882 L 273.255371 438.741882 Z M 87.033661 101.682739 L 272.241028 101.682739 L 272.241028 437.734222 L 87.033661 437.734222 L 87.033661 101.682739 Z"/>
        <path id="path4" fill="#b4171e" stroke="none" d="M 134.410599 125.906769 C 132.182312 129.736969 128.790085 134.590393 123.671898 139.543915 C 119.649223 143.442963 115.589027 146.403015 112.12484 148.592682 C 115.589027 150.782318 119.649223 153.742371 123.671898 157.641418 C 128.790085 162.59787 132.182312 167.451385 134.410599 171.28183 C 136.638901 167.451385 140.031113 162.59787 145.149307 157.641418 C 149.171982 153.742371 153.232178 150.782318 156.696365 148.592682 C 153.232178 146.403015 149.171982 143.442963 145.149307 139.543915 C 140.031113 134.590393 136.638901 129.736969 134.410599 125.906769 Z"/>
        <path id="path5" fill="#b4171e" stroke="none" d="M 179.637344 185.009583 C 177.409058 188.839783 174.016602 193.693237 168.898651 198.649811 C 164.872665 202.548798 160.815781 205.505829 157.351593 207.695526 C 160.815781 209.888397 164.872665 212.84845 168.898651 216.744232 C 174.016602 221.700775 177.409058 226.554291 179.637344 230.384644 C 181.865646 226.554291 185.257858 221.700775 190.372986 216.744232 C 194.398727 212.84845 198.458923 209.888397 201.922867 207.695526 C 198.458923 205.505829 194.398727 202.548798 190.372986 198.649811 C 185.257858 193.693237 181.865646 188.839783 179.637344 185.009583 Z"/>
        <path id="path6" fill="#b4171e" stroke="none" d="M 179.637344 309.082397 C 177.409058 312.912781 174.016602 317.766235 168.898651 322.722595 C 164.872665 326.621582 160.815781 329.578857 157.351593 331.771606 C 160.815781 333.961243 164.872665 336.921204 168.898651 340.817322 C 174.016602 345.773621 177.409058 350.627106 179.637344 354.457703 C 181.865646 350.627106 185.257858 345.773621 190.372986 340.817322 C 194.398727 336.918274 198.458923 333.961243 201.922867 331.771606 C 198.458923 329.578857 194.398727 326.621582 190.372986 322.722595 C 185.257858 317.766235 181.865646 312.912781 179.637344 309.082397 Z"/>
        <path id="path7" fill="#b4171e" stroke="none" d="M 224.86409 125.906769 C 222.632736 129.736969 219.243347 134.590393 214.125397 139.543915 C 210.099411 143.442963 206.042282 146.403015 202.575272 148.592682 C 206.042282 150.782318 210.099411 153.742371 214.125397 157.641418 C 219.243347 162.59787 222.632736 167.451385 224.86409 171.28183 C 227.092392 167.451385 230.484604 162.59787 235.599731 157.641418 C 239.625473 153.742371 243.682602 150.782318 247.149612 148.592682 C 243.682602 146.403015 239.625473 143.442963 235.599731 139.543915 C 230.484604 134.590393 227.092392 129.736969 224.86409 125.906769 Z"/>
        <path id="path8" fill="#b4171e" stroke="none" d="M 134.410599 244.155884 C 132.182312 247.986481 128.790085 252.839966 123.671898 257.796295 C 119.649223 261.695282 115.589027 264.652344 112.12484 266.845062 C 115.589027 269.03476 119.649223 271.994934 123.671898 275.893951 C 128.790085 280.84726 132.182312 285.700745 134.410599 289.531189 C 136.638901 285.700745 140.031113 280.84726 145.149307 275.893951 C 149.171982 271.994934 153.232178 269.03476 156.696365 266.845062 C 153.232178 264.652344 149.171982 261.695282 145.149307 257.796295 C 140.031113 252.839966 136.638901 247.986481 134.410599 244.155884 Z"/>
        <path id="path9" fill="#b4171e" stroke="none" d="M 224.86409 244.155884 C 222.632736 247.986481 219.243347 252.839966 214.125397 257.796295 C 210.099411 261.695282 206.042282 264.652344 202.575272 266.845062 C 206.042282 269.03476 210.099411 271.994934 214.125397 275.893951 C 219.243347 280.84726 222.632736 285.700745 224.86409 289.531189 C 227.092392 285.700745 230.484604 280.84726 235.599731 275.893951 C 239.625473 271.994934 243.682602 269.03476 247.149612 266.845062 C 243.682602 264.652344 239.625473 261.695282 235.599731 257.796295 C 230.484604 252.839966 227.092392 247.986481 224.86409 244.155884 Z"/>
        <path id="path10" fill="#b4171e" stroke="none" d="M 134.410599 368.188293 C 132.182312 372.015686 128.790085 376.869202 123.671898 381.8255 C 119.649223 385.724548 115.589027 388.684784 112.12484 390.87442 C 115.589027 393.064026 119.649223 396.02417 123.671898 399.923187 C 128.790085 404.876404 132.182312 409.729919 134.410599 413.560547 C 136.638901 409.729919 140.031113 404.876404 145.149307 399.923187 C 149.171982 396.02417 153.232178 393.064026 156.696365 390.87442 C 153.232178 388.684784 149.171982 385.724548 145.149307 381.8255 C 140.031113 376.869202 136.638901 372.015686 134.410599 368.188293 Z"/>
        <path id="path11" fill="#b4171e" stroke="none" d="M 224.86409 368.188293 C 222.632736 372.015686 219.243347 376.869202 214.125397 381.8255 C 210.099411 385.724548 206.042282 388.684784 202.575272 390.87442 C 206.042282 393.064026 210.099411 396.02417 214.125397 399.923187 C 219.243347 404.876404 222.632736 409.729919 224.86409 413.560547 C 227.092392 409.729919 230.484604 404.876404 235.599731 399.923187 C 239.625473 396.02417 243.682602 393.064026 247.149612 390.87442 C 243.682602 388.684784 239.625473 385.724548 235.599731 381.8255 C 230.484604 376.869202 227.092392 372.015686 224.86409 368.188293 Z"/>
        <path id="path12" fill="#b4171e" stroke="none" d="M 43.551514 136.374786 C 40.674129 141.318634 36.295643 147.585266 29.688864 153.979614 C 24.495884 159.013885 19.255951 162.83493 14.784029 165.661041 C 19.255951 168.48703 24.495884 172.308136 29.688864 177.342346 C 36.295643 183.736694 40.674129 190.003357 43.551514 194.947174 C 46.428902 190.003357 50.807388 183.736694 57.410866 177.342346 C 62.607147 172.308136 67.84684 168.48703 72.319237 165.661041 C 67.84684 162.83493 62.607147 159.013885 57.410866 153.979614 C 50.807388 147.585266 46.428902 141.318634 43.551514 136.374786 Z"/>
        <path id="path13" fill="#b4171e" stroke="none" d="M 315.726257 403.092224 C 318.603638 398.148468 322.982117 391.881958 329.585846 385.487579 C 334.781891 380.453064 340.02182 376.635071 344.493958 373.80603 C 340.02182 370.980042 334.781891 367.158997 329.585846 362.127777 C 322.982117 355.730347 318.603638 349.463715 315.726257 344.519653 C 312.848877 349.463715 308.470612 355.730347 301.866913 362.127777 C 296.670624 367.158997 291.430908 370.980042 286.958771 373.80603 C 291.430908 376.635071 296.670624 380.453064 301.866913 385.487579 C 308.470612 391.881958 312.848877 398.148468 315.726257 403.092224 Z"/>
    </g>
</svg>
