<?xml version="1.0" encoding="UTF-8"?>
<!-- Generated by Pixelmator Pro 3.7 -->
<svg width="360" height="537" viewBox="0 0 360 537" xmlns="http://www.w3.org/2000/svg">
    <g id="g12-copy">
        <g id="g13">
            <path id="path23902" fill="#ffffff" stroke="none" d="M 17.753822 534.831787 L 339.596893 534.831787 C 348.819763 534.831787 356.295685 527.360901 356.295685 518.144409 L 356.295685 19.018372 C 356.295685 9.801941 348.819763 2.330383 339.596893 2.330383 L 17.753822 2.330383 C 8.531261 2.330383 1.055191 9.801941 1.055191 19.018372 L 1.055191 518.144409 C 1.055191 527.360901 8.531261 534.831787 17.753822 534.831787 Z"/>
            <path id="path23903" fill="#000000" stroke="none" d="M 34.177292 100.007324 C 34.177292 98.293091 33.596024 96.410553 32.399605 94.242798 C 29.688078 89.374207 22.51803 87.797119 17.469437 93.52005 C 15.441158 95.793091 14.417752 98.488586 14.417752 101.52594 C 14.417752 107.222717 17.166431 112.222443 22.583111 116.378845 C 27.675316 120.297699 33.793777 122.286224 40.765903 122.286224 C 50.307068 122.286224 57.934345 119.400604 63.437744 113.709991 C 68.900795 108.060974 71.671196 101.405212 71.671196 93.931641 C 71.671196 88.804535 70.103592 83.657135 67.017944 78.640808 C 65.002159 75.381165 61.944355 72.528076 57.881847 70.112213 C 60.172707 68.561951 62.071159 66.736725 63.570583 64.637543 C 66.594254 60.413239 68.124878 55.275726 68.124878 49.373871 C 68.124878 43.592926 65.703857 38.139709 60.914745 33.150085 C 56.088726 28.123718 49.648476 25.575928 41.780083 25.575928 C 35.182247 25.575928 29.258436 27.459137 24.181747 31.166748 C 18.715252 35.170105 15.939066 40.444763 15.939066 46.842346 C 15.939066 50.776611 17.014803 53.683044 19.12661 55.48645 C 21.031187 57.116364 23.257133 57.981628 25.563593 57.981628 C 29.437656 57.981628 31.45956 56.182709 32.483051 54.658264 C 33.608437 52.976379 34.177292 50.855927 34.177292 48.361115 C 34.177292 46.283234 33.422844 44.421112 32.39323 43.545807 C 32.384007 43.519318 32.152119 42.875549 32.152119 40.765991 C 32.152119 39.975006 32.2728 39.315643 33.775326 38.65625 C 40.880211 35.534241 45.848633 37.338013 48.359215 40.839752 C 50.405861 43.708771 51.404694 46.994751 51.404694 50.892639 C 51.404694 55.554871 50.217331 59.010162 47.777779 61.446808 C 45.372444 63.851593 41.310104 65.070251 35.698437 65.070251 L 31.645237 65.070251 L 31.645237 76.716187 L 35.698437 76.716187 C 43.096848 76.716187 48.260254 78.155792 50.613091 80.882324 C 53.19471 83.867676 54.443882 87.802307 54.443882 92.918701 C 54.443882 99.31662 53.241005 103.963074 50.860409 106.737549 C 48.609554 109.364319 45.140724 110.640137 40.258686 110.640137 C 37.872055 110.640137 35.760246 110.134003 33.796795 109.089874 C 33.002426 108.667725 32.152119 108.050751 32.152119 107.601959 C 32.152119 107.507233 32.177025 106.974609 32.483051 106.305176 C 33.608437 104.622437 34.177292 102.501984 34.177292 100.007324 Z"/>
            <path id="path23904" fill="#000000" stroke="none" d="M 190.221558 142.771057 C 188.929199 142.771057 187.707962 143.03595 186.564041 143.461945 C 188.181122 141.613098 189.195145 139.221039 189.195145 136.571472 C 189.195145 130.765533 184.483429 126.058044 178.674011 126.058044 C 172.864502 126.058044 168.152802 130.765533 168.152802 136.571472 C 168.152802 139.221039 169.166809 141.613098 170.786743 143.461945 C 169.639816 143.03595 168.418488 142.771057 167.126038 142.771057 C 161.316696 142.771057 156.604996 147.478363 156.604996 153.284485 C 156.604996 159.091614 161.316696 163.79892 167.126038 163.79892 C 170.715637 163.79892 173.878601 161.995819 175.776718 159.253387 C 176.435486 158.679352 177.26088 158.339691 178.16687 158.224182 L 178.16687 161.084808 C 178.16687 165.983246 174.194016 169.9534 169.293533 169.9534 L 169.293533 170.979431 L 188.054321 170.979431 L 188.054321 169.9534 C 183.153748 169.9534 179.177704 165.983246 179.177704 161.084808 L 179.177704 158.224182 C 180.083786 158.338501 180.912369 158.678345 181.570801 159.252533 C 183.46933 161.995331 186.63205 163.79892 190.221558 163.79892 C 196.031067 163.79892 200.742859 159.091614 200.742859 153.284485 C 200.742859 147.478363 196.031067 142.771057 190.221558 142.771057 Z"/>
            <path id="path23905" fill="#000000" stroke="none" d="M 190.221558 262.832214 C 188.929199 262.832214 187.707962 263.098114 186.564041 263.524261 C 188.181122 261.676575 189.195145 259.282013 189.195145 256.634308 C 189.195145 250.82901 184.483429 246.120361 178.674011 246.120361 C 172.864502 246.120361 168.152802 250.82901 168.152802 256.634308 C 168.152802 259.282013 169.166809 261.676575 170.786743 263.524261 C 169.639816 263.098114 168.418488 262.832214 167.126038 262.832214 C 161.316696 262.832214 156.604996 267.541046 156.604996 273.346466 C 156.604996 279.15509 161.316696 283.860565 167.126038 283.860565 C 170.715637 283.860565 173.878601 282.059326 175.776718 279.315552 C 176.435486 278.74115 177.26088 278.401001 178.16687 278.286835 L 178.16687 281.147797 C 178.16687 286.045227 174.194016 290.015381 169.293533 290.015381 L 169.293533 291.043762 L 188.054321 291.043762 L 188.054321 290.015381 C 183.153748 290.015381 179.177704 286.045227 179.177704 281.147797 L 179.177704 278.286835 C 180.083786 278.401001 180.912369 278.74115 181.570801 279.315552 C 183.46933 282.056305 186.63205 283.860565 190.221558 283.860565 C 196.031067 283.860565 200.742859 279.15509 200.742859 273.346466 C 200.742859 267.541046 196.031067 262.832214 190.221558 262.832214 Z"/>
            <path id="path23906" fill="#000000" stroke="none" d="M 190.221558 373.263428 C 186.63205 373.263428 183.472351 375.064697 181.570801 377.808472 C 180.915298 378.382874 180.086639 378.723022 179.180893 378.837189 L 179.180893 375.976196 C 179.180893 371.079102 183.153748 367.105957 188.054321 367.105957 L 188.054321 366.079895 L 169.293533 366.079895 L 169.293533 367.105957 C 174.19696 367.105957 178.169983 371.079102 178.169983 375.976196 L 178.169983 378.837189 C 177.263992 378.723022 176.435486 378.382874 175.776718 377.808472 C 173.878601 375.067688 170.715637 373.263428 167.126038 373.263428 C 161.316696 373.263428 156.604996 377.968933 156.604996 383.77771 C 156.604996 389.582977 161.316696 394.291809 167.126038 394.291809 C 168.418488 394.291809 169.642746 394.025909 170.786743 393.599731 C 169.166809 395.447266 168.152802 397.841827 168.152802 400.489563 C 168.152802 406.294983 172.864502 411.003662 178.674011 411.003662 C 184.48645 411.003662 189.195145 406.294983 189.195145 400.489563 C 189.195145 397.841827 188.181122 395.447266 186.564041 393.599731 C 187.707962 394.025909 188.932297 394.291809 190.221558 394.291809 C 196.034164 394.291809 200.742859 389.582977 200.742859 383.77771 C 200.742859 377.968933 196.034164 373.263428 190.221558 373.263428 Z"/>
            <path id="path23907" fill="#000000" stroke="none" d="M 65.144394 160.243866 C 60.716991 157.519867 56.694485 157.667053 53.231693 158.95697 C 55.847363 155.970947 57.23877 151.887115 56.379234 147.428406 C 55.263077 141.65097 50.353359 137.162262 44.497646 136.554382 C 36.341431 135.708557 29.456022 142.079987 29.456022 150.057526 C 29.456022 153.479462 30.763899 156.569275 32.853985 158.95697 C 29.385073 157.664063 25.350407 157.519531 20.91671 160.263489 C 17.994934 162.072266 15.768903 164.898712 14.955664 168.235657 C 12.772906 177.211212 19.516079 185.222626 28.129696 185.222626 C 32.764248 185.222626 36.848564 182.892914 39.300278 179.352295 C 40.150585 178.610779 41.220367 178.17218 42.388943 178.023651 L 42.388943 181.715851 C 42.388943 188.043671 37.259754 193.172485 30.931042 193.172485 L 30.931042 194.497925 L 55.157909 194.497925 L 55.157909 193.172485 C 48.826008 193.172485 43.696735 188.043671 43.696735 181.715851 L 43.696735 178.023651 C 44.86573 178.169006 45.935265 178.610779 46.785488 179.352295 C 49.237202 182.892914 53.321598 185.222626 57.959087 185.222626 C 66.5821 185.222626 73.331306 177.19278 71.12381 168.204803 C 70.304451 164.867859 68.07238 162.045441 65.144394 160.243866 Z"/>
            <path id="path23908" fill="#000000" stroke="none" d="M 323.170654 437.154938 C 323.170654 438.869507 323.75174 440.751251 324.951355 442.920319 C 327.66272 447.789429 334.829742 449.365173 339.881531 443.64325 C 341.906677 441.369049 342.933105 438.674713 342.933105 435.637695 C 342.933105 429.940399 340.181335 424.941193 334.76767 420.782593 C 329.672699 416.864929 323.557098 414.875244 316.585144 414.875244 C 307.043793 414.875244 299.416351 417.760864 293.909943 423.452118 C 288.446808 429.102966 285.67691 435.758087 285.67691 443.232147 C 285.67691 448.35791 287.244171 453.505341 290.333008 458.52298 C 292.348877 461.782623 295.403412 464.634552 299.469116 467.050568 C 297.177917 468.601501 295.276611 470.424377 293.780273 472.525391 C 290.756439 476.749054 289.2229 481.887054 289.2229 487.788239 C 289.2229 493.569183 291.646912 499.022217 296.433014 504.012207 C 301.262299 509.03891 307.702393 511.588226 315.570953 511.588226 C 322.168884 511.588226 328.089569 509.703491 333.169373 505.995697 C 338.635437 501.991669 341.411957 496.717346 341.411957 490.32196 C 341.411957 486.385498 340.335968 483.478424 338.224518 481.677155 C 336.319855 480.04541 334.090546 479.180664 331.78418 479.180664 C 327.910278 479.180664 325.888123 480.978729 324.864716 482.505035 C 323.74234 484.18573 323.170654 486.305359 323.170654 488.801697 C 323.170654 490.88089 323.927948 492.740997 324.954376 493.615631 C 324.966614 493.643311 325.198761 494.285889 325.198761 496.396118 C 325.198761 497.187286 325.074951 497.848328 323.572449 498.506378 C 316.46756 501.627014 311.502167 499.825775 308.988708 496.322021 C 306.94165 493.454681 305.943329 490.167389 305.943329 486.271149 C 305.943329 481.6091 307.133453 478.151794 309.569977 475.71698 C 311.978333 473.309998 316.040863 472.093018 321.649323 472.093018 L 325.705811 472.093018 L 325.705811 460.447784 L 321.649323 460.447784 C 314.250763 460.447784 309.090698 459.007996 306.734772 456.279785 C 304.156158 453.295441 302.903809 449.358826 302.903809 444.242432 C 302.903809 437.846863 304.106689 433.200043 306.487366 430.425415 C 308.741302 427.798981 312.210052 426.523163 317.092102 426.523163 C 319.478973 426.523163 321.587524 427.029785 323.55072 428.07428 C 324.348602 428.494415 325.198761 429.112366 325.198761 429.560333 C 325.198761 429.656067 325.170898 430.1875 324.864716 430.857971 C 323.74234 432.539001 323.170654 434.661316 323.170654 437.154938 Z"/>
            <path id="path23909" fill="#000000" stroke="none" d="M 292.203369 376.918396 C 296.633881 379.643585 300.653107 379.495239 304.115814 378.206818 C 301.500244 381.191681 300.109161 385.276001 300.971619 389.734375 C 302.087708 395.512146 306.994415 400.001343 312.853485 400.607056 C 321.009369 401.453552 327.891479 395.082642 327.891479 387.105103 C 327.891479 383.681824 326.583862 380.59198 324.493774 378.206818 C 327.965881 379.49823 331.997681 379.643585 336.431152 376.899811 C 339.355865 375.089172 341.581879 372.265564 342.391937 368.925629 C 344.57486 359.94989 337.834778 351.938354 329.220917 351.938354 C 324.583527 351.938354 320.502319 354.268005 318.047333 357.812195 C 317.197174 358.553528 316.130676 358.991943 314.95874 359.14032 L 314.95874 355.445099 C 314.95874 349.117767 320.091187 343.988647 326.419922 343.988647 L 326.419922 342.66333 L 302.192963 342.66333 L 302.192963 343.988647 C 308.521667 343.988647 313.654053 349.117767 313.654053 355.445099 L 313.654053 359.14032 C 312.4823 358.991943 311.412415 358.553528 310.562286 357.812195 C 308.110565 354.268005 304.026428 351.938354 299.391602 351.938354 C 290.768768 351.938354 284.019562 359.968689 286.223969 368.956482 C 287.043152 372.293243 289.275635 375.117188 292.203369 376.918396 Z"/>
        </g>
        <path id="path23910" fill="#000000" stroke="none" d="M 271.42688 436.045593 L 271.42688 101.164124 L 85.921135 101.164124 L 85.921135 436.045593 L 271.42688 436.045593 Z M 86.925674 102.160828 L 270.422089 102.161163 L 270.422089 435.047577 L 86.925674 435.047577 L 86.925674 102.160828 Z"/>
    </g>
</svg>
