<?xml version="1.0" encoding="UTF-8"?>
<!-- Generated by Pixelmator Pro 3.7 -->
<svg width="208" height="378" viewBox="0 0 208 378" xmlns="http://www.w3.org/2000/svg">
    <g id="Group-copy">
        <path id="Path" fill="#000000" stroke="none" d="M 207.530304 376.297668 L 207.530304 0.308411 L -0.512899 0.308411 L -0.512899 376.297668 L 207.530304 376.297668 Z M 0.614146 1.428864 L 206.400116 1.428864 L 206.400116 375.177277 L 0.614146 375.177277 L 0.614146 1.428864 Z"/>
        <path id="path1" fill="#ff0000" stroke="none" d="M 54.87458 33.172089 L 53.237888 34.809509 L 51.601196 33.172089 C 46.53513 28.103882 38.32021 28.103882 33.254406 33.172089 C 28.188076 38.24057 28.188076 46.458771 33.254406 51.527374 L 53.237888 71.519653 L 73.221375 51.527374 C 78.287437 46.458771 78.287437 38.24057 73.221375 33.172089 C 68.155304 28.103882 59.940647 28.103882 54.87458 33.172089 Z"/>
        <path id="path2" fill="#ff0000" stroke="none" d="M 54.87458 124.170364 L 53.237888 125.807922 L 51.601196 124.170364 C 46.53513 119.102051 38.32021 119.102051 33.254406 124.170364 C 28.188076 129.238831 28.188076 137.457047 33.254406 142.525497 L 53.237888 162.517929 L 73.221375 142.525497 C 78.287437 137.457047 78.287437 129.238831 73.221375 124.170364 C 68.155304 119.102051 59.940647 119.102051 54.87458 124.170364 Z"/>
        <path id="path3" fill="#ff0000" stroke="none" d="M 53.237888 307.145233 L 33.254406 327.134308 C 28.188076 332.202759 28.188076 340.421234 33.254406 345.489502 C 38.32021 350.557983 46.53513 350.557983 51.601196 345.489502 L 53.237888 343.852081 L 54.87458 345.489502 C 59.940647 350.557983 68.155304 350.557983 73.221375 345.489502 C 78.287437 340.421234 78.287437 332.202759 73.221375 327.134308 L 53.237888 307.145233 Z"/>
        <path id="path4" fill="#ff0000" stroke="none" d="M 53.237888 216.143417 L 33.254406 236.136108 C 28.188076 241.204559 28.188076 249.422775 33.254406 254.491241 C 38.32021 259.559509 46.53513 259.559509 51.601196 254.491241 L 53.237888 252.853607 L 54.87458 254.491241 C 59.940647 259.559509 68.155304 259.559509 73.221375 254.491241 C 78.287437 249.422775 78.287437 241.204559 73.221375 236.136108 L 53.237888 216.143417 Z"/>
        <path id="path5" fill="#ff0000" stroke="none" d="M 153.776367 216.143417 L 133.792892 236.136108 C 128.726563 241.204559 128.726563 249.422775 133.792892 254.491241 C 138.858688 259.559509 147.073608 259.559509 152.139679 254.491241 L 153.776367 252.853607 L 155.413071 254.491241 C 160.479126 259.559509 168.690384 259.559509 173.759857 254.491241 C 178.825928 249.422775 178.825928 241.204559 173.759857 236.136108 L 153.776367 216.143417 Z"/>
        <path id="path6" fill="#ff0000" stroke="none" d="M 155.413071 124.170364 L 153.776367 125.807922 L 152.139679 124.170364 C 147.073608 119.102051 138.858688 119.102051 133.792892 124.170364 L 133.792892 124.170364 C 128.726563 129.238831 128.726563 137.457047 133.792892 142.525497 L 153.776367 162.517929 L 173.759857 142.525497 C 178.825928 137.457047 178.825928 129.238831 173.759857 124.170364 C 168.690384 119.102051 160.479126 119.102051 155.413071 124.170364 Z"/>
        <path id="path7" fill="#ff0000" stroke="none" d="M 105.143822 172.058044 L 103.507133 173.695602 L 101.870438 172.058044 C 96.804108 166.9897 88.589714 166.9897 83.523384 172.058044 C 78.457581 177.126511 78.457581 185.344711 83.523384 190.413177 L 103.507133 210.405609 L 123.490616 190.413177 C 128.556946 185.344711 128.556946 177.126511 123.490616 172.058044 C 118.424545 166.9897 110.209892 166.9897 105.143822 172.058044 Z"/>
        <path id="path8" fill="#ff0000" stroke="none" d="M 153.741501 71.519653 L 173.72525 51.527374 C 178.791321 46.458771 178.791321 38.24057 173.72525 33.172089 C 168.655777 28.103882 160.444519 28.103882 155.378204 33.172089 L 153.741501 34.809509 L 152.105072 33.172089 C 147.039017 28.103882 138.824081 28.103882 133.758026 33.172089 C 128.691956 38.24057 128.691956 46.458771 133.758026 51.527374 L 153.741501 71.519653 Z"/>
        <path id="path9" fill="#ff0000" stroke="none" d="M 153.741501 307.145233 L 133.758026 327.134308 C 128.691956 332.202759 128.691956 340.421234 133.758026 345.489502 L 133.758026 345.489502 C 138.824081 350.557983 147.039017 350.557983 152.105072 345.489502 L 153.741501 343.852081 L 155.378204 345.489502 C 160.444519 350.557983 168.655777 350.557983 173.72525 345.489502 C 178.791321 340.421234 178.791321 332.202759 173.72525 327.134308 L 153.741501 307.145233 Z"/>
    </g>
</svg>
