<?xml version="1.0" encoding="UTF-8"?>
<!-- Generated by Pixelmator Pro 3.7 -->
<svg width="360" height="539" viewBox="0 0 360 539" xmlns="http://www.w3.org/2000/svg">
    <g id="Group-copy">
        <path id="Path" fill="#ffffff" stroke="none" d="M 17.217655 538.515991 L 342.080933 538.515991 C 351.390137 538.515991 358.936279 530.973816 358.936279 521.669312 L 358.936279 17.772827 C 358.936279 8.46814 351.390137 0.925903 342.080933 0.925903 L 17.217655 0.925903 C 7.908033 0.925903 0.362121 8.46814 0.362121 17.772827 L 0.362121 521.669312 C 0.362121 530.973816 7.908033 538.515991 17.217655 538.515991 Z"/>
        <path id="path1" fill="#b4171e" stroke="none" d="M 73.906815 91.548492 L 62.468998 91.548492 L 61.960529 95.09494 C 61.377033 99.115692 60.31279 102.060242 58.77718 103.841187 C 57.491501 105.341644 56.065254 106.015411 54.164631 106.015411 L 31.788387 106.015411 C 32.968128 104.586823 34.460026 102.855804 36.326199 100.747131 C 41.634792 94.761292 49.296257 86.932068 59.023685 77.549438 C 63.545746 73.403931 66.916382 68.959167 69.038437 64.336487 C 71.169815 59.67334 72.252998 54.919464 72.252998 50.222137 C 72.252998 42.957397 69.868683 36.781372 65.15609 31.8685 C 60.402981 26.905945 53.225502 24.395081 43.825687 24.395081 C 37.096981 24.395081 30.711639 26.572266 24.83848 30.876801 C 18.578249 35.474487 15.401092 42.15567 15.401092 50.739716 C 15.401092 54.62326 16.415432 57.61145 18.412849 59.59848 C 19.788958 60.973938 22.263699 62.620941 26.252222 62.620941 C 29.107723 62.620941 31.395416 61.781982 33.052422 60.119354 C 34.715855 58.4599 35.558422 56.173615 35.558422 53.322449 C 35.558422 51.036163 34.756435 48.812073 32.790222 46.263763 C 32.191208 45.671082 31.938332 44.997375 31.938332 44.02417 C 31.938332 41.865662 32.796593 40.25293 34.712669 38.783844 C 36.912884 37.093262 39.556267 36.276062 42.792412 36.276062 C 47.058411 36.276062 50.082733 37.398956 52.030071 39.707184 C 54.130241 42.20578 55.197674 46.089081 55.197674 51.257721 C 55.197674 55.028778 53.971214 59.236694 51.552746 63.772034 C 48.990471 68.566101 44.880081 73.803192 39.353233 79.330444 C 32.709351 85.968292 27.31328 91.80426 23.315435 96.676453 C 19.146 101.751587 16.222013 105.840729 14.371532 109.172028 L 13.850205 110.107849 L 13.850205 122.029388 L 69.647011 122.029388 L 73.906815 91.548492 Z"/>
        <path id="path2" fill="#b4171e" stroke="none" d="M 285.391479 447.893585 L 296.829285 447.893585 L 297.337952 444.346985 C 297.921509 440.326477 298.985626 437.381836 300.521118 435.600708 C 301.806793 434.100494 303.23291 433.426697 305.133667 433.426697 L 327.509796 433.426697 C 326.33017 434.855255 324.838379 436.586639 322.972198 438.695221 C 317.663727 444.680817 310.002045 452.51004 300.271423 461.89267 C 295.74942 466.037964 292.382019 470.482941 290.259857 475.105652 C 288.128479 479.769012 287.04541 484.51947 287.04541 489.220154 C 287.04541 496.484772 289.429718 502.660736 294.142212 507.573456 C 298.89502 512.536133 306.073029 515.047241 315.472961 515.047241 C 322.201202 515.047241 328.586426 512.869873 334.45993 508.565521 C 340.720276 503.967865 343.897095 497.283264 343.897095 488.702209 C 343.897095 484.815826 342.882874 481.830658 340.885559 479.843811 C 339.509216 478.46814 337.034424 476.821167 333.046082 476.821167 C 330.19046 476.821167 327.902985 477.660309 326.245697 479.322784 C 324.58255 480.978973 323.739868 483.268707 323.739868 486.119507 C 323.739868 488.405945 324.541962 490.629852 326.508057 493.178406 C 327.104126 493.771027 327.359955 494.444733 327.359955 495.41803 C 327.359955 497.576447 326.501801 499.189056 324.585754 500.658173 C 322.385406 502.348877 319.742126 503.166046 316.50589 503.166046 C 312.239655 503.166046 309.215668 502.043152 307.268219 499.731934 C 305.167816 497.236572 304.100494 493.353058 304.100494 488.184601 C 304.100494 484.41333 305.327087 480.205414 307.745789 475.670258 C 310.307953 470.875977 314.417969 465.638763 319.944946 460.11142 C 326.589294 453.470795 331.985016 447.637878 335.982605 442.762634 C 340.152069 437.690735 343.076447 433.601349 344.927185 430.27002 L 345.448212 429.334351 L 345.448212 417.412628 L 289.651154 417.412628 L 285.391479 447.893585 Z"/>
        <path id="path3" fill="#000000" stroke="none" d="M 273.273315 438.760529 L 273.273315 100.68158 L 86.024986 100.68158 L 86.024986 438.760529 L 273.273315 438.760529 Z M 87.039322 101.685913 L 272.258972 101.685913 L 272.256012 437.756226 L 87.039322 437.756226 L 87.039322 101.685913 Z"/>
        <path id="path4" fill="#b4171e" stroke="none" d="M 179.742813 125.87558 C 177.514282 129.705719 174.122299 134.559204 169.004227 139.512726 C 164.978378 143.414703 160.921249 146.371826 157.457001 148.564484 C 160.921249 150.754395 164.978378 153.714355 169.004227 157.613434 C 174.122299 162.566742 177.514282 167.420197 179.742813 171.250641 C 181.970993 167.420197 185.363281 162.566742 190.4814 157.613434 C 194.507263 153.714355 198.564331 150.754395 202.031525 148.564484 C 198.564331 146.371826 194.507263 143.414703 190.4814 139.512726 C 185.363281 134.559204 181.970993 129.705719 179.742813 125.87558 Z"/>
        <path id="path5" fill="#b4171e" stroke="none" d="M 179.742813 368.166565 C 177.514282 371.996887 174.122299 376.850403 169.004227 381.806946 C 164.978378 385.705994 160.921249 388.665985 157.457001 390.855713 C 160.921249 393.045349 164.978378 396.005615 169.004227 399.904663 C 174.122299 404.857758 177.514282 409.714447 179.742813 413.54187 C 181.970993 409.714447 185.363281 404.857758 190.4814 399.904663 C 194.507263 396.005615 198.564331 393.045349 202.031525 390.855713 C 198.564331 388.665985 194.507263 385.705994 190.4814 381.806946 C 185.363281 376.850403 181.970993 371.996887 179.742813 368.166565 Z"/>
        <path id="path6" fill="#b4171e" stroke="none" d="M 43.647488 136.355865 C 40.773109 141.299988 36.391613 147.566528 29.788021 153.963989 C 24.591974 158.995148 19.352219 162.816315 14.88006 165.642303 C 19.352219 168.471283 24.591974 172.29245 29.788021 177.323853 C 36.391613 183.721252 40.773109 189.98761 43.647488 194.931702 C 46.525051 189.98761 50.903419 183.721252 57.510197 177.323853 C 62.706184 172.29245 67.94323 168.471283 72.418396 165.642303 C 67.94323 162.816315 62.706184 158.995148 57.510197 153.963989 C 50.903419 147.566528 46.525051 141.299988 43.647488 136.355865 Z"/>
        <path id="path7" fill="#b4171e" stroke="none" d="M 315.837982 403.085999 C 318.715424 398.142181 323.093964 391.875824 329.697449 385.481445 C 334.893616 380.446777 340.133606 376.625854 344.60556 373.799866 C 340.133606 370.970581 334.893616 367.149658 329.697449 362.118408 C 323.093964 355.720886 318.715424 349.454254 315.837982 344.510437 C 312.960632 349.454254 308.582031 355.720886 301.975372 362.118408 C 296.779144 367.149658 291.54245 370.970581 287.067169 373.799866 C 291.54245 376.625854 296.779144 380.446777 301.975372 385.481445 C 308.582031 391.875824 312.960632 398.142181 315.837982 403.085999 Z"/>
    </g>
</svg>
