<?xml version="1.0" encoding="UTF-8"?>
<!-- Generated by Pixelmator Pro 3.7 -->
<svg width="208" height="376" viewBox="0 0 208 376" xmlns="http://www.w3.org/2000/svg">
    <g id="Group-copy">
        <path id="Path" fill="#000000" stroke="none" d="M 207.710419 376.522308 L 207.710419 0.826721 L -0.332792 0.826721 L -0.332792 376.522308 L 207.710419 376.522308 Z M 0.794253 1.942932 L 206.579956 1.942932 L 206.579956 375.406433 L 0.794253 375.406433 L 0.794253 1.942932 Z"/>
        <path id="path1" fill="#ff0000" stroke="none" d="M 53.438442 28.894562 C 50.962563 33.151215 47.193424 38.544861 41.506817 44.049622 C 37.033504 48.38266 32.525848 51.672394 28.676752 54.105804 C 32.525848 56.539276 37.033504 59.828827 41.506817 64.161926 C 47.193424 69.670166 50.962563 75.063904 53.438442 79.317108 C 55.914585 75.063904 59.683723 69.670166 65.366928 64.161926 C 69.839973 59.828827 74.347893 56.539276 78.200401 54.105804 C 74.347893 51.672394 69.839973 48.38266 65.366928 44.049622 C 59.683723 38.544861 55.914585 33.151215 53.438442 28.894562 Z"/>
        <path id="path2" fill="#ff0000" stroke="none" d="M 153.938919 28.894562 C 151.463028 33.151215 147.693893 38.544861 142.010437 44.049622 C 137.537384 48.38266 133.026062 51.672394 129.176956 54.105804 C 133.026062 56.539276 137.537384 59.828827 142.010437 64.161926 C 147.693893 69.670166 151.463028 75.063904 153.938919 79.317108 C 156.414795 75.063904 160.183929 69.670166 165.870804 64.161926 C 170.343857 59.828827 174.851776 56.539276 178.700607 54.105804 C 174.851776 51.672394 170.343857 48.38266 165.870804 44.049622 C 160.183929 38.544861 156.414795 33.151215 153.938919 28.894562 Z"/>
        <path id="path3" fill="#ff0000" stroke="none" d="M 53.438442 163.520401 C 50.962563 167.773849 47.193424 173.167374 41.506817 178.675659 C 37.033504 183.008713 32.525848 186.298203 28.676752 188.731674 C 32.525848 191.165115 37.033504 194.454895 41.506817 198.787918 C 47.193424 204.292633 50.962563 209.686417 53.438442 213.943207 C 55.914585 209.686417 59.683723 204.292633 65.366928 198.787918 C 69.839973 194.454895 74.347893 191.165115 78.200401 188.731674 C 74.347893 186.298203 69.839973 183.008713 65.366928 178.675659 C 59.683723 173.167374 55.914585 167.773849 53.438442 163.520401 Z"/>
        <path id="path4" fill="#ff0000" stroke="none" d="M 153.938919 163.520401 C 151.463028 167.773849 147.693893 173.167374 142.010437 178.675659 C 137.537384 183.008713 133.026062 186.298203 129.176956 188.731674 C 133.026062 191.165115 137.537384 194.454895 142.010437 198.787918 C 147.693893 204.292633 151.463028 209.686417 153.938919 213.943207 C 156.414795 209.686417 160.183929 204.292633 165.870804 198.787918 C 170.343857 194.454895 174.851776 191.165115 178.700607 188.731674 C 174.851776 186.298203 170.343857 183.008713 165.870804 178.675659 C 160.183929 173.167374 156.414795 167.773849 153.938919 163.520401 Z"/>
        <path id="path5" fill="#ff0000" stroke="none" d="M 103.686974 94.6008 C 101.211098 98.857483 97.441956 104.251312 91.758492 109.755981 C 87.285446 114.08905 82.777527 117.378601 78.925285 119.812073 C 82.777527 122.245438 87.285446 125.535233 91.758492 129.86824 C 97.441956 135.376572 101.211098 140.770355 103.686974 145.026886 C 106.166267 140.770355 109.935661 135.376572 115.618866 129.86824 C 120.092178 125.535233 124.599831 122.245438 128.452332 119.812073 C 124.599831 117.378601 120.092178 114.08905 115.618866 109.755981 C 109.935661 104.251312 106.166267 98.857483 103.686974 94.6008 Z"/>
        <path id="path6" fill="#ff0000" stroke="none" d="M 53.438442 298.142853 C 50.962563 302.399628 47.193424 307.793396 41.506817 313.301575 C 37.033504 317.634613 32.525848 320.924255 28.676752 323.357788 C 32.525848 325.791138 37.033504 329.080933 41.506817 333.413971 C 47.193424 338.918427 50.962563 344.312225 53.438442 348.569244 C 55.914585 344.312225 59.683723 338.918427 65.366928 333.413971 C 69.839973 329.080933 74.347893 325.791138 78.200401 323.357788 C 74.347893 320.924255 69.839973 317.634613 65.366928 313.301575 C 59.683723 307.793396 55.914585 302.399628 53.438442 298.142853 Z"/>
        <path id="path7" fill="#ff0000" stroke="none" d="M 153.938919 298.142853 C 151.463028 302.399628 147.693893 307.793396 142.010437 313.301575 C 137.537384 317.634613 133.026062 320.924255 129.176956 323.357788 C 133.026062 325.791138 137.537384 329.080933 142.010437 333.413971 C 147.693893 338.918427 151.463028 344.312225 153.938919 348.569244 C 156.414795 344.312225 160.183929 338.918427 165.870804 333.413971 C 170.343857 329.080933 174.851776 325.791138 178.700607 323.357788 C 174.851776 320.924255 170.343857 317.634613 165.870804 313.301575 C 160.183929 307.793396 156.414795 302.399628 153.938919 298.142853 Z"/>
    </g>
</svg>
