<?xml version="1.0" encoding="UTF-8"?>
<!-- Generated by Pixelmator Pro 3.7 -->
<svg width="208" height="376" viewBox="0 0 208 376" xmlns="http://www.w3.org/2000/svg">
    <g id="Group-copy">
        <path id="Path" fill="#000000" stroke="none" d="M 207.800339 376.522308 L 207.800339 0.826721 L -0.242869 0.826721 L -0.242869 376.522308 L 207.800339 376.522308 Z M 0.884176 1.942932 L 206.673294 1.942932 L 206.669876 375.406433 L 0.884176 375.406433 L 0.884176 1.942932 Z"/>
        <path id="path1" fill="#ff0000" stroke="none" d="M 53.528366 28.894562 C 51.052486 33.151215 47.283348 38.544861 41.599884 44.049622 C 37.126835 48.38266 32.615772 51.672394 28.766674 54.105804 C 32.615772 56.539276 37.126835 59.828827 41.599884 64.161926 C 47.283348 69.670166 51.052486 75.063904 53.528366 79.317108 C 56.004509 75.063904 59.773647 69.670166 65.460258 64.161926 C 69.933571 59.828827 74.441483 56.539276 78.290321 54.105804 C 74.441483 51.672394 69.933571 48.38266 65.460258 44.049622 C 59.773647 38.544861 56.004509 33.151215 53.528366 28.894562 Z"/>
        <path id="path2" fill="#ff0000" stroke="none" d="M 154.032242 28.894562 C 151.556366 33.151215 147.787231 38.544861 142.100357 44.049622 C 137.627304 48.38266 133.119385 51.672394 129.267151 54.105804 C 133.119385 56.539276 137.627304 59.828827 142.100357 64.161926 C 147.787231 69.670166 151.556366 75.063904 154.032242 79.317108 C 156.508392 75.063904 160.277527 69.670166 165.960724 64.161926 C 170.433777 59.828827 174.941696 56.539276 178.794205 54.105804 C 174.941696 51.672394 170.433777 48.38266 165.960724 44.049622 C 160.277527 38.544861 156.508392 33.151215 154.032242 28.894562 Z"/>
        <path id="path3" fill="#ff0000" stroke="none" d="M 53.528366 163.520401 C 51.052486 167.773849 47.283348 173.167374 41.599884 178.675659 C 37.126835 183.008713 32.615772 186.298203 28.766674 188.731674 C 32.615772 191.165115 37.126835 194.454895 41.599884 198.787918 C 47.283348 204.292633 51.052486 209.686417 53.528366 213.943207 C 56.004509 209.686417 59.773647 204.292633 65.460258 198.787918 C 69.933571 194.454895 74.441483 191.165115 78.290321 188.731674 C 74.441483 186.298203 69.933571 183.008713 65.460258 178.675659 C 59.773647 173.167374 56.004509 167.773849 53.528366 163.520401 Z"/>
        <path id="path4" fill="#ff0000" stroke="none" d="M 154.032242 163.520401 C 151.556366 167.773849 147.787231 173.167374 142.100357 178.675659 C 137.627304 183.008713 133.119385 186.298203 129.267151 188.731674 C 133.119385 191.165115 137.627304 194.454895 142.100357 198.787918 C 147.787231 204.292633 151.556366 209.686417 154.032242 213.943207 C 156.508392 209.686417 160.277527 204.292633 165.960724 198.787918 C 170.433777 194.454895 174.941696 191.165115 178.794205 188.731674 C 174.941696 186.298203 170.433777 183.008713 165.960724 178.675659 C 160.277527 173.167374 156.508392 167.773849 154.032242 163.520401 Z"/>
        <path id="path5" fill="#ff0000" stroke="none" d="M 53.528366 298.142853 C 51.052486 302.399628 47.283348 307.793396 41.599884 313.301575 C 37.126835 317.634613 32.615772 320.924255 28.766674 323.357788 C 32.615772 325.791138 37.126835 329.080933 41.599884 333.413971 C 47.283348 338.918427 51.052486 344.312225 53.528366 348.569244 C 56.004509 344.312225 59.773647 338.918427 65.460258 333.413971 C 69.933571 329.080933 74.441483 325.791138 78.290321 323.357788 C 74.441483 320.924255 69.933571 317.634613 65.460258 313.301575 C 59.773647 307.793396 56.004509 302.399628 53.528366 298.142853 Z"/>
        <path id="path6" fill="#ff0000" stroke="none" d="M 154.032242 298.142853 C 151.556366 302.399628 147.787231 307.793396 142.100357 313.301575 C 137.627304 317.634613 133.119385 320.924255 129.267151 323.357788 C 133.119385 325.791138 137.627304 329.080933 142.100357 333.413971 C 147.787231 338.918427 151.556366 344.312225 154.032242 348.569244 C 156.508392 344.312225 160.277527 338.918427 165.960724 333.413971 C 170.433777 329.080933 174.941696 325.791138 178.794205 323.357788 C 174.941696 320.924255 170.433777 317.634613 165.960724 313.301575 C 160.277527 307.793396 156.508392 302.399628 154.032242 298.142853 Z"/>
    </g>
</svg>
