<?xml version="1.0" encoding="UTF-8"?>
<!-- Generated by Pixelmator Pro 3.7 -->
<svg width="209" height="378" viewBox="0 0 209 378" xmlns="http://www.w3.org/2000/svg">
    <path id="Path-copy-4" fill="#000000" stroke="none" d="M 207.550629 377.218567 L 207.550629 0.878113 L -0.503067 0.878113 L -0.503067 377.218567 L 207.550629 377.218567 Z M 0.627386 1.996429 L 206.423584 1.996429 L 206.423584 376.100586 L 0.627386 376.100586 L 0.627386 1.996429 Z"/>
    <path id="Path-copy-3" fill="#ff0000" stroke="none" d="M 104.739128 77.135712 L 129.944977 51.895996 C 136.339279 45.497223 136.339279 35.12204 129.944977 28.723297 C 123.55497 22.324707 113.193375 22.324707 106.803375 28.723297 L 104.739128 30.790466 L 102.674545 28.723297 C 96.284714 22.324707 85.923279 22.324707 79.533279 28.723297 C 73.143112 35.12204 73.143112 45.497223 79.533279 51.895996 L 104.739128 77.135712 Z"/>
    <path id="Path-copy-2" fill="#ff0000" stroke="none" d="M 104.739128 216.153259 L 129.944977 190.913208 C 136.339279 184.51445 136.339279 174.139252 129.944977 167.740494 C 123.55497 161.341904 113.193375 161.341904 106.803375 167.740494 L 104.739128 169.808029 L 102.674545 167.740494 C 96.284714 161.341904 85.923279 161.341904 79.533279 167.740494 C 73.143112 174.139252 73.143112 184.51445 79.533279 190.913208 L 104.739128 216.153259 Z"/>
    <path id="Path-copy" fill="#ff0000" stroke="none" d="M 79.533279 350.375092 C 85.923279 356.77359 96.284714 356.77359 102.674545 350.375092 L 104.739128 348.307587 L 106.803375 350.375092 C 113.193375 356.77359 123.55497 356.77359 129.944977 350.375092 C 136.339279 343.971802 136.339279 333.601074 129.944977 327.197754 L 104.739128 301.95813 L 79.533279 327.197754 C 73.143112 333.601074 73.143112 343.971802 79.533279 350.375092 L 79.533279 350.375092 Z"/>
</svg>
